<?xml version="1.0" encoding="utf-8" standalone="no"?>
<!DOCTYPE svg PUBLIC "-//W3C//DTD SVG 1.1//EN"
  "http://www.w3.org/Graphics/SVG/1.1/DTD/svg11.dtd">
<!-- Created with matplotlib (https://matplotlib.org/) -->
<svg height="373.491875pt" version="1.1" viewBox="0 0 837.880953 373.491875" width="837.880953pt" xmlns="http://www.w3.org/2000/svg" xmlns:xlink="http://www.w3.org/1999/xlink">
 <defs>
  <style type="text/css">
*{stroke-linecap:butt;stroke-linejoin:round;}
  </style>
 </defs>
 <g id="figure_1">
  <g id="patch_1">
   <path d="M 0 373.491875 
L 837.880953 373.491875 
L 837.880953 0 
L 0 0 
z
" style="fill:#1d1e28;"/>
  </g>
  <g id="axes_1">
   <g id="PolyCollection_1">
    <defs>
     <path d="M 77.892374 -75.680508 
L 77.892374 -75.680508 
L 78.489354 -75.840812 
L 79.086334 -76.002226 
L 79.683315 -76.164756 
L 80.280295 -76.328408 
L 80.877275 -76.493189 
L 81.474255 -76.659105 
L 82.071236 -76.826163 
L 82.668216 -76.994368 
L 83.265196 -77.163727 
L 83.862176 -77.334247 
L 84.459156 -77.505933 
L 85.056137 -77.678792 
L 85.653117 -77.852831 
L 86.250097 -78.028056 
L 86.847077 -78.204473 
L 87.444058 -78.382089 
L 88.041038 -78.56091 
L 88.638018 -78.740942 
L 89.234998 -78.922192 
L 89.831978 -79.104667 
L 90.428959 -79.288373 
L 91.025939 -79.473316 
L 91.622919 -79.659502 
L 92.219899 -79.846939 
L 92.81688 -80.035633 
L 93.41386 -80.22559 
L 94.01084 -80.416817 
L 94.60782 -80.60932 
L 95.2048 -80.803105 
L 95.801781 -80.99818 
L 96.398761 -81.19455 
L 96.995741 -81.392223 
L 97.592721 -81.591204 
L 98.189702 -81.7915 
L 98.786682 -81.993118 
L 99.383662 -82.196064 
L 99.980642 -82.400345 
L 100.577622 -82.605967 
L 101.174603 -82.812937 
L 101.771583 -83.021261 
L 102.368563 -83.230945 
L 102.965543 -83.441996 
L 103.562524 -83.654421 
L 104.159504 -83.868227 
L 104.756484 -84.083418 
L 105.353464 -84.300003 
L 105.950444 -84.517987 
L 106.547425 -84.737377 
L 107.144405 -84.958179 
L 107.741385 -85.1804 
L 108.338365 -85.404046 
L 108.935346 -85.629124 
L 109.532326 -85.85564 
L 110.129306 -86.0836 
L 110.726286 -86.313011 
L 111.323266 -86.543879 
L 111.920247 -86.77621 
L 112.517227 -87.010011 
L 113.114207 -87.245288 
L 113.711187 -87.482047 
L 114.308168 -87.720295 
L 114.905148 -87.960038 
L 115.502128 -88.201282 
L 116.099108 -88.444034 
L 116.696088 -88.688299 
L 117.293069 -88.934083 
L 117.890049 -89.181394 
L 118.487029 -89.430236 
L 119.084009 -89.680617 
L 119.68099 -89.932541 
L 120.27797 -90.186016 
L 120.87495 -90.441048 
L 121.47193 -90.697641 
L 122.06891 -90.955803 
L 122.665891 -91.215539 
L 123.262871 -91.476855 
L 123.859851 -91.739757 
L 124.456831 -92.00425 
L 125.053812 -92.270342 
L 125.650792 -92.538037 
L 126.247772 -92.807341 
L 126.844752 -93.07826 
L 127.441732 -93.350799 
L 128.038713 -93.624965 
L 128.635693 -93.900762 
L 129.232673 -94.178197 
L 129.829653 -94.457275 
L 130.426634 -94.738001 
L 131.023614 -95.02038 
L 131.620594 -95.304419 
L 132.217574 -95.590123 
L 132.814554 -95.877496 
L 133.411535 -96.166544 
L 134.008515 -96.457272 
L 134.605495 -96.749686 
L 135.202475 -97.04379 
L 135.799456 -97.33959 
L 136.396436 -97.63709 
L 136.993416 -97.936296 
L 137.590396 -98.237212 
L 138.187376 -98.539844 
L 138.784357 -98.844195 
L 139.381337 -99.150271 
L 139.978317 -99.458076 
L 140.575297 -99.767615 
L 141.172278 -100.078893 
L 141.769258 -100.391914 
L 142.366238 -100.706682 
L 142.963218 -101.023201 
L 143.560198 -101.341477 
L 144.157179 -101.661513 
L 144.754159 -101.983313 
L 145.351139 -102.306881 
L 145.948119 -102.632222 
L 146.5451 -102.959339 
L 147.14208 -103.288236 
L 147.73906 -103.618918 
L 148.33604 -103.951387 
L 148.93302 -104.285647 
L 149.530001 -104.621702 
L 150.126981 -104.959555 
L 150.723961 -105.29921 
L 151.320941 -105.64067 
L 151.917922 -105.983938 
L 152.514902 -106.329018 
L 153.111882 -106.675912 
L 153.708862 -107.024624 
L 154.305842 -107.375155 
L 154.902823 -107.72751 
L 155.499803 -108.081691 
L 156.096783 -108.4377 
L 156.693763 -108.79554 
L 157.290744 -109.155213 
L 157.887724 -109.516722 
L 158.484704 -109.880069 
L 159.081684 -110.245256 
L 159.678664 -110.612285 
L 160.275645 -110.981158 
L 160.872625 -111.351877 
L 161.469605 -111.724443 
L 162.066585 -112.098859 
L 162.663566 -112.475125 
L 163.260546 -112.853244 
L 163.857526 -113.233216 
L 164.454506 -113.615043 
L 165.051486 -113.998725 
L 165.648467 -114.384265 
L 166.245447 -114.771662 
L 166.842427 -115.160917 
L 167.439407 -115.552032 
L 168.036388 -115.945006 
L 168.633368 -116.33984 
L 169.230348 -116.736534 
L 169.827328 -117.135089 
L 170.424308 -117.535505 
L 171.021289 -117.937781 
L 171.618269 -118.341917 
L 172.215249 -118.747913 
L 172.812229 -119.155769 
L 173.40921 -119.565483 
L 174.00619 -119.977057 
L 174.60317 -120.390487 
L 175.20015 -120.805774 
L 175.79713 -121.222917 
L 176.394111 -121.641914 
L 176.991091 -122.062764 
L 177.588071 -122.485465 
L 178.185051 -122.910016 
L 178.782032 -123.336416 
L 179.379012 -123.764661 
L 179.975992 -124.194751 
L 180.572972 -124.626683 
L 181.169952 -125.060455 
L 181.766933 -125.496064 
L 182.363913 -125.933508 
L 182.960893 -126.372785 
L 183.557873 -126.81389 
L 184.154854 -127.256822 
L 184.751834 -127.701577 
L 185.348814 -128.148152 
L 185.945794 -128.596543 
L 186.542774 -129.046747 
L 187.139755 -129.498761 
L 187.736735 -129.952579 
L 188.333715 -130.408199 
L 188.930695 -130.865616 
L 189.527676 -131.324826 
L 190.124656 -131.785824 
L 190.721636 -132.248605 
L 191.318616 -132.713166 
L 191.915596 -133.1795 
L 192.512577 -133.647604 
L 193.109557 -134.117471 
L 193.706537 -134.589096 
L 194.303517 -135.062474 
L 194.900498 -135.537599 
L 195.497478 -136.014466 
L 196.094458 -136.493067 
L 196.691438 -136.973397 
L 197.288418 -137.45545 
L 197.885399 -137.93922 
L 198.482379 -138.424698 
L 199.079359 -138.91188 
L 199.676339 -139.400757 
L 200.27332 -139.891323 
L 200.8703 -140.38357 
L 201.46728 -140.877491 
L 202.06426 -141.373078 
L 202.66124 -141.870324 
L 203.258221 -142.36922 
L 203.855201 -142.869759 
L 204.452181 -143.371932 
L 205.049161 -143.875732 
L 205.646142 -144.381148 
L 206.243122 -144.888173 
L 206.840102 -145.396798 
L 207.437082 -145.907013 
L 208.034062 -146.41881 
L 208.631043 -146.932179 
L 209.228023 -147.447111 
L 209.825003 -147.963595 
L 210.421983 -148.481622 
L 211.018964 -149.001183 
L 211.615944 -149.522266 
L 212.212924 -150.044862 
L 212.809904 -150.56896 
L 213.406884 -151.094549 
L 214.003865 -151.621619 
L 214.600845 -152.150158 
L 215.197825 -152.680156 
L 215.794805 -153.211601 
L 216.391786 -153.744482 
L 216.988766 -154.278788 
L 217.585746 -154.814505 
L 218.182726 -155.351624 
L 218.779706 -155.890131 
L 219.376687 -156.430014 
L 219.973667 -156.971261 
L 220.570647 -157.51386 
L 221.167627 -158.057798 
L 221.764608 -158.603061 
L 222.361588 -159.149638 
L 222.958568 -159.697515 
L 223.555548 -160.246678 
L 224.152528 -160.797115 
L 224.749509 -161.348812 
L 225.346489 -161.901754 
L 225.943469 -162.455929 
L 226.540449 -163.011323 
L 227.13743 -163.56792 
L 227.73441 -164.125708 
L 228.33139 -164.684671 
L 228.92837 -165.244795 
L 229.525351 -165.806066 
L 230.122331 -166.368468 
L 230.719311 -166.931987 
L 231.316291 -167.496607 
L 231.913271 -168.062314 
L 232.510252 -168.629092 
L 233.107232 -169.196925 
L 233.704212 -169.765799 
L 234.301192 -170.335696 
L 234.898173 -170.906603 
L 235.495153 -171.478502 
L 236.092133 -172.051377 
L 236.689113 -172.625213 
L 237.286093 -173.199993 
L 237.883074 -173.7757 
L 238.480054 -174.352319 
L 239.077034 -174.929832 
L 239.674014 -175.508222 
L 240.270995 -176.087474 
L 240.867975 -176.667569 
L 241.464955 -177.248491 
L 242.061935 -177.830222 
L 242.658915 -178.412746 
L 243.255896 -178.996045 
L 243.852876 -179.580101 
L 244.449856 -180.164898 
L 245.046836 -180.750416 
L 245.643817 -181.336639 
L 246.240797 -181.923549 
L 246.837777 -182.511127 
L 247.434757 -183.099356 
L 248.031737 -183.688218 
L 248.628718 -184.277694 
L 249.225698 -184.867766 
L 249.822678 -185.458417 
L 250.419658 -186.049626 
L 251.016639 -186.641377 
L 251.613619 -187.23365 
L 252.210599 -187.826427 
L 252.807579 -188.41969 
L 253.404559 -189.013418 
L 254.00154 -189.607595 
L 254.59852 -190.2022 
L 255.1955 -190.797215 
L 255.79248 -191.392622 
L 256.389461 -191.9884 
L 256.986441 -192.584531 
L 257.583421 -193.180996 
L 258.180401 -193.777775 
L 258.777381 -194.37485 
L 259.374362 -194.972201 
L 259.971342 -195.569809 
L 260.568322 -196.167655 
L 261.165302 -196.765719 
L 261.762283 -197.363982 
L 262.359263 -197.962425 
L 262.956243 -198.561028 
L 263.553223 -199.159772 
L 264.150203 -199.758638 
L 264.747184 -200.357605 
L 265.344164 -200.956654 
L 265.941144 -201.555767 
L 266.538124 -202.154923 
L 267.135105 -202.754103 
L 267.732085 -203.353288 
L 268.329065 -203.952457 
L 268.926045 -204.551592 
L 269.523025 -205.150673 
L 270.120006 -205.749681 
L 270.716986 -206.348595 
L 271.313966 -206.947397 
L 271.910946 -207.546067 
L 272.507927 -208.144586 
L 273.104907 -208.742935 
L 273.701887 -209.341093 
L 274.298867 -209.939041 
L 274.895847 -210.536761 
L 275.492828 -211.134233 
L 276.089808 -211.731437 
L 276.686788 -212.328359 
L 277.283768 -212.924974 
L 277.880749 -213.521265 
L 278.477729 -214.117211 
L 279.074709 -214.712795 
L 279.671689 -215.307996 
L 280.268669 -215.902795 
L 280.86565 -216.497175 
L 281.46263 -217.091116 
L 282.05961 -217.684599 
L 282.65659 -218.277605 
L 283.253571 -218.870116 
L 283.850551 -219.462113 
L 284.447531 -220.053577 
L 285.044511 -220.644491 
L 285.641491 -221.234835 
L 286.238472 -221.824591 
L 286.835452 -222.413741 
L 287.432432 -223.002267 
L 288.029412 -223.59015 
L 288.626393 -224.177373 
L 289.223373 -224.763918 
L 289.820353 -225.349766 
L 290.417333 -225.9349 
L 291.014313 -226.519302 
L 291.611294 -227.102955 
L 292.208274 -227.685841 
L 292.805254 -228.267942 
L 293.402234 -228.849242 
L 293.999215 -229.429723 
L 294.596195 -230.009368 
L 295.193175 -230.58816 
L 295.790155 -231.166083 
L 296.387135 -231.743118 
L 296.984116 -232.31925 
L 297.581096 -232.894462 
L 298.178076 -233.468737 
L 298.775056 -234.042059 
L 299.372037 -234.614413 
L 299.969017 -235.185781 
L 300.565997 -235.756148 
L 301.162977 -236.325498 
L 301.759957 -236.893815 
L 302.356938 -237.461083 
L 302.953918 -238.027288 
L 303.550898 -238.592413 
L 304.147878 -239.156443 
L 304.744859 -239.719364 
L 305.341839 -240.28116 
L 305.938819 -240.841816 
L 306.535799 -241.401318 
L 307.132779 -241.959667 
L 307.72976 -242.516833 
L 308.32674 -243.072801 
L 308.92372 -243.627556 
L 309.5207 -244.181086 
L 310.117681 -244.733376 
L 310.714661 -245.284413 
L 311.311641 -245.834182 
L 311.908621 -246.38267 
L 312.505601 -246.929864 
L 313.102582 -247.475752 
L 313.699562 -248.020319 
L 314.296542 -248.563553 
L 314.893522 -249.105441 
L 315.490503 -249.64597 
L 316.087483 -250.185129 
L 316.684463 -250.722905 
L 317.281443 -251.259286 
L 317.878423 -251.794259 
L 318.475404 -252.327814 
L 319.072384 -252.859938 
L 319.669364 -253.39062 
L 320.266344 -253.919848 
L 320.863325 -254.447612 
L 321.460305 -254.9739 
L 322.057285 -255.498701 
L 322.654265 -256.040579 
L 323.251245 -256.580838 
L 323.848226 -257.11947 
L 324.445206 -257.65646 
L 325.042186 -258.1918 
L 325.639166 -258.725477 
L 326.236147 -259.257481 
L 326.833127 -259.787801 
L 327.430107 -260.316426 
L 328.027087 -260.843348 
L 328.624067 -261.368554 
L 329.221048 -261.892037 
L 329.818028 -262.413785 
L 330.415008 -262.933789 
L 331.011988 -263.45204 
L 331.608969 -263.968529 
L 332.205949 -264.483248 
L 332.802929 -264.996186 
L 333.399909 -265.507336 
L 333.996889 -266.016688 
L 334.59387 -266.524236 
L 335.19085 -267.029971 
L 335.78783 -267.533884 
L 336.38481 -268.035969 
L 336.981791 -268.536218 
L 337.578771 -269.034623 
L 338.175751 -269.561989 
L 338.772731 -270.087258 
L 339.369711 -270.610424 
L 339.966692 -271.131477 
L 340.563672 -271.65041 
L 341.160652 -272.167216 
L 341.757632 -272.681888 
L 342.354613 -273.194419 
L 342.951593 -273.704802 
L 343.548573 -274.21303 
L 344.145553 -274.719097 
L 344.742533 -275.222998 
L 345.339514 -275.724726 
L 345.936494 -276.224276 
L 346.533474 -276.721642 
L 347.130454 -277.21682 
L 347.727435 -277.709803 
L 348.324415 -278.200589 
L 348.921395 -278.689171 
L 349.518375 -279.175546 
L 350.115355 -279.65971 
L 350.712336 -280.141658 
L 351.309316 -280.621387 
L 351.906296 -281.098894 
L 352.503276 -281.574176 
L 353.100257 -282.079012 
L 353.697237 -282.581306 
L 354.294217 -283.081054 
L 354.891197 -283.578254 
L 355.488177 -284.072902 
L 356.085158 -284.564996 
L 356.682138 -285.054535 
L 357.279118 -285.541515 
L 357.876098 -286.025936 
L 358.473079 -286.507796 
L 359.070059 -286.987094 
L 359.667039 -287.463828 
L 360.264019 -287.937999 
L 360.860999 -288.409605 
L 361.45798 -288.878647 
L 362.05496 -289.345124 
L 362.65194 -289.809037 
L 363.24892 -290.270386 
L 363.845901 -290.729172 
L 364.442881 -291.185395 
L 365.039861 -291.639057 
L 365.636841 -292.09016 
L 366.233821 -292.538704 
L 366.830802 -292.984691 
L 367.427782 -293.428124 
L 368.024762 -293.869004 
L 368.621742 -294.328621 
L 369.218723 -294.785435 
L 369.815703 -295.239451 
L 370.412683 -295.690672 
L 371.009663 -296.139102 
L 371.606643 -296.584745 
L 372.203624 -297.027604 
L 372.800604 -297.467685 
L 373.397584 -297.904991 
L 373.994564 -298.339528 
L 374.591545 -298.7713 
L 375.188525 -299.200312 
L 375.785505 -299.626571 
L 376.382485 -300.050082 
L 376.979465 -300.47085 
L 377.576446 -300.888881 
L 378.173426 -301.304182 
L 378.770406 -301.71676 
L 379.367386 -302.126619 
L 379.964367 -302.533769 
L 380.561347 -302.938214 
L 381.158327 -303.339963 
L 381.755307 -303.739022 
L 382.352287 -304.135399 
L 382.949268 -304.529102 
L 383.546248 -304.928386 
L 384.143228 -305.324898 
L 384.740208 -305.718646 
L 385.337189 -306.109639 
L 385.934169 -306.497886 
L 386.531149 -306.883396 
L 387.128129 -307.266179 
L 387.725109 -307.646242 
L 388.32209 -308.023598 
L 388.91907 -308.398253 
L 389.51605 -308.77022 
L 390.11303 -309.139507 
L 390.710011 -309.506124 
L 391.306991 -309.870082 
L 391.903971 -310.231392 
L 392.500951 -310.590062 
L 393.097931 -310.946105 
L 393.694912 -311.299531 
L 394.291892 -311.650349 
L 394.888872 -311.998573 
L 395.485852 -312.344211 
L 396.082833 -312.687276 
L 396.679813 -313.027779 
L 397.276793 -313.365731 
L 397.873773 -313.701142 
L 398.470754 -314.034026 
L 399.067734 -314.373411 
L 399.664714 -314.710153 
L 400.261694 -315.044263 
L 400.858674 -315.375755 
L 401.455655 -315.704641 
L 402.052635 -316.030935 
L 402.649615 -316.354649 
L 403.246595 -316.675797 
L 403.843576 -316.994391 
L 404.440556 -317.310445 
L 405.037536 -317.623972 
L 405.634516 -317.934986 
L 406.231496 -318.2435 
L 406.828477 -318.549527 
L 407.425457 -318.853082 
L 408.022437 -319.154177 
L 408.619417 -319.452826 
L 409.216398 -319.749043 
L 409.813378 -320.042841 
L 410.410358 -320.334235 
L 411.007338 -320.623237 
L 411.604318 -320.909863 
L 412.201299 -321.194125 
L 412.798279 -321.476038 
L 413.395259 -321.755615 
L 413.992239 -322.03323 
L 414.58922 -322.308531 
L 415.1862 -322.581532 
L 415.78318 -322.852248 
L 416.38016 -323.120692 
L 416.97714 -323.386878 
L 417.574121 -323.650821 
L 418.171101 -323.912534 
L 418.768081 -324.172032 
L 419.365061 -324.429328 
L 419.962042 -324.684437 
L 420.559022 -324.937373 
L 421.156002 -325.18815 
L 421.752982 -325.436782 
L 422.349962 -325.683282 
L 422.946943 -325.927666 
L 423.543923 -326.169946 
L 424.140903 -326.410137 
L 424.737883 -326.648254 
L 425.334864 -326.884309 
L 425.931844 -327.118317 
L 426.528824 -327.350292 
L 427.125804 -327.580248 
L 427.722784 -327.808198 
L 428.319765 -328.034157 
L 428.916745 -328.258139 
L 429.513725 -328.48019 
L 430.110705 -328.70029 
L 430.707686 -328.918453 
L 431.304666 -329.134694 
L 431.901646 -329.349025 
L 432.498626 -329.56146 
L 433.095606 -329.772013 
L 433.692587 -329.980697 
L 434.289567 -330.187527 
L 434.886547 -330.392515 
L 435.483527 -330.595675 
L 436.080508 -330.79702 
L 436.677488 -330.996564 
L 437.274468 -331.19432 
L 437.871448 -331.390302 
L 438.468428 -331.584522 
L 439.065409 -331.776995 
L 439.662389 -331.967732 
L 440.259369 -332.156747 
L 440.856349 -332.344054 
L 441.45333 -332.529665 
L 442.05031 -332.713593 
L 442.64729 -332.895851 
L 443.24427 -333.076452 
L 443.84125 -333.255408 
L 444.438231 -333.432733 
L 445.035211 -333.60844 
L 445.632191 -333.78254 
L 446.229171 -333.955046 
L 446.826152 -334.125971 
L 447.423132 -334.295328 
L 448.020112 -334.463128 
L 448.617092 -334.629384 
L 449.214072 -334.794109 
L 449.811053 -334.957314 
L 450.408033 -335.119011 
L 451.005013 -335.279214 
L 451.601993 -335.437934 
L 452.198974 -335.595182 
L 452.795954 -335.750971 
L 453.392934 -335.905313 
L 453.989914 -336.058219 
L 454.586894 -336.209701 
L 455.183875 -336.359771 
L 455.780855 -336.50844 
L 456.377835 -336.655721 
L 456.974815 -336.801623 
L 457.571796 -336.94616 
L 458.168776 -337.089341 
L 458.765756 -337.231179 
L 459.362736 -337.371685 
L 459.959716 -337.510869 
L 460.556697 -337.648743 
L 461.153677 -337.785318 
L 461.750657 -337.920605 
L 462.347637 -338.054614 
L 462.944618 -338.187357 
L 463.541598 -338.318844 
L 464.138578 -338.449086 
L 464.735558 -338.578093 
L 465.332538 -338.705877 
L 465.929519 -338.832447 
L 466.526499 -338.957814 
L 467.123479 -339.081988 
L 467.720459 -339.20498 
L 468.31744 -339.326799 
L 468.91442 -339.447457 
L 469.5114 -339.566962 
L 470.10838 -339.685325 
L 470.70536 -339.802556 
L 471.302341 -339.918665 
L 471.899321 -340.033662 
L 472.496301 -340.147556 
L 473.093281 -340.260357 
L 473.690262 -340.372074 
L 474.287242 -340.482718 
L 474.884222 -340.592297 
L 475.481202 -340.700821 
L 476.078182 -340.8083 
L 476.675163 -340.914742 
L 477.272143 -341.020157 
L 477.869123 -341.124554 
L 478.466103 -341.227942 
L 479.063084 -341.33033 
L 479.660064 -341.431727 
L 480.257044 -341.532142 
L 480.854024 -341.631583 
L 481.451004 -341.73006 
L 482.047985 -341.827581 
L 482.644965 -341.924155 
L 483.241945 -342.01979 
L 483.838925 -342.114495 
L 484.435906 -342.208278 
L 485.032886 -342.301147 
L 485.629866 -342.393112 
L 486.226846 -342.484179 
L 486.823826 -342.574358 
L 487.420807 -342.663656 
L 488.017787 -342.752081 
L 488.614767 -342.839642 
L 489.211747 -342.926346 
L 489.808728 -343.012201 
L 490.405708 -343.097215 
L 491.002688 -343.181396 
L 491.599668 -343.264752 
L 492.196648 -343.347289 
L 492.793629 -343.429016 
L 493.390609 -343.50994 
L 493.987589 -343.590068 
L 494.584569 -343.669408 
L 495.18155 -343.747967 
L 495.77853 -343.825753 
L 496.37551 -343.902772 
L 496.97249 -343.979032 
L 497.56947 -344.05454 
L 498.166451 -344.129303 
L 498.763431 -344.203327 
L 499.360411 -344.276621 
L 499.957391 -344.349189 
L 500.554372 -344.421041 
L 501.151352 -344.492181 
L 501.748332 -344.562617 
L 502.345312 -344.632355 
L 502.942292 -344.701403 
L 503.539273 -344.769766 
L 504.136253 -344.837451 
L 504.733233 -344.904464 
L 505.330213 -344.970812 
L 505.927194 -345.036501 
L 506.524174 -345.101537 
L 507.121154 -345.165927 
L 507.718134 -345.229676 
L 508.315114 -345.292791 
L 508.912095 -345.355278 
L 509.509075 -345.417142 
L 510.106055 -345.47839 
L 510.703035 -345.539028 
L 511.300016 -345.59906 
L 511.896996 -345.658494 
L 512.493976 -345.717335 
L 513.090956 -345.775588 
L 513.687936 -345.83326 
L 514.284917 -345.890355 
L 514.881897 -345.946879 
L 515.478877 -346.002839 
L 516.075857 -346.058238 
L 516.672838 -346.113083 
L 517.269818 -346.167379 
L 517.866798 -346.221131 
L 518.463778 -346.274344 
L 519.060758 -346.327024 
L 519.657739 -346.379176 
L 520.254719 -346.430805 
L 520.851699 -346.481916 
L 521.448679 -346.532514 
L 522.04566 -346.582603 
L 522.64264 -346.63219 
L 523.23962 -346.681278 
L 523.8366 -346.729873 
L 524.43358 -346.77798 
L 525.030561 -346.825602 
L 525.627541 -346.872745 
L 526.224521 -346.919414 
L 526.821501 -346.965613 
L 527.418482 -347.011347 
L 528.015462 -347.05662 
L 528.612442 -347.101437 
L 529.209422 -347.145802 
L 529.806402 -347.18972 
L 530.403383 -347.233194 
L 531.000363 -347.27623 
L 531.597343 -347.318832 
L 532.194323 -347.361004 
L 532.791304 -347.402749 
L 533.388284 -347.444073 
L 533.985264 -347.48498 
L 534.582244 -347.525473 
L 535.179224 -347.565556 
L 535.776205 -347.605235 
L 536.373185 -347.644512 
L 536.970165 -347.683391 
L 537.567145 -347.721877 
L 538.164126 -347.759973 
L 538.761106 -347.797684 
L 539.358086 -347.835013 
L 539.955066 -347.871963 
L 540.552046 -347.908539 
L 541.149027 -347.944744 
L 541.746007 -347.980583 
L 542.342987 -348.016057 
L 542.939967 -348.051172 
L 543.536948 -348.085931 
L 544.133928 -348.120336 
L 544.730908 -348.154393 
L 545.327888 -348.188104 
L 545.924868 -348.221472 
L 546.521849 -348.254501 
L 547.118829 -348.287195 
L 547.715809 -348.319556 
L 548.312789 -348.351589 
L 548.90977 -348.383296 
L 549.50675 -348.41468 
L 550.10373 -348.445745 
L 550.70071 -348.476495 
L 551.29769 -348.506931 
L 551.894671 -348.537057 
L 552.491651 -348.566877 
L 553.088631 -348.596393 
L 553.685611 -348.625608 
L 554.282592 -348.654526 
L 554.879572 -348.68315 
L 555.476552 -348.711481 
L 556.073532 -348.739524 
L 556.670512 -348.767281 
L 557.267493 -348.794755 
L 557.864473 -348.821948 
L 558.461453 -348.848865 
L 559.058433 -348.875506 
L 559.655414 -348.901836 
L 560.252394 -348.927879 
L 560.849374 -348.953639 
L 561.446354 -348.979106 
L 562.043334 -349.00428 
L 562.640315 -349.029237 
L 563.237295 -349.053818 
L 563.834275 -349.078154 
L 564.431255 -349.102333 
L 565.028236 -349.1262 
L 565.625216 -349.149826 
L 566.222196 -349.17322 
L 566.819176 -349.196408 
L 567.416157 -349.219317 
L 568.013137 -349.241918 
L 568.610117 -349.264329 
L 569.207097 -349.286471 
L 569.804077 -349.308447 
L 570.401058 -349.330211 
L 570.998038 -349.351725 
L 571.595018 -349.372938 
L 572.191998 -349.393927 
L 572.788979 -349.414729 
L 573.385959 -349.435341 
L 573.982939 -349.455671 
L 574.579919 -349.475841 
L 575.176899 -349.495866 
L 575.77388 -349.515708 
L 576.37086 -349.535258 
L 576.96784 -349.554552 
L 577.56482 -349.573706 
L 578.161801 -349.592678 
L 578.758781 -349.611376 
L 579.355761 -349.629901 
L 579.952741 -349.648232 
L 580.549721 -349.666378 
L 581.146702 -349.684345 
L 581.743682 -349.702131 
L 582.340662 -349.719751 
L 582.937642 -349.737184 
L 583.534623 -349.754478 
L 584.131603 -349.771581 
L 584.728583 -349.788566 
L 585.325563 -349.805273 
L 585.922543 -349.821922 
L 586.519524 -349.838408 
L 587.116504 -349.854697 
L 587.713484 -349.870854 
L 588.310464 -349.886665 
L 588.907445 -349.902416 
L 589.504425 -349.918035 
L 590.101405 -349.933458 
L 590.698385 -349.948755 
L 591.295365 -349.963903 
L 591.892346 -349.978692 
L 592.489326 -349.99331 
L 593.086306 -350.007908 
L 593.683286 -350.022428 
L 594.280267 -350.036771 
L 594.877247 -350.050987 
L 595.474227 -350.06508 
L 596.071207 -350.079015 
L 596.668187 -350.092777 
L 597.265168 -350.106386 
L 597.862148 -350.11985 
L 598.459128 -350.133262 
L 599.056108 -350.146596 
L 599.653089 -350.159733 
L 600.250069 -350.172691 
L 600.847049 -350.185518 
L 601.444029 -350.19823 
L 602.041009 -350.210723 
L 602.63799 -350.223158 
L 603.23497 -350.235131 
L 603.83195 -350.247307 
L 604.42893 -350.259376 
L 605.025911 -350.271309 
L 605.622891 -350.28301 
L 606.219871 -350.294596 
L 606.816851 -350.306072 
L 607.413831 -350.317266 
L 608.010812 -350.328607 
L 608.607792 -350.339802 
L 609.204772 -350.35082 
L 609.801752 -350.361755 
L 610.398733 -350.372527 
L 610.995713 -350.383262 
L 611.592693 -350.393925 
L 612.189673 -350.404392 
L 612.786653 -350.414744 
L 613.383634 -350.424998 
L 613.980614 -350.435151 
L 614.577594 -350.445235 
L 615.174574 -350.455256 
L 615.771555 -350.465177 
L 616.368535 -350.474998 
L 616.965515 -350.484565 
L 617.562495 -350.494178 
L 618.159475 -350.503825 
L 618.756456 -350.513302 
L 619.353436 -350.522581 
L 619.950416 -350.531728 
L 620.547396 -350.540793 
L 621.144377 -350.549774 
L 621.741357 -350.558671 
L 622.338337 -350.567606 
L 622.935317 -350.576452 
L 623.532297 -350.585202 
L 624.129278 -350.593748 
L 624.726258 -350.602267 
L 625.323238 -350.610524 
L 625.920218 -350.618798 
L 626.517199 -350.627011 
L 627.114179 -350.635246 
L 627.711159 -350.6433 
L 628.308139 -350.651312 
L 628.905119 -350.659263 
L 629.5021 -350.667161 
L 630.09908 -350.674961 
L 630.69606 -350.682761 
L 631.29304 -350.690311 
L 631.890021 -350.69781 
L 632.487001 -350.705279 
L 633.083981 -350.712675 
L 633.680961 -350.719993 
L 634.277941 -350.727241 
L 634.874922 -350.734378 
L 635.471902 -350.741427 
L 636.068882 -350.748381 
L 636.665862 -350.755357 
L 637.262843 -350.762202 
L 637.859823 -350.769037 
L 638.456803 -350.77584 
L 639.053783 -350.782595 
L 639.650763 -350.789256 
L 640.247744 -350.795806 
L 640.844724 -350.80228 
L 641.441704 -350.808659 
L 642.038684 -350.814992 
L 642.635665 -350.821034 
L 643.232645 -350.827046 
L 643.829625 -350.83313 
L 644.426605 -350.839211 
L 645.023585 -350.84518 
L 645.620566 -350.851038 
L 646.217546 -350.856848 
L 646.814526 -350.862645 
L 647.411506 -350.868442 
L 648.008487 -350.874181 
L 648.605467 -350.879862 
L 649.202447 -350.885486 
L 649.799427 -350.891053 
L 650.396407 -350.896587 
L 650.993388 -350.902067 
L 651.590368 -350.907386 
L 652.187348 -350.912689 
L 652.784328 -350.917817 
L 653.381309 -350.922695 
L 653.978289 -350.92785 
L 654.575269 -350.932754 
L 655.172249 -350.937755 
L 655.769229 -350.942785 
L 656.36621 -350.947783 
L 656.96319 -350.952638 
L 657.56017 -350.957498 
L 658.15715 -350.962332 
L 658.754131 -350.967122 
L 659.351111 -350.971867 
L 659.948091 -350.976564 
L 660.545071 -350.981227 
L 661.142051 -350.985847 
L 661.739032 -350.99042 
L 662.336012 -350.994946 
L 662.932992 -350.99941 
L 663.529972 -351.003792 
L 664.126953 -351.008162 
L 664.723933 -351.012488 
L 665.320913 -351.016769 
L 665.917893 -351.021006 
L 666.514873 -351.025206 
L 667.111854 -351.029371 
L 667.708834 -351.033495 
L 668.305814 -351.037576 
L 668.902794 -351.041593 
L 669.499775 -351.045531 
L 670.096755 -351.049428 
L 670.693735 -351.053245 
L 671.290715 -351.057019 
L 671.887695 -351.060779 
L 672.484676 -351.064478 
L 673.081656 -351.068153 
L 673.678636 -351.071864 
L 674.275616 -351.075464 
L 674.872597 -351.079229 
L 675.469577 -351.082875 
L 676.066557 -351.086488 
L 676.663537 -351.090066 
L 677.260517 -351.093589 
L 677.857498 -351.097075 
L 678.454478 -351.100525 
L 679.051458 -351.103817 
L 679.648438 -351.10707 
L 680.245419 -351.110363 
L 680.842399 -351.113645 
L 681.439379 -351.116932 
L 682.036359 -351.120189 
L 682.633339 -351.123365 
L 683.23032 -351.126473 
L 683.8273 -351.12963 
L 684.42428 -351.132726 
L 685.02126 -351.135834 
L 685.618241 -351.13891 
L 686.215221 -351.141901 
L 686.812201 -351.144863 
L 687.409181 -351.147795 
L 688.006161 -351.150697 
L 688.603142 -351.153599 
L 689.200122 -351.156588 
L 689.797102 -351.159461 
L 690.394082 -351.162207 
L 690.991063 -351.164925 
L 691.588043 -351.16764 
L 692.185023 -351.170368 
L 692.782003 -351.173069 
L 693.378983 -351.175748 
L 693.975964 -351.178402 
L 694.572944 -351.181029 
L 695.169924 -351.183481 
L 695.766904 -351.186008 
L 696.363885 -351.188445 
L 696.960865 -351.190867 
L 697.557845 -351.193399 
L 698.154825 -351.195909 
L 698.751805 -351.198393 
L 699.348786 -351.200807 
L 699.945766 -351.203102 
L 700.542746 -351.205422 
L 701.139726 -351.207693 
L 701.736707 -351.209949 
L 702.333687 -351.212239 
L 702.930667 -351.214505 
L 703.527647 -351.216749 
L 704.124627 -351.218979 
L 704.721608 -351.221175 
L 705.318588 -351.223329 
L 705.915568 -351.225462 
L 706.512548 -351.227573 
L 707.109529 -351.229714 
L 707.706509 -351.231824 
L 708.303489 -351.233878 
L 708.900469 -351.235922 
L 709.497449 -351.237919 
L 710.09443 -351.239906 
L 710.69141 -351.241839 
L 711.28839 -351.243731 
L 711.88537 -351.245667 
L 712.482351 -351.247606 
L 713.079331 -351.249499 
L 713.676311 -351.251371 
L 714.273291 -351.253238 
L 714.870271 -351.255091 
L 715.467252 -351.256926 
L 716.064232 -351.258732 
L 716.661212 -351.260506 
L 717.258192 -351.262257 
L 717.855173 -351.263989 
L 718.452153 -351.265709 
L 719.049133 -351.267414 
L 719.646113 -351.269098 
L 720.243093 -351.270761 
L 720.840074 -351.272395 
L 721.437054 -351.27402 
L 722.034034 -351.275629 
L 722.631014 -351.277229 
L 723.227995 -351.278804 
L 723.824975 -351.280378 
L 724.421955 -351.281936 
L 725.018935 -351.283479 
L 725.615915 -351.285006 
L 726.212896 -351.286523 
L 726.809876 -351.288028 
L 727.406856 -351.289519 
L 728.003836 -351.290992 
L 728.600817 -351.292453 
L 729.197797 -351.29388 
L 729.794777 -351.295299 
L 730.391757 -351.296704 
L 730.988737 -351.298095 
L 731.585718 -351.299472 
L 732.182698 -351.300834 
L 732.779678 -351.302179 
L 733.376658 -351.303516 
L 733.973639 -351.304839 
L 734.570619 -351.306149 
L 735.167599 -351.307446 
L 735.764579 -351.308733 
L 736.36156 -351.310024 
L 736.95854 -351.311279 
L 737.55552 -351.312552 
L 738.1525 -351.313778 
L 738.74948 -351.314991 
L 739.346461 -351.316192 
L 739.943441 -351.317411 
L 740.540421 -351.318635 
L 741.137401 -351.319844 
L 741.734382 -351.321043 
L 742.331362 -351.322207 
L 742.928342 -351.323317 
L 743.525322 -351.324467 
L 744.122302 -351.325614 
L 744.719283 -351.326731 
L 745.316263 -351.327814 
L 745.913243 -351.32889 
L 746.510223 -351.329959 
L 747.107204 -351.331016 
L 747.704184 -351.332064 
L 748.301164 -351.333101 
L 748.898144 -351.334137 
L 749.495124 -351.335185 
L 750.092105 -351.336198 
L 750.689085 -351.337193 
L 751.286065 -351.338177 
L 751.883045 -351.339152 
L 752.480026 -351.340118 
L 753.077006 -351.341074 
L 753.673986 -351.342022 
L 754.270966 -351.342961 
L 754.867946 -351.343891 
L 755.464927 -351.344815 
L 756.061907 -351.345729 
L 756.658887 -351.346626 
L 757.255867 -351.347513 
L 757.852848 -351.348391 
L 758.449828 -351.349286 
L 759.046808 -351.350163 
L 759.643788 -351.351023 
L 760.240768 -351.35187 
L 760.837749 -351.352709 
L 761.434729 -351.353539 
L 762.031709 -351.354361 
L 762.628689 -351.355176 
L 763.22567 -351.355982 
L 763.82265 -351.35678 
L 764.41963 -351.357568 
L 765.01661 -351.358341 
L 765.61359 -351.359107 
L 766.210571 -351.359867 
L 766.807551 -351.360625 
L 767.404531 -351.361379 
L 768.001511 -351.36211 
L 768.598492 -351.362835 
L 769.195472 -351.363567 
L 769.792452 -351.364293 
L 770.389432 -351.365014 
L 770.986412 -351.365725 
L 771.583393 -351.366422 
L 772.180373 -351.367113 
L 772.777353 -351.36781 
L 772.777353 -351.382101 
L 772.777353 -351.382101 
L 772.180373 -351.381496 
L 771.583393 -351.380882 
L 770.986412 -351.380261 
L 770.389432 -351.379633 
L 769.792452 -351.378989 
L 769.195472 -351.378337 
L 768.598492 -351.377704 
L 768.001511 -351.377049 
L 767.404531 -351.376376 
L 766.807551 -351.375717 
L 766.210571 -351.375046 
L 765.61359 -351.374362 
L 765.01661 -351.373676 
L 764.41963 -351.372986 
L 763.82265 -351.372289 
L 763.22567 -351.371584 
L 762.628689 -351.370841 
L 762.031709 -351.370088 
L 761.434729 -351.369348 
L 760.837749 -351.3686 
L 760.240768 -351.367843 
L 759.643788 -351.367077 
L 759.046808 -351.366303 
L 758.449828 -351.365528 
L 757.852848 -351.364745 
L 757.255867 -351.363954 
L 756.658887 -351.363155 
L 756.061907 -351.362359 
L 755.464927 -351.361556 
L 754.867946 -351.360742 
L 754.270966 -351.359921 
L 753.673986 -351.359089 
L 753.077006 -351.35822 
L 752.480026 -351.357337 
L 751.883045 -351.356444 
L 751.286065 -351.355556 
L 750.689085 -351.354669 
L 750.092105 -351.353772 
L 749.495124 -351.352866 
L 748.898144 -351.35195 
L 748.301164 -351.351023 
L 747.704184 -351.350087 
L 747.107204 -351.349132 
L 746.510223 -351.348159 
L 745.913243 -351.347212 
L 745.316263 -351.346257 
L 744.719283 -351.345293 
L 744.122302 -351.34431 
L 743.525322 -351.34331 
L 742.928342 -351.342295 
L 742.331362 -351.34124 
L 741.734382 -351.340172 
L 741.137401 -351.33912 
L 740.540421 -351.338056 
L 739.943441 -351.336977 
L 739.346461 -351.335854 
L 738.74948 -351.334699 
L 738.1525 -351.333545 
L 737.55552 -351.332415 
L 736.95854 -351.331272 
L 736.36156 -351.330118 
L 735.764579 -351.328952 
L 735.167599 -351.327787 
L 734.570619 -351.326607 
L 733.973639 -351.325415 
L 733.376658 -351.324209 
L 732.779678 -351.322991 
L 732.182698 -351.321769 
L 731.585718 -351.320549 
L 730.988737 -351.319312 
L 730.391757 -351.318007 
L 729.794777 -351.316722 
L 729.197797 -351.315428 
L 728.600817 -351.314117 
L 728.003836 -351.312791 
L 727.406856 -351.31143 
L 726.809876 -351.310052 
L 726.212896 -351.308676 
L 725.615915 -351.307249 
L 725.018935 -351.305824 
L 724.421955 -351.304384 
L 723.824975 -351.302928 
L 723.227995 -351.301457 
L 722.631014 -351.29998 
L 722.034034 -351.298494 
L 721.437054 -351.296993 
L 720.840074 -351.295475 
L 720.243093 -351.293941 
L 719.646113 -351.292388 
L 719.049133 -351.290805 
L 718.452153 -351.289169 
L 717.855173 -351.287515 
L 717.258192 -351.285919 
L 716.661212 -351.284319 
L 716.064232 -351.282663 
L 715.467252 -351.28096 
L 714.870271 -351.279235 
L 714.273291 -351.277525 
L 713.676311 -351.275796 
L 713.079331 -351.274049 
L 712.482351 -351.272267 
L 711.88537 -351.270474 
L 711.28839 -351.268673 
L 710.69141 -351.266865 
L 710.09443 -351.265005 
L 709.497449 -351.263134 
L 708.900469 -351.26123 
L 708.303489 -351.259322 
L 707.706509 -351.257415 
L 707.109529 -351.255467 
L 706.512548 -351.253497 
L 705.915568 -351.251514 
L 705.318588 -351.249506 
L 704.721608 -351.247468 
L 704.124627 -351.245412 
L 703.527647 -351.243339 
L 702.930667 -351.241308 
L 702.333687 -351.239242 
L 701.736707 -351.237106 
L 701.139726 -351.234949 
L 700.542746 -351.232765 
L 699.945766 -351.230555 
L 699.348786 -351.228322 
L 698.751805 -351.226064 
L 698.154825 -351.223763 
L 697.557845 -351.221442 
L 696.960865 -351.219093 
L 696.363885 -351.216718 
L 695.766904 -351.214317 
L 695.169924 -351.211887 
L 694.572944 -351.209423 
L 693.975964 -351.206907 
L 693.378983 -351.204388 
L 692.782003 -351.201866 
L 692.185023 -351.199316 
L 691.588043 -351.196732 
L 690.991063 -351.194104 
L 690.394082 -351.191445 
L 689.797102 -351.188757 
L 689.200122 -351.186039 
L 688.603142 -351.183292 
L 688.006161 -351.180564 
L 687.409181 -351.177763 
L 686.812201 -351.174894 
L 686.215221 -351.171999 
L 685.618241 -351.169126 
L 685.02126 -351.166238 
L 684.42428 -351.163285 
L 683.8273 -351.1603 
L 683.23032 -351.157311 
L 682.633339 -351.154303 
L 682.036359 -351.151261 
L 681.439379 -351.148186 
L 680.842399 -351.145075 
L 680.245419 -351.141917 
L 679.648438 -351.138675 
L 679.051458 -351.135323 
L 678.454478 -351.131985 
L 677.857498 -351.128673 
L 677.260517 -351.125321 
L 676.663537 -351.121933 
L 676.066557 -351.118508 
L 675.469577 -351.115046 
L 674.872597 -351.111546 
L 674.275616 -351.108009 
L 673.678636 -351.104432 
L 673.081656 -351.100782 
L 672.484676 -351.097085 
L 671.887695 -351.093367 
L 671.290715 -351.089576 
L 670.693735 -351.085758 
L 670.096755 -351.081892 
L 669.499775 -351.078007 
L 668.902794 -351.074021 
L 668.305814 -351.070034 
L 667.708834 -351.066004 
L 667.111854 -351.061929 
L 666.514873 -351.057874 
L 665.917893 -351.053775 
L 665.320913 -351.04971 
L 664.723933 -351.045538 
L 664.126953 -351.041279 
L 663.529972 -351.03704 
L 662.932992 -351.032731 
L 662.336012 -351.028388 
L 661.739032 -351.023998 
L 661.142051 -351.01969 
L 660.545071 -351.015189 
L 659.948091 -351.010628 
L 659.351111 -351.006056 
L 658.754131 -351.001428 
L 658.15715 -350.996701 
L 657.56017 -350.991923 
L 656.96319 -350.987092 
L 656.36621 -350.982215 
L 655.769229 -350.97728 
L 655.172249 -350.972243 
L 654.575269 -350.967189 
L 653.978289 -350.962117 
L 653.381309 -350.956992 
L 652.784328 -350.951825 
L 652.187348 -350.946673 
L 651.590368 -350.941318 
L 650.993388 -350.935953 
L 650.396407 -350.93054 
L 649.799427 -350.925086 
L 649.202447 -350.919575 
L 648.605467 -350.914005 
L 648.008487 -350.908376 
L 647.411506 -350.902685 
L 646.814526 -350.896925 
L 646.217546 -350.8911 
L 645.620566 -350.885211 
L 645.023585 -350.879257 
L 644.426605 -350.873234 
L 643.829625 -350.86724 
L 643.232645 -350.861182 
L 642.635665 -350.854917 
L 642.038684 -350.848547 
L 641.441704 -350.842149 
L 640.844724 -350.835723 
L 640.247744 -350.829237 
L 639.650763 -350.82269 
L 639.053783 -350.816069 
L 638.456803 -350.809326 
L 637.859823 -350.80258 
L 637.262843 -350.795767 
L 636.665862 -350.788796 
L 636.068882 -350.781713 
L 635.471902 -350.774635 
L 634.874922 -350.767605 
L 634.277941 -350.760461 
L 633.680961 -350.753234 
L 633.083981 -350.745945 
L 632.487001 -350.738578 
L 631.890021 -350.731118 
L 631.29304 -350.723568 
L 630.69606 -350.715937 
L 630.09908 -350.708138 
L 629.5021 -350.700351 
L 628.905119 -350.692535 
L 628.308139 -350.68466 
L 627.711159 -350.676682 
L 627.114179 -350.668517 
L 626.517199 -350.6603 
L 625.920218 -350.652025 
L 625.323238 -350.643652 
L 624.726258 -350.635189 
L 624.129278 -350.626637 
L 623.532297 -350.617962 
L 622.935317 -350.609156 
L 622.338337 -350.600271 
L 621.741357 -350.591299 
L 621.144377 -350.582271 
L 620.547396 -350.573265 
L 619.950416 -350.564056 
L 619.353436 -350.554658 
L 618.756456 -350.545177 
L 618.159475 -350.53567 
L 617.562495 -350.526011 
L 616.965515 -350.516284 
L 616.368535 -350.506399 
L 615.771555 -350.49634 
L 615.174574 -350.486297 
L 614.577594 -350.476132 
L 613.980614 -350.465914 
L 613.383634 -350.455572 
L 612.786653 -350.445102 
L 612.189673 -350.434511 
L 611.592693 -350.423724 
L 610.995713 -350.412859 
L 610.398733 -350.401828 
L 609.801752 -350.39072 
L 609.204772 -350.379581 
L 608.607792 -350.368316 
L 608.010812 -350.35682 
L 607.413831 -350.345127 
L 606.816851 -350.333422 
L 606.219871 -350.321665 
L 605.622891 -350.30963 
L 605.025911 -350.297579 
L 604.42893 -350.285438 
L 603.83195 -350.273031 
L 603.23497 -350.260465 
L 602.63799 -350.24792 
L 602.041009 -350.235234 
L 601.444029 -350.222533 
L 600.847049 -350.209633 
L 600.250069 -350.1966 
L 599.653089 -350.183281 
L 599.056108 -350.169898 
L 598.459128 -350.156378 
L 597.862148 -350.142757 
L 597.265168 -350.129013 
L 596.668187 -350.115062 
L 596.071207 -350.101042 
L 595.474227 -350.086917 
L 594.877247 -350.072624 
L 594.280267 -350.05821 
L 593.683286 -350.043496 
L 593.086306 -350.028691 
L 592.489326 -350.013828 
L 591.892346 -349.99874 
L 591.295365 -349.983623 
L 590.698385 -349.96826 
L 590.101405 -349.952544 
L 589.504425 -349.936592 
L 588.907445 -349.920734 
L 588.310464 -349.90472 
L 587.713484 -349.888265 
L 587.116504 -349.871888 
L 586.519524 -349.855327 
L 585.922543 -349.838558 
L 585.325563 -349.821545 
L 584.728583 -349.804356 
L 584.131603 -349.787282 
L 583.534623 -349.769766 
L 582.937642 -349.752031 
L 582.340662 -349.734085 
L 581.743682 -349.716101 
L 581.146702 -349.697899 
L 580.549721 -349.679605 
L 579.952741 -349.660995 
L 579.355761 -349.642078 
L 578.758781 -349.623128 
L 578.161801 -349.603983 
L 577.56482 -349.584633 
L 576.96784 -349.565083 
L 576.37086 -349.545367 
L 575.77388 -349.525454 
L 575.176899 -349.50522 
L 574.579919 -349.484838 
L 573.982939 -349.464224 
L 573.385959 -349.443437 
L 572.788979 -349.422382 
L 572.191998 -349.401238 
L 571.595018 -349.379732 
L 570.998038 -349.358104 
L 570.401058 -349.336102 
L 569.804077 -349.313947 
L 569.207097 -349.291708 
L 568.610117 -349.269162 
L 568.013137 -349.246478 
L 567.416157 -349.223488 
L 566.819176 -349.200246 
L 566.222196 -349.176746 
L 565.625216 -349.153021 
L 565.028236 -349.128969 
L 564.431255 -349.104742 
L 563.834275 -349.080256 
L 563.237295 -349.05551 
L 562.640315 -349.030504 
L 562.043334 -349.005308 
L 561.446354 -348.979895 
L 560.849374 -348.954204 
L 560.252394 -348.928274 
L 559.655414 -348.902087 
L 559.058433 -348.875584 
L 558.461453 -348.848877 
L 557.864473 -348.821948 
L 557.267493 -348.794755 
L 556.670512 -348.767281 
L 556.073532 -348.739524 
L 555.476552 -348.711481 
L 554.879572 -348.68315 
L 554.282592 -348.654526 
L 553.685611 -348.625608 
L 553.088631 -348.596393 
L 552.491651 -348.566877 
L 551.894671 -348.537057 
L 551.29769 -348.506931 
L 550.70071 -348.476495 
L 550.10373 -348.445745 
L 549.50675 -348.41468 
L 548.90977 -348.383296 
L 548.312789 -348.351589 
L 547.715809 -348.319556 
L 547.118829 -348.287195 
L 546.521849 -348.254501 
L 545.924868 -348.221472 
L 545.327888 -348.188104 
L 544.730908 -348.154393 
L 544.133928 -348.120336 
L 543.536948 -348.085931 
L 542.939967 -348.051172 
L 542.342987 -348.016057 
L 541.746007 -347.980583 
L 541.149027 -347.944744 
L 540.552046 -347.908539 
L 539.955066 -347.871963 
L 539.358086 -347.835013 
L 538.761106 -347.797684 
L 538.164126 -347.759973 
L 537.567145 -347.721877 
L 536.970165 -347.683391 
L 536.373185 -347.644512 
L 535.776205 -347.605235 
L 535.179224 -347.565556 
L 534.582244 -347.525473 
L 533.985264 -347.48498 
L 533.388284 -347.444073 
L 532.791304 -347.402749 
L 532.194323 -347.361004 
L 531.597343 -347.318832 
L 531.000363 -347.27623 
L 530.403383 -347.233194 
L 529.806402 -347.18972 
L 529.209422 -347.145802 
L 528.612442 -347.101437 
L 528.015462 -347.05662 
L 527.418482 -347.011347 
L 526.821501 -346.965613 
L 526.224521 -346.919414 
L 525.627541 -346.872745 
L 525.030561 -346.825602 
L 524.43358 -346.77798 
L 523.8366 -346.729873 
L 523.23962 -346.681278 
L 522.64264 -346.63219 
L 522.04566 -346.582603 
L 521.448679 -346.532514 
L 520.851699 -346.481916 
L 520.254719 -346.430805 
L 519.657739 -346.379176 
L 519.060758 -346.327024 
L 518.463778 -346.274344 
L 517.866798 -346.221131 
L 517.269818 -346.167379 
L 516.672838 -346.113083 
L 516.075857 -346.058238 
L 515.478877 -346.002839 
L 514.881897 -345.946879 
L 514.284917 -345.890355 
L 513.687936 -345.83326 
L 513.090956 -345.775588 
L 512.493976 -345.717335 
L 511.896996 -345.658494 
L 511.300016 -345.59906 
L 510.703035 -345.539028 
L 510.106055 -345.47839 
L 509.509075 -345.417142 
L 508.912095 -345.355278 
L 508.315114 -345.292791 
L 507.718134 -345.229676 
L 507.121154 -345.165927 
L 506.524174 -345.101537 
L 505.927194 -345.036501 
L 505.330213 -344.970812 
L 504.733233 -344.904464 
L 504.136253 -344.837451 
L 503.539273 -344.769766 
L 502.942292 -344.701403 
L 502.345312 -344.632355 
L 501.748332 -344.562617 
L 501.151352 -344.492181 
L 500.554372 -344.421041 
L 499.957391 -344.349189 
L 499.360411 -344.276621 
L 498.763431 -344.203327 
L 498.166451 -344.129303 
L 497.56947 -344.05454 
L 496.97249 -343.979032 
L 496.37551 -343.902772 
L 495.77853 -343.825753 
L 495.18155 -343.747967 
L 494.584569 -343.669408 
L 493.987589 -343.590068 
L 493.390609 -343.50994 
L 492.793629 -343.429016 
L 492.196648 -343.347289 
L 491.599668 -343.264752 
L 491.002688 -343.181396 
L 490.405708 -343.097215 
L 489.808728 -343.012201 
L 489.211747 -342.926346 
L 488.614767 -342.839642 
L 488.017787 -342.752081 
L 487.420807 -342.663656 
L 486.823826 -342.574358 
L 486.226846 -342.484179 
L 485.629866 -342.393112 
L 485.032886 -342.301147 
L 484.435906 -342.208278 
L 483.838925 -342.114495 
L 483.241945 -342.01979 
L 482.644965 -341.924155 
L 482.047985 -341.827581 
L 481.451004 -341.73006 
L 480.854024 -341.631583 
L 480.257044 -341.532142 
L 479.660064 -341.431727 
L 479.063084 -341.33033 
L 478.466103 -341.227942 
L 477.869123 -341.124554 
L 477.272143 -341.020157 
L 476.675163 -340.914742 
L 476.078182 -340.8083 
L 475.481202 -340.700821 
L 474.884222 -340.592297 
L 474.287242 -340.482718 
L 473.690262 -340.372074 
L 473.093281 -340.260357 
L 472.496301 -340.147556 
L 471.899321 -340.033662 
L 471.302341 -339.918665 
L 470.70536 -339.802556 
L 470.10838 -339.685325 
L 469.5114 -339.566962 
L 468.91442 -339.447457 
L 468.31744 -339.326799 
L 467.720459 -339.20498 
L 467.123479 -339.081988 
L 466.526499 -338.957814 
L 465.929519 -338.832447 
L 465.332538 -338.705877 
L 464.735558 -338.578093 
L 464.138578 -338.449086 
L 463.541598 -338.318844 
L 462.944618 -338.187357 
L 462.347637 -338.054614 
L 461.750657 -337.920605 
L 461.153677 -337.785318 
L 460.556697 -337.648743 
L 459.959716 -337.510869 
L 459.362736 -337.371685 
L 458.765756 -337.231179 
L 458.168776 -337.089341 
L 457.571796 -336.94616 
L 456.974815 -336.801623 
L 456.377835 -336.655721 
L 455.780855 -336.50844 
L 455.183875 -336.359771 
L 454.586894 -336.209701 
L 453.989914 -336.058219 
L 453.392934 -335.905313 
L 452.795954 -335.750971 
L 452.198974 -335.595182 
L 451.601993 -335.437934 
L 451.005013 -335.279214 
L 450.408033 -335.119011 
L 449.811053 -334.957314 
L 449.214072 -334.794109 
L 448.617092 -334.629384 
L 448.020112 -334.463128 
L 447.423132 -334.295328 
L 446.826152 -334.125971 
L 446.229171 -333.955046 
L 445.632191 -333.78254 
L 445.035211 -333.60844 
L 444.438231 -333.432733 
L 443.84125 -333.255408 
L 443.24427 -333.076452 
L 442.64729 -332.895851 
L 442.05031 -332.713593 
L 441.45333 -332.529665 
L 440.856349 -332.344054 
L 440.259369 -332.156747 
L 439.662389 -331.967732 
L 439.065409 -331.776995 
L 438.468428 -331.584522 
L 437.871448 -331.390302 
L 437.274468 -331.19432 
L 436.677488 -330.996564 
L 436.080508 -330.79702 
L 435.483527 -330.595675 
L 434.886547 -330.392515 
L 434.289567 -330.187527 
L 433.692587 -329.980697 
L 433.095606 -329.772013 
L 432.498626 -329.56146 
L 431.901646 -329.349025 
L 431.304666 -329.134694 
L 430.707686 -328.918453 
L 430.110705 -328.70029 
L 429.513725 -328.48019 
L 428.916745 -328.258139 
L 428.319765 -328.034157 
L 427.722784 -327.808198 
L 427.125804 -327.580248 
L 426.528824 -327.350292 
L 425.931844 -327.118317 
L 425.334864 -326.884309 
L 424.737883 -326.648254 
L 424.140903 -326.410137 
L 423.543923 -326.169946 
L 422.946943 -325.927666 
L 422.349962 -325.683282 
L 421.752982 -325.436782 
L 421.156002 -325.18815 
L 420.559022 -324.937373 
L 419.962042 -324.684437 
L 419.365061 -324.429328 
L 418.768081 -324.172032 
L 418.171101 -323.912534 
L 417.574121 -323.650821 
L 416.97714 -323.386878 
L 416.38016 -323.120692 
L 415.78318 -322.852248 
L 415.1862 -322.581532 
L 414.58922 -322.308531 
L 413.992239 -322.03323 
L 413.395259 -321.755615 
L 412.798279 -321.476038 
L 412.201299 -321.194125 
L 411.604318 -320.909863 
L 411.007338 -320.623237 
L 410.410358 -320.334235 
L 409.813378 -320.042841 
L 409.216398 -319.749043 
L 408.619417 -319.452826 
L 408.022437 -319.154177 
L 407.425457 -318.853082 
L 406.828477 -318.549527 
L 406.231496 -318.2435 
L 405.634516 -317.934986 
L 405.037536 -317.623972 
L 404.440556 -317.310445 
L 403.843576 -316.994391 
L 403.246595 -316.675797 
L 402.649615 -316.354649 
L 402.052635 -316.030935 
L 401.455655 -315.704641 
L 400.858674 -315.375755 
L 400.261694 -315.044263 
L 399.664714 -314.710153 
L 399.067734 -314.373411 
L 398.470754 -314.034026 
L 397.873773 -313.701142 
L 397.276793 -313.365731 
L 396.679813 -313.027779 
L 396.082833 -312.687276 
L 395.485852 -312.344211 
L 394.888872 -311.998573 
L 394.291892 -311.650349 
L 393.694912 -311.299531 
L 393.097931 -310.946105 
L 392.500951 -310.590062 
L 391.903971 -310.231392 
L 391.306991 -309.870082 
L 390.710011 -309.506124 
L 390.11303 -309.139507 
L 389.51605 -308.77022 
L 388.91907 -308.398253 
L 388.32209 -308.023598 
L 387.725109 -307.646242 
L 387.128129 -307.266179 
L 386.531149 -306.883396 
L 385.934169 -306.497886 
L 385.337189 -306.109639 
L 384.740208 -305.718646 
L 384.143228 -305.324898 
L 383.546248 -304.928386 
L 382.949268 -304.529102 
L 382.352287 -304.135399 
L 381.755307 -303.739022 
L 381.158327 -303.339963 
L 380.561347 -302.938214 
L 379.964367 -302.533769 
L 379.367386 -302.126619 
L 378.770406 -301.71676 
L 378.173426 -301.304182 
L 377.576446 -300.888881 
L 376.979465 -300.47085 
L 376.382485 -300.050082 
L 375.785505 -299.626571 
L 375.188525 -299.200312 
L 374.591545 -298.7713 
L 373.994564 -298.339528 
L 373.397584 -297.904991 
L 372.800604 -297.467685 
L 372.203624 -297.027604 
L 371.606643 -296.584745 
L 371.009663 -296.139102 
L 370.412683 -295.690672 
L 369.815703 -295.239451 
L 369.218723 -294.785435 
L 368.621742 -294.328621 
L 368.024762 -293.869004 
L 367.427782 -293.428124 
L 366.830802 -292.984691 
L 366.233821 -292.538704 
L 365.636841 -292.09016 
L 365.039861 -291.639057 
L 364.442881 -291.185395 
L 363.845901 -290.729172 
L 363.24892 -290.270386 
L 362.65194 -289.809037 
L 362.05496 -289.345124 
L 361.45798 -288.878647 
L 360.860999 -288.409605 
L 360.264019 -287.937999 
L 359.667039 -287.463828 
L 359.070059 -286.987094 
L 358.473079 -286.507796 
L 357.876098 -286.025936 
L 357.279118 -285.541515 
L 356.682138 -285.054535 
L 356.085158 -284.564996 
L 355.488177 -284.072902 
L 354.891197 -283.578254 
L 354.294217 -283.081054 
L 353.697237 -282.581306 
L 353.100257 -282.079012 
L 352.503276 -281.574176 
L 351.906296 -281.098894 
L 351.309316 -280.621387 
L 350.712336 -280.141658 
L 350.115355 -279.65971 
L 349.518375 -279.175546 
L 348.921395 -278.689171 
L 348.324415 -278.200589 
L 347.727435 -277.709803 
L 347.130454 -277.21682 
L 346.533474 -276.721642 
L 345.936494 -276.224276 
L 345.339514 -275.724726 
L 344.742533 -275.222998 
L 344.145553 -274.719097 
L 343.548573 -274.21303 
L 342.951593 -273.704802 
L 342.354613 -273.194419 
L 341.757632 -272.681888 
L 341.160652 -272.167216 
L 340.563672 -271.65041 
L 339.966692 -271.131477 
L 339.369711 -270.610424 
L 338.772731 -270.087258 
L 338.175751 -269.561989 
L 337.578771 -269.034623 
L 336.981791 -268.536218 
L 336.38481 -268.035969 
L 335.78783 -267.533884 
L 335.19085 -267.029971 
L 334.59387 -266.524236 
L 333.996889 -266.016688 
L 333.399909 -265.507336 
L 332.802929 -264.996186 
L 332.205949 -264.483248 
L 331.608969 -263.968529 
L 331.011988 -263.45204 
L 330.415008 -262.933789 
L 329.818028 -262.413785 
L 329.221048 -261.892037 
L 328.624067 -261.368554 
L 328.027087 -260.843348 
L 327.430107 -260.316426 
L 326.833127 -259.787801 
L 326.236147 -259.257481 
L 325.639166 -258.725477 
L 325.042186 -258.1918 
L 324.445206 -257.65646 
L 323.848226 -257.11947 
L 323.251245 -256.580838 
L 322.654265 -256.040579 
L 322.057285 -255.498701 
L 321.460305 -254.9739 
L 320.863325 -254.447612 
L 320.266344 -253.919848 
L 319.669364 -253.39062 
L 319.072384 -252.859938 
L 318.475404 -252.327814 
L 317.878423 -251.794259 
L 317.281443 -251.259286 
L 316.684463 -250.722905 
L 316.087483 -250.185129 
L 315.490503 -249.64597 
L 314.893522 -249.105441 
L 314.296542 -248.563553 
L 313.699562 -248.020319 
L 313.102582 -247.475752 
L 312.505601 -246.929864 
L 311.908621 -246.38267 
L 311.311641 -245.834182 
L 310.714661 -245.284413 
L 310.117681 -244.733376 
L 309.5207 -244.181086 
L 308.92372 -243.627556 
L 308.32674 -243.072801 
L 307.72976 -242.516833 
L 307.132779 -241.959667 
L 306.535799 -241.401318 
L 305.938819 -240.841816 
L 305.341839 -240.28116 
L 304.744859 -239.719364 
L 304.147878 -239.156443 
L 303.550898 -238.592413 
L 302.953918 -238.027288 
L 302.356938 -237.461083 
L 301.759957 -236.893815 
L 301.162977 -236.325498 
L 300.565997 -235.756148 
L 299.969017 -235.185781 
L 299.372037 -234.614413 
L 298.775056 -234.042059 
L 298.178076 -233.468737 
L 297.581096 -232.894462 
L 296.984116 -232.31925 
L 296.387135 -231.743118 
L 295.790155 -231.166083 
L 295.193175 -230.58816 
L 294.596195 -230.009368 
L 293.999215 -229.429723 
L 293.402234 -228.849242 
L 292.805254 -228.267942 
L 292.208274 -227.685841 
L 291.611294 -227.102955 
L 291.014313 -226.519302 
L 290.417333 -225.9349 
L 289.820353 -225.349766 
L 289.223373 -224.763918 
L 288.626393 -224.177373 
L 288.029412 -223.59015 
L 287.432432 -223.002267 
L 286.835452 -222.413741 
L 286.238472 -221.824591 
L 285.641491 -221.234835 
L 285.044511 -220.644491 
L 284.447531 -220.053577 
L 283.850551 -219.462113 
L 283.253571 -218.870116 
L 282.65659 -218.277605 
L 282.05961 -217.684599 
L 281.46263 -217.091116 
L 280.86565 -216.497175 
L 280.268669 -215.902795 
L 279.671689 -215.307996 
L 279.074709 -214.712795 
L 278.477729 -214.117211 
L 277.880749 -213.521265 
L 277.283768 -212.924974 
L 276.686788 -212.328359 
L 276.089808 -211.731437 
L 275.492828 -211.134233 
L 274.895847 -210.536761 
L 274.298867 -209.939041 
L 273.701887 -209.341093 
L 273.104907 -208.742935 
L 272.507927 -208.144586 
L 271.910946 -207.546067 
L 271.313966 -206.947397 
L 270.716986 -206.348595 
L 270.120006 -205.749681 
L 269.523025 -205.150673 
L 268.926045 -204.551592 
L 268.329065 -203.952457 
L 267.732085 -203.353288 
L 267.135105 -202.754103 
L 266.538124 -202.154923 
L 265.941144 -201.555767 
L 265.344164 -200.956654 
L 264.747184 -200.357605 
L 264.150203 -199.758638 
L 263.553223 -199.159772 
L 262.956243 -198.561028 
L 262.359263 -197.962425 
L 261.762283 -197.363982 
L 261.165302 -196.765719 
L 260.568322 -196.167655 
L 259.971342 -195.569809 
L 259.374362 -194.972201 
L 258.777381 -194.37485 
L 258.180401 -193.777775 
L 257.583421 -193.180996 
L 256.986441 -192.584531 
L 256.389461 -191.9884 
L 255.79248 -191.392622 
L 255.1955 -190.797215 
L 254.59852 -190.2022 
L 254.00154 -189.607595 
L 253.404559 -189.013418 
L 252.807579 -188.41969 
L 252.210599 -187.826427 
L 251.613619 -187.23365 
L 251.016639 -186.641377 
L 250.419658 -186.049626 
L 249.822678 -185.458417 
L 249.225698 -184.867766 
L 248.628718 -184.277694 
L 248.031737 -183.688218 
L 247.434757 -183.099356 
L 246.837777 -182.511127 
L 246.240797 -181.923549 
L 245.643817 -181.336639 
L 245.046836 -180.750416 
L 244.449856 -180.164898 
L 243.852876 -179.580101 
L 243.255896 -178.996045 
L 242.658915 -178.412746 
L 242.061935 -177.830222 
L 241.464955 -177.248491 
L 240.867975 -176.667569 
L 240.270995 -176.087474 
L 239.674014 -175.508222 
L 239.077034 -174.929832 
L 238.480054 -174.352319 
L 237.883074 -173.7757 
L 237.286093 -173.199993 
L 236.689113 -172.625213 
L 236.092133 -172.051377 
L 235.495153 -171.478502 
L 234.898173 -170.906603 
L 234.301192 -170.335696 
L 233.704212 -169.765799 
L 233.107232 -169.196925 
L 232.510252 -168.629092 
L 231.913271 -168.062314 
L 231.316291 -167.496607 
L 230.719311 -166.931987 
L 230.122331 -166.368468 
L 229.525351 -165.806066 
L 228.92837 -165.244795 
L 228.33139 -164.684671 
L 227.73441 -164.125708 
L 227.13743 -163.56792 
L 226.540449 -163.011323 
L 225.943469 -162.455929 
L 225.346489 -161.901754 
L 224.749509 -161.348812 
L 224.152528 -160.797115 
L 223.555548 -160.246678 
L 222.958568 -159.697515 
L 222.361588 -159.149638 
L 221.764608 -158.603061 
L 221.167627 -158.057798 
L 220.570647 -157.51386 
L 219.973667 -156.971261 
L 219.376687 -156.430014 
L 218.779706 -155.890131 
L 218.182726 -155.351624 
L 217.585746 -154.814505 
L 216.988766 -154.278788 
L 216.391786 -153.744482 
L 215.794805 -153.211601 
L 215.197825 -152.680156 
L 214.600845 -152.150158 
L 214.003865 -151.621619 
L 213.406884 -151.094549 
L 212.809904 -150.56896 
L 212.212924 -150.044862 
L 211.615944 -149.522266 
L 211.018964 -149.001183 
L 210.421983 -148.481622 
L 209.825003 -147.963595 
L 209.228023 -147.447111 
L 208.631043 -146.932179 
L 208.034062 -146.41881 
L 207.437082 -145.907013 
L 206.840102 -145.396798 
L 206.243122 -144.888173 
L 205.646142 -144.381148 
L 205.049161 -143.875732 
L 204.452181 -143.371932 
L 203.855201 -142.869759 
L 203.258221 -142.36922 
L 202.66124 -141.870324 
L 202.06426 -141.373078 
L 201.46728 -140.877491 
L 200.8703 -140.38357 
L 200.27332 -139.891323 
L 199.676339 -139.400757 
L 199.079359 -138.91188 
L 198.482379 -138.424698 
L 197.885399 -137.93922 
L 197.288418 -137.45545 
L 196.691438 -136.973397 
L 196.094458 -136.493067 
L 195.497478 -136.014466 
L 194.900498 -135.537599 
L 194.303517 -135.062474 
L 193.706537 -134.589096 
L 193.109557 -134.117471 
L 192.512577 -133.647604 
L 191.915596 -133.1795 
L 191.318616 -132.713166 
L 190.721636 -132.248605 
L 190.124656 -131.785824 
L 189.527676 -131.324826 
L 188.930695 -130.865616 
L 188.333715 -130.408199 
L 187.736735 -129.952579 
L 187.139755 -129.498761 
L 186.542774 -129.046747 
L 185.945794 -128.596543 
L 185.348814 -128.148152 
L 184.751834 -127.701577 
L 184.154854 -127.256822 
L 183.557873 -126.81389 
L 182.960893 -126.372785 
L 182.363913 -125.933508 
L 181.766933 -125.496064 
L 181.169952 -125.060455 
L 180.572972 -124.626683 
L 179.975992 -124.194751 
L 179.379012 -123.764661 
L 178.782032 -123.336416 
L 178.185051 -122.910016 
L 177.588071 -122.485465 
L 176.991091 -122.062764 
L 176.394111 -121.641914 
L 175.79713 -121.222917 
L 175.20015 -120.805774 
L 174.60317 -120.390487 
L 174.00619 -119.977057 
L 173.40921 -119.565483 
L 172.812229 -119.155769 
L 172.215249 -118.747913 
L 171.618269 -118.341917 
L 171.021289 -117.937781 
L 170.424308 -117.535505 
L 169.827328 -117.135089 
L 169.230348 -116.736534 
L 168.633368 -116.33984 
L 168.036388 -115.945006 
L 167.439407 -115.552032 
L 166.842427 -115.160917 
L 166.245447 -114.771662 
L 165.648467 -114.384265 
L 165.051486 -113.998725 
L 164.454506 -113.615043 
L 163.857526 -113.233216 
L 163.260546 -112.853244 
L 162.663566 -112.475125 
L 162.066585 -112.098859 
L 161.469605 -111.724443 
L 160.872625 -111.351877 
L 160.275645 -110.981158 
L 159.678664 -110.612285 
L 159.081684 -110.245256 
L 158.484704 -109.880069 
L 157.887724 -109.516722 
L 157.290744 -109.155213 
L 156.693763 -108.79554 
L 156.096783 -108.4377 
L 155.499803 -108.081691 
L 154.902823 -107.72751 
L 154.305842 -107.375155 
L 153.708862 -107.024624 
L 153.111882 -106.675912 
L 152.514902 -106.329018 
L 151.917922 -105.983938 
L 151.320941 -105.64067 
L 150.723961 -105.29921 
L 150.126981 -104.959555 
L 149.530001 -104.621702 
L 148.93302 -104.285647 
L 148.33604 -103.951387 
L 147.73906 -103.618918 
L 147.14208 -103.288236 
L 146.5451 -102.959339 
L 145.948119 -102.632222 
L 145.351139 -102.306881 
L 144.754159 -101.983313 
L 144.157179 -101.661513 
L 143.560198 -101.341477 
L 142.963218 -101.023201 
L 142.366238 -100.706682 
L 141.769258 -100.391914 
L 141.172278 -100.078893 
L 140.575297 -99.767615 
L 139.978317 -99.458076 
L 139.381337 -99.150271 
L 138.784357 -98.844195 
L 138.187376 -98.539844 
L 137.590396 -98.237212 
L 136.993416 -97.936296 
L 136.396436 -97.63709 
L 135.799456 -97.33959 
L 135.202475 -97.04379 
L 134.605495 -96.749686 
L 134.008515 -96.457272 
L 133.411535 -96.166544 
L 132.814554 -95.877496 
L 132.217574 -95.590123 
L 131.620594 -95.304419 
L 131.023614 -95.02038 
L 130.426634 -94.738001 
L 129.829653 -94.457275 
L 129.232673 -94.178197 
L 128.635693 -93.900762 
L 128.038713 -93.624965 
L 127.441732 -93.350799 
L 126.844752 -93.07826 
L 126.247772 -92.807341 
L 125.650792 -92.538037 
L 125.053812 -92.270342 
L 124.456831 -92.00425 
L 123.859851 -91.739757 
L 123.262871 -91.476855 
L 122.665891 -91.215539 
L 122.06891 -90.955803 
L 121.47193 -90.697641 
L 120.87495 -90.441048 
L 120.27797 -90.186016 
L 119.68099 -89.932541 
L 119.084009 -89.680617 
L 118.487029 -89.430236 
L 117.890049 -89.181394 
L 117.293069 -88.934083 
L 116.696088 -88.688299 
L 116.099108 -88.444034 
L 115.502128 -88.201282 
L 114.905148 -87.960038 
L 114.308168 -87.720295 
L 113.711187 -87.482047 
L 113.114207 -87.245288 
L 112.517227 -87.010011 
L 111.920247 -86.77621 
L 111.323266 -86.543879 
L 110.726286 -86.313011 
L 110.129306 -86.0836 
L 109.532326 -85.85564 
L 108.935346 -85.629124 
L 108.338365 -85.404046 
L 107.741385 -85.1804 
L 107.144405 -84.958179 
L 106.547425 -84.737377 
L 105.950444 -84.517987 
L 105.353464 -84.300003 
L 104.756484 -84.083418 
L 104.159504 -83.868227 
L 103.562524 -83.654421 
L 102.965543 -83.441996 
L 102.368563 -83.230945 
L 101.771583 -83.021261 
L 101.174603 -82.812937 
L 100.577622 -82.605967 
L 99.980642 -82.400345 
L 99.383662 -82.196064 
L 98.786682 -81.993118 
L 98.189702 -81.7915 
L 97.592721 -81.591204 
L 96.995741 -81.392223 
L 96.398761 -81.19455 
L 95.801781 -80.99818 
L 95.2048 -80.803105 
L 94.60782 -80.60932 
L 94.01084 -80.416817 
L 93.41386 -80.22559 
L 92.81688 -80.035633 
L 92.219899 -79.846939 
L 91.622919 -79.659502 
L 91.025939 -79.473316 
L 90.428959 -79.288373 
L 89.831978 -79.104667 
L 89.234998 -78.922192 
L 88.638018 -78.740942 
L 88.041038 -78.56091 
L 87.444058 -78.382089 
L 86.847077 -78.204473 
L 86.250097 -78.028056 
L 85.653117 -77.852831 
L 85.056137 -77.678792 
L 84.459156 -77.505933 
L 83.862176 -77.334247 
L 83.265196 -77.163727 
L 82.668216 -76.994368 
L 82.071236 -76.826163 
L 81.474255 -76.659105 
L 80.877275 -76.493189 
L 80.280295 -76.328408 
L 79.683315 -76.164756 
L 79.086334 -76.002226 
L 78.489354 -75.840812 
L 77.892374 -75.680508 
z
" id="m02a0718308" style="stroke:#0072b2;stroke-opacity:0.2;"/>
    </defs>
    <g clip-path="url(#pd57e1e5ec5)">
     <use style="fill:#0072b2;fill-opacity:0.2;stroke:#0072b2;stroke-opacity:0.2;" x="0" xlink:href="#m02a0718308" y="373.491875"/>
    </g>
   </g>
   <g id="matplotlib.axis_1">
    <g id="xtick_1">
     <g id="line2d_1">
      <path clip-path="url(#pd57e1e5ec5)" d="M 77.892374 334 
L 77.892374 7.2 
" style="fill:none;stroke:#808080;stroke-linecap:square;stroke-opacity:0.2;"/>
     </g>
     <g id="line2d_2">
      <defs>
       <path d="M 0 0 
L 0 3.5 
" id="ma9eed47dea" style="stroke:#000000;stroke-width:0.8;"/>
      </defs>
      <g>
       <use style="stroke:#000000;stroke-width:0.8;" x="77.892374" xlink:href="#ma9eed47dea" y="334"/>
      </g>
     </g>
     <g id="text_1">
      <!-- 2017-05 -->
      <defs>
       <path d="M 19.1875 8.296875 
L 53.609375 8.296875 
L 53.609375 0 
L 7.328125 0 
L 7.328125 8.296875 
Q 12.9375 14.109375 22.625 23.890625 
Q 32.328125 33.6875 34.8125 36.53125 
Q 39.546875 41.84375 41.421875 45.53125 
Q 43.3125 49.21875 43.3125 52.78125 
Q 43.3125 58.59375 39.234375 62.25 
Q 35.15625 65.921875 28.609375 65.921875 
Q 23.96875 65.921875 18.8125 64.3125 
Q 13.671875 62.703125 7.8125 59.421875 
L 7.8125 69.390625 
Q 13.765625 71.78125 18.9375 73 
Q 24.125 74.21875 28.421875 74.21875 
Q 39.75 74.21875 46.484375 68.546875 
Q 53.21875 62.890625 53.21875 53.421875 
Q 53.21875 48.921875 51.53125 44.890625 
Q 49.859375 40.875 45.40625 35.40625 
Q 44.1875 33.984375 37.640625 27.21875 
Q 31.109375 20.453125 19.1875 8.296875 
z
" id="DejaVuSans-50"/>
       <path d="M 31.78125 66.40625 
Q 24.171875 66.40625 20.328125 58.90625 
Q 16.5 51.421875 16.5 36.375 
Q 16.5 21.390625 20.328125 13.890625 
Q 24.171875 6.390625 31.78125 6.390625 
Q 39.453125 6.390625 43.28125 13.890625 
Q 47.125 21.390625 47.125 36.375 
Q 47.125 51.421875 43.28125 58.90625 
Q 39.453125 66.40625 31.78125 66.40625 
z
M 31.78125 74.21875 
Q 44.046875 74.21875 50.515625 64.515625 
Q 56.984375 54.828125 56.984375 36.375 
Q 56.984375 17.96875 50.515625 8.265625 
Q 44.046875 -1.421875 31.78125 -1.421875 
Q 19.53125 -1.421875 13.0625 8.265625 
Q 6.59375 17.96875 6.59375 36.375 
Q 6.59375 54.828125 13.0625 64.515625 
Q 19.53125 74.21875 31.78125 74.21875 
z
" id="DejaVuSans-48"/>
       <path d="M 12.40625 8.296875 
L 28.515625 8.296875 
L 28.515625 63.921875 
L 10.984375 60.40625 
L 10.984375 69.390625 
L 28.421875 72.90625 
L 38.28125 72.90625 
L 38.28125 8.296875 
L 54.390625 8.296875 
L 54.390625 0 
L 12.40625 0 
z
" id="DejaVuSans-49"/>
       <path d="M 8.203125 72.90625 
L 55.078125 72.90625 
L 55.078125 68.703125 
L 28.609375 0 
L 18.3125 0 
L 43.21875 64.59375 
L 8.203125 64.59375 
z
" id="DejaVuSans-55"/>
       <path d="M 4.890625 31.390625 
L 31.203125 31.390625 
L 31.203125 23.390625 
L 4.890625 23.390625 
z
" id="DejaVuSans-45"/>
       <path d="M 10.796875 72.90625 
L 49.515625 72.90625 
L 49.515625 64.59375 
L 19.828125 64.59375 
L 19.828125 46.734375 
Q 21.96875 47.46875 24.109375 47.828125 
Q 26.265625 48.1875 28.421875 48.1875 
Q 40.625 48.1875 47.75 41.5 
Q 54.890625 34.8125 54.890625 23.390625 
Q 54.890625 11.625 47.5625 5.09375 
Q 40.234375 -1.421875 26.90625 -1.421875 
Q 22.3125 -1.421875 17.546875 -0.640625 
Q 12.796875 0.140625 7.71875 1.703125 
L 7.71875 11.625 
Q 12.109375 9.234375 16.796875 8.0625 
Q 21.484375 6.890625 26.703125 6.890625 
Q 35.15625 6.890625 40.078125 11.328125 
Q 45.015625 15.765625 45.015625 23.390625 
Q 45.015625 31 40.078125 35.4375 
Q 35.15625 39.890625 26.703125 39.890625 
Q 22.75 39.890625 18.8125 39.015625 
Q 14.890625 38.140625 10.796875 36.28125 
z
" id="DejaVuSans-53"/>
      </defs>
      <g style="fill:#ea9808;" transform="translate(52.822686 350.118125)scale(0.12 -0.12)">
       <use xlink:href="#DejaVuSans-50"/>
       <use x="63.623047" xlink:href="#DejaVuSans-48"/>
       <use x="127.246094" xlink:href="#DejaVuSans-49"/>
       <use x="190.869141" xlink:href="#DejaVuSans-55"/>
       <use x="254.492188" xlink:href="#DejaVuSans-45"/>
       <use x="290.576172" xlink:href="#DejaVuSans-48"/>
       <use x="354.199219" xlink:href="#DejaVuSans-53"/>
      </g>
     </g>
    </g>
    <g id="xtick_2">
     <g id="line2d_3">
      <path clip-path="url(#pd57e1e5ec5)" d="M 151.320941 334 
L 151.320941 7.2 
" style="fill:none;stroke:#808080;stroke-linecap:square;stroke-opacity:0.2;"/>
     </g>
     <g id="line2d_4">
      <g>
       <use style="stroke:#000000;stroke-width:0.8;" x="151.320941" xlink:href="#ma9eed47dea" y="334"/>
      </g>
     </g>
     <g id="text_2">
      <!-- 2017-09 -->
      <defs>
       <path d="M 10.984375 1.515625 
L 10.984375 10.5 
Q 14.703125 8.734375 18.5 7.8125 
Q 22.3125 6.890625 25.984375 6.890625 
Q 35.75 6.890625 40.890625 13.453125 
Q 46.046875 20.015625 46.78125 33.40625 
Q 43.953125 29.203125 39.59375 26.953125 
Q 35.25 24.703125 29.984375 24.703125 
Q 19.046875 24.703125 12.671875 31.3125 
Q 6.296875 37.9375 6.296875 49.421875 
Q 6.296875 60.640625 12.9375 67.421875 
Q 19.578125 74.21875 30.609375 74.21875 
Q 43.265625 74.21875 49.921875 64.515625 
Q 56.59375 54.828125 56.59375 36.375 
Q 56.59375 19.140625 48.40625 8.859375 
Q 40.234375 -1.421875 26.421875 -1.421875 
Q 22.703125 -1.421875 18.890625 -0.6875 
Q 15.09375 0.046875 10.984375 1.515625 
z
M 30.609375 32.421875 
Q 37.25 32.421875 41.125 36.953125 
Q 45.015625 41.5 45.015625 49.421875 
Q 45.015625 57.28125 41.125 61.84375 
Q 37.25 66.40625 30.609375 66.40625 
Q 23.96875 66.40625 20.09375 61.84375 
Q 16.21875 57.28125 16.21875 49.421875 
Q 16.21875 41.5 20.09375 36.953125 
Q 23.96875 32.421875 30.609375 32.421875 
z
" id="DejaVuSans-57"/>
      </defs>
      <g style="fill:#ea9808;" transform="translate(126.251254 350.118125)scale(0.12 -0.12)">
       <use xlink:href="#DejaVuSans-50"/>
       <use x="63.623047" xlink:href="#DejaVuSans-48"/>
       <use x="127.246094" xlink:href="#DejaVuSans-49"/>
       <use x="190.869141" xlink:href="#DejaVuSans-55"/>
       <use x="254.492188" xlink:href="#DejaVuSans-45"/>
       <use x="290.576172" xlink:href="#DejaVuSans-48"/>
       <use x="354.199219" xlink:href="#DejaVuSans-57"/>
      </g>
     </g>
    </g>
    <g id="xtick_3">
     <g id="line2d_5">
      <path clip-path="url(#pd57e1e5ec5)" d="M 224.152528 334 
L 224.152528 7.2 
" style="fill:none;stroke:#808080;stroke-linecap:square;stroke-opacity:0.2;"/>
     </g>
     <g id="line2d_6">
      <g>
       <use style="stroke:#000000;stroke-width:0.8;" x="224.152528" xlink:href="#ma9eed47dea" y="334"/>
      </g>
     </g>
     <g id="text_3">
      <!-- 2018-01 -->
      <defs>
       <path d="M 31.78125 34.625 
Q 24.75 34.625 20.71875 30.859375 
Q 16.703125 27.09375 16.703125 20.515625 
Q 16.703125 13.921875 20.71875 10.15625 
Q 24.75 6.390625 31.78125 6.390625 
Q 38.8125 6.390625 42.859375 10.171875 
Q 46.921875 13.96875 46.921875 20.515625 
Q 46.921875 27.09375 42.890625 30.859375 
Q 38.875 34.625 31.78125 34.625 
z
M 21.921875 38.8125 
Q 15.578125 40.375 12.03125 44.71875 
Q 8.5 49.078125 8.5 55.328125 
Q 8.5 64.0625 14.71875 69.140625 
Q 20.953125 74.21875 31.78125 74.21875 
Q 42.671875 74.21875 48.875 69.140625 
Q 55.078125 64.0625 55.078125 55.328125 
Q 55.078125 49.078125 51.53125 44.71875 
Q 48 40.375 41.703125 38.8125 
Q 48.828125 37.15625 52.796875 32.3125 
Q 56.78125 27.484375 56.78125 20.515625 
Q 56.78125 9.90625 50.3125 4.234375 
Q 43.84375 -1.421875 31.78125 -1.421875 
Q 19.734375 -1.421875 13.25 4.234375 
Q 6.78125 9.90625 6.78125 20.515625 
Q 6.78125 27.484375 10.78125 32.3125 
Q 14.796875 37.15625 21.921875 38.8125 
z
M 18.3125 54.390625 
Q 18.3125 48.734375 21.84375 45.5625 
Q 25.390625 42.390625 31.78125 42.390625 
Q 38.140625 42.390625 41.71875 45.5625 
Q 45.3125 48.734375 45.3125 54.390625 
Q 45.3125 60.0625 41.71875 63.234375 
Q 38.140625 66.40625 31.78125 66.40625 
Q 25.390625 66.40625 21.84375 63.234375 
Q 18.3125 60.0625 18.3125 54.390625 
z
" id="DejaVuSans-56"/>
      </defs>
      <g style="fill:#ea9808;" transform="translate(199.082841 350.118125)scale(0.12 -0.12)">
       <use xlink:href="#DejaVuSans-50"/>
       <use x="63.623047" xlink:href="#DejaVuSans-48"/>
       <use x="127.246094" xlink:href="#DejaVuSans-49"/>
       <use x="190.869141" xlink:href="#DejaVuSans-56"/>
       <use x="254.492188" xlink:href="#DejaVuSans-45"/>
       <use x="290.576172" xlink:href="#DejaVuSans-48"/>
       <use x="354.199219" xlink:href="#DejaVuSans-49"/>
      </g>
     </g>
    </g>
    <g id="xtick_4">
     <g id="line2d_7">
      <path clip-path="url(#pd57e1e5ec5)" d="M 295.790155 334 
L 295.790155 7.2 
" style="fill:none;stroke:#808080;stroke-linecap:square;stroke-opacity:0.2;"/>
     </g>
     <g id="line2d_8">
      <g>
       <use style="stroke:#000000;stroke-width:0.8;" x="295.790155" xlink:href="#ma9eed47dea" y="334"/>
      </g>
     </g>
     <g id="text_4">
      <!-- 2018-05 -->
      <g style="fill:#ea9808;" transform="translate(270.720468 350.118125)scale(0.12 -0.12)">
       <use xlink:href="#DejaVuSans-50"/>
       <use x="63.623047" xlink:href="#DejaVuSans-48"/>
       <use x="127.246094" xlink:href="#DejaVuSans-49"/>
       <use x="190.869141" xlink:href="#DejaVuSans-56"/>
       <use x="254.492188" xlink:href="#DejaVuSans-45"/>
       <use x="290.576172" xlink:href="#DejaVuSans-48"/>
       <use x="354.199219" xlink:href="#DejaVuSans-53"/>
      </g>
     </g>
    </g>
    <g id="xtick_5">
     <g id="line2d_9">
      <path clip-path="url(#pd57e1e5ec5)" d="M 369.218723 334 
L 369.218723 7.2 
" style="fill:none;stroke:#808080;stroke-linecap:square;stroke-opacity:0.2;"/>
     </g>
     <g id="line2d_10">
      <g>
       <use style="stroke:#000000;stroke-width:0.8;" x="369.218723" xlink:href="#ma9eed47dea" y="334"/>
      </g>
     </g>
     <g id="text_5">
      <!-- 2018-09 -->
      <g style="fill:#ea9808;" transform="translate(344.149035 350.118125)scale(0.12 -0.12)">
       <use xlink:href="#DejaVuSans-50"/>
       <use x="63.623047" xlink:href="#DejaVuSans-48"/>
       <use x="127.246094" xlink:href="#DejaVuSans-49"/>
       <use x="190.869141" xlink:href="#DejaVuSans-56"/>
       <use x="254.492188" xlink:href="#DejaVuSans-45"/>
       <use x="290.576172" xlink:href="#DejaVuSans-48"/>
       <use x="354.199219" xlink:href="#DejaVuSans-57"/>
      </g>
     </g>
    </g>
    <g id="xtick_6">
     <g id="line2d_11">
      <path clip-path="url(#pd57e1e5ec5)" d="M 442.05031 334 
L 442.05031 7.2 
" style="fill:none;stroke:#808080;stroke-linecap:square;stroke-opacity:0.2;"/>
     </g>
     <g id="line2d_12">
      <g>
       <use style="stroke:#000000;stroke-width:0.8;" x="442.05031" xlink:href="#ma9eed47dea" y="334"/>
      </g>
     </g>
     <g id="text_6">
      <!-- 2019-01 -->
      <g style="fill:#ea9808;" transform="translate(416.980622 350.118125)scale(0.12 -0.12)">
       <use xlink:href="#DejaVuSans-50"/>
       <use x="63.623047" xlink:href="#DejaVuSans-48"/>
       <use x="127.246094" xlink:href="#DejaVuSans-49"/>
       <use x="190.869141" xlink:href="#DejaVuSans-57"/>
       <use x="254.492188" xlink:href="#DejaVuSans-45"/>
       <use x="290.576172" xlink:href="#DejaVuSans-48"/>
       <use x="354.199219" xlink:href="#DejaVuSans-49"/>
      </g>
     </g>
    </g>
    <g id="xtick_7">
     <g id="line2d_13">
      <path clip-path="url(#pd57e1e5ec5)" d="M 513.687936 334 
L 513.687936 7.2 
" style="fill:none;stroke:#808080;stroke-linecap:square;stroke-opacity:0.2;"/>
     </g>
     <g id="line2d_14">
      <g>
       <use style="stroke:#000000;stroke-width:0.8;" x="513.687936" xlink:href="#ma9eed47dea" y="334"/>
      </g>
     </g>
     <g id="text_7">
      <!-- 2019-05 -->
      <g style="fill:#ea9808;" transform="translate(488.618249 350.118125)scale(0.12 -0.12)">
       <use xlink:href="#DejaVuSans-50"/>
       <use x="63.623047" xlink:href="#DejaVuSans-48"/>
       <use x="127.246094" xlink:href="#DejaVuSans-49"/>
       <use x="190.869141" xlink:href="#DejaVuSans-57"/>
       <use x="254.492188" xlink:href="#DejaVuSans-45"/>
       <use x="290.576172" xlink:href="#DejaVuSans-48"/>
       <use x="354.199219" xlink:href="#DejaVuSans-53"/>
      </g>
     </g>
    </g>
    <g id="xtick_8">
     <g id="line2d_15">
      <path clip-path="url(#pd57e1e5ec5)" d="M 587.116504 334 
L 587.116504 7.2 
" style="fill:none;stroke:#808080;stroke-linecap:square;stroke-opacity:0.2;"/>
     </g>
     <g id="line2d_16">
      <g>
       <use style="stroke:#000000;stroke-width:0.8;" x="587.116504" xlink:href="#ma9eed47dea" y="334"/>
      </g>
     </g>
     <g id="text_8">
      <!-- 2019-09 -->
      <g style="fill:#ea9808;" transform="translate(562.046816 350.118125)scale(0.12 -0.12)">
       <use xlink:href="#DejaVuSans-50"/>
       <use x="63.623047" xlink:href="#DejaVuSans-48"/>
       <use x="127.246094" xlink:href="#DejaVuSans-49"/>
       <use x="190.869141" xlink:href="#DejaVuSans-57"/>
       <use x="254.492188" xlink:href="#DejaVuSans-45"/>
       <use x="290.576172" xlink:href="#DejaVuSans-48"/>
       <use x="354.199219" xlink:href="#DejaVuSans-57"/>
      </g>
     </g>
    </g>
    <g id="xtick_9">
     <g id="line2d_17">
      <path clip-path="url(#pd57e1e5ec5)" d="M 659.948091 334 
L 659.948091 7.2 
" style="fill:none;stroke:#808080;stroke-linecap:square;stroke-opacity:0.2;"/>
     </g>
     <g id="line2d_18">
      <g>
       <use style="stroke:#000000;stroke-width:0.8;" x="659.948091" xlink:href="#ma9eed47dea" y="334"/>
      </g>
     </g>
     <g id="text_9">
      <!-- 2020-01 -->
      <g style="fill:#ea9808;" transform="translate(634.878404 350.118125)scale(0.12 -0.12)">
       <use xlink:href="#DejaVuSans-50"/>
       <use x="63.623047" xlink:href="#DejaVuSans-48"/>
       <use x="127.246094" xlink:href="#DejaVuSans-50"/>
       <use x="190.869141" xlink:href="#DejaVuSans-48"/>
       <use x="254.492188" xlink:href="#DejaVuSans-45"/>
       <use x="290.576172" xlink:href="#DejaVuSans-48"/>
       <use x="354.199219" xlink:href="#DejaVuSans-49"/>
      </g>
     </g>
    </g>
    <g id="xtick_10">
     <g id="line2d_19">
      <path clip-path="url(#pd57e1e5ec5)" d="M 732.182698 334 
L 732.182698 7.2 
" style="fill:none;stroke:#808080;stroke-linecap:square;stroke-opacity:0.2;"/>
     </g>
     <g id="line2d_20">
      <g>
       <use style="stroke:#000000;stroke-width:0.8;" x="732.182698" xlink:href="#ma9eed47dea" y="334"/>
      </g>
     </g>
     <g id="text_10">
      <!-- 2020-05 -->
      <g style="fill:#ea9808;" transform="translate(707.11301 350.118125)scale(0.12 -0.12)">
       <use xlink:href="#DejaVuSans-50"/>
       <use x="63.623047" xlink:href="#DejaVuSans-48"/>
       <use x="127.246094" xlink:href="#DejaVuSans-50"/>
       <use x="190.869141" xlink:href="#DejaVuSans-48"/>
       <use x="254.492188" xlink:href="#DejaVuSans-45"/>
       <use x="290.576172" xlink:href="#DejaVuSans-48"/>
       <use x="354.199219" xlink:href="#DejaVuSans-53"/>
      </g>
     </g>
    </g>
    <g id="xtick_11">
     <g id="line2d_21">
      <path clip-path="url(#pd57e1e5ec5)" d="M 805.611265 334 
L 805.611265 7.2 
" style="fill:none;stroke:#808080;stroke-linecap:square;stroke-opacity:0.2;"/>
     </g>
     <g id="line2d_22">
      <g>
       <use style="stroke:#000000;stroke-width:0.8;" x="805.611265" xlink:href="#ma9eed47dea" y="334"/>
      </g>
     </g>
     <g id="text_11">
      <!-- 2020-09 -->
      <g style="fill:#ea9808;" transform="translate(780.541578 350.118125)scale(0.12 -0.12)">
       <use xlink:href="#DejaVuSans-50"/>
       <use x="63.623047" xlink:href="#DejaVuSans-48"/>
       <use x="127.246094" xlink:href="#DejaVuSans-50"/>
       <use x="190.869141" xlink:href="#DejaVuSans-48"/>
       <use x="254.492188" xlink:href="#DejaVuSans-45"/>
       <use x="290.576172" xlink:href="#DejaVuSans-48"/>
       <use x="354.199219" xlink:href="#DejaVuSans-57"/>
      </g>
     </g>
    </g>
    <g id="text_12">
     <!-- ds -->
     <defs>
      <path d="M 45.40625 46.390625 
L 45.40625 75.984375 
L 54.390625 75.984375 
L 54.390625 0 
L 45.40625 0 
L 45.40625 8.203125 
Q 42.578125 3.328125 38.25 0.953125 
Q 33.9375 -1.421875 27.875 -1.421875 
Q 17.96875 -1.421875 11.734375 6.484375 
Q 5.515625 14.40625 5.515625 27.296875 
Q 5.515625 40.1875 11.734375 48.09375 
Q 17.96875 56 27.875 56 
Q 33.9375 56 38.25 53.625 
Q 42.578125 51.265625 45.40625 46.390625 
z
M 14.796875 27.296875 
Q 14.796875 17.390625 18.875 11.75 
Q 22.953125 6.109375 30.078125 6.109375 
Q 37.203125 6.109375 41.296875 11.75 
Q 45.40625 17.390625 45.40625 27.296875 
Q 45.40625 37.203125 41.296875 42.84375 
Q 37.203125 48.484375 30.078125 48.484375 
Q 22.953125 48.484375 18.875 42.84375 
Q 14.796875 37.203125 14.796875 27.296875 
z
" id="DejaVuSans-100"/>
      <path d="M 44.28125 53.078125 
L 44.28125 44.578125 
Q 40.484375 46.53125 36.375 47.5 
Q 32.28125 48.484375 27.875 48.484375 
Q 21.1875 48.484375 17.84375 46.4375 
Q 14.5 44.390625 14.5 40.28125 
Q 14.5 37.15625 16.890625 35.375 
Q 19.28125 33.59375 26.515625 31.984375 
L 29.59375 31.296875 
Q 39.15625 29.25 43.1875 25.515625 
Q 47.21875 21.78125 47.21875 15.09375 
Q 47.21875 7.46875 41.1875 3.015625 
Q 35.15625 -1.421875 24.609375 -1.421875 
Q 20.21875 -1.421875 15.453125 -0.5625 
Q 10.6875 0.296875 5.421875 2 
L 5.421875 11.28125 
Q 10.40625 8.6875 15.234375 7.390625 
Q 20.0625 6.109375 24.8125 6.109375 
Q 31.15625 6.109375 34.5625 8.28125 
Q 37.984375 10.453125 37.984375 14.40625 
Q 37.984375 18.0625 35.515625 20.015625 
Q 33.0625 21.96875 24.703125 23.78125 
L 21.578125 24.515625 
Q 13.234375 26.265625 9.515625 29.90625 
Q 5.8125 33.546875 5.8125 39.890625 
Q 5.8125 47.609375 11.28125 51.796875 
Q 16.75 56 26.8125 56 
Q 31.78125 56 36.171875 55.265625 
Q 40.578125 54.546875 44.28125 53.078125 
z
" id="DejaVuSans-115"/>
     </defs>
     <g style="fill:#ffffff;" transform="translate(419.555957 364.212187)scale(0.1 -0.1)">
      <use xlink:href="#DejaVuSans-100"/>
      <use x="63.476562" xlink:href="#DejaVuSans-115"/>
     </g>
    </g>
   </g>
   <g id="matplotlib.axis_2">
    <g id="ytick_1">
     <g id="line2d_23">
      <path clip-path="url(#pd57e1e5ec5)" d="M 43.148125 326.76317 
L 807.521602 326.76317 
" style="fill:none;stroke:#808080;stroke-linecap:square;stroke-opacity:0.2;"/>
     </g>
     <g id="line2d_24">
      <defs>
       <path d="M 0 0 
L -3.5 0 
" id="meef50b7494" style="stroke:#000000;stroke-width:0.8;"/>
      </defs>
      <g>
       <use style="stroke:#000000;stroke-width:0.8;" x="43.148125" xlink:href="#meef50b7494" y="326.76317"/>
      </g>
     </g>
     <g id="text_13">
      <!-- 0 -->
      <g style="fill:#ea9808;" transform="translate(28.513125 331.322233)scale(0.12 -0.12)">
       <use xlink:href="#DejaVuSans-48"/>
      </g>
     </g>
    </g>
    <g id="ytick_2">
     <g id="line2d_25">
      <path clip-path="url(#pd57e1e5ec5)" d="M 43.148125 288.674592 
L 807.521602 288.674592 
" style="fill:none;stroke:#808080;stroke-linecap:square;stroke-opacity:0.2;"/>
     </g>
     <g id="line2d_26">
      <g>
       <use style="stroke:#000000;stroke-width:0.8;" x="43.148125" xlink:href="#meef50b7494" y="288.674592"/>
      </g>
     </g>
     <g id="text_14">
      <!-- 5 -->
      <g style="fill:#ea9808;" transform="translate(28.513125 293.233655)scale(0.12 -0.12)">
       <use xlink:href="#DejaVuSans-53"/>
      </g>
     </g>
    </g>
    <g id="ytick_3">
     <g id="line2d_27">
      <path clip-path="url(#pd57e1e5ec5)" d="M 43.148125 250.586014 
L 807.521602 250.586014 
" style="fill:none;stroke:#808080;stroke-linecap:square;stroke-opacity:0.2;"/>
     </g>
     <g id="line2d_28">
      <g>
       <use style="stroke:#000000;stroke-width:0.8;" x="43.148125" xlink:href="#meef50b7494" y="250.586014"/>
      </g>
     </g>
     <g id="text_15">
      <!-- 10 -->
      <g style="fill:#ea9808;" transform="translate(20.878125 255.145076)scale(0.12 -0.12)">
       <use xlink:href="#DejaVuSans-49"/>
       <use x="63.623047" xlink:href="#DejaVuSans-48"/>
      </g>
     </g>
    </g>
    <g id="ytick_4">
     <g id="line2d_29">
      <path clip-path="url(#pd57e1e5ec5)" d="M 43.148125 212.497436 
L 807.521602 212.497436 
" style="fill:none;stroke:#808080;stroke-linecap:square;stroke-opacity:0.2;"/>
     </g>
     <g id="line2d_30">
      <g>
       <use style="stroke:#000000;stroke-width:0.8;" x="43.148125" xlink:href="#meef50b7494" y="212.497436"/>
      </g>
     </g>
     <g id="text_16">
      <!-- 15 -->
      <g style="fill:#ea9808;" transform="translate(20.878125 217.056498)scale(0.12 -0.12)">
       <use xlink:href="#DejaVuSans-49"/>
       <use x="63.623047" xlink:href="#DejaVuSans-53"/>
      </g>
     </g>
    </g>
    <g id="ytick_5">
     <g id="line2d_31">
      <path clip-path="url(#pd57e1e5ec5)" d="M 43.148125 174.408858 
L 807.521602 174.408858 
" style="fill:none;stroke:#808080;stroke-linecap:square;stroke-opacity:0.2;"/>
     </g>
     <g id="line2d_32">
      <g>
       <use style="stroke:#000000;stroke-width:0.8;" x="43.148125" xlink:href="#meef50b7494" y="174.408858"/>
      </g>
     </g>
     <g id="text_17">
      <!-- 20 -->
      <g style="fill:#ea9808;" transform="translate(20.878125 178.96792)scale(0.12 -0.12)">
       <use xlink:href="#DejaVuSans-50"/>
       <use x="63.623047" xlink:href="#DejaVuSans-48"/>
      </g>
     </g>
    </g>
    <g id="ytick_6">
     <g id="line2d_33">
      <path clip-path="url(#pd57e1e5ec5)" d="M 43.148125 136.32028 
L 807.521602 136.32028 
" style="fill:none;stroke:#808080;stroke-linecap:square;stroke-opacity:0.2;"/>
     </g>
     <g id="line2d_34">
      <g>
       <use style="stroke:#000000;stroke-width:0.8;" x="43.148125" xlink:href="#meef50b7494" y="136.32028"/>
      </g>
     </g>
     <g id="text_18">
      <!-- 25 -->
      <g style="fill:#ea9808;" transform="translate(20.878125 140.879342)scale(0.12 -0.12)">
       <use xlink:href="#DejaVuSans-50"/>
       <use x="63.623047" xlink:href="#DejaVuSans-53"/>
      </g>
     </g>
    </g>
    <g id="ytick_7">
     <g id="line2d_35">
      <path clip-path="url(#pd57e1e5ec5)" d="M 43.148125 98.231702 
L 807.521602 98.231702 
" style="fill:none;stroke:#808080;stroke-linecap:square;stroke-opacity:0.2;"/>
     </g>
     <g id="line2d_36">
      <g>
       <use style="stroke:#000000;stroke-width:0.8;" x="43.148125" xlink:href="#meef50b7494" y="98.231702"/>
      </g>
     </g>
     <g id="text_19">
      <!-- 30 -->
      <defs>
       <path d="M 40.578125 39.3125 
Q 47.65625 37.796875 51.625 33 
Q 55.609375 28.21875 55.609375 21.1875 
Q 55.609375 10.40625 48.1875 4.484375 
Q 40.765625 -1.421875 27.09375 -1.421875 
Q 22.515625 -1.421875 17.65625 -0.515625 
Q 12.796875 0.390625 7.625 2.203125 
L 7.625 11.71875 
Q 11.71875 9.328125 16.59375 8.109375 
Q 21.484375 6.890625 26.8125 6.890625 
Q 36.078125 6.890625 40.9375 10.546875 
Q 45.796875 14.203125 45.796875 21.1875 
Q 45.796875 27.640625 41.28125 31.265625 
Q 36.765625 34.90625 28.71875 34.90625 
L 20.21875 34.90625 
L 20.21875 43.015625 
L 29.109375 43.015625 
Q 36.375 43.015625 40.234375 45.921875 
Q 44.09375 48.828125 44.09375 54.296875 
Q 44.09375 59.90625 40.109375 62.90625 
Q 36.140625 65.921875 28.71875 65.921875 
Q 24.65625 65.921875 20.015625 65.03125 
Q 15.375 64.15625 9.8125 62.3125 
L 9.8125 71.09375 
Q 15.4375 72.65625 20.34375 73.4375 
Q 25.25 74.21875 29.59375 74.21875 
Q 40.828125 74.21875 47.359375 69.109375 
Q 53.90625 64.015625 53.90625 55.328125 
Q 53.90625 49.265625 50.4375 45.09375 
Q 46.96875 40.921875 40.578125 39.3125 
z
" id="DejaVuSans-51"/>
      </defs>
      <g style="fill:#ea9808;" transform="translate(20.878125 102.790764)scale(0.12 -0.12)">
       <use xlink:href="#DejaVuSans-51"/>
       <use x="63.623047" xlink:href="#DejaVuSans-48"/>
      </g>
     </g>
    </g>
    <g id="ytick_8">
     <g id="line2d_37">
      <path clip-path="url(#pd57e1e5ec5)" d="M 43.148125 60.143124 
L 807.521602 60.143124 
" style="fill:none;stroke:#808080;stroke-linecap:square;stroke-opacity:0.2;"/>
     </g>
     <g id="line2d_38">
      <g>
       <use style="stroke:#000000;stroke-width:0.8;" x="43.148125" xlink:href="#meef50b7494" y="60.143124"/>
      </g>
     </g>
     <g id="text_20">
      <!-- 35 -->
      <g style="fill:#ea9808;" transform="translate(20.878125 64.702186)scale(0.12 -0.12)">
       <use xlink:href="#DejaVuSans-51"/>
       <use x="63.623047" xlink:href="#DejaVuSans-53"/>
      </g>
     </g>
    </g>
    <g id="ytick_9">
     <g id="line2d_39">
      <path clip-path="url(#pd57e1e5ec5)" d="M 43.148125 22.054545 
L 807.521602 22.054545 
" style="fill:none;stroke:#808080;stroke-linecap:square;stroke-opacity:0.2;"/>
     </g>
     <g id="line2d_40">
      <g>
       <use style="stroke:#000000;stroke-width:0.8;" x="43.148125" xlink:href="#meef50b7494" y="22.054545"/>
      </g>
     </g>
     <g id="text_21">
      <!-- 40 -->
      <defs>
       <path d="M 37.796875 64.3125 
L 12.890625 25.390625 
L 37.796875 25.390625 
z
M 35.203125 72.90625 
L 47.609375 72.90625 
L 47.609375 25.390625 
L 58.015625 25.390625 
L 58.015625 17.1875 
L 47.609375 17.1875 
L 47.609375 0 
L 37.796875 0 
L 37.796875 17.1875 
L 4.890625 17.1875 
L 4.890625 26.703125 
z
" id="DejaVuSans-52"/>
      </defs>
      <g style="fill:#ea9808;" transform="translate(20.878125 26.613608)scale(0.12 -0.12)">
       <use xlink:href="#DejaVuSans-52"/>
       <use x="63.623047" xlink:href="#DejaVuSans-48"/>
      </g>
     </g>
    </g>
    <g id="text_22">
     <!-- trend -->
     <defs>
      <path d="M 18.3125 70.21875 
L 18.3125 54.6875 
L 36.8125 54.6875 
L 36.8125 47.703125 
L 18.3125 47.703125 
L 18.3125 18.015625 
Q 18.3125 11.328125 20.140625 9.421875 
Q 21.96875 7.515625 27.59375 7.515625 
L 36.8125 7.515625 
L 36.8125 0 
L 27.59375 0 
Q 17.1875 0 13.234375 3.875 
Q 9.28125 7.765625 9.28125 18.015625 
L 9.28125 47.703125 
L 2.6875 47.703125 
L 2.6875 54.6875 
L 9.28125 54.6875 
L 9.28125 70.21875 
z
" id="DejaVuSans-116"/>
      <path d="M 41.109375 46.296875 
Q 39.59375 47.171875 37.8125 47.578125 
Q 36.03125 48 33.890625 48 
Q 26.265625 48 22.1875 43.046875 
Q 18.109375 38.09375 18.109375 28.8125 
L 18.109375 0 
L 9.078125 0 
L 9.078125 54.6875 
L 18.109375 54.6875 
L 18.109375 46.1875 
Q 20.953125 51.171875 25.484375 53.578125 
Q 30.03125 56 36.53125 56 
Q 37.453125 56 38.578125 55.875 
Q 39.703125 55.765625 41.0625 55.515625 
z
" id="DejaVuSans-114"/>
      <path d="M 56.203125 29.59375 
L 56.203125 25.203125 
L 14.890625 25.203125 
Q 15.484375 15.921875 20.484375 11.0625 
Q 25.484375 6.203125 34.421875 6.203125 
Q 39.59375 6.203125 44.453125 7.46875 
Q 49.3125 8.734375 54.109375 11.28125 
L 54.109375 2.78125 
Q 49.265625 0.734375 44.1875 -0.34375 
Q 39.109375 -1.421875 33.890625 -1.421875 
Q 20.796875 -1.421875 13.15625 6.1875 
Q 5.515625 13.8125 5.515625 26.8125 
Q 5.515625 40.234375 12.765625 48.109375 
Q 20.015625 56 32.328125 56 
Q 43.359375 56 49.78125 48.890625 
Q 56.203125 41.796875 56.203125 29.59375 
z
M 47.21875 32.234375 
Q 47.125 39.59375 43.09375 43.984375 
Q 39.0625 48.390625 32.421875 48.390625 
Q 24.90625 48.390625 20.390625 44.140625 
Q 15.875 39.890625 15.1875 32.171875 
z
" id="DejaVuSans-101"/>
      <path d="M 54.890625 33.015625 
L 54.890625 0 
L 45.90625 0 
L 45.90625 32.71875 
Q 45.90625 40.484375 42.875 44.328125 
Q 39.84375 48.1875 33.796875 48.1875 
Q 26.515625 48.1875 22.3125 43.546875 
Q 18.109375 38.921875 18.109375 30.90625 
L 18.109375 0 
L 9.078125 0 
L 9.078125 54.6875 
L 18.109375 54.6875 
L 18.109375 46.1875 
Q 21.34375 51.125 25.703125 53.5625 
Q 30.078125 56 35.796875 56 
Q 45.21875 56 50.046875 50.171875 
Q 54.890625 44.34375 54.890625 33.015625 
z
" id="DejaVuSans-110"/>
     </defs>
     <g style="fill:#ffffff;" transform="translate(14.798437 184.033594)rotate(-90)scale(0.1 -0.1)">
      <use xlink:href="#DejaVuSans-116"/>
      <use x="39.208984" xlink:href="#DejaVuSans-114"/>
      <use x="80.291016" xlink:href="#DejaVuSans-101"/>
      <use x="141.814453" xlink:href="#DejaVuSans-110"/>
      <use x="205.193359" xlink:href="#DejaVuSans-100"/>
     </g>
    </g>
   </g>
   <g id="line2d_41">
    <path clip-path="url(#pd57e1e5ec5)" d="M 77.892374 297.811367 
L 86.250097 295.463819 
L 94.60782 292.882555 
L 102.368563 290.26093 
L 110.129306 287.408275 
L 117.890049 284.310481 
L 125.053812 281.221533 
L 132.217574 277.901752 
L 139.381337 274.341604 
L 146.5451 270.532536 
L 153.708862 266.467251 
L 160.872625 262.139998 
L 168.036388 257.546869 
L 175.20015 252.686101 
L 182.363913 247.558367 
L 189.527676 242.167049 
L 197.288418 236.036425 
L 205.049161 229.616143 
L 213.406884 222.397326 
L 221.764608 214.888814 
L 231.316291 205.995268 
L 242.061935 195.661653 
L 255.1955 182.69466 
L 296.984116 141.172625 
L 307.132779 131.532208 
L 316.684463 122.76897 
L 331.011988 110.039835 
L 345.936494 97.267599 
L 357.279118 87.95036 
L 363.845901 82.762703 
L 373.397584 75.586884 
L 379.367386 71.365256 
L 386.531149 66.608479 
L 392.500951 62.901813 
L 398.470754 59.457849 
L 404.440556 56.18143 
L 410.410358 53.15764 
L 416.38016 50.371183 
L 422.946943 47.564209 
L 429.513725 45.011685 
L 436.080508 42.694855 
L 443.24427 40.415423 
L 450.408033 38.372864 
L 458.168776 36.402534 
L 465.929519 34.659428 
L 474.287242 33.009157 
L 483.241945 31.472085 
L 492.793629 30.062859 
L 502.942292 28.790472 
L 514.284917 27.60152 
L 526.224521 26.572461 
L 539.955066 25.619912 
L 554.879572 24.808725 
L 572.191998 24.094427 
L 592.489326 23.488035 
L 616.965515 22.990588 
L 647.411506 22.604982 
L 688.006161 22.32551 
L 749.495124 22.147086 
L 772.777353 22.11615 
L 772.777353 22.11615 
" style="fill:none;stroke:#ffffff;stroke-linecap:square;stroke-width:1.5;"/>
   </g>
   <g id="line2d_42">
    <path clip-path="url(#pd57e1e5ec5)" d="M 77.892374 22.054545 
L 772.777353 22.054545 
L 772.777353 22.054545 
" style="fill:none;stroke:#000000;stroke-dasharray:5.55,2.4;stroke-dashoffset:0;stroke-width:1.5;"/>
   </g>
   <g id="line2d_43">
    <path clip-path="url(#pd57e1e5ec5)" d="M 77.892374 319.145455 
L 772.777353 319.145455 
L 772.777353 319.145455 
" style="fill:none;stroke:#000000;stroke-dasharray:5.55,2.4;stroke-dashoffset:0;stroke-width:1.5;"/>
   </g>
  </g>
 </g>
 <defs>
  <clipPath id="pd57e1e5ec5">
   <rect height="326.8" width="764.373477" x="43.148125" y="7.2"/>
  </clipPath>
 </defs>
</svg>