<?xml version="1.0" encoding="utf-8" standalone="no"?>
<!DOCTYPE svg PUBLIC "-//W3C//DTD SVG 1.1//EN"
  "http://www.w3.org/Graphics/SVG/1.1/DTD/svg11.dtd">
<!-- Created with matplotlib (https://matplotlib.org/) -->
<svg height="270.754844pt" version="1.1" viewBox="0 0 877.4875 270.754844" width="877.4875pt" xmlns="http://www.w3.org/2000/svg" xmlns:xlink="http://www.w3.org/1999/xlink">
 <defs>
  <style type="text/css">
*{stroke-linecap:butt;stroke-linejoin:round;}
  </style>
 </defs>
 <g id="figure_1">
  <g id="patch_1">
   <path d="M 0 270.754844 
L 877.4875 270.754844 
L 877.4875 0 
L 0 0 
z
" style="fill:#1d1e28;"/>
  </g>
  <g id="axes_1">
   <g id="matplotlib.axis_1">
    <g id="xtick_1">
     <g id="line2d_1">
      <defs>
       <path d="M 0 0 
L 0 3.5 
" id="me8c04db981" style="stroke:#000000;stroke-width:0.8;"/>
      </defs>
      <g>
       <use style="stroke:#000000;stroke-width:0.8;" x="71.332955" xlink:href="#me8c04db981" y="242.037656"/>
      </g>
     </g>
     <g id="text_1">
      <!-- 2013-01 -->
      <defs>
       <path d="M 19.1875 8.296875 
L 53.609375 8.296875 
L 53.609375 0 
L 7.328125 0 
L 7.328125 8.296875 
Q 12.9375 14.109375 22.625 23.890625 
Q 32.328125 33.6875 34.8125 36.53125 
Q 39.546875 41.84375 41.421875 45.53125 
Q 43.3125 49.21875 43.3125 52.78125 
Q 43.3125 58.59375 39.234375 62.25 
Q 35.15625 65.921875 28.609375 65.921875 
Q 23.96875 65.921875 18.8125 64.3125 
Q 13.671875 62.703125 7.8125 59.421875 
L 7.8125 69.390625 
Q 13.765625 71.78125 18.9375 73 
Q 24.125 74.21875 28.421875 74.21875 
Q 39.75 74.21875 46.484375 68.546875 
Q 53.21875 62.890625 53.21875 53.421875 
Q 53.21875 48.921875 51.53125 44.890625 
Q 49.859375 40.875 45.40625 35.40625 
Q 44.1875 33.984375 37.640625 27.21875 
Q 31.109375 20.453125 19.1875 8.296875 
z
" id="DejaVuSans-50"/>
       <path d="M 31.78125 66.40625 
Q 24.171875 66.40625 20.328125 58.90625 
Q 16.5 51.421875 16.5 36.375 
Q 16.5 21.390625 20.328125 13.890625 
Q 24.171875 6.390625 31.78125 6.390625 
Q 39.453125 6.390625 43.28125 13.890625 
Q 47.125 21.390625 47.125 36.375 
Q 47.125 51.421875 43.28125 58.90625 
Q 39.453125 66.40625 31.78125 66.40625 
z
M 31.78125 74.21875 
Q 44.046875 74.21875 50.515625 64.515625 
Q 56.984375 54.828125 56.984375 36.375 
Q 56.984375 17.96875 50.515625 8.265625 
Q 44.046875 -1.421875 31.78125 -1.421875 
Q 19.53125 -1.421875 13.0625 8.265625 
Q 6.59375 17.96875 6.59375 36.375 
Q 6.59375 54.828125 13.0625 64.515625 
Q 19.53125 74.21875 31.78125 74.21875 
z
" id="DejaVuSans-48"/>
       <path d="M 12.40625 8.296875 
L 28.515625 8.296875 
L 28.515625 63.921875 
L 10.984375 60.40625 
L 10.984375 69.390625 
L 28.421875 72.90625 
L 38.28125 72.90625 
L 38.28125 8.296875 
L 54.390625 8.296875 
L 54.390625 0 
L 12.40625 0 
z
" id="DejaVuSans-49"/>
       <path d="M 40.578125 39.3125 
Q 47.65625 37.796875 51.625 33 
Q 55.609375 28.21875 55.609375 21.1875 
Q 55.609375 10.40625 48.1875 4.484375 
Q 40.765625 -1.421875 27.09375 -1.421875 
Q 22.515625 -1.421875 17.65625 -0.515625 
Q 12.796875 0.390625 7.625 2.203125 
L 7.625 11.71875 
Q 11.71875 9.328125 16.59375 8.109375 
Q 21.484375 6.890625 26.8125 6.890625 
Q 36.078125 6.890625 40.9375 10.546875 
Q 45.796875 14.203125 45.796875 21.1875 
Q 45.796875 27.640625 41.28125 31.265625 
Q 36.765625 34.90625 28.71875 34.90625 
L 20.21875 34.90625 
L 20.21875 43.015625 
L 29.109375 43.015625 
Q 36.375 43.015625 40.234375 45.921875 
Q 44.09375 48.828125 44.09375 54.296875 
Q 44.09375 59.90625 40.109375 62.90625 
Q 36.140625 65.921875 28.71875 65.921875 
Q 24.65625 65.921875 20.015625 65.03125 
Q 15.375 64.15625 9.8125 62.3125 
L 9.8125 71.09375 
Q 15.4375 72.65625 20.34375 73.4375 
Q 25.25 74.21875 29.59375 74.21875 
Q 40.828125 74.21875 47.359375 69.109375 
Q 53.90625 64.015625 53.90625 55.328125 
Q 53.90625 49.265625 50.4375 45.09375 
Q 46.96875 40.921875 40.578125 39.3125 
z
" id="DejaVuSans-51"/>
       <path d="M 4.890625 31.390625 
L 31.203125 31.390625 
L 31.203125 23.390625 
L 4.890625 23.390625 
z
" id="DejaVuSans-45"/>
      </defs>
      <g style="fill:#ea9808;" transform="translate(39.995845 260.435313)scale(0.15 -0.15)">
       <use xlink:href="#DejaVuSans-50"/>
       <use x="63.623047" xlink:href="#DejaVuSans-48"/>
       <use x="127.246094" xlink:href="#DejaVuSans-49"/>
       <use x="190.869141" xlink:href="#DejaVuSans-51"/>
       <use x="254.492188" xlink:href="#DejaVuSans-45"/>
       <use x="290.576172" xlink:href="#DejaVuSans-48"/>
       <use x="354.199219" xlink:href="#DejaVuSans-49"/>
      </g>
     </g>
    </g>
    <g id="xtick_2">
     <g id="line2d_2">
      <g>
       <use style="stroke:#000000;stroke-width:0.8;" x="155.516662" xlink:href="#me8c04db981" y="242.037656"/>
      </g>
     </g>
     <g id="text_2">
      <!-- 2013-07 -->
      <defs>
       <path d="M 8.203125 72.90625 
L 55.078125 72.90625 
L 55.078125 68.703125 
L 28.609375 0 
L 18.3125 0 
L 43.21875 64.59375 
L 8.203125 64.59375 
z
" id="DejaVuSans-55"/>
      </defs>
      <g style="fill:#ea9808;" transform="translate(124.179553 260.435313)scale(0.15 -0.15)">
       <use xlink:href="#DejaVuSans-50"/>
       <use x="63.623047" xlink:href="#DejaVuSans-48"/>
       <use x="127.246094" xlink:href="#DejaVuSans-49"/>
       <use x="190.869141" xlink:href="#DejaVuSans-51"/>
       <use x="254.492188" xlink:href="#DejaVuSans-45"/>
       <use x="290.576172" xlink:href="#DejaVuSans-48"/>
       <use x="354.199219" xlink:href="#DejaVuSans-55"/>
      </g>
     </g>
    </g>
    <g id="xtick_3">
     <g id="line2d_3">
      <g>
       <use style="stroke:#000000;stroke-width:0.8;" x="241.09568" xlink:href="#me8c04db981" y="242.037656"/>
      </g>
     </g>
     <g id="text_3">
      <!-- 2014-01 -->
      <defs>
       <path d="M 37.796875 64.3125 
L 12.890625 25.390625 
L 37.796875 25.390625 
z
M 35.203125 72.90625 
L 47.609375 72.90625 
L 47.609375 25.390625 
L 58.015625 25.390625 
L 58.015625 17.1875 
L 47.609375 17.1875 
L 47.609375 0 
L 37.796875 0 
L 37.796875 17.1875 
L 4.890625 17.1875 
L 4.890625 26.703125 
z
" id="DejaVuSans-52"/>
      </defs>
      <g style="fill:#ea9808;" transform="translate(209.75857 260.435313)scale(0.15 -0.15)">
       <use xlink:href="#DejaVuSans-50"/>
       <use x="63.623047" xlink:href="#DejaVuSans-48"/>
       <use x="127.246094" xlink:href="#DejaVuSans-49"/>
       <use x="190.869141" xlink:href="#DejaVuSans-52"/>
       <use x="254.492188" xlink:href="#DejaVuSans-45"/>
       <use x="290.576172" xlink:href="#DejaVuSans-48"/>
       <use x="354.199219" xlink:href="#DejaVuSans-49"/>
      </g>
     </g>
    </g>
    <g id="xtick_4">
     <g id="line2d_4">
      <g>
       <use style="stroke:#000000;stroke-width:0.8;" x="325.279387" xlink:href="#me8c04db981" y="242.037656"/>
      </g>
     </g>
     <g id="text_4">
      <!-- 2014-07 -->
      <g style="fill:#ea9808;" transform="translate(293.942278 260.435313)scale(0.15 -0.15)">
       <use xlink:href="#DejaVuSans-50"/>
       <use x="63.623047" xlink:href="#DejaVuSans-48"/>
       <use x="127.246094" xlink:href="#DejaVuSans-49"/>
       <use x="190.869141" xlink:href="#DejaVuSans-52"/>
       <use x="254.492188" xlink:href="#DejaVuSans-45"/>
       <use x="290.576172" xlink:href="#DejaVuSans-48"/>
       <use x="354.199219" xlink:href="#DejaVuSans-55"/>
      </g>
     </g>
    </g>
    <g id="xtick_5">
     <g id="line2d_5">
      <g>
       <use style="stroke:#000000;stroke-width:0.8;" x="410.858405" xlink:href="#me8c04db981" y="242.037656"/>
      </g>
     </g>
     <g id="text_5">
      <!-- 2015-01 -->
      <defs>
       <path d="M 10.796875 72.90625 
L 49.515625 72.90625 
L 49.515625 64.59375 
L 19.828125 64.59375 
L 19.828125 46.734375 
Q 21.96875 47.46875 24.109375 47.828125 
Q 26.265625 48.1875 28.421875 48.1875 
Q 40.625 48.1875 47.75 41.5 
Q 54.890625 34.8125 54.890625 23.390625 
Q 54.890625 11.625 47.5625 5.09375 
Q 40.234375 -1.421875 26.90625 -1.421875 
Q 22.3125 -1.421875 17.546875 -0.640625 
Q 12.796875 0.140625 7.71875 1.703125 
L 7.71875 11.625 
Q 12.109375 9.234375 16.796875 8.0625 
Q 21.484375 6.890625 26.703125 6.890625 
Q 35.15625 6.890625 40.078125 11.328125 
Q 45.015625 15.765625 45.015625 23.390625 
Q 45.015625 31 40.078125 35.4375 
Q 35.15625 39.890625 26.703125 39.890625 
Q 22.75 39.890625 18.8125 39.015625 
Q 14.890625 38.140625 10.796875 36.28125 
z
" id="DejaVuSans-53"/>
      </defs>
      <g style="fill:#ea9808;" transform="translate(379.521295 260.435313)scale(0.15 -0.15)">
       <use xlink:href="#DejaVuSans-50"/>
       <use x="63.623047" xlink:href="#DejaVuSans-48"/>
       <use x="127.246094" xlink:href="#DejaVuSans-49"/>
       <use x="190.869141" xlink:href="#DejaVuSans-53"/>
       <use x="254.492188" xlink:href="#DejaVuSans-45"/>
       <use x="290.576172" xlink:href="#DejaVuSans-48"/>
       <use x="354.199219" xlink:href="#DejaVuSans-49"/>
      </g>
     </g>
    </g>
    <g id="xtick_6">
     <g id="line2d_6">
      <g>
       <use style="stroke:#000000;stroke-width:0.8;" x="495.042112" xlink:href="#me8c04db981" y="242.037656"/>
      </g>
     </g>
     <g id="text_6">
      <!-- 2015-07 -->
      <g style="fill:#ea9808;" transform="translate(463.705003 260.435313)scale(0.15 -0.15)">
       <use xlink:href="#DejaVuSans-50"/>
       <use x="63.623047" xlink:href="#DejaVuSans-48"/>
       <use x="127.246094" xlink:href="#DejaVuSans-49"/>
       <use x="190.869141" xlink:href="#DejaVuSans-53"/>
       <use x="254.492188" xlink:href="#DejaVuSans-45"/>
       <use x="290.576172" xlink:href="#DejaVuSans-48"/>
       <use x="354.199219" xlink:href="#DejaVuSans-55"/>
      </g>
     </g>
    </g>
    <g id="xtick_7">
     <g id="line2d_7">
      <g>
       <use style="stroke:#000000;stroke-width:0.8;" x="580.62113" xlink:href="#me8c04db981" y="242.037656"/>
      </g>
     </g>
     <g id="text_7">
      <!-- 2016-01 -->
      <defs>
       <path d="M 33.015625 40.375 
Q 26.375 40.375 22.484375 35.828125 
Q 18.609375 31.296875 18.609375 23.390625 
Q 18.609375 15.53125 22.484375 10.953125 
Q 26.375 6.390625 33.015625 6.390625 
Q 39.65625 6.390625 43.53125 10.953125 
Q 47.40625 15.53125 47.40625 23.390625 
Q 47.40625 31.296875 43.53125 35.828125 
Q 39.65625 40.375 33.015625 40.375 
z
M 52.59375 71.296875 
L 52.59375 62.3125 
Q 48.875 64.0625 45.09375 64.984375 
Q 41.3125 65.921875 37.59375 65.921875 
Q 27.828125 65.921875 22.671875 59.328125 
Q 17.53125 52.734375 16.796875 39.40625 
Q 19.671875 43.65625 24.015625 45.921875 
Q 28.375 48.1875 33.59375 48.1875 
Q 44.578125 48.1875 50.953125 41.515625 
Q 57.328125 34.859375 57.328125 23.390625 
Q 57.328125 12.15625 50.6875 5.359375 
Q 44.046875 -1.421875 33.015625 -1.421875 
Q 20.359375 -1.421875 13.671875 8.265625 
Q 6.984375 17.96875 6.984375 36.375 
Q 6.984375 53.65625 15.1875 63.9375 
Q 23.390625 74.21875 37.203125 74.21875 
Q 40.921875 74.21875 44.703125 73.484375 
Q 48.484375 72.75 52.59375 71.296875 
z
" id="DejaVuSans-54"/>
      </defs>
      <g style="fill:#ea9808;" transform="translate(549.28402 260.435313)scale(0.15 -0.15)">
       <use xlink:href="#DejaVuSans-50"/>
       <use x="63.623047" xlink:href="#DejaVuSans-48"/>
       <use x="127.246094" xlink:href="#DejaVuSans-49"/>
       <use x="190.869141" xlink:href="#DejaVuSans-54"/>
       <use x="254.492188" xlink:href="#DejaVuSans-45"/>
       <use x="290.576172" xlink:href="#DejaVuSans-48"/>
       <use x="354.199219" xlink:href="#DejaVuSans-49"/>
      </g>
     </g>
    </g>
    <g id="xtick_8">
     <g id="line2d_8">
      <g>
       <use style="stroke:#000000;stroke-width:0.8;" x="665.269941" xlink:href="#me8c04db981" y="242.037656"/>
      </g>
     </g>
     <g id="text_8">
      <!-- 2016-07 -->
      <g style="fill:#ea9808;" transform="translate(633.932831 260.435313)scale(0.15 -0.15)">
       <use xlink:href="#DejaVuSans-50"/>
       <use x="63.623047" xlink:href="#DejaVuSans-48"/>
       <use x="127.246094" xlink:href="#DejaVuSans-49"/>
       <use x="190.869141" xlink:href="#DejaVuSans-54"/>
       <use x="254.492188" xlink:href="#DejaVuSans-45"/>
       <use x="290.576172" xlink:href="#DejaVuSans-48"/>
       <use x="354.199219" xlink:href="#DejaVuSans-55"/>
      </g>
     </g>
    </g>
    <g id="xtick_9">
     <g id="line2d_9">
      <g>
       <use style="stroke:#000000;stroke-width:0.8;" x="750.848958" xlink:href="#me8c04db981" y="242.037656"/>
      </g>
     </g>
     <g id="text_9">
      <!-- 2017-01 -->
      <g style="fill:#ea9808;" transform="translate(719.511849 260.435313)scale(0.15 -0.15)">
       <use xlink:href="#DejaVuSans-50"/>
       <use x="63.623047" xlink:href="#DejaVuSans-48"/>
       <use x="127.246094" xlink:href="#DejaVuSans-49"/>
       <use x="190.869141" xlink:href="#DejaVuSans-55"/>
       <use x="254.492188" xlink:href="#DejaVuSans-45"/>
       <use x="290.576172" xlink:href="#DejaVuSans-48"/>
       <use x="354.199219" xlink:href="#DejaVuSans-49"/>
      </g>
     </g>
    </g>
    <g id="xtick_10">
     <g id="line2d_10">
      <g>
       <use style="stroke:#000000;stroke-width:0.8;" x="835.032666" xlink:href="#me8c04db981" y="242.037656"/>
      </g>
     </g>
     <g id="text_10">
      <!-- 2017-07 -->
      <g style="fill:#ea9808;" transform="translate(803.695556 260.435313)scale(0.15 -0.15)">
       <use xlink:href="#DejaVuSans-50"/>
       <use x="63.623047" xlink:href="#DejaVuSans-48"/>
       <use x="127.246094" xlink:href="#DejaVuSans-49"/>
       <use x="190.869141" xlink:href="#DejaVuSans-55"/>
       <use x="254.492188" xlink:href="#DejaVuSans-45"/>
       <use x="290.576172" xlink:href="#DejaVuSans-48"/>
       <use x="354.199219" xlink:href="#DejaVuSans-55"/>
      </g>
     </g>
    </g>
   </g>
   <g id="matplotlib.axis_2">
    <g id="ytick_1">
     <g id="line2d_11">
      <defs>
       <path d="M 0 0 
L -3.5 0 
" id="m60e8d7e24e" style="stroke:#000000;stroke-width:0.8;"/>
      </defs>
      <g>
       <use style="stroke:#000000;stroke-width:0.8;" x="33.2875" xlink:href="#m60e8d7e24e" y="242.008672"/>
      </g>
     </g>
     <g id="text_11">
      <!-- 10 -->
      <g style="fill:#ea9808;" transform="translate(7.2 247.7075)scale(0.15 -0.15)">
       <use xlink:href="#DejaVuSans-49"/>
       <use x="63.623047" xlink:href="#DejaVuSans-48"/>
      </g>
     </g>
    </g>
    <g id="ytick_2">
     <g id="line2d_12">
      <g>
       <use style="stroke:#000000;stroke-width:0.8;" x="33.2875" xlink:href="#m60e8d7e24e" y="184.04013"/>
      </g>
     </g>
     <g id="text_12">
      <!-- 20 -->
      <g style="fill:#ea9808;" transform="translate(7.2 189.738958)scale(0.15 -0.15)">
       <use xlink:href="#DejaVuSans-50"/>
       <use x="63.623047" xlink:href="#DejaVuSans-48"/>
      </g>
     </g>
    </g>
    <g id="ytick_3">
     <g id="line2d_13">
      <g>
       <use style="stroke:#000000;stroke-width:0.8;" x="33.2875" xlink:href="#m60e8d7e24e" y="126.071589"/>
      </g>
     </g>
     <g id="text_13">
      <!-- 30 -->
      <g style="fill:#ea9808;" transform="translate(7.2 131.770417)scale(0.15 -0.15)">
       <use xlink:href="#DejaVuSans-51"/>
       <use x="63.623047" xlink:href="#DejaVuSans-48"/>
      </g>
     </g>
    </g>
    <g id="ytick_4">
     <g id="line2d_14">
      <g>
       <use style="stroke:#000000;stroke-width:0.8;" x="33.2875" xlink:href="#m60e8d7e24e" y="68.103047"/>
      </g>
     </g>
     <g id="text_14">
      <!-- 40 -->
      <g style="fill:#ea9808;" transform="translate(7.2 73.801875)scale(0.15 -0.15)">
       <use xlink:href="#DejaVuSans-52"/>
       <use x="63.623047" xlink:href="#DejaVuSans-48"/>
      </g>
     </g>
    </g>
   </g>
   <g id="line2d_15">
    <path clip-path="url(#pc1ad375736)" d="M 71.332955 148.099634 
L 71.798058 167.229253 
L 73.193368 135.926241 
L 73.658471 137.665297 
L 74.123575 140.563724 
L 74.588678 54.770282 
L 75.053781 155.055859 
L 75.518885 152.737118 
L 75.983988 128.39033 
L 76.449091 119.115364 
L 76.914195 162.012084 
L 77.379298 162.59177 
L 77.844402 155.635545 
L 78.774608 131.868443 
L 79.239712 34.481293 
L 79.704815 156.21523 
L 80.169918 159.113657 
L 80.635022 145.780893 
L 81.100125 128.39033 
L 81.565228 150.998061 
L 82.030332 127.230959 
L 82.495435 130.709072 
L 82.960538 136.505926 
L 83.425642 168.388624 
L 83.890745 166.649568 
L 84.355849 148.099634 
L 84.820952 149.259005 
L 85.286055 138.824668 
L 98.774053 183.460445 
L 99.704259 152.157432 
L 101.099569 141.723095 
L 101.564673 142.882466 
L 102.029776 144.621522 
L 102.494879 142.30278 
L 102.959983 137.665297 
L 103.425086 141.143409 
L 103.890189 146.940264 
L 104.355293 135.926241 
L 104.820396 159.113657 
L 105.2855 155.055859 
L 105.750603 133.607499 
L 106.215706 160.852714 
L 106.68081 162.012084 
L 107.145913 156.794916 
L 107.611016 156.21523 
L 108.07612 147.519949 
L 108.541223 115.637251 
L 109.006326 143.462151 
L 109.936533 126.071589 
L 110.401636 144.041836 
L 110.86674 139.404353 
L 111.331843 105.782599 
L 111.796947 170.707366 
L 112.26205 163.171455 
L 112.727153 152.737118 
L 113.192257 159.113657 
L 113.65736 148.099634 
L 114.122463 192.155726 
L 115.05267 163.171455 
L 115.517773 180.562018 
L 115.982877 168.388624 
L 116.44798 159.693343 
L 116.913083 172.446422 
L 117.378187 160.273028 
L 117.84329 153.316803 
L 118.308394 149.259005 
L 118.773497 152.737118 
L 119.2386 139.404353 
L 119.703704 138.244982 
L 120.168807 172.446422 
L 120.63391 163.171455 
L 121.099014 157.954286 
L 121.564117 182.880759 
L 122.02922 189.836984 
L 122.959427 156.794916 
L 123.42453 153.316803 
L 123.889634 162.012084 
L 124.354737 165.490197 
L 124.819841 142.30278 
L 125.284944 147.519949 
L 125.750047 133.607499 
L 126.215151 146.360578 
L 126.680254 168.388624 
L 127.145357 155.055859 
L 127.610461 182.301074 
L 128.075564 167.229253 
L 128.540667 146.940264 
L 129.005771 183.460445 
L 129.470874 183.460445 
L 129.935977 175.344849 
L 130.401081 174.765164 
L 130.866184 165.490197 
L 131.331288 163.751141 
L 131.796391 171.866736 
L 132.261494 171.866736 
L 132.726598 167.808939 
L 133.191701 176.50422 
L 133.656804 180.562018 
L 134.121908 180.562018 
L 134.587011 186.358872 
L 135.052114 180.562018 
L 135.517218 182.880759 
L 135.982321 179.982332 
L 136.447424 169.547995 
L 136.912528 207.227547 
L 137.377631 199.111951 
L 137.842734 180.562018 
L 138.307838 176.50422 
L 138.772941 176.50422 
L 139.703148 188.097928 
L 140.168251 177.663591 
L 140.633355 175.924534 
L 141.098458 155.635545 
L 141.563561 177.083905 
L 142.028665 208.386918 
L 142.493768 186.938557 
L 142.958871 177.663591 
L 143.423975 188.097928 
L 143.889078 183.460445 
L 144.354181 171.287051 
L 144.819285 188.677614 
L 145.284388 190.41667 
L 145.749492 175.344849 
L 146.214595 186.358872 
L 146.679698 207.227547 
L 147.144802 178.822962 
L 147.609905 183.460445 
L 148.075008 197.95258 
L 148.540112 189.257299 
L 149.005215 197.372895 
L 149.470318 188.677614 
L 149.935422 206.647862 
L 150.400525 203.749434 
L 150.865628 199.691637 
L 151.330732 221.719682 
L 151.795835 219.400941 
L 152.260939 219.980626 
L 153.191145 185.199501 
L 153.656249 190.996355 
L 154.121352 206.647862 
L 154.586455 217.661884 
L 155.516662 183.460445 
L 155.981765 184.619816 
L 156.446869 185.199501 
L 156.911972 164.330826 
L 157.377075 186.938557 
L 157.842179 199.111951 
L 158.307282 189.257299 
L 158.772386 188.677614 
L 159.237489 221.139997 
L 160.632799 182.880759 
L 161.097902 199.111951 
L 161.563006 193.315097 
L 162.028109 172.446422 
L 162.493212 174.765164 
L 162.958316 159.113657 
L 163.423419 168.968309 
L 163.888522 181.721389 
L 164.353626 181.721389 
L 164.818729 205.488491 
L 165.283833 200.271322 
L 165.748936 197.372895 
L 166.214039 201.430693 
L 166.679143 186.358872 
L 167.144246 182.301074 
L 167.609349 191.576041 
L 168.074453 190.996355 
L 168.539556 160.852714 
L 169.004659 175.344849 
L 169.469763 193.315097 
L 169.934866 186.358872 
L 170.399969 182.301074 
L 170.865073 186.358872 
L 171.330176 184.619816 
L 171.79528 178.243276 
L 172.260383 161.432399 
L 173.19059 224.038424 
L 173.655693 199.111951 
L 174.120796 163.751141 
L 174.5859 173.605793 
L 175.051003 158.533972 
L 175.516106 167.808939 
L 175.98121 160.273028 
L 176.446313 191.576041 
L 176.911416 180.562018 
L 177.37652 158.533972 
L 177.841623 164.910511 
L 178.306726 178.822962 
L 178.77183 203.749434 
L 179.236933 195.054153 
L 179.702037 195.054153 
L 180.16714 192.155726 
L 180.632243 168.388624 
L 181.097347 163.171455 
L 181.56245 172.446422 
L 182.027553 173.026107 
L 182.492657 164.910511 
L 182.95776 173.605793 
L 183.422863 156.794916 
L 183.887967 157.954286 
L 184.35307 171.287051 
L 184.818173 172.446422 
L 185.283277 173.026107 
L 185.74838 177.663591 
L 186.213484 133.027814 
L 186.678587 164.910511 
L 187.14369 119.695049 
L 187.608794 177.083905 
L 188.539 116.796622 
L 189.004104 155.055859 
L 189.469207 163.171455 
L 189.93431 192.735412 
L 190.399414 167.229253 
L 190.864517 190.996355 
L 191.32962 197.372895 
L 191.794724 161.432399 
L 192.259827 153.316803 
L 193.190034 174.765164 
L 193.655137 172.446422 
L 194.120241 153.896489 
L 194.585344 158.533972 
L 195.050447 135.346555 
L 195.515551 133.027814 
L 195.980654 115.637251 
L 196.445757 168.968309 
L 196.910861 130.129386 
L 197.375964 167.808939 
L 198.306171 113.318509 
L 198.771274 145.780893 
L 199.236378 190.41667 
L 199.701481 181.721389 
L 200.631688 127.230959 
L 201.096791 173.026107 
L 201.561894 173.026107 
L 202.026998 141.723095 
L 202.492101 83.754553 
L 202.957204 171.866736 
L 203.422308 156.794916 
L 203.887411 97.087318 
L 204.352514 179.982332 
L 205.282721 135.926241 
L 205.747825 105.202914 
L 206.212928 171.866736 
L 206.678031 170.12768 
L 207.143135 158.533972 
L 207.608238 132.448128 
L 208.073341 143.462151 
L 208.538445 105.202914 
L 209.003548 149.838691 
L 209.468651 164.330826 
L 209.933755 161.432399 
L 210.398858 170.707366 
L 210.863961 170.707366 
L 211.329065 147.519949 
L 211.794168 171.287051 
L 212.259272 171.287051 
L 212.724375 174.185478 
L 213.189478 148.67932 
L 213.654582 101.724801 
L 214.119685 181.141703 
L 214.584788 175.924534 
L 215.049892 175.924534 
L 215.514995 148.099634 
L 215.980098 137.085611 
L 216.445202 106.94197 
L 216.910305 190.41667 
L 217.375408 193.315097 
L 218.305615 139.984039 
L 218.770718 143.462151 
L 219.235822 164.910511 
L 219.700925 174.185478 
L 220.166029 195.633839 
L 220.631132 184.04013 
L 221.096235 152.737118 
L 221.561339 155.635545 
L 222.491545 159.113657 
L 222.956649 155.055859 
L 223.421752 162.012084 
L 224.351959 167.229253 
L 224.817062 161.432399 
L 225.282165 146.360578 
L 225.747269 178.822962 
L 226.212372 167.229253 
L 226.677476 168.388624 
L 227.142579 160.273028 
L 227.607682 157.374601 
L 228.072786 138.824668 
L 228.537889 147.519949 
L 229.002992 167.229253 
L 229.468096 155.055859 
L 229.933199 151.577747 
L 230.863406 108.681026 
L 231.328509 137.665297 
L 231.793612 156.21523 
L 232.258716 147.519949 
L 232.723819 145.201207 
L 233.188923 157.374601 
L 233.654026 156.21523 
L 234.119129 149.259005 
L 234.584233 149.259005 
L 235.049336 146.940264 
L 235.514439 105.782599 
L 235.979543 138.824668 
L 236.444646 133.607499 
L 236.909749 91.290464 
L 237.374853 167.229253 
L 237.839956 175.344849 
L 238.305059 145.780893 
L 238.770163 156.21523 
L 239.235266 152.157432 
L 239.70037 157.374601 
L 240.165473 159.693343 
L 240.630576 148.099634 
L 241.09568 142.882466 
L 241.560783 88.392036 
L 242.025886 148.099634 
L 242.49099 140.563724 
L 242.956093 149.259005 
L 243.421196 114.47788 
L 243.8863 174.765164 
L 244.351403 170.707366 
L 244.816506 165.490197 
L 245.28161 150.998061 
L 245.746713 131.288757 
L 246.211817 133.027814 
L 246.67692 144.621522 
L 247.142023 140.563724 
L 247.607127 133.027814 
L 248.07223 137.085611 
L 248.537333 139.404353 
L 249.002437 133.607499 
L 249.46754 129.549701 
L 249.932643 149.838691 
L 250.397747 155.055859 
L 250.86285 167.808939 
L 251.793057 147.519949 
L 252.25816 153.316803 
L 252.723264 170.707366 
L 253.188367 152.157432 
L 253.65347 146.360578 
L 254.118574 131.288757 
L 254.583677 138.244982 
L 255.513884 133.607499 
L 255.978987 141.143409 
L 256.44409 142.882466 
L 256.909194 153.896489 
L 257.374297 157.954286 
L 257.8394 164.910511 
L 258.769607 141.723095 
L 259.23471 139.984039 
L 259.699814 142.30278 
L 260.164917 139.404353 
L 260.630021 147.519949 
L 261.095124 143.462151 
L 261.560227 163.751141 
L 262.025331 155.635545 
L 262.490434 155.055859 
L 262.955537 146.940264 
L 263.420641 156.794916 
L 263.885744 131.288757 
L 264.350847 131.288757 
L 265.281054 156.794916 
L 265.746157 146.360578 
L 266.211261 146.940264 
L 266.676364 145.201207 
L 267.141468 112.159139 
L 267.606571 172.446422 
L 268.071674 174.765164 
L 268.536778 168.388624 
L 269.001881 167.808939 
L 269.466984 147.519949 
L 269.932088 152.737118 
L 270.397191 140.563724 
L 270.862294 144.621522 
L 271.327398 144.041836 
L 271.792501 142.30278 
L 272.257604 142.882466 
L 272.722708 140.563724 
L 273.187811 138.824668 
L 273.652915 130.709072 
L 274.118018 143.462151 
L 274.583121 147.519949 
L 275.048225 145.780893 
L 275.513328 130.129386 
L 275.978431 137.665297 
L 276.443535 127.810645 
L 276.908638 138.244982 
L 277.373741 143.462151 
L 277.838845 144.621522 
L 278.303948 145.201207 
L 278.769051 143.462151 
L 279.234155 165.490197 
L 279.699258 153.896489 
L 280.164362 155.635545 
L 280.629465 171.287051 
L 281.094568 156.794916 
L 281.559672 150.998061 
L 282.024775 143.462151 
L 282.489878 155.055859 
L 282.954982 146.940264 
L 283.420085 149.259005 
L 283.885188 147.519949 
L 284.350292 170.707366 
L 284.815395 149.259005 
L 285.280498 174.185478 
L 286.210705 165.490197 
L 286.675809 160.273028 
L 287.140912 156.794916 
L 287.606015 137.665297 
L 288.071119 178.243276 
L 288.536222 180.562018 
L 289.001325 178.243276 
L 289.466429 173.026107 
L 289.931532 164.910511 
L 290.396635 162.59177 
L 290.861739 146.360578 
L 291.326842 168.388624 
L 291.791945 167.229253 
L 292.257049 153.316803 
L 292.722152 150.418376 
L 293.187256 148.67932 
L 293.652359 126.651274 
L 294.117462 178.822962 
L 294.582566 166.069882 
L 295.047669 196.213524 
L 295.512772 180.562018 
L 295.977876 150.998061 
L 296.442979 153.316803 
L 296.908082 166.649568 
L 297.373186 171.287051 
L 297.838289 208.966603 
L 298.303392 181.141703 
L 298.768496 178.822962 
L 299.233599 164.330826 
L 299.698702 179.982332 
L 300.163806 178.243276 
L 300.628909 173.026107 
L 301.094013 156.21523 
L 301.559116 167.229253 
L 302.024219 166.649568 
L 302.489323 166.649568 
L 302.954426 165.490197 
L 303.419529 167.229253 
L 303.884633 153.316803 
L 304.349736 159.693343 
L 304.814839 156.21523 
L 305.279943 148.67932 
L 305.745046 152.157432 
L 306.210149 163.751141 
L 306.675253 142.882466 
L 307.140356 154.476174 
L 307.60546 153.896489 
L 308.070563 144.041836 
L 308.535666 163.171455 
L 309.00077 160.852714 
L 309.465873 160.273028 
L 309.930976 176.50422 
L 310.39608 175.924534 
L 310.861183 179.982332 
L 311.326286 179.982332 
L 311.79139 170.707366 
L 312.256493 182.301074 
L 312.721596 170.707366 
L 313.1867 185.199501 
L 313.651803 210.125974 
L 314.116907 187.518243 
L 314.58201 197.372895 
L 315.512217 188.677614 
L 315.97732 186.358872 
L 316.442423 181.721389 
L 316.907527 178.822962 
L 317.37263 184.619816 
L 317.837733 200.271322 
L 318.302837 186.938557 
L 318.76794 185.199501 
L 319.233043 181.721389 
L 319.698147 175.344849 
L 320.16325 176.50422 
L 320.628354 173.026107 
L 321.093457 185.779187 
L 321.55856 203.749434 
L 322.023664 203.169749 
L 322.488767 195.054153 
L 322.95387 171.287051 
L 323.418974 177.083905 
L 323.884077 167.808939 
L 324.34918 204.908805 
L 324.814284 206.647862 
L 325.279387 189.257299 
L 325.74449 182.880759 
L 326.209594 193.894782 
L 326.674697 181.721389 
L 327.139801 195.633839 
L 327.604904 195.054153 
L 328.070007 186.938557 
L 328.535111 191.576041 
L 329.000214 176.50422 
L 329.465317 199.691637 
L 329.930421 192.735412 
L 330.395524 192.735412 
L 330.860627 205.488491 
L 331.325731 196.213524 
L 331.790834 209.546289 
L 332.255937 192.735412 
L 332.721041 184.619816 
L 333.186144 207.807232 
L 333.651247 213.604087 
L 334.116351 211.285345 
L 334.581454 193.894782 
L 335.046558 189.836984 
L 335.511661 190.41667 
L 335.976764 185.199501 
L 336.441868 190.996355 
L 336.906971 191.576041 
L 337.372074 178.243276 
L 337.837178 192.735412 
L 338.302281 164.910511 
L 338.767384 160.852714 
L 339.232488 155.055859 
L 339.697591 194.474468 
L 340.162694 206.647862 
L 340.627798 197.95258 
L 341.092901 200.271322 
L 341.558005 180.562018 
L 342.023108 170.12768 
L 342.953315 195.054153 
L 343.418418 188.677614 
L 343.883521 165.490197 
L 344.348625 216.502514 
L 344.813728 210.705659 
L 345.278831 201.430693 
L 345.743935 188.097928 
L 346.209038 189.836984 
L 346.674141 202.590064 
L 347.139245 198.532266 
L 347.604348 208.966603 
L 348.069452 197.372895 
L 348.534555 200.851007 
L 348.999658 195.054153 
L 349.464762 186.358872 
L 349.929865 188.097928 
L 350.394968 187.518243 
L 350.860072 188.097928 
L 351.325175 209.546289 
L 351.790278 185.199501 
L 352.255382 185.779187 
L 353.185588 206.647862 
L 353.650692 179.402647 
L 354.115795 163.171455 
L 354.580899 193.315097 
L 355.046002 203.169749 
L 355.511105 197.95258 
L 355.976209 194.474468 
L 356.441312 189.257299 
L 356.906415 189.836984 
L 357.371519 186.938557 
L 357.836622 166.069882 
L 358.766829 150.418376 
L 359.231932 193.315097 
L 359.697035 197.95258 
L 360.162139 168.968309 
L 360.627242 183.460445 
L 361.557449 171.287051 
L 362.022552 181.141703 
L 362.487656 171.287051 
L 362.952759 182.301074 
L 363.417862 178.822962 
L 363.882966 182.880759 
L 364.813172 171.287051 
L 365.278276 157.374601 
L 365.743379 174.185478 
L 366.208482 167.808939 
L 366.673586 152.737118 
L 367.138689 109.260711 
L 367.603793 105.782599 
L 368.068896 171.866736 
L 368.533999 155.635545 
L 368.999103 177.663591 
L 369.464206 173.026107 
L 369.929309 104.043543 
L 370.394413 149.259005 
L 370.859516 138.244982 
L 371.324619 177.663591 
L 371.789723 177.083905 
L 372.254826 167.808939 
L 372.719929 144.621522 
L 373.185033 156.794916 
L 373.650136 148.099634 
L 374.115239 197.95258 
L 374.580343 207.227547 
L 375.045446 164.330826 
L 375.51055 179.402647 
L 375.975653 181.721389 
L 376.440756 161.432399 
L 376.90586 179.402647 
L 377.370963 191.576041 
L 377.836066 176.50422 
L 378.30117 137.665297 
L 378.766273 146.940264 
L 379.231376 126.651274 
L 379.69648 111.579453 
L 380.161583 116.796622 
L 380.626686 132.448128 
L 381.09179 157.374601 
L 381.556893 121.434105 
L 382.4871 88.392036 
L 382.952203 163.751141 
L 383.417307 175.344849 
L 383.88241 173.605793 
L 384.347513 163.751141 
L 384.812617 165.490197 
L 385.27772 171.866736 
L 385.742823 166.069882 
L 386.207927 148.099634 
L 386.67303 163.171455 
L 387.138133 165.490197 
L 387.603237 171.287051 
L 388.06834 163.751141 
L 388.533444 113.318509 
L 388.998547 160.273028 
L 389.46365 134.76687 
L 389.928754 152.157432 
L 390.393857 145.201207 
L 390.85896 155.635545 
L 391.324064 119.695049 
L 391.789167 103.463857 
L 392.25427 147.519949 
L 392.719374 125.491903 
L 393.184477 124.912218 
L 393.64958 156.794916 
L 394.114684 164.910511 
L 395.509994 153.316803 
L 395.975097 144.621522 
L 396.440201 144.621522 
L 396.905304 132.448128 
L 397.370407 130.129386 
L 397.835511 144.041836 
L 398.300614 142.30278 
L 398.765717 145.201207 
L 399.230821 142.30278 
L 399.695924 114.47788 
L 400.161027 162.012084 
L 400.626131 153.316803 
L 401.091234 172.446422 
L 402.021441 160.273028 
L 402.486544 158.533972 
L 402.951648 149.838691 
L 403.416751 155.055859 
L 403.881854 162.012084 
L 404.346958 153.316803 
L 405.277164 166.069882 
L 405.742268 150.998061 
L 406.207371 146.940264 
L 406.672474 148.67932 
L 407.137578 159.113657 
L 407.602681 144.621522 
L 408.067785 123.752847 
L 408.532888 174.185478 
L 408.997991 159.693343 
L 409.463095 141.723095 
L 409.928198 137.085611 
L 410.393301 153.896489 
L 410.858405 135.346555 
L 411.323508 134.76687 
L 411.788611 133.027814 
L 412.253715 123.752847 
L 412.718818 147.519949 
L 413.183921 136.505926 
L 413.649025 130.129386 
L 414.114128 137.665297 
L 414.579231 126.651274 
L 415.044335 133.607499 
L 415.509438 167.229253 
L 415.974542 158.533972 
L 416.904748 101.724801 
L 417.369852 131.868443 
L 417.834955 139.984039 
L 418.300058 93.02952 
L 419.230265 168.388624 
L 419.695368 156.21523 
L 420.160472 137.665297 
L 420.625575 135.926241 
L 421.090678 131.288757 
L 421.555782 131.288757 
L 422.020885 100.56543 
L 422.485989 181.721389 
L 422.951092 181.721389 
L 423.416195 181.141703 
L 424.346402 141.723095 
L 424.811505 148.67932 
L 425.276609 145.780893 
L 425.741712 155.055859 
L 426.206815 146.360578 
L 426.671919 151.577747 
L 427.137022 159.113657 
L 427.602125 151.577747 
L 428.067229 146.360578 
L 428.532332 113.898195 
L 428.997436 149.838691 
L 429.462539 136.505926 
L 429.927642 134.187184 
L 430.392746 133.027814 
L 430.857849 137.085611 
L 431.322952 142.30278 
L 431.788056 129.549701 
L 432.253159 137.665297 
L 433.183366 139.984039 
L 433.648469 139.984039 
L 434.113572 144.621522 
L 434.578676 151.577747 
L 435.043779 141.143409 
L 435.508883 139.984039 
L 436.439089 162.012084 
L 437.369296 140.563724 
L 437.834399 143.462151 
L 438.299503 88.971722 
L 438.764606 157.374601 
L 439.229709 139.404353 
L 439.694813 138.244982 
L 440.159916 134.187184 
L 440.625019 120.85442 
L 441.090123 152.737118 
L 441.555226 139.984039 
L 442.02033 119.115364 
L 442.485433 157.954286 
L 442.950536 138.244982 
L 443.41564 133.607499 
L 443.880743 173.026107 
L 444.345846 157.954286 
L 444.81095 155.635545 
L 445.276053 163.171455 
L 445.741156 158.533972 
L 446.20626 126.651274 
L 446.671363 132.448128 
L 447.136466 117.955993 
L 447.60157 166.069882 
L 448.066673 158.533972 
L 448.531777 146.360578 
L 448.99688 139.984039 
L 449.461983 156.21523 
L 449.927087 133.607499 
L 450.39219 139.984039 
L 450.857293 157.954286 
L 451.322397 156.794916 
L 451.7875 161.432399 
L 452.252603 160.273028 
L 452.717707 153.316803 
L 453.18281 138.244982 
L 453.647913 189.836984 
L 454.113017 183.460445 
L 454.57812 149.838691 
L 455.043223 155.635545 
L 455.508327 166.649568 
L 455.97343 170.707366 
L 456.438534 171.287051 
L 456.903637 170.12768 
L 457.36874 168.388624 
L 457.833844 163.751141 
L 458.298947 171.287051 
L 458.76405 170.12768 
L 459.229154 159.693343 
L 459.694257 116.216936 
L 460.15936 162.59177 
L 460.624464 134.187184 
L 461.55467 200.271322 
L 462.019774 197.372895 
L 462.484877 196.213524 
L 462.949981 162.012084 
L 463.415084 154.476174 
L 463.880187 149.838691 
L 464.345291 200.851007 
L 464.810394 178.822962 
L 465.275497 178.822962 
L 465.740601 190.41667 
L 466.205704 178.822962 
L 466.670807 174.185478 
L 467.135911 166.649568 
L 467.601014 178.822962 
L 468.066117 173.605793 
L 468.531221 140.563724 
L 468.996324 178.243276 
L 469.461428 182.301074 
L 469.926531 178.243276 
L 470.391634 178.243276 
L 470.856738 177.083905 
L 471.786944 169.547995 
L 472.252048 199.691637 
L 472.717151 188.097928 
L 473.647358 179.402647 
L 474.112461 181.141703 
L 474.577564 188.097928 
L 475.042668 175.344849 
L 475.507771 152.737118 
L 476.437978 197.372895 
L 477.368185 182.301074 
L 477.833288 186.938557 
L 478.298391 189.836984 
L 478.763495 174.765164 
L 479.228598 178.243276 
L 479.693701 188.677614 
L 480.158805 193.894782 
L 480.623908 213.024401 
L 481.554115 203.749434 
L 482.019218 193.315097 
L 482.484322 189.836984 
L 482.949425 197.372895 
L 483.414528 178.243276 
L 483.879632 168.968309 
L 484.344735 167.229253 
L 484.809838 168.968309 
L 485.274942 215.343143 
L 485.740045 206.647862 
L 486.205148 187.518243 
L 486.670252 185.779187 
L 487.135355 184.619816 
L 487.600458 202.010378 
L 488.065562 196.213524 
L 488.530665 197.95258 
L 488.995769 199.111951 
L 489.460872 215.922828 
L 489.925975 203.749434 
L 490.391079 218.24157 
L 490.856182 188.677614 
L 491.786389 176.50422 
L 492.251492 187.518243 
L 492.716595 188.677614 
L 493.646802 186.358872 
L 494.111905 186.938557 
L 494.577009 189.257299 
L 495.042112 198.532266 
L 495.507215 204.908805 
L 495.972319 206.068176 
L 496.437422 206.647862 
L 496.902526 192.155726 
L 497.367629 199.691637 
L 497.832732 214.763457 
L 498.297836 204.32912 
L 498.762939 197.95258 
L 499.228042 202.010378 
L 499.693146 184.619816 
L 500.158249 212.444716 
L 500.623352 202.010378 
L 501.088456 197.95258 
L 501.553559 202.590064 
L 502.018662 222.299368 
L 502.483766 217.082199 
L 502.948869 215.343143 
L 503.413973 203.169749 
L 504.344179 188.097928 
L 504.809283 202.010378 
L 505.274386 189.257299 
L 506.204593 179.402647 
L 506.669696 182.880759 
L 507.134799 208.966603 
L 507.599903 199.691637 
L 508.065006 193.315097 
L 508.530109 181.141703 
L 508.995213 178.243276 
L 509.460316 170.707366 
L 509.92542 156.794916 
L 510.855626 212.444716 
L 511.32073 217.661884 
L 512.250936 192.735412 
L 512.71604 198.532266 
L 513.181143 197.95258 
L 513.646246 180.562018 
L 514.11135 178.243276 
L 514.576453 198.532266 
L 515.041556 185.199501 
L 515.50666 181.721389 
L 515.971763 195.054153 
L 516.436867 185.199501 
L 516.90197 181.141703 
L 517.367073 206.068176 
L 517.832177 201.430693 
L 518.762383 178.243276 
L 519.227487 135.926241 
L 519.69259 192.735412 
L 520.157693 199.111951 
L 520.622797 184.619816 
L 522.018107 179.402647 
L 522.48321 182.301074 
L 522.948314 191.576041 
L 523.413417 185.779187 
L 523.87852 185.779187 
L 524.343624 190.996355 
L 524.808727 179.402647 
L 525.27383 186.938557 
L 525.738934 174.185478 
L 526.204037 198.532266 
L 526.66914 155.635545 
L 527.134244 184.04013 
L 527.599347 182.880759 
L 528.06445 186.358872 
L 528.529554 176.50422 
L 528.994657 152.737118 
L 529.459761 170.707366 
L 529.924864 163.171455 
L 530.389967 127.230959 
L 530.855071 177.663591 
L 531.320174 184.619816 
L 531.785277 184.04013 
L 532.250381 186.938557 
L 532.715484 192.155726 
L 533.180587 169.547995 
L 534.110794 206.068176 
L 535.041001 204.908805 
L 535.506104 183.460445 
L 535.971207 188.677614 
L 536.436311 179.402647 
L 536.901414 164.330826 
L 537.366518 175.924534 
L 537.831621 167.229253 
L 538.296724 166.649568 
L 538.761828 140.563724 
L 539.226931 104.043543 
L 539.692034 85.493609 
L 540.157138 112.738824 
L 540.622241 175.344849 
L 541.087344 177.663591 
L 542.017551 159.113657 
L 542.482654 159.113657 
L 542.947758 128.970016 
L 543.412861 181.721389 
L 543.877965 164.910511 
L 544.343068 160.852714 
L 544.808171 140.563724 
L 545.273275 149.259005 
L 545.738378 165.490197 
L 546.203481 157.374601 
L 546.668585 144.621522 
L 547.133688 138.244982 
L 547.598791 181.141703 
L 548.528998 170.707366 
L 548.994101 155.635545 
L 549.459205 129.549701 
L 549.924308 186.358872 
L 550.854515 166.649568 
L 551.319618 166.069882 
L 551.784722 159.693343 
L 552.249825 144.621522 
L 552.714928 122.013791 
L 553.180032 184.04013 
L 553.645135 186.358872 
L 554.110238 164.330826 
L 554.575342 135.926241 
L 555.505548 174.185478 
L 555.970652 164.910511 
L 556.435755 151.577747 
L 556.900859 161.432399 
L 557.365962 152.157432 
L 557.831065 133.027814 
L 558.296169 183.460445 
L 558.761272 178.822962 
L 559.226375 168.968309 
L 559.691479 154.476174 
L 560.156582 88.392036 
L 560.621685 119.115364 
L 561.086789 62.885878 
L 561.551892 171.866736 
L 562.016995 170.12768 
L 562.482099 146.360578 
L 562.947202 153.896489 
L 563.412306 110.420082 
L 563.877409 80.856126 
L 564.342512 168.968309 
L 564.807616 162.012084 
L 565.272719 149.259005 
L 565.737822 147.519949 
L 566.202926 106.94197 
L 566.668029 167.808939 
L 567.133132 174.185478 
L 567.598236 163.171455 
L 568.063339 155.635545 
L 568.528442 150.418376 
L 568.993546 152.157432 
L 569.458649 155.055859 
L 569.923753 106.94197 
L 570.388856 152.157432 
L 570.853959 95.348261 
L 571.319063 168.968309 
L 571.784166 158.533972 
L 572.249269 128.39033 
L 572.714373 144.041836 
L 573.179476 164.330826 
L 573.644579 148.67932 
L 575.039889 124.332532 
L 575.504993 131.288757 
L 575.970096 173.605793 
L 576.435199 166.649568 
L 576.900303 157.374601 
L 577.365406 153.896489 
L 577.83051 148.67932 
L 578.295613 166.649568 
L 578.760716 168.968309 
L 579.22582 155.635545 
L 579.690923 151.577747 
L 580.156026 145.201207 
L 580.62113 151.577747 
L 581.086233 152.737118 
L 581.551336 157.374601 
L 582.01644 163.171455 
L 582.481543 182.301074 
L 582.946646 192.155726 
L 583.41175 158.533972 
L 583.876853 152.737118 
L 584.341957 152.157432 
L 584.80706 142.882466 
L 585.272163 116.796622 
L 585.737267 102.884172 
L 586.20237 120.274734 
L 586.667473 72.74053 
L 587.132577 174.185478 
L 588.062783 148.67932 
L 588.527887 143.462151 
L 588.99299 124.912218 
L 589.458093 82.595182 
L 590.853404 149.259005 
L 591.318507 155.055859 
L 591.78361 153.896489 
L 592.248714 138.824668 
L 592.713817 155.635545 
L 593.17892 139.984039 
L 594.109127 133.607499 
L 594.57423 119.695049 
L 595.039334 146.360578 
L 595.504437 138.244982 
L 595.96954 135.926241 
L 596.434644 156.21523 
L 596.899747 148.67932 
L 597.364851 143.462151 
L 597.829954 141.143409 
L 598.295057 137.665297 
L 598.760161 139.404353 
L 599.225264 134.76687 
L 599.690367 135.346555 
L 600.155471 133.027814 
L 600.620574 132.448128 
L 601.085677 111.579453 
L 601.550781 130.129386 
L 602.015884 138.244982 
L 602.480987 149.259005 
L 602.946091 146.940264 
L 603.411194 129.549701 
L 603.876298 130.129386 
L 604.341401 143.462151 
L 604.806504 133.027814 
L 605.271608 127.810645 
L 605.736711 128.970016 
L 606.201814 109.840397 
L 606.666918 138.824668 
L 607.132021 140.563724 
L 607.597124 137.085611 
L 608.062228 139.404353 
L 608.992434 133.027814 
L 609.457538 133.607499 
L 609.922641 135.926241 
L 610.387744 139.984039 
L 610.852848 138.244982 
L 611.317951 135.926241 
L 611.783055 137.085611 
L 612.713261 122.593476 
L 613.178365 138.824668 
L 613.643468 133.607499 
L 614.108571 139.404353 
L 614.573675 122.013791 
L 615.038778 151.577747 
L 615.503881 148.099634 
L 615.968985 148.67932 
L 616.434088 136.505926 
L 616.899191 158.533972 
L 617.364295 172.446422 
L 617.829398 177.083905 
L 618.294502 162.012084 
L 618.759605 153.316803 
L 619.224708 141.143409 
L 619.689812 153.896489 
L 620.154915 149.259005 
L 620.620018 159.693343 
L 621.085122 149.259005 
L 621.550225 164.910511 
L 622.015328 133.607499 
L 622.480432 151.577747 
L 622.945535 151.577747 
L 623.410638 119.115364 
L 623.875742 153.896489 
L 624.340845 163.751141 
L 624.805949 148.099634 
L 625.271052 101.724801 
L 625.736155 181.141703 
L 626.201259 180.562018 
L 626.666362 155.055859 
L 627.131465 141.723095 
L 627.596569 146.360578 
L 628.061672 167.229253 
L 628.526775 159.693343 
L 628.991879 167.229253 
L 629.456982 157.374601 
L 629.922085 152.157432 
L 630.387189 165.490197 
L 630.852292 159.693343 
L 631.317396 161.432399 
L 631.782499 152.157432 
L 632.247602 157.954286 
L 632.712706 149.838691 
L 633.177809 182.880759 
L 633.642912 166.069882 
L 634.108016 167.808939 
L 634.573119 162.59177 
L 635.038222 162.59177 
L 635.503326 154.476174 
L 635.968429 159.693343 
L 636.433532 146.360578 
L 636.898636 148.67932 
L 637.363739 176.50422 
L 637.828843 146.940264 
L 638.293946 148.099634 
L 638.759049 170.12768 
L 639.224153 145.201207 
L 639.689256 167.229253 
L 640.154359 179.402647 
L 640.619463 171.287051 
L 641.084566 157.374601 
L 641.549669 166.069882 
L 642.479876 149.838691 
L 642.944979 145.780893 
L 643.410083 158.533972 
L 643.875186 167.229253 
L 644.34029 136.505926 
L 644.805393 173.026107 
L 645.270496 165.490197 
L 645.7356 155.635545 
L 646.200703 175.344849 
L 646.665806 172.446422 
L 647.13091 144.621522 
L 647.596013 170.707366 
L 648.52622 182.880759 
L 648.991323 192.155726 
L 649.456426 214.183772 
L 649.92153 188.097928 
L 650.386633 184.619816 
L 650.851736 198.532266 
L 651.31684 196.213524 
L 651.781943 189.257299 
L 652.247047 193.894782 
L 652.71215 177.663591 
L 653.642357 193.315097 
L 654.10746 184.619816 
L 654.572563 179.982332 
L 655.037667 172.446422 
L 655.50277 175.924534 
L 656.432977 195.054153 
L 656.89808 182.301074 
L 657.363183 177.083905 
L 657.828287 181.141703 
L 658.29339 171.287051 
L 658.758494 188.097928 
L 659.223597 177.663591 
L 659.6887 186.938557 
L 660.153804 181.721389 
L 660.618907 193.315097 
L 661.08401 185.779187 
L 661.549114 192.735412 
L 662.014217 205.488491 
L 662.47932 212.444716 
L 662.944424 211.285345 
L 663.409527 232.15402 
L 663.87463 199.691637 
L 664.339734 190.996355 
L 664.804837 204.32912 
L 665.269941 203.169749 
L 665.735044 194.474468 
L 666.200147 195.054153 
L 666.665251 209.546289 
L 667.130354 190.996355 
L 667.595457 197.372895 
L 668.060561 200.271322 
L 668.525664 209.546289 
L 668.990767 195.633839 
L 669.455871 196.213524 
L 669.920974 192.155726 
L 670.386077 182.880759 
L 670.851181 218.821255 
L 671.316284 201.430693 
L 671.781388 197.372895 
L 672.246491 190.41667 
L 672.711594 190.996355 
L 673.176698 159.693343 
L 673.641801 155.635545 
L 674.106904 202.010378 
L 674.572008 188.097928 
L 675.037111 150.998061 
L 675.502214 199.111951 
L 675.967318 217.082199 
L 676.432421 196.213524 
L 676.897524 196.213524 
L 677.827731 187.518243 
L 678.292835 192.735412 
L 679.223041 178.822962 
L 680.153248 208.386918 
L 680.618351 215.343143 
L 681.083455 195.054153 
L 681.548558 206.068176 
L 682.013661 210.125974 
L 682.478765 204.908805 
L 682.943868 185.779187 
L 683.408971 189.257299 
L 683.874075 153.896489 
L 684.339178 182.301074 
L 684.804282 187.518243 
L 685.269385 182.301074 
L 685.734488 184.04013 
L 686.199592 186.358872 
L 686.664695 182.301074 
L 687.129798 159.693343 
L 687.594902 167.229253 
L 688.060005 159.113657 
L 688.525108 196.213524 
L 688.990212 181.721389 
L 689.455315 219.980626 
L 689.920418 193.315097 
L 690.385522 214.763457 
L 690.850625 199.691637 
L 691.315728 199.691637 
L 691.780832 184.619816 
L 692.245935 181.141703 
L 692.711039 186.358872 
L 693.176142 184.619816 
L 693.641245 163.171455 
L 694.106349 169.547995 
L 694.571452 195.633839 
L 695.036555 181.141703 
L 695.501659 176.50422 
L 695.966762 177.083905 
L 696.431865 181.141703 
L 696.896969 172.446422 
L 697.362072 177.083905 
L 697.827175 168.388624 
L 698.292279 168.388624 
L 698.757382 178.243276 
L 699.222486 178.822962 
L 699.687589 182.880759 
L 700.152692 157.374601 
L 700.617796 171.866736 
L 701.082899 169.547995 
L 701.548002 170.12768 
L 702.013106 196.793209 
L 702.478209 175.924534 
L 702.943312 180.562018 
L 703.408416 177.083905 
L 703.873519 183.460445 
L 704.338622 172.446422 
L 704.803726 170.707366 
L 705.268829 171.866736 
L 705.733933 173.605793 
L 706.199036 165.490197 
L 706.664139 176.50422 
L 707.129243 167.808939 
L 707.594346 183.460445 
L 708.059449 171.866736 
L 708.524553 156.794916 
L 708.989656 151.577747 
L 709.454759 164.330826 
L 709.919863 162.59177 
L 710.850069 120.274734 
L 711.315173 171.287051 
L 711.780276 152.157432 
L 712.24538 105.202914 
L 712.710483 176.50422 
L 713.175586 163.171455 
L 713.64069 193.894782 
L 714.570896 161.432399 
L 715.036 131.868443 
L 715.501103 170.12768 
L 715.966206 150.418376 
L 716.43131 157.954286 
L 716.896413 174.765164 
L 717.361516 153.896489 
L 717.82662 195.633839 
L 719.22193 164.910511 
L 719.687033 143.462151 
L 720.152137 174.185478 
L 720.61724 186.358872 
L 721.082343 159.113657 
L 721.547447 152.157432 
L 722.01255 164.910511 
L 722.477653 157.954286 
L 722.942757 160.273028 
L 723.40786 153.896489 
L 723.872963 122.593476 
L 724.338067 150.998061 
L 724.80317 149.259005 
L 725.268274 137.085611 
L 725.733377 135.926241 
L 726.19848 168.388624 
L 726.663584 157.374601 
L 727.128687 159.113657 
L 727.59379 111.579453 
L 728.058894 124.332532 
L 728.523997 158.533972 
L 728.9891 165.490197 
L 729.454204 153.896489 
L 729.919307 161.432399 
L 730.38441 117.955993 
L 730.849514 156.21523 
L 731.314617 154.476174 
L 732.244824 120.274734 
L 732.709927 148.099634 
L 733.175031 164.330826 
L 733.640134 152.157432 
L 734.570341 163.751141 
L 735.035444 148.67932 
L 735.500547 153.316803 
L 735.965651 153.896489 
L 736.430754 134.76687 
L 736.895857 93.02952 
L 737.360961 144.621522 
L 737.826064 144.041836 
L 738.291167 126.651274 
L 738.756271 163.171455 
L 739.221374 154.476174 
L 739.686478 138.244982 
L 740.151581 138.824668 
L 740.616684 162.59177 
L 741.081788 147.519949 
L 741.546891 139.984039 
L 742.011994 80.856126 
L 742.477098 84.334238 
L 742.942201 189.257299 
L 743.407304 152.737118 
L 743.872408 104.623228 
L 744.337511 176.50422 
L 744.802614 167.229253 
L 745.267718 142.882466 
L 745.732821 145.201207 
L 746.197925 159.113657 
L 746.663028 158.533972 
L 747.128131 142.30278 
L 747.593235 141.143409 
L 748.058338 130.129386 
L 748.523441 128.39033 
L 748.988545 132.448128 
L 749.453648 87.812351 
L 750.848958 145.780893 
L 751.314061 147.519949 
L 751.779165 145.780893 
L 752.244268 149.838691 
L 752.709372 159.113657 
L 753.174475 146.360578 
L 753.639578 144.621522 
L 754.569785 126.651274 
L 755.034888 118.535678 
L 755.499992 81.435811 
L 755.965095 135.346555 
L 756.895302 111.579453 
L 757.360405 143.462151 
L 757.825508 142.30278 
L 758.290612 87.812351 
L 758.755715 79.11707 
L 759.220819 157.954286 
L 759.685922 130.709072 
L 760.151025 141.143409 
L 760.616129 146.360578 
L 761.081232 110.999768 
L 761.546335 85.493609 
L 762.011439 159.113657 
L 762.476542 152.157432 
L 762.941645 142.882466 
L 763.406749 127.810645 
L 763.871852 124.912218 
L 764.336955 101.145116 
L 764.802059 71.581159 
L 765.267162 163.171455 
L 765.732266 142.882466 
L 766.197369 146.940264 
L 767.127576 97.667003 
L 767.592679 98.826374 
L 768.057782 155.635545 
L 768.522886 143.462151 
L 768.987989 120.85442 
L 769.453092 82.595182 
L 769.918196 90.131093 
L 771.313506 160.852714 
L 771.778609 148.67932 
L 772.243712 126.071589 
L 772.708816 126.651274 
L 773.173919 129.549701 
L 773.639023 148.67932 
L 774.104126 135.926241 
L 774.569229 139.984039 
L 775.034333 139.404353 
L 775.499436 137.085611 
L 775.964539 137.665297 
L 776.429643 179.402647 
L 776.894746 152.157432 
L 777.359849 145.780893 
L 777.824953 145.201207 
L 778.290056 142.30278 
L 778.755159 147.519949 
L 779.685366 164.910511 
L 780.15047 166.649568 
L 780.615573 150.998061 
L 781.080676 165.490197 
L 781.54578 163.751141 
L 782.010883 154.476174 
L 782.475986 150.418376 
L 783.406193 146.940264 
L 783.871296 141.143409 
L 784.3364 149.838691 
L 784.801503 149.838691 
L 785.266606 155.635545 
L 785.73171 168.388624 
L 786.196813 150.418376 
L 786.661917 148.099634 
L 787.12702 138.244982 
L 787.592123 142.882466 
L 788.057227 115.057566 
L 788.52233 164.910511 
L 788.987433 160.273028 
L 789.452537 157.954286 
L 789.91764 146.360578 
L 790.382743 143.462151 
L 790.847847 162.012084 
L 791.31295 133.027814 
L 792.243157 168.968309 
L 792.70826 151.577747 
L 793.173364 172.446422 
L 793.638467 172.446422 
L 794.10357 167.808939 
L 794.568674 164.910511 
L 795.033777 164.330826 
L 795.49888 162.012084 
L 795.963984 155.635545 
L 796.429087 133.607499 
L 796.89419 196.213524 
L 797.359294 166.649568 
L 797.824397 168.388624 
L 798.754604 156.794916 
L 799.219707 162.012084 
L 799.684811 144.041836 
L 800.149914 160.273028 
L 800.615017 159.113657 
L 801.080121 155.635545 
L 801.545224 160.852714 
L 802.010327 161.432399 
L 802.475431 160.273028 
L 802.940534 145.201207 
L 803.405637 161.432399 
L 803.870741 145.201207 
L 804.335844 156.21523 
L 804.800947 184.04013 
L 805.266051 173.605793 
L 805.731154 168.388624 
L 806.196258 168.968309 
L 806.661361 151.577747 
L 807.126464 161.432399 
L 807.591568 193.315097 
L 808.521774 174.765164 
L 808.986878 148.099634 
L 809.451981 171.287051 
L 809.917084 183.460445 
L 810.847291 174.185478 
L 811.312394 171.866736 
L 811.777498 186.358872 
L 812.242601 176.50422 
L 812.707704 191.576041 
L 813.172808 179.402647 
L 813.637911 173.026107 
L 814.103015 182.880759 
L 814.568118 175.344849 
L 815.033221 181.721389 
L 815.498325 165.490197 
L 815.963428 163.751141 
L 816.428531 178.243276 
L 816.893635 168.968309 
L 817.358738 168.388624 
L 817.823841 175.924534 
L 818.288945 179.402647 
L 818.754048 180.562018 
L 819.219151 162.59177 
L 819.684255 193.894782 
L 820.149358 200.851007 
L 820.614462 205.488491 
L 821.079565 193.894782 
L 821.544668 195.054153 
L 822.009772 199.111951 
L 822.474875 185.779187 
L 822.939978 186.358872 
L 823.405082 196.213524 
L 823.870185 210.125974 
L 824.335288 195.054153 
L 824.800392 190.41667 
L 825.730598 200.271322 
L 826.195702 181.721389 
L 826.660805 191.576041 
L 827.125909 196.793209 
L 827.591012 183.460445 
L 828.056115 199.691637 
L 828.521219 189.257299 
L 828.986322 195.633839 
L 829.451425 193.894782 
L 829.916529 184.04013 
L 830.846735 188.677614 
L 831.311839 197.372895 
L 831.776942 188.097928 
L 832.242045 188.097928 
L 832.242045 188.097928 
" style="fill:none;stroke:#ffffff;stroke-linecap:square;stroke-width:1.5;"/>
   </g>
   <g id="text_15">
    <!-- Max Temperature in Sydney from 2008-2018 -->
    <defs>
     <path d="M 9.8125 72.90625 
L 24.515625 72.90625 
L 43.109375 23.296875 
L 61.8125 72.90625 
L 76.515625 72.90625 
L 76.515625 0 
L 66.890625 0 
L 66.890625 64.015625 
L 48.09375 14.015625 
L 38.1875 14.015625 
L 19.390625 64.015625 
L 19.390625 0 
L 9.8125 0 
z
" id="DejaVuSans-77"/>
     <path d="M 34.28125 27.484375 
Q 23.390625 27.484375 19.1875 25 
Q 14.984375 22.515625 14.984375 16.5 
Q 14.984375 11.71875 18.140625 8.90625 
Q 21.296875 6.109375 26.703125 6.109375 
Q 34.1875 6.109375 38.703125 11.40625 
Q 43.21875 16.703125 43.21875 25.484375 
L 43.21875 27.484375 
z
M 52.203125 31.203125 
L 52.203125 0 
L 43.21875 0 
L 43.21875 8.296875 
Q 40.140625 3.328125 35.546875 0.953125 
Q 30.953125 -1.421875 24.3125 -1.421875 
Q 15.921875 -1.421875 10.953125 3.296875 
Q 6 8.015625 6 15.921875 
Q 6 25.140625 12.171875 29.828125 
Q 18.359375 34.515625 30.609375 34.515625 
L 43.21875 34.515625 
L 43.21875 35.40625 
Q 43.21875 41.609375 39.140625 45 
Q 35.0625 48.390625 27.6875 48.390625 
Q 23 48.390625 18.546875 47.265625 
Q 14.109375 46.140625 10.015625 43.890625 
L 10.015625 52.203125 
Q 14.9375 54.109375 19.578125 55.046875 
Q 24.21875 56 28.609375 56 
Q 40.484375 56 46.34375 49.84375 
Q 52.203125 43.703125 52.203125 31.203125 
z
" id="DejaVuSans-97"/>
     <path d="M 54.890625 54.6875 
L 35.109375 28.078125 
L 55.90625 0 
L 45.3125 0 
L 29.390625 21.484375 
L 13.484375 0 
L 2.875 0 
L 24.125 28.609375 
L 4.6875 54.6875 
L 15.28125 54.6875 
L 29.78125 35.203125 
L 44.28125 54.6875 
z
" id="DejaVuSans-120"/>
     <path id="DejaVuSans-32"/>
     <path d="M -0.296875 72.90625 
L 61.375 72.90625 
L 61.375 64.59375 
L 35.5 64.59375 
L 35.5 0 
L 25.59375 0 
L 25.59375 64.59375 
L -0.296875 64.59375 
z
" id="DejaVuSans-84"/>
     <path d="M 56.203125 29.59375 
L 56.203125 25.203125 
L 14.890625 25.203125 
Q 15.484375 15.921875 20.484375 11.0625 
Q 25.484375 6.203125 34.421875 6.203125 
Q 39.59375 6.203125 44.453125 7.46875 
Q 49.3125 8.734375 54.109375 11.28125 
L 54.109375 2.78125 
Q 49.265625 0.734375 44.1875 -0.34375 
Q 39.109375 -1.421875 33.890625 -1.421875 
Q 20.796875 -1.421875 13.15625 6.1875 
Q 5.515625 13.8125 5.515625 26.8125 
Q 5.515625 40.234375 12.765625 48.109375 
Q 20.015625 56 32.328125 56 
Q 43.359375 56 49.78125 48.890625 
Q 56.203125 41.796875 56.203125 29.59375 
z
M 47.21875 32.234375 
Q 47.125 39.59375 43.09375 43.984375 
Q 39.0625 48.390625 32.421875 48.390625 
Q 24.90625 48.390625 20.390625 44.140625 
Q 15.875 39.890625 15.1875 32.171875 
z
" id="DejaVuSans-101"/>
     <path d="M 52 44.1875 
Q 55.375 50.25 60.0625 53.125 
Q 64.75 56 71.09375 56 
Q 79.640625 56 84.28125 50.015625 
Q 88.921875 44.046875 88.921875 33.015625 
L 88.921875 0 
L 79.890625 0 
L 79.890625 32.71875 
Q 79.890625 40.578125 77.09375 44.375 
Q 74.3125 48.1875 68.609375 48.1875 
Q 61.625 48.1875 57.5625 43.546875 
Q 53.515625 38.921875 53.515625 30.90625 
L 53.515625 0 
L 44.484375 0 
L 44.484375 32.71875 
Q 44.484375 40.625 41.703125 44.40625 
Q 38.921875 48.1875 33.109375 48.1875 
Q 26.21875 48.1875 22.15625 43.53125 
Q 18.109375 38.875 18.109375 30.90625 
L 18.109375 0 
L 9.078125 0 
L 9.078125 54.6875 
L 18.109375 54.6875 
L 18.109375 46.1875 
Q 21.1875 51.21875 25.484375 53.609375 
Q 29.78125 56 35.6875 56 
Q 41.65625 56 45.828125 52.96875 
Q 50 49.953125 52 44.1875 
z
" id="DejaVuSans-109"/>
     <path d="M 18.109375 8.203125 
L 18.109375 -20.796875 
L 9.078125 -20.796875 
L 9.078125 54.6875 
L 18.109375 54.6875 
L 18.109375 46.390625 
Q 20.953125 51.265625 25.265625 53.625 
Q 29.59375 56 35.59375 56 
Q 45.5625 56 51.78125 48.09375 
Q 58.015625 40.1875 58.015625 27.296875 
Q 58.015625 14.40625 51.78125 6.484375 
Q 45.5625 -1.421875 35.59375 -1.421875 
Q 29.59375 -1.421875 25.265625 0.953125 
Q 20.953125 3.328125 18.109375 8.203125 
z
M 48.6875 27.296875 
Q 48.6875 37.203125 44.609375 42.84375 
Q 40.53125 48.484375 33.40625 48.484375 
Q 26.265625 48.484375 22.1875 42.84375 
Q 18.109375 37.203125 18.109375 27.296875 
Q 18.109375 17.390625 22.1875 11.75 
Q 26.265625 6.109375 33.40625 6.109375 
Q 40.53125 6.109375 44.609375 11.75 
Q 48.6875 17.390625 48.6875 27.296875 
z
" id="DejaVuSans-112"/>
     <path d="M 41.109375 46.296875 
Q 39.59375 47.171875 37.8125 47.578125 
Q 36.03125 48 33.890625 48 
Q 26.265625 48 22.1875 43.046875 
Q 18.109375 38.09375 18.109375 28.8125 
L 18.109375 0 
L 9.078125 0 
L 9.078125 54.6875 
L 18.109375 54.6875 
L 18.109375 46.1875 
Q 20.953125 51.171875 25.484375 53.578125 
Q 30.03125 56 36.53125 56 
Q 37.453125 56 38.578125 55.875 
Q 39.703125 55.765625 41.0625 55.515625 
z
" id="DejaVuSans-114"/>
     <path d="M 18.3125 70.21875 
L 18.3125 54.6875 
L 36.8125 54.6875 
L 36.8125 47.703125 
L 18.3125 47.703125 
L 18.3125 18.015625 
Q 18.3125 11.328125 20.140625 9.421875 
Q 21.96875 7.515625 27.59375 7.515625 
L 36.8125 7.515625 
L 36.8125 0 
L 27.59375 0 
Q 17.1875 0 13.234375 3.875 
Q 9.28125 7.765625 9.28125 18.015625 
L 9.28125 47.703125 
L 2.6875 47.703125 
L 2.6875 54.6875 
L 9.28125 54.6875 
L 9.28125 70.21875 
z
" id="DejaVuSans-116"/>
     <path d="M 8.5 21.578125 
L 8.5 54.6875 
L 17.484375 54.6875 
L 17.484375 21.921875 
Q 17.484375 14.15625 20.5 10.265625 
Q 23.53125 6.390625 29.59375 6.390625 
Q 36.859375 6.390625 41.078125 11.03125 
Q 45.3125 15.671875 45.3125 23.6875 
L 45.3125 54.6875 
L 54.296875 54.6875 
L 54.296875 0 
L 45.3125 0 
L 45.3125 8.40625 
Q 42.046875 3.421875 37.71875 1 
Q 33.40625 -1.421875 27.6875 -1.421875 
Q 18.265625 -1.421875 13.375 4.4375 
Q 8.5 10.296875 8.5 21.578125 
z
M 31.109375 56 
z
" id="DejaVuSans-117"/>
     <path d="M 9.421875 54.6875 
L 18.40625 54.6875 
L 18.40625 0 
L 9.421875 0 
z
M 9.421875 75.984375 
L 18.40625 75.984375 
L 18.40625 64.59375 
L 9.421875 64.59375 
z
" id="DejaVuSans-105"/>
     <path d="M 54.890625 33.015625 
L 54.890625 0 
L 45.90625 0 
L 45.90625 32.71875 
Q 45.90625 40.484375 42.875 44.328125 
Q 39.84375 48.1875 33.796875 48.1875 
Q 26.515625 48.1875 22.3125 43.546875 
Q 18.109375 38.921875 18.109375 30.90625 
L 18.109375 0 
L 9.078125 0 
L 9.078125 54.6875 
L 18.109375 54.6875 
L 18.109375 46.1875 
Q 21.34375 51.125 25.703125 53.5625 
Q 30.078125 56 35.796875 56 
Q 45.21875 56 50.046875 50.171875 
Q 54.890625 44.34375 54.890625 33.015625 
z
" id="DejaVuSans-110"/>
     <path d="M 53.515625 70.515625 
L 53.515625 60.890625 
Q 47.90625 63.578125 42.921875 64.890625 
Q 37.9375 66.21875 33.296875 66.21875 
Q 25.25 66.21875 20.875 63.09375 
Q 16.5 59.96875 16.5 54.203125 
Q 16.5 49.359375 19.40625 46.890625 
Q 22.3125 44.4375 30.421875 42.921875 
L 36.375 41.703125 
Q 47.40625 39.59375 52.65625 34.296875 
Q 57.90625 29 57.90625 20.125 
Q 57.90625 9.515625 50.796875 4.046875 
Q 43.703125 -1.421875 29.984375 -1.421875 
Q 24.8125 -1.421875 18.96875 -0.25 
Q 13.140625 0.921875 6.890625 3.21875 
L 6.890625 13.375 
Q 12.890625 10.015625 18.65625 8.296875 
Q 24.421875 6.59375 29.984375 6.59375 
Q 38.421875 6.59375 43.015625 9.90625 
Q 47.609375 13.234375 47.609375 19.390625 
Q 47.609375 24.75 44.3125 27.78125 
Q 41.015625 30.8125 33.5 32.328125 
L 27.484375 33.5 
Q 16.453125 35.6875 11.515625 40.375 
Q 6.59375 45.0625 6.59375 53.421875 
Q 6.59375 63.09375 13.40625 68.65625 
Q 20.21875 74.21875 32.171875 74.21875 
Q 37.3125 74.21875 42.625 73.28125 
Q 47.953125 72.359375 53.515625 70.515625 
z
" id="DejaVuSans-83"/>
     <path d="M 32.171875 -5.078125 
Q 28.375 -14.84375 24.75 -17.8125 
Q 21.140625 -20.796875 15.09375 -20.796875 
L 7.90625 -20.796875 
L 7.90625 -13.28125 
L 13.1875 -13.28125 
Q 16.890625 -13.28125 18.9375 -11.515625 
Q 21 -9.765625 23.484375 -3.21875 
L 25.09375 0.875 
L 2.984375 54.6875 
L 12.5 54.6875 
L 29.59375 11.921875 
L 46.6875 54.6875 
L 56.203125 54.6875 
z
" id="DejaVuSans-121"/>
     <path d="M 45.40625 46.390625 
L 45.40625 75.984375 
L 54.390625 75.984375 
L 54.390625 0 
L 45.40625 0 
L 45.40625 8.203125 
Q 42.578125 3.328125 38.25 0.953125 
Q 33.9375 -1.421875 27.875 -1.421875 
Q 17.96875 -1.421875 11.734375 6.484375 
Q 5.515625 14.40625 5.515625 27.296875 
Q 5.515625 40.1875 11.734375 48.09375 
Q 17.96875 56 27.875 56 
Q 33.9375 56 38.25 53.625 
Q 42.578125 51.265625 45.40625 46.390625 
z
M 14.796875 27.296875 
Q 14.796875 17.390625 18.875 11.75 
Q 22.953125 6.109375 30.078125 6.109375 
Q 37.203125 6.109375 41.296875 11.75 
Q 45.40625 17.390625 45.40625 27.296875 
Q 45.40625 37.203125 41.296875 42.84375 
Q 37.203125 48.484375 30.078125 48.484375 
Q 22.953125 48.484375 18.875 42.84375 
Q 14.796875 37.203125 14.796875 27.296875 
z
" id="DejaVuSans-100"/>
     <path d="M 37.109375 75.984375 
L 37.109375 68.5 
L 28.515625 68.5 
Q 23.6875 68.5 21.796875 66.546875 
Q 19.921875 64.59375 19.921875 59.515625 
L 19.921875 54.6875 
L 34.71875 54.6875 
L 34.71875 47.703125 
L 19.921875 47.703125 
L 19.921875 0 
L 10.890625 0 
L 10.890625 47.703125 
L 2.296875 47.703125 
L 2.296875 54.6875 
L 10.890625 54.6875 
L 10.890625 58.5 
Q 10.890625 67.625 15.140625 71.796875 
Q 19.390625 75.984375 28.609375 75.984375 
z
" id="DejaVuSans-102"/>
     <path d="M 30.609375 48.390625 
Q 23.390625 48.390625 19.1875 42.75 
Q 14.984375 37.109375 14.984375 27.296875 
Q 14.984375 17.484375 19.15625 11.84375 
Q 23.34375 6.203125 30.609375 6.203125 
Q 37.796875 6.203125 41.984375 11.859375 
Q 46.1875 17.53125 46.1875 27.296875 
Q 46.1875 37.015625 41.984375 42.703125 
Q 37.796875 48.390625 30.609375 48.390625 
z
M 30.609375 56 
Q 42.328125 56 49.015625 48.375 
Q 55.71875 40.765625 55.71875 27.296875 
Q 55.71875 13.875 49.015625 6.21875 
Q 42.328125 -1.421875 30.609375 -1.421875 
Q 18.84375 -1.421875 12.171875 6.21875 
Q 5.515625 13.875 5.515625 27.296875 
Q 5.515625 40.765625 12.171875 48.375 
Q 18.84375 56 30.609375 56 
z
" id="DejaVuSans-111"/>
     <path d="M 31.78125 34.625 
Q 24.75 34.625 20.71875 30.859375 
Q 16.703125 27.09375 16.703125 20.515625 
Q 16.703125 13.921875 20.71875 10.15625 
Q 24.75 6.390625 31.78125 6.390625 
Q 38.8125 6.390625 42.859375 10.171875 
Q 46.921875 13.96875 46.921875 20.515625 
Q 46.921875 27.09375 42.890625 30.859375 
Q 38.875 34.625 31.78125 34.625 
z
M 21.921875 38.8125 
Q 15.578125 40.375 12.03125 44.71875 
Q 8.5 49.078125 8.5 55.328125 
Q 8.5 64.0625 14.71875 69.140625 
Q 20.953125 74.21875 31.78125 74.21875 
Q 42.671875 74.21875 48.875 69.140625 
Q 55.078125 64.0625 55.078125 55.328125 
Q 55.078125 49.078125 51.53125 44.71875 
Q 48 40.375 41.703125 38.8125 
Q 48.828125 37.15625 52.796875 32.3125 
Q 56.78125 27.484375 56.78125 20.515625 
Q 56.78125 9.90625 50.3125 4.234375 
Q 43.84375 -1.421875 31.78125 -1.421875 
Q 19.734375 -1.421875 13.25 4.234375 
Q 6.78125 9.90625 6.78125 20.515625 
Q 6.78125 27.484375 10.78125 32.3125 
Q 14.796875 37.15625 21.921875 38.8125 
z
M 18.3125 54.390625 
Q 18.3125 48.734375 21.84375 45.5625 
Q 25.390625 42.390625 31.78125 42.390625 
Q 38.140625 42.390625 41.71875 45.5625 
Q 45.3125 48.734375 45.3125 54.390625 
Q 45.3125 60.0625 41.71875 63.234375 
Q 38.140625 66.40625 31.78125 66.40625 
Q 25.390625 66.40625 21.84375 63.234375 
Q 18.3125 60.0625 18.3125 54.390625 
z
" id="DejaVuSans-56"/>
    </defs>
    <g style="fill:#ea9808;" transform="translate(282.335547 18.597656)scale(0.15 -0.15)">
     <use xlink:href="#DejaVuSans-77"/>
     <use x="86.279297" xlink:href="#DejaVuSans-97"/>
     <use x="147.558594" xlink:href="#DejaVuSans-120"/>
     <use x="206.738281" xlink:href="#DejaVuSans-32"/>
     <use x="238.525391" xlink:href="#DejaVuSans-84"/>
     <use x="299.34375" xlink:href="#DejaVuSans-101"/>
     <use x="360.867188" xlink:href="#DejaVuSans-109"/>
     <use x="458.279297" xlink:href="#DejaVuSans-112"/>
     <use x="521.755859" xlink:href="#DejaVuSans-101"/>
     <use x="583.279297" xlink:href="#DejaVuSans-114"/>
     <use x="624.392578" xlink:href="#DejaVuSans-97"/>
     <use x="685.671875" xlink:href="#DejaVuSans-116"/>
     <use x="724.880859" xlink:href="#DejaVuSans-117"/>
     <use x="788.259766" xlink:href="#DejaVuSans-114"/>
     <use x="829.341797" xlink:href="#DejaVuSans-101"/>
     <use x="890.865234" xlink:href="#DejaVuSans-32"/>
     <use x="922.652344" xlink:href="#DejaVuSans-105"/>
     <use x="950.435547" xlink:href="#DejaVuSans-110"/>
     <use x="1013.814453" xlink:href="#DejaVuSans-32"/>
     <use x="1045.601562" xlink:href="#DejaVuSans-83"/>
     <use x="1109.078125" xlink:href="#DejaVuSans-121"/>
     <use x="1168.257812" xlink:href="#DejaVuSans-100"/>
     <use x="1231.734375" xlink:href="#DejaVuSans-110"/>
     <use x="1295.113281" xlink:href="#DejaVuSans-101"/>
     <use x="1356.636719" xlink:href="#DejaVuSans-121"/>
     <use x="1415.816406" xlink:href="#DejaVuSans-32"/>
     <use x="1447.603516" xlink:href="#DejaVuSans-102"/>
     <use x="1482.808594" xlink:href="#DejaVuSans-114"/>
     <use x="1523.890625" xlink:href="#DejaVuSans-111"/>
     <use x="1585.072266" xlink:href="#DejaVuSans-109"/>
     <use x="1682.484375" xlink:href="#DejaVuSans-32"/>
     <use x="1714.271484" xlink:href="#DejaVuSans-50"/>
     <use x="1777.894531" xlink:href="#DejaVuSans-48"/>
     <use x="1841.517578" xlink:href="#DejaVuSans-48"/>
     <use x="1905.140625" xlink:href="#DejaVuSans-56"/>
     <use x="1968.763672" xlink:href="#DejaVuSans-45"/>
     <use x="2004.847656" xlink:href="#DejaVuSans-50"/>
     <use x="2068.470703" xlink:href="#DejaVuSans-48"/>
     <use x="2132.09375" xlink:href="#DejaVuSans-49"/>
     <use x="2195.716797" xlink:href="#DejaVuSans-56"/>
    </g>
   </g>
  </g>
 </g>
 <defs>
  <clipPath id="pc1ad375736">
   <rect height="217.44" width="837" x="33.2875" y="24.597656"/>
  </clipPath>
 </defs>
</svg>