<?xml version="1.0" encoding="utf-8" standalone="no"?>
<!DOCTYPE svg PUBLIC "-//W3C//DTD SVG 1.1//EN"
  "http://www.w3.org/Graphics/SVG/1.1/DTD/svg11.dtd">
<!-- Created with matplotlib (https://matplotlib.org/) -->
<svg height="373.491875pt" version="1.1" viewBox="0 0 837.880953 373.491875" width="837.880953pt" xmlns="http://www.w3.org/2000/svg" xmlns:xlink="http://www.w3.org/1999/xlink">
 <defs>
  <style type="text/css">
*{stroke-linecap:butt;stroke-linejoin:round;}
  </style>
 </defs>
 <g id="figure_1">
  <g id="patch_1">
   <path d="M 0 373.491875 
L 837.880953 373.491875 
L 837.880953 0 
L 0 0 
z
" style="fill:#1d1e28;"/>
  </g>
  <g id="axes_1">
   <g id="PolyCollection_1">
    <defs>
     <path d="M 77.892374 -54.34642 
L 77.892374 -54.34642 
L 78.489354 -54.601646 
L 79.086334 -54.856871 
L 79.683315 -55.112097 
L 80.280295 -55.367322 
L 80.877275 -55.622548 
L 81.474255 -55.877773 
L 82.071236 -56.132999 
L 82.668216 -56.388224 
L 83.265196 -56.64345 
L 83.862176 -56.898675 
L 84.459156 -57.153901 
L 85.056137 -57.409126 
L 85.653117 -57.664352 
L 86.250097 -57.919577 
L 86.847077 -58.174803 
L 87.444058 -58.430028 
L 88.041038 -58.685254 
L 88.638018 -58.940479 
L 89.234998 -59.195704 
L 89.831978 -59.45093 
L 90.428959 -59.706155 
L 91.025939 -59.961381 
L 91.622919 -60.216606 
L 92.219899 -60.471832 
L 92.81688 -60.727057 
L 93.41386 -60.982283 
L 94.01084 -61.237508 
L 94.60782 -61.492732 
L 95.2048 -61.747957 
L 95.801781 -62.003182 
L 96.398761 -62.258407 
L 96.995741 -62.513631 
L 97.592721 -62.768856 
L 98.189702 -63.024081 
L 98.786682 -63.279305 
L 99.383662 -63.53453 
L 99.980642 -63.789755 
L 100.577622 -64.04498 
L 101.174603 -64.300204 
L 101.771583 -64.555429 
L 102.368563 -64.810654 
L 102.965543 -65.065879 
L 103.562524 -65.321103 
L 104.159504 -65.576328 
L 104.756484 -65.831553 
L 105.353464 -66.086778 
L 105.950444 -66.342002 
L 106.547425 -66.597227 
L 107.144405 -66.852452 
L 107.741385 -67.107677 
L 108.338365 -67.362901 
L 108.935346 -67.618093 
L 109.532326 -67.873284 
L 110.129306 -68.128475 
L 110.726286 -68.383667 
L 111.323266 -68.638858 
L 111.920247 -68.89405 
L 112.517227 -69.149241 
L 113.114207 -69.404432 
L 113.711187 -69.659624 
L 114.308168 -69.914815 
L 114.905148 -70.170007 
L 115.502128 -70.425198 
L 116.099108 -70.680389 
L 116.696088 -70.935581 
L 117.293069 -71.190772 
L 117.890049 -71.445964 
L 118.487029 -71.701155 
L 119.084009 -71.956346 
L 119.68099 -72.211538 
L 120.27797 -72.466729 
L 120.87495 -72.721921 
L 121.47193 -72.977112 
L 122.06891 -73.232303 
L 122.665891 -73.487495 
L 123.262871 -73.742686 
L 123.859851 -73.997878 
L 124.456831 -74.252973 
L 125.053812 -74.508068 
L 125.650792 -74.763164 
L 126.247772 -75.018259 
L 126.844752 -75.273354 
L 127.441732 -75.528449 
L 128.038713 -75.783545 
L 128.635693 -76.03864 
L 129.232673 -76.293735 
L 129.829653 -76.548831 
L 130.426634 -76.803926 
L 131.023614 -77.059021 
L 131.620594 -77.314117 
L 132.217574 -77.569212 
L 132.814554 -77.824307 
L 133.411535 -78.079402 
L 134.008515 -78.334498 
L 134.605495 -78.589593 
L 135.202475 -78.844688 
L 135.799456 -79.099784 
L 136.396436 -79.354879 
L 136.993416 -79.609974 
L 137.590396 -79.865069 
L 138.187376 -80.120165 
L 138.784357 -80.37526 
L 139.381337 -80.630311 
L 139.978317 -80.885362 
L 140.575297 -81.140413 
L 141.172278 -81.395464 
L 141.769258 -81.650515 
L 142.366238 -81.905566 
L 142.963218 -82.160617 
L 143.560198 -82.415668 
L 144.157179 -82.67072 
L 144.754159 -82.925771 
L 145.351139 -83.180822 
L 145.948119 -83.435873 
L 146.5451 -83.690924 
L 147.14208 -83.945975 
L 147.73906 -84.201026 
L 148.33604 -84.456077 
L 148.93302 -84.711128 
L 149.530001 -84.966179 
L 150.126981 -85.22123 
L 150.723961 -85.476281 
L 151.320941 -85.731332 
L 151.917922 -85.986383 
L 152.514902 -86.241434 
L 153.111882 -86.496485 
L 153.708862 -86.751536 
L 154.305842 -87.006587 
L 154.902823 -87.261608 
L 155.499803 -87.516628 
L 156.096783 -87.771648 
L 156.693763 -88.026668 
L 157.290744 -88.281688 
L 157.887724 -88.536708 
L 158.484704 -88.791728 
L 159.081684 -89.046748 
L 159.678664 -89.301769 
L 160.275645 -89.556789 
L 160.872625 -89.811809 
L 161.469605 -90.066829 
L 162.066585 -90.321849 
L 162.663566 -90.576869 
L 163.260546 -90.831889 
L 163.857526 -91.086909 
L 164.454506 -91.34193 
L 165.051486 -91.59695 
L 165.648467 -91.85197 
L 166.245447 -92.10699 
L 166.842427 -92.36201 
L 167.439407 -92.61703 
L 168.036388 -92.87205 
L 168.633368 -93.12707 
L 169.230348 -93.382091 
L 169.827328 -93.637096 
L 170.424308 -93.892101 
L 171.021289 -94.147106 
L 171.618269 -94.402111 
L 172.215249 -94.657116 
L 172.812229 -94.912122 
L 173.40921 -95.167127 
L 174.00619 -95.422132 
L 174.60317 -95.677137 
L 175.20015 -95.932142 
L 175.79713 -96.187147 
L 176.394111 -96.442153 
L 176.991091 -96.697158 
L 177.588071 -96.952163 
L 178.185051 -97.207168 
L 178.782032 -97.462173 
L 179.379012 -97.717178 
L 179.975992 -97.972184 
L 180.572972 -98.227189 
L 181.169952 -98.482194 
L 181.766933 -98.737199 
L 182.363913 -98.992204 
L 182.960893 -99.247209 
L 183.557873 -99.502215 
L 184.154854 -99.75722 
L 184.751834 -100.012225 
L 185.348814 -100.267204 
L 185.945794 -100.522183 
L 186.542774 -100.777161 
L 187.139755 -101.03214 
L 187.736735 -101.287119 
L 188.333715 -101.542098 
L 188.930695 -101.797077 
L 189.527676 -102.052056 
L 190.124656 -102.307034 
L 190.721636 -102.562013 
L 191.318616 -102.816992 
L 191.915596 -103.071971 
L 192.512577 -103.32695 
L 193.109557 -103.581929 
L 193.706537 -103.836907 
L 194.303517 -104.091886 
L 194.900498 -104.346865 
L 195.497478 -104.601844 
L 196.094458 -104.856823 
L 196.691438 -105.111801 
L 197.288418 -105.36678 
L 197.885399 -105.621759 
L 198.482379 -105.876738 
L 199.079359 -106.131717 
L 199.676339 -106.386696 
L 200.27332 -106.641668 
L 200.8703 -106.89664 
L 201.46728 -107.151612 
L 202.06426 -107.406584 
L 202.66124 -107.661556 
L 203.258221 -107.916528 
L 203.855201 -108.1715 
L 204.452181 -108.426473 
L 205.049161 -108.681445 
L 205.646142 -108.936417 
L 206.243122 -109.191389 
L 206.840102 -109.446361 
L 207.437082 -109.701333 
L 208.034062 -109.956305 
L 208.631043 -110.211277 
L 209.228023 -110.46625 
L 209.825003 -110.721222 
L 210.421983 -110.976194 
L 211.018964 -111.231166 
L 211.615944 -111.486138 
L 212.212924 -111.74111 
L 212.809904 -111.996082 
L 213.406884 -112.251054 
L 214.003865 -112.506026 
L 214.600845 -112.760999 
L 215.197825 -113.015971 
L 215.794805 -113.270934 
L 216.391786 -113.525898 
L 216.988766 -113.780862 
L 217.585746 -114.035826 
L 218.182726 -114.290789 
L 218.779706 -114.545753 
L 219.376687 -114.800717 
L 219.973667 -115.05568 
L 220.570647 -115.310644 
L 221.167627 -115.565608 
L 221.764608 -115.820572 
L 222.361588 -116.075535 
L 222.958568 -116.330499 
L 223.555548 -116.585463 
L 224.152528 -116.840426 
L 224.749509 -117.09539 
L 225.346489 -117.350354 
L 225.943469 -117.605318 
L 226.540449 -117.860281 
L 227.13743 -118.115245 
L 227.73441 -118.370209 
L 228.33139 -118.625172 
L 228.92837 -118.880136 
L 229.525351 -119.1351 
L 230.122331 -119.390064 
L 230.719311 -119.645027 
L 231.316291 -119.89999 
L 231.913271 -120.154953 
L 232.510252 -120.409916 
L 233.107232 -120.664878 
L 233.704212 -120.919841 
L 234.301192 -121.174804 
L 234.898173 -121.429767 
L 235.495153 -121.68473 
L 236.092133 -121.939692 
L 236.689113 -122.194655 
L 237.286093 -122.449618 
L 237.883074 -122.704581 
L 238.480054 -122.959543 
L 239.077034 -123.214506 
L 239.674014 -123.469469 
L 240.270995 -123.724432 
L 240.867975 -123.979395 
L 241.464955 -124.234357 
L 242.061935 -124.48932 
L 242.658915 -124.744283 
L 243.255896 -124.999246 
L 243.852876 -125.254208 
L 244.449856 -125.509171 
L 245.046836 -125.764134 
L 245.643817 -126.019097 
L 246.240797 -126.274059 
L 246.837777 -126.52902 
L 247.434757 -126.783982 
L 248.031737 -127.038944 
L 248.628718 -127.293906 
L 249.225698 -127.548868 
L 249.822678 -127.803829 
L 250.419658 -128.058791 
L 251.016639 -128.313753 
L 251.613619 -128.568715 
L 252.210599 -128.823676 
L 252.807579 -129.078638 
L 253.404559 -129.3336 
L 254.00154 -129.588562 
L 254.59852 -129.843524 
L 255.1955 -130.098485 
L 255.79248 -130.353447 
L 256.389461 -130.608409 
L 256.986441 -130.863371 
L 257.583421 -131.118333 
L 258.180401 -131.373294 
L 258.777381 -131.628256 
L 259.374362 -131.883218 
L 259.971342 -132.13818 
L 260.568322 -132.393142 
L 261.165302 -132.648103 
L 261.762283 -132.903063 
L 262.359263 -133.158023 
L 262.956243 -133.412982 
L 263.553223 -133.667942 
L 264.150203 -133.922902 
L 264.747184 -134.177861 
L 265.344164 -134.432821 
L 265.941144 -134.687781 
L 266.538124 -134.94274 
L 267.135105 -135.1977 
L 267.732085 -135.45266 
L 268.329065 -135.707619 
L 268.926045 -135.962579 
L 269.523025 -136.217539 
L 270.120006 -136.472498 
L 270.716986 -136.727458 
L 271.313966 -136.982418 
L 271.910946 -137.237377 
L 272.507927 -137.492337 
L 273.104907 -137.747297 
L 273.701887 -138.002256 
L 274.298867 -138.257216 
L 274.895847 -138.512176 
L 275.492828 -138.767135 
L 276.089808 -139.022095 
L 276.686788 -139.277052 
L 277.283768 -139.532009 
L 277.880749 -139.786966 
L 278.477729 -140.041923 
L 279.074709 -140.29688 
L 279.671689 -140.551837 
L 280.268669 -140.806794 
L 280.86565 -141.061751 
L 281.46263 -141.316708 
L 282.05961 -141.571665 
L 282.65659 -141.826622 
L 283.253571 -142.081579 
L 283.850551 -142.336537 
L 284.447531 -142.591494 
L 285.044511 -142.846451 
L 285.641491 -143.101408 
L 286.238472 -143.356365 
L 286.835452 -143.611322 
L 287.432432 -143.866279 
L 288.029412 -144.121236 
L 288.626393 -144.376193 
L 289.223373 -144.63115 
L 289.820353 -144.886107 
L 290.417333 -145.141064 
L 291.014313 -145.396021 
L 291.611294 -145.650978 
L 292.208274 -145.90593 
L 292.805254 -146.160883 
L 293.402234 -146.415835 
L 293.999215 -146.670787 
L 294.596195 -146.925739 
L 295.193175 -147.180692 
L 295.790155 -147.435644 
L 296.387135 -147.690596 
L 296.984116 -147.945548 
L 297.581096 -148.200501 
L 298.178076 -148.455453 
L 298.775056 -148.710405 
L 299.372037 -148.965357 
L 299.969017 -149.22031 
L 300.565997 -149.475262 
L 301.162977 -149.730214 
L 301.759957 -149.985166 
L 302.356938 -150.240119 
L 302.953918 -150.495071 
L 303.550898 -150.750023 
L 304.147878 -151.004975 
L 304.744859 -151.259928 
L 305.341839 -151.51488 
L 305.938819 -151.769832 
L 306.535799 -152.024784 
L 307.132779 -152.279736 
L 307.72976 -152.534688 
L 308.32674 -152.789639 
L 308.92372 -153.044591 
L 309.5207 -153.299542 
L 310.117681 -153.554494 
L 310.714661 -153.809446 
L 311.311641 -154.064397 
L 311.908621 -154.319349 
L 312.505601 -154.5743 
L 313.102582 -154.829252 
L 313.699562 -155.084204 
L 314.296542 -155.339155 
L 314.893522 -155.594107 
L 315.490503 -155.849058 
L 316.087483 -156.10401 
L 316.684463 -156.358962 
L 317.281443 -156.613913 
L 317.878423 -156.868865 
L 318.475404 -157.123816 
L 319.072384 -157.378768 
L 319.669364 -157.63372 
L 320.266344 -157.888671 
L 320.863325 -158.143623 
L 321.460305 -158.398574 
L 322.057285 -158.653526 
L 322.654265 -158.908477 
L 323.251245 -159.163428 
L 323.848226 -159.418379 
L 324.445206 -159.67333 
L 325.042186 -159.928281 
L 325.639166 -160.183232 
L 326.236147 -160.438183 
L 326.833127 -160.693134 
L 327.430107 -160.948085 
L 328.027087 -161.203036 
L 328.624067 -161.457987 
L 329.221048 -161.712938 
L 329.818028 -161.967889 
L 330.415008 -162.22284 
L 331.011988 -162.477791 
L 331.608969 -162.732742 
L 332.205949 -162.987693 
L 332.802929 -163.242643 
L 333.399909 -163.497594 
L 333.996889 -163.752545 
L 334.59387 -164.007496 
L 335.19085 -164.262447 
L 335.78783 -164.517398 
L 336.38481 -164.772349 
L 336.981791 -165.0273 
L 337.578771 -165.282251 
L 338.175751 -165.537202 
L 338.772731 -165.792153 
L 339.369711 -166.047104 
L 339.966692 -166.302054 
L 340.563672 -166.557005 
L 341.160652 -166.811956 
L 341.757632 -167.066907 
L 342.354613 -167.321858 
L 342.951593 -167.576808 
L 343.548573 -167.831759 
L 344.145553 -168.08671 
L 344.742533 -168.341661 
L 345.339514 -168.596612 
L 345.936494 -168.851562 
L 346.533474 -169.106513 
L 347.130454 -169.361464 
L 347.727435 -169.616415 
L 348.324415 -169.871366 
L 348.921395 -170.126316 
L 349.518375 -170.381267 
L 350.115355 -170.636218 
L 350.712336 -170.891169 
L 351.309316 -171.14612 
L 351.906296 -171.40107 
L 352.503276 -171.656021 
L 353.100257 -171.910969 
L 353.697237 -172.165917 
L 354.294217 -172.420865 
L 354.891197 -172.675813 
L 355.488177 -172.930761 
L 356.085158 -173.185709 
L 356.682138 -173.440657 
L 357.279118 -173.695604 
L 357.876098 -173.950552 
L 358.473079 -174.2055 
L 359.070059 -174.460448 
L 359.667039 -174.715396 
L 360.264019 -174.970344 
L 360.860999 -175.225292 
L 361.45798 -175.48024 
L 362.05496 -175.735188 
L 362.65194 -175.990135 
L 363.24892 -176.245083 
L 363.845901 -176.500031 
L 364.442881 -176.754979 
L 365.039861 -177.009927 
L 365.636841 -177.264875 
L 366.233821 -177.519823 
L 366.830802 -177.774771 
L 367.427782 -178.029719 
L 368.024762 -178.284667 
L 368.621742 -178.539613 
L 369.218723 -178.794559 
L 369.815703 -179.049505 
L 370.412683 -179.304452 
L 371.009663 -179.559398 
L 371.606643 -179.814344 
L 372.203624 -180.069291 
L 372.800604 -180.324237 
L 373.397584 -180.579183 
L 373.994564 -180.83413 
L 374.591545 -181.089076 
L 375.188525 -181.344022 
L 375.785505 -181.598969 
L 376.382485 -181.853915 
L 376.979465 -182.108861 
L 377.576446 -182.363807 
L 378.173426 -182.618754 
L 378.770406 -182.8737 
L 379.367386 -183.128646 
L 379.964367 -183.383593 
L 380.561347 -183.638539 
L 381.158327 -183.893485 
L 381.755307 -184.148432 
L 382.352287 -184.403378 
L 382.949268 -184.658324 
L 383.546248 -184.913264 
L 384.143228 -185.168204 
L 384.740208 -185.423145 
L 385.337189 -185.678085 
L 385.934169 -185.933025 
L 386.531149 -186.187965 
L 387.128129 -186.442905 
L 387.725109 -186.697845 
L 388.32209 -186.952785 
L 388.91907 -187.207725 
L 389.51605 -187.462665 
L 390.11303 -187.717605 
L 390.710011 -187.972546 
L 391.306991 -188.227486 
L 391.903971 -188.482426 
L 392.500951 -188.737366 
L 393.097931 -188.992306 
L 393.694912 -189.247246 
L 394.291892 -189.502186 
L 394.888872 -189.757126 
L 395.485852 -190.012066 
L 396.082833 -190.267006 
L 396.679813 -190.521947 
L 397.276793 -190.776887 
L 397.873773 -191.031827 
L 398.470754 -191.286767 
L 399.067734 -191.541679 
L 399.664714 -191.796592 
L 400.261694 -192.051504 
L 400.858674 -192.306416 
L 401.455655 -192.561329 
L 402.052635 -192.816241 
L 402.649615 -193.071154 
L 403.246595 -193.326066 
L 403.843576 -193.580979 
L 404.440556 -193.835891 
L 405.037536 -194.090803 
L 405.634516 -194.345716 
L 406.231496 -194.600628 
L 406.828477 -194.855541 
L 407.425457 -195.110453 
L 408.022437 -195.365365 
L 408.619417 -195.620278 
L 409.216398 -195.87519 
L 409.813378 -196.130103 
L 410.410358 -196.385015 
L 411.007338 -196.639928 
L 411.604318 -196.89484 
L 412.201299 -197.149752 
L 412.798279 -197.404665 
L 413.395259 -197.659577 
L 413.992239 -197.914451 
L 414.58922 -198.169326 
L 415.1862 -198.4242 
L 415.78318 -198.679074 
L 416.38016 -198.933948 
L 416.97714 -199.188823 
L 417.574121 -199.443697 
L 418.171101 -199.698571 
L 418.768081 -199.953445 
L 419.365061 -200.20832 
L 419.962042 -200.463194 
L 420.559022 -200.718068 
L 421.156002 -200.972942 
L 421.752982 -201.227817 
L 422.349962 -201.482691 
L 422.946943 -201.737565 
L 423.543923 -201.992439 
L 424.140903 -202.247314 
L 424.737883 -202.502188 
L 425.334864 -202.757062 
L 425.931844 -203.011936 
L 426.528824 -203.266811 
L 427.125804 -203.521685 
L 427.722784 -203.776559 
L 428.319765 -204.031433 
L 428.916745 -204.286308 
L 429.513725 -204.541182 
L 430.110705 -204.796056 
L 430.707686 -205.050929 
L 431.304666 -205.305803 
L 431.901646 -205.560677 
L 432.498626 -205.815551 
L 433.095606 -206.070425 
L 433.692587 -206.325299 
L 434.289567 -206.580173 
L 434.886547 -206.835047 
L 435.483527 -207.089921 
L 436.080508 -207.344795 
L 436.677488 -207.599669 
L 437.274468 -207.854543 
L 437.871448 -208.109417 
L 438.468428 -208.364291 
L 439.065409 -208.619165 
L 439.662389 -208.874039 
L 440.259369 -209.128913 
L 440.856349 -209.383787 
L 441.45333 -209.638661 
L 442.05031 -209.893535 
L 442.64729 -210.148409 
L 443.24427 -210.403283 
L 443.84125 -210.658157 
L 444.438231 -210.913201 
L 445.035211 -211.168246 
L 445.632191 -211.42329 
L 446.229171 -211.678334 
L 446.826152 -211.933379 
L 447.423132 -212.188423 
L 448.020112 -212.443467 
L 448.617092 -212.698512 
L 449.214072 -212.953556 
L 449.811053 -213.2086 
L 450.408033 -213.463644 
L 451.005013 -213.718689 
L 451.601993 -213.973733 
L 452.198974 -214.228777 
L 452.795954 -214.483822 
L 453.392934 -214.738866 
L 453.989914 -214.99391 
L 454.586894 -215.248955 
L 455.183875 -215.503999 
L 455.780855 -215.759043 
L 456.377835 -216.014087 
L 456.974815 -216.269132 
L 457.571796 -216.524176 
L 458.168776 -216.77922 
L 458.765756 -217.034265 
L 459.362736 -217.289309 
L 459.959716 -217.544749 
L 460.556697 -217.800189 
L 461.153677 -218.05563 
L 461.750657 -218.31107 
L 462.347637 -218.56651 
L 462.944618 -218.82195 
L 463.541598 -219.077391 
L 464.138578 -219.332831 
L 464.735558 -219.588271 
L 465.332538 -219.843712 
L 465.929519 -220.099152 
L 466.526499 -220.354592 
L 467.123479 -220.610032 
L 467.720459 -220.865473 
L 468.31744 -221.120913 
L 468.91442 -221.376353 
L 469.5114 -221.631793 
L 470.10838 -221.887234 
L 470.70536 -222.142674 
L 471.302341 -222.398114 
L 471.899321 -222.653555 
L 472.496301 -222.908995 
L 473.093281 -223.164435 
L 473.690262 -223.419875 
L 474.287242 -223.675316 
L 474.884222 -223.930756 
L 475.481202 -224.186196 
L 476.078182 -224.441636 
L 476.675163 -224.697077 
L 477.272143 -224.952517 
L 477.869123 -225.207957 
L 478.466103 -225.463398 
L 479.063084 -225.718838 
L 479.660064 -225.974278 
L 480.257044 -226.229718 
L 480.854024 -226.485159 
L 481.451004 -226.740599 
L 482.047985 -226.996039 
L 482.644965 -227.251479 
L 483.241945 -227.50692 
L 483.838925 -227.76236 
L 484.435906 -228.0178 
L 485.032886 -228.27324 
L 485.629866 -228.528681 
L 486.226846 -228.784121 
L 486.823826 -229.039561 
L 487.420807 -229.295002 
L 488.017787 -229.550442 
L 488.614767 -229.805882 
L 489.211747 -230.061322 
L 489.808728 -230.316763 
L 490.405708 -230.572203 
L 491.002688 -230.827643 
L 491.599668 -231.083083 
L 492.196648 -231.338524 
L 492.793629 -231.593964 
L 493.390609 -231.849404 
L 493.987589 -232.104845 
L 494.584569 -232.360285 
L 495.18155 -232.615725 
L 495.77853 -232.871165 
L 496.37551 -233.126606 
L 496.97249 -233.382046 
L 497.56947 -233.637486 
L 498.166451 -233.892926 
L 498.763431 -234.148367 
L 499.360411 -234.403807 
L 499.957391 -234.659247 
L 500.554372 -234.914688 
L 501.151352 -235.170128 
L 501.748332 -235.425568 
L 502.345312 -235.681008 
L 502.942292 -235.936449 
L 503.539273 -236.191889 
L 504.136253 -236.447329 
L 504.733233 -236.702769 
L 505.330213 -236.95821 
L 505.927194 -237.21365 
L 506.524174 -237.46909 
L 507.121154 -237.72453 
L 507.718134 -237.979971 
L 508.315114 -238.235411 
L 508.912095 -238.490851 
L 509.509075 -238.746292 
L 510.106055 -239.001732 
L 510.703035 -239.257172 
L 511.300016 -239.512612 
L 511.896996 -239.768053 
L 512.493976 -240.023493 
L 513.090956 -240.278933 
L 513.687936 -240.534373 
L 514.284917 -240.789814 
L 514.881897 -241.045254 
L 515.478877 -241.300694 
L 516.075857 -241.556135 
L 516.672838 -241.811575 
L 517.269818 -242.067015 
L 517.866798 -242.322455 
L 518.463778 -242.577896 
L 519.060758 -242.833336 
L 519.657739 -243.088776 
L 520.254719 -243.344216 
L 520.851699 -243.599657 
L 521.448679 -243.855097 
L 522.04566 -244.110537 
L 522.64264 -244.365978 
L 523.23962 -244.621418 
L 523.8366 -244.876858 
L 524.43358 -245.132298 
L 525.030561 -245.387739 
L 525.627541 -245.643179 
L 526.224521 -245.898619 
L 526.821501 -246.154059 
L 527.418482 -246.4095 
L 528.015462 -246.66494 
L 528.612442 -246.92038 
L 529.209422 -247.17582 
L 529.806402 -247.431261 
L 530.403383 -247.686701 
L 531.000363 -247.942141 
L 531.597343 -248.197582 
L 532.194323 -248.453022 
L 532.791304 -248.708462 
L 533.388284 -248.963902 
L 533.985264 -249.219343 
L 534.582244 -249.474783 
L 535.179224 -249.730223 
L 535.776205 -249.985663 
L 536.373185 -250.241104 
L 536.970165 -250.496544 
L 537.567145 -250.751984 
L 538.164126 -251.007425 
L 538.761106 -251.262865 
L 539.358086 -251.518305 
L 539.955066 -251.773745 
L 540.552046 -252.029186 
L 541.149027 -252.284626 
L 541.746007 -252.540066 
L 542.342987 -252.795506 
L 542.939967 -253.050947 
L 543.536948 -253.306387 
L 544.133928 -253.561827 
L 544.730908 -253.817268 
L 545.327888 -254.072708 
L 545.924868 -254.328148 
L 546.521849 -254.583588 
L 547.118829 -254.839029 
L 547.715809 -255.094469 
L 548.312789 -255.349909 
L 548.90977 -255.605349 
L 549.50675 -255.86079 
L 550.10373 -256.11623 
L 550.70071 -256.37167 
L 551.29769 -256.62711 
L 551.894671 -256.882551 
L 552.491651 -257.137991 
L 553.088631 -257.393431 
L 553.685611 -257.648872 
L 554.282592 -257.904312 
L 554.879572 -258.159752 
L 555.476552 -258.415192 
L 556.073532 -258.670633 
L 556.670512 -258.926073 
L 557.267493 -259.181513 
L 557.864473 -259.436953 
L 558.461453 -259.692394 
L 559.058433 -259.947834 
L 559.655414 -260.203265 
L 560.252394 -260.45869 
L 560.849374 -260.71411 
L 561.446354 -260.96953 
L 562.043334 -261.224949 
L 562.640315 -261.480356 
L 563.237295 -261.735766 
L 563.834275 -261.991181 
L 564.431255 -262.246591 
L 565.028236 -262.502001 
L 565.625216 -262.757413 
L 566.222196 -263.01284 
L 566.819176 -263.268228 
L 567.416157 -263.523613 
L 568.013137 -263.779026 
L 568.610117 -264.034448 
L 569.207097 -264.289853 
L 569.804077 -264.545228 
L 570.401058 -264.800634 
L 570.998038 -265.05604 
L 571.595018 -265.311445 
L 572.191998 -265.566848 
L 572.788979 -265.822255 
L 573.385959 -266.077635 
L 573.982939 -266.333035 
L 574.579919 -266.588435 
L 575.176899 -266.843846 
L 575.77388 -267.099232 
L 576.37086 -267.354606 
L 576.96784 -267.609999 
L 577.56482 -267.865385 
L 578.161801 -268.120775 
L 578.758781 -268.376158 
L 579.355761 -268.631533 
L 579.952741 -268.886928 
L 580.549721 -269.142281 
L 581.146702 -269.397632 
L 581.743682 -269.652999 
L 582.340662 -269.908372 
L 582.937642 -270.163763 
L 583.534623 -270.419155 
L 584.131603 -270.674537 
L 584.728583 -270.929933 
L 585.325563 -271.185317 
L 585.922543 -271.440713 
L 586.519524 -271.696113 
L 587.116504 -271.951505 
L 587.713484 -272.206886 
L 588.310464 -272.462262 
L 588.907445 -272.717637 
L 589.504425 -272.973014 
L 590.101405 -273.228382 
L 590.698385 -273.483763 
L 591.295365 -273.739142 
L 591.892346 -273.994525 
L 592.489326 -274.249902 
L 593.086306 -274.505288 
L 593.683286 -274.760668 
L 594.280267 -275.01605 
L 594.877247 -275.271417 
L 595.474227 -275.526775 
L 596.071207 -275.782106 
L 596.668187 -276.037446 
L 597.265168 -276.292823 
L 597.862148 -276.548167 
L 598.459128 -276.803531 
L 599.056108 -277.058911 
L 599.653089 -277.314256 
L 600.250069 -277.569644 
L 600.847049 -277.825022 
L 601.444029 -278.080406 
L 602.041009 -278.335766 
L 602.63799 -278.59111 
L 603.23497 -278.846481 
L 603.83195 -279.101826 
L 604.42893 -279.357205 
L 605.025911 -279.61252 
L 605.622891 -279.867865 
L 606.219871 -280.123213 
L 606.816851 -280.378591 
L 607.413831 -280.633926 
L 608.010812 -280.889261 
L 608.607792 -281.144639 
L 609.204772 -281.400005 
L 609.801752 -281.655352 
L 610.398733 -281.910691 
L 610.995713 -282.166047 
L 611.592693 -282.421409 
L 612.189673 -282.676771 
L 612.786653 -282.932125 
L 613.383634 -283.187491 
L 613.980614 -283.442865 
L 614.577594 -283.698227 
L 615.174574 -283.95359 
L 615.771555 -284.208937 
L 616.368535 -284.464307 
L 616.965515 -284.719616 
L 617.562495 -284.974894 
L 618.159475 -285.230248 
L 618.756456 -285.48558 
L 619.353436 -285.740921 
L 619.950416 -285.996268 
L 620.547396 -286.251614 
L 621.144377 -286.506948 
L 621.741357 -286.762303 
L 622.338337 -287.017583 
L 622.935317 -287.272865 
L 623.532297 -287.528184 
L 624.129278 -287.783545 
L 624.726258 -288.038918 
L 625.323238 -288.294265 
L 625.920218 -288.549652 
L 626.517199 -288.80503 
L 627.114179 -289.0604 
L 627.711159 -289.315755 
L 628.308139 -289.571126 
L 628.905119 -289.826493 
L 629.5021 -290.081877 
L 630.09908 -290.337246 
L 630.69606 -290.592613 
L 631.29304 -290.847972 
L 631.890021 -291.103306 
L 632.487001 -291.35863 
L 633.083981 -291.613954 
L 633.680961 -291.869278 
L 634.277941 -292.124602 
L 634.874922 -292.379932 
L 635.471902 -292.635276 
L 636.068882 -292.890637 
L 636.665862 -293.145965 
L 637.262843 -293.401257 
L 637.859823 -293.656585 
L 638.456803 -293.911918 
L 639.053783 -294.167282 
L 639.650763 -294.422688 
L 640.247744 -294.67805 
L 640.844724 -294.933308 
L 641.441704 -295.188643 
L 642.038684 -295.443882 
L 642.635665 -295.699119 
L 643.232645 -295.95439 
L 643.829625 -296.209633 
L 644.426605 -296.464962 
L 645.023585 -296.720327 
L 645.620566 -296.975691 
L 646.217546 -297.231017 
L 646.814526 -297.486364 
L 647.411506 -297.741707 
L 648.008487 -297.997009 
L 648.605467 -298.252311 
L 649.202447 -298.507625 
L 649.799427 -298.762939 
L 650.396407 -299.018243 
L 650.993388 -299.273548 
L 651.590368 -299.528852 
L 652.187348 -299.784156 
L 652.784328 -300.039463 
L 653.381309 -300.294767 
L 653.978289 -300.550071 
L 654.575269 -300.805376 
L 655.172249 -301.06068 
L 655.769229 -301.315984 
L 656.36621 -301.571288 
L 656.96319 -301.826592 
L 657.56017 -302.081917 
L 658.15715 -302.337214 
L 658.754131 -302.592553 
L 659.351111 -302.847879 
L 659.948091 -303.103188 
L 660.545071 -303.358492 
L 661.142051 -303.613795 
L 661.739032 -303.869098 
L 662.336012 -304.124401 
L 662.932992 -304.379668 
L 663.529972 -304.634962 
L 664.126953 -304.890293 
L 664.723933 -305.145614 
L 665.320913 -305.400892 
L 665.917893 -305.656155 
L 666.514873 -305.911459 
L 667.111854 -306.166762 
L 667.708834 -306.422065 
L 668.305814 -306.677401 
L 668.902794 -306.932673 
L 669.499775 -307.187975 
L 670.096755 -307.443283 
L 670.693735 -307.69865 
L 671.290715 -307.954001 
L 671.887695 -308.209234 
L 672.484676 -308.464518 
L 673.081656 -308.719797 
L 673.678636 -308.975023 
L 674.275616 -309.230256 
L 674.872597 -309.485541 
L 675.469577 -309.74085 
L 676.066557 -309.996183 
L 676.663537 -310.251516 
L 677.260517 -310.506838 
L 677.857498 -310.762158 
L 678.454478 -311.017372 
L 679.051458 -311.272596 
L 679.648438 -311.527847 
L 680.245419 -311.783056 
L 680.842399 -312.038393 
L 681.439379 -312.293714 
L 682.036359 -312.54896 
L 682.633339 -312.804127 
L 683.23032 -313.059472 
L 683.8273 -313.314782 
L 684.42428 -313.570018 
L 685.02126 -313.82545 
L 685.618241 -314.080771 
L 686.215221 -314.336054 
L 686.812201 -314.591362 
L 687.409181 -314.846601 
L 688.006161 -315.101927 
L 688.603142 -315.357263 
L 689.200122 -315.6125 
L 689.797102 -315.867801 
L 690.394082 -316.123136 
L 690.991063 -316.378419 
L 691.588043 -316.633748 
L 692.185023 -316.88903 
L 692.782003 -317.144349 
L 693.378983 -317.399624 
L 693.975964 -317.654999 
L 694.572944 -317.910231 
L 695.169924 -318.1655 
L 695.766904 -318.4207 
L 696.363885 -318.675952 
L 696.960865 -318.931252 
L 697.557845 -319.186546 
L 698.154825 -319.441824 
L 698.751805 -319.69706 
L 699.348786 -319.9523 
L 699.945766 -320.207542 
L 700.542746 -320.462789 
L 701.139726 -320.718024 
L 701.736707 -320.973272 
L 702.333687 -321.228508 
L 702.930667 -321.48375 
L 703.527647 -321.738992 
L 704.124627 -321.994241 
L 704.721608 -322.249462 
L 705.318588 -322.504679 
L 705.915568 -322.759936 
L 706.512548 -323.015173 
L 707.109529 -323.270528 
L 707.706509 -323.525882 
L 708.303489 -323.78112 
L 708.900469 -324.036444 
L 709.497449 -324.291746 
L 710.09443 -324.547086 
L 710.69141 -324.802425 
L 711.28839 -325.057751 
L 711.88537 -325.313004 
L 712.482351 -325.568256 
L 713.079331 -325.823509 
L 713.676311 -326.078758 
L 714.273291 -326.333965 
L 714.870271 -326.589182 
L 715.467252 -326.844449 
L 716.064232 -327.099673 
L 716.661212 -327.354868 
L 717.258192 -327.610062 
L 717.855173 -327.865258 
L 718.452153 -328.120542 
L 719.049133 -328.375954 
L 719.646113 -328.631247 
L 720.243093 -328.886499 
L 720.840074 -329.141751 
L 721.437054 -329.396912 
L 722.034034 -329.652068 
L 722.631014 -329.907326 
L 723.227995 -330.162596 
L 723.824975 -330.417867 
L 724.421955 -330.673138 
L 725.018935 -330.928408 
L 725.615915 -331.183679 
L 726.212896 -331.43895 
L 726.809876 -331.694228 
L 727.406856 -331.949523 
L 728.003836 -332.204767 
L 728.600817 -332.460021 
L 729.197797 -332.715275 
L 729.794777 -332.970559 
L 730.391757 -333.225842 
L 730.988737 -333.481111 
L 731.585718 -333.736372 
L 732.182698 -333.991638 
L 732.779678 -334.246905 
L 733.376658 -334.502179 
L 733.973639 -334.757454 
L 734.570619 -335.012812 
L 735.167599 -335.268099 
L 735.764579 -335.523414 
L 736.36156 -335.778787 
L 736.95854 -336.034072 
L 737.55552 -336.289395 
L 738.1525 -336.544723 
L 738.74948 -336.800054 
L 739.346461 -337.055389 
L 739.943441 -337.310723 
L 740.540421 -337.566057 
L 741.137401 -337.821342 
L 741.734382 -338.076657 
L 742.331362 -338.332007 
L 742.928342 -338.587163 
L 743.525322 -338.842407 
L 744.122302 -339.097681 
L 744.719283 -339.352891 
L 745.316263 -339.608072 
L 745.913243 -339.863344 
L 746.510223 -340.118634 
L 747.107204 -340.373926 
L 747.704184 -340.629219 
L 748.301164 -340.884512 
L 748.898144 -341.139805 
L 749.495124 -341.395097 
L 750.092105 -341.650307 
L 750.689085 -341.905479 
L 751.286065 -342.160748 
L 751.883045 -342.415968 
L 752.480026 -342.671165 
L 753.077006 -342.926369 
L 753.673986 -343.18158 
L 754.270966 -343.43679 
L 754.867946 -343.692001 
L 755.464927 -343.947212 
L 756.061907 -344.20244 
L 756.658887 -344.457678 
L 757.255867 -344.712939 
L 757.852848 -344.968176 
L 758.449828 -345.223377 
L 759.046808 -345.478612 
L 759.643788 -345.733851 
L 760.240768 -345.989116 
L 760.837749 -346.24441 
L 761.434729 -346.499689 
L 762.031709 -346.75498 
L 762.628689 -347.010332 
L 763.22567 -347.265743 
L 763.82265 -347.521154 
L 764.41963 -347.776414 
L 765.01661 -348.031506 
L 765.61359 -348.286682 
L 766.210571 -348.54196 
L 766.807551 -348.797255 
L 767.404531 -349.052597 
L 768.001511 -349.307819 
L 768.598492 -349.563088 
L 769.195472 -349.818351 
L 769.792452 -350.073578 
L 770.389432 -350.328775 
L 770.986412 -350.583985 
L 771.583393 -350.839208 
L 772.180373 -351.09443 
L 772.777353 -351.349669 
L 772.777353 -351.43733 
L 772.777353 -351.43733 
L 772.180373 -351.181503 
L 771.583393 -350.92592 
L 770.986412 -350.670337 
L 770.389432 -350.414749 
L 769.792452 -350.15911 
L 769.195472 -349.903471 
L 768.598492 -349.647832 
L 768.001511 -349.392193 
L 767.404531 -349.136554 
L 766.807551 -348.880915 
L 766.210571 -348.625276 
L 765.61359 -348.369637 
L 765.01661 -348.113985 
L 764.41963 -347.858331 
L 763.82265 -347.602689 
L 763.22567 -347.347123 
L 762.628689 -347.091543 
L 762.031709 -346.835837 
L 761.434729 -346.580131 
L 760.837749 -346.324527 
L 760.240768 -346.069003 
L 759.643788 -345.813478 
L 759.046808 -345.557918 
L 758.449828 -345.302263 
L 757.852848 -345.046716 
L 757.255867 -344.791216 
L 756.658887 -344.535701 
L 756.061907 -344.280098 
L 755.464927 -344.024427 
L 754.867946 -343.768742 
L 754.270966 -343.513054 
L 753.673986 -343.257404 
L 753.077006 -343.001837 
L 752.480026 -342.74627 
L 751.883045 -342.490699 
L 751.286065 -342.235126 
L 750.689085 -341.979612 
L 750.092105 -341.724079 
L 749.495124 -341.468546 
L 748.898144 -341.212981 
L 748.301164 -340.957402 
L 747.704184 -340.701823 
L 747.107204 -340.446127 
L 746.510223 -340.190362 
L 745.913243 -339.934597 
L 745.316263 -339.678832 
L 744.719283 -339.42318 
L 744.122302 -339.167638 
L 743.525322 -338.912096 
L 742.928342 -338.656554 
L 742.331362 -338.401013 
L 741.734382 -338.145471 
L 741.137401 -337.889929 
L 740.540421 -337.634297 
L 739.943441 -337.37862 
L 739.346461 -337.123102 
L 738.74948 -336.86758 
L 738.1525 -336.611917 
L 737.55552 -336.356303 
L 736.95854 -336.100689 
L 736.36156 -335.84502 
L 735.764579 -335.589387 
L 735.167599 -335.33373 
L 734.570619 -335.078119 
L 733.973639 -334.822542 
L 733.376658 -334.567035 
L 732.779678 -334.311485 
L 732.182698 -334.055917 
L 731.585718 -333.800345 
L 730.988737 -333.544774 
L 730.391757 -333.289217 
L 729.794777 -333.033651 
L 729.197797 -332.778073 
L 728.600817 -332.522403 
L 728.003836 -332.266777 
L 727.406856 -332.011201 
L 726.809876 -331.755624 
L 726.212896 -331.500059 
L 725.615915 -331.244543 
L 725.018935 -330.989027 
L 724.421955 -330.733499 
L 723.824975 -330.477846 
L 723.227995 -330.222189 
L 722.631014 -329.966595 
L 722.034034 -329.711033 
L 721.437054 -329.455469 
L 720.840074 -329.199905 
L 720.243093 -328.944341 
L 719.646113 -328.688777 
L 719.049133 -328.433213 
L 718.452153 -328.177631 
L 717.855173 -327.92203 
L 717.258192 -327.666429 
L 716.661212 -327.410828 
L 716.064232 -327.155227 
L 715.467252 -326.899626 
L 714.870271 -326.644024 
L 714.273291 -326.388418 
L 713.676311 -326.132809 
L 713.079331 -325.877201 
L 712.482351 -325.621623 
L 711.88537 -325.366052 
L 711.28839 -325.110429 
L 710.69141 -324.854791 
L 710.09443 -324.59925 
L 709.497449 -324.343635 
L 708.900469 -324.088015 
L 708.303489 -323.832395 
L 707.706509 -323.576763 
L 707.109529 -323.321205 
L 706.512548 -323.065783 
L 705.915568 -322.810378 
L 705.318588 -322.554828 
L 704.721608 -322.299232 
L 704.124627 -322.04358 
L 703.527647 -321.787986 
L 702.930667 -321.532522 
L 702.333687 -321.277032 
L 701.736707 -321.021485 
L 701.139726 -320.765937 
L 700.542746 -320.510377 
L 699.945766 -320.254817 
L 699.348786 -319.999257 
L 698.751805 -319.743694 
L 698.154825 -319.488125 
L 697.557845 -319.232506 
L 696.960865 -318.976852 
L 696.363885 -318.721198 
L 695.766904 -318.465617 
L 695.169924 -318.210079 
L 694.572944 -317.954542 
L 693.975964 -317.698995 
L 693.378983 -317.44342 
L 692.782003 -317.187914 
L 692.185023 -316.932377 
L 691.588043 -316.676833 
L 690.991063 -316.421301 
L 690.394082 -316.165806 
L 689.797102 -315.910239 
L 689.200122 -315.654676 
L 688.603142 -315.399133 
L 688.006161 -315.143563 
L 687.409181 -314.887945 
L 686.812201 -314.632357 
L 686.215221 -314.376775 
L 685.618241 -314.121153 
L 685.02126 -313.865521 
L 684.42428 -313.610015 
L 683.8273 -313.354479 
L 683.23032 -313.098884 
L 682.633339 -312.8433 
L 682.036359 -312.587715 
L 681.439379 -312.332125 
L 680.842399 -312.076522 
L 680.245419 -311.820919 
L 679.648438 -311.565328 
L 679.051458 -311.309729 
L 678.454478 -311.054207 
L 677.857498 -310.798759 
L 677.260517 -310.543096 
L 676.663537 -310.287617 
L 676.066557 -310.032082 
L 675.469577 -309.776523 
L 674.872597 -309.521001 
L 674.275616 -309.26548 
L 673.678636 -309.009905 
L 673.081656 -308.754291 
L 672.484676 -308.498701 
L 671.887695 -308.243127 
L 671.290715 -307.987561 
L 670.693735 -307.731995 
L 670.096755 -307.476429 
L 669.499775 -307.220905 
L 668.902794 -306.965343 
L 668.305814 -306.709804 
L 667.708834 -306.454276 
L 667.111854 -306.198738 
L 666.514873 -305.943131 
L 665.917893 -305.687485 
L 665.320913 -305.431943 
L 664.723933 -305.176502 
L 664.126953 -304.921044 
L 663.529972 -304.665511 
L 662.932992 -304.409973 
L 662.336012 -304.154409 
L 661.739032 -303.898842 
L 661.142051 -303.64328 
L 660.545071 -303.387738 
L 659.948091 -303.132131 
L 659.351111 -302.876632 
L 658.754131 -302.621079 
L 658.15715 -302.365513 
L 657.56017 -302.109917 
L 656.96319 -301.854312 
L 656.36621 -301.598724 
L 655.769229 -301.343193 
L 655.172249 -301.087675 
L 654.575269 -300.832156 
L 653.978289 -300.576638 
L 653.381309 -300.321017 
L 652.784328 -300.065479 
L 652.187348 -299.809876 
L 651.590368 -299.554259 
L 650.993388 -299.298639 
L 650.396407 -299.043014 
L 649.799427 -298.787438 
L 649.202447 -298.531871 
L 648.605467 -298.276313 
L 648.008487 -298.020733 
L 647.411506 -297.765159 
L 646.814526 -297.509585 
L 646.217546 -297.254017 
L 645.620566 -296.998445 
L 645.023585 -296.742878 
L 644.426605 -296.487343 
L 643.829625 -296.231735 
L 643.232645 -295.976167 
L 642.635665 -295.720644 
L 642.038684 -295.465098 
L 641.441704 -295.209533 
L 640.844724 -294.954006 
L 640.247744 -294.698509 
L 639.650763 -294.443012 
L 639.053783 -294.1874 
L 638.456803 -293.931802 
L 637.859823 -293.676269 
L 637.262843 -293.420702 
L 636.665862 -293.165168 
L 636.068882 -292.909631 
L 635.471902 -292.654091 
L 634.874922 -292.398469 
L 634.277941 -292.142899 
L 633.680961 -291.88733 
L 633.083981 -291.631794 
L 632.487001 -291.376249 
L 631.890021 -291.120701 
L 631.29304 -290.865153 
L 630.69606 -290.609605 
L 630.09908 -290.354057 
L 629.5021 -290.098509 
L 628.905119 -289.842969 
L 628.308139 -289.587437 
L 627.711159 -289.33191 
L 627.114179 -289.076389 
L 626.517199 -288.820861 
L 625.920218 -288.565315 
L 625.323238 -288.309718 
L 624.726258 -288.054121 
L 624.129278 -287.798564 
L 623.532297 -287.543001 
L 622.935317 -287.287453 
L 622.338337 -287.031912 
L 621.741357 -286.776361 
L 621.144377 -286.520832 
L 620.547396 -286.265266 
L 619.950416 -286.009703 
L 619.353436 -285.754176 
L 618.756456 -285.498682 
L 618.159475 -285.243122 
L 617.562495 -284.987553 
L 616.965515 -284.732004 
L 616.368535 -284.476461 
L 615.771555 -284.220893 
L 615.174574 -283.965322 
L 614.577594 -283.709788 
L 613.980614 -283.454257 
L 613.383634 -283.198737 
L 612.786653 -282.943221 
L 612.189673 -282.687667 
L 611.592693 -282.432138 
L 610.995713 -282.176601 
L 610.398733 -281.921078 
L 609.801752 -281.665549 
L 609.204772 -281.410008 
L 608.607792 -281.154442 
L 608.010812 -280.898886 
L 607.413831 -280.643333 
L 606.816851 -280.387788 
L 606.219871 -280.132238 
L 605.622891 -279.876708 
L 605.025911 -279.621195 
L 604.42893 -279.365683 
L 603.83195 -279.11023 
L 603.23497 -278.854703 
L 602.63799 -278.599215 
L 602.041009 -278.343692 
L 601.444029 -278.088213 
L 600.847049 -277.832643 
L 600.250069 -277.577128 
L 599.653089 -277.321594 
L 599.056108 -277.0661 
L 598.459128 -276.810584 
L 597.862148 -276.555063 
L 597.265168 -276.29949 
L 596.668187 -276.043952 
L 596.071207 -275.788427 
L 595.474227 -275.532937 
L 594.877247 -275.277442 
L 594.280267 -275.021945 
L 593.683286 -274.766451 
L 593.086306 -274.510889 
L 592.489326 -274.255404 
L 591.892346 -273.999886 
L 591.295365 -273.744364 
L 590.698385 -273.488867 
L 590.101405 -273.233386 
L 589.504425 -272.977907 
L 588.907445 -272.722387 
L 588.310464 -272.466862 
L 587.713484 -272.211339 
L 587.116504 -271.955827 
L 586.519524 -271.700285 
L 585.922543 -271.444747 
L 585.325563 -271.189229 
L 584.728583 -270.933705 
L 584.131603 -270.678184 
L 583.534623 -270.42269 
L 582.937642 -270.167148 
L 582.340662 -269.911665 
L 581.743682 -269.656187 
L 581.146702 -269.400685 
L 580.549721 -269.145178 
L 579.952741 -268.889659 
L 579.355761 -268.634122 
L 578.758781 -268.378603 
L 578.161801 -268.123119 
L 577.56482 -267.867654 
L 576.96784 -267.612168 
L 576.37086 -267.356682 
L 575.77388 -267.101164 
L 575.176899 -266.845648 
L 574.579919 -266.590159 
L 573.982939 -266.334678 
L 573.385959 -266.079187 
L 572.788979 -265.82371 
L 572.191998 -265.568223 
L 571.595018 -265.312728 
L 570.998038 -265.057231 
L 570.401058 -264.801742 
L 569.804077 -264.546248 
L 569.207097 -264.29078 
L 568.610117 -264.035296 
L 568.013137 -263.779817 
L 567.416157 -263.524327 
L 566.819176 -263.268843 
L 566.222196 -263.013369 
L 565.625216 -262.757902 
L 565.028236 -262.502436 
L 564.431255 -262.246959 
L 563.834275 -261.991491 
L 563.237295 -261.736029 
L 562.640315 -261.480559 
L 562.043334 -261.225098 
L 561.446354 -260.969644 
L 560.849374 -260.714191 
L 560.252394 -260.458731 
L 559.655414 -260.203283 
L 559.058433 -259.947835 
L 558.461453 -259.692394 
L 557.864473 -259.436953 
L 557.267493 -259.181513 
L 556.670512 -258.926073 
L 556.073532 -258.670633 
L 555.476552 -258.415192 
L 554.879572 -258.159752 
L 554.282592 -257.904312 
L 553.685611 -257.648872 
L 553.088631 -257.393431 
L 552.491651 -257.137991 
L 551.894671 -256.882551 
L 551.29769 -256.62711 
L 550.70071 -256.37167 
L 550.10373 -256.11623 
L 549.50675 -255.86079 
L 548.90977 -255.605349 
L 548.312789 -255.349909 
L 547.715809 -255.094469 
L 547.118829 -254.839029 
L 546.521849 -254.583588 
L 545.924868 -254.328148 
L 545.327888 -254.072708 
L 544.730908 -253.817268 
L 544.133928 -253.561827 
L 543.536948 -253.306387 
L 542.939967 -253.050947 
L 542.342987 -252.795506 
L 541.746007 -252.540066 
L 541.149027 -252.284626 
L 540.552046 -252.029186 
L 539.955066 -251.773745 
L 539.358086 -251.518305 
L 538.761106 -251.262865 
L 538.164126 -251.007425 
L 537.567145 -250.751984 
L 536.970165 -250.496544 
L 536.373185 -250.241104 
L 535.776205 -249.985663 
L 535.179224 -249.730223 
L 534.582244 -249.474783 
L 533.985264 -249.219343 
L 533.388284 -248.963902 
L 532.791304 -248.708462 
L 532.194323 -248.453022 
L 531.597343 -248.197582 
L 531.000363 -247.942141 
L 530.403383 -247.686701 
L 529.806402 -247.431261 
L 529.209422 -247.17582 
L 528.612442 -246.92038 
L 528.015462 -246.66494 
L 527.418482 -246.4095 
L 526.821501 -246.154059 
L 526.224521 -245.898619 
L 525.627541 -245.643179 
L 525.030561 -245.387739 
L 524.43358 -245.132298 
L 523.8366 -244.876858 
L 523.23962 -244.621418 
L 522.64264 -244.365978 
L 522.04566 -244.110537 
L 521.448679 -243.855097 
L 520.851699 -243.599657 
L 520.254719 -243.344216 
L 519.657739 -243.088776 
L 519.060758 -242.833336 
L 518.463778 -242.577896 
L 517.866798 -242.322455 
L 517.269818 -242.067015 
L 516.672838 -241.811575 
L 516.075857 -241.556135 
L 515.478877 -241.300694 
L 514.881897 -241.045254 
L 514.284917 -240.789814 
L 513.687936 -240.534373 
L 513.090956 -240.278933 
L 512.493976 -240.023493 
L 511.896996 -239.768053 
L 511.300016 -239.512612 
L 510.703035 -239.257172 
L 510.106055 -239.001732 
L 509.509075 -238.746292 
L 508.912095 -238.490851 
L 508.315114 -238.235411 
L 507.718134 -237.979971 
L 507.121154 -237.72453 
L 506.524174 -237.46909 
L 505.927194 -237.21365 
L 505.330213 -236.95821 
L 504.733233 -236.702769 
L 504.136253 -236.447329 
L 503.539273 -236.191889 
L 502.942292 -235.936449 
L 502.345312 -235.681008 
L 501.748332 -235.425568 
L 501.151352 -235.170128 
L 500.554372 -234.914688 
L 499.957391 -234.659247 
L 499.360411 -234.403807 
L 498.763431 -234.148367 
L 498.166451 -233.892926 
L 497.56947 -233.637486 
L 496.97249 -233.382046 
L 496.37551 -233.126606 
L 495.77853 -232.871165 
L 495.18155 -232.615725 
L 494.584569 -232.360285 
L 493.987589 -232.104845 
L 493.390609 -231.849404 
L 492.793629 -231.593964 
L 492.196648 -231.338524 
L 491.599668 -231.083083 
L 491.002688 -230.827643 
L 490.405708 -230.572203 
L 489.808728 -230.316763 
L 489.211747 -230.061322 
L 488.614767 -229.805882 
L 488.017787 -229.550442 
L 487.420807 -229.295002 
L 486.823826 -229.039561 
L 486.226846 -228.784121 
L 485.629866 -228.528681 
L 485.032886 -228.27324 
L 484.435906 -228.0178 
L 483.838925 -227.76236 
L 483.241945 -227.50692 
L 482.644965 -227.251479 
L 482.047985 -226.996039 
L 481.451004 -226.740599 
L 480.854024 -226.485159 
L 480.257044 -226.229718 
L 479.660064 -225.974278 
L 479.063084 -225.718838 
L 478.466103 -225.463398 
L 477.869123 -225.207957 
L 477.272143 -224.952517 
L 476.675163 -224.697077 
L 476.078182 -224.441636 
L 475.481202 -224.186196 
L 474.884222 -223.930756 
L 474.287242 -223.675316 
L 473.690262 -223.419875 
L 473.093281 -223.164435 
L 472.496301 -222.908995 
L 471.899321 -222.653555 
L 471.302341 -222.398114 
L 470.70536 -222.142674 
L 470.10838 -221.887234 
L 469.5114 -221.631793 
L 468.91442 -221.376353 
L 468.31744 -221.120913 
L 467.720459 -220.865473 
L 467.123479 -220.610032 
L 466.526499 -220.354592 
L 465.929519 -220.099152 
L 465.332538 -219.843712 
L 464.735558 -219.588271 
L 464.138578 -219.332831 
L 463.541598 -219.077391 
L 462.944618 -218.82195 
L 462.347637 -218.56651 
L 461.750657 -218.31107 
L 461.153677 -218.05563 
L 460.556697 -217.800189 
L 459.959716 -217.544749 
L 459.362736 -217.289309 
L 458.765756 -217.034265 
L 458.168776 -216.77922 
L 457.571796 -216.524176 
L 456.974815 -216.269132 
L 456.377835 -216.014087 
L 455.780855 -215.759043 
L 455.183875 -215.503999 
L 454.586894 -215.248955 
L 453.989914 -214.99391 
L 453.392934 -214.738866 
L 452.795954 -214.483822 
L 452.198974 -214.228777 
L 451.601993 -213.973733 
L 451.005013 -213.718689 
L 450.408033 -213.463644 
L 449.811053 -213.2086 
L 449.214072 -212.953556 
L 448.617092 -212.698512 
L 448.020112 -212.443467 
L 447.423132 -212.188423 
L 446.826152 -211.933379 
L 446.229171 -211.678334 
L 445.632191 -211.42329 
L 445.035211 -211.168246 
L 444.438231 -210.913201 
L 443.84125 -210.658157 
L 443.24427 -210.403283 
L 442.64729 -210.148409 
L 442.05031 -209.893535 
L 441.45333 -209.638661 
L 440.856349 -209.383787 
L 440.259369 -209.128913 
L 439.662389 -208.874039 
L 439.065409 -208.619165 
L 438.468428 -208.364291 
L 437.871448 -208.109417 
L 437.274468 -207.854543 
L 436.677488 -207.599669 
L 436.080508 -207.344795 
L 435.483527 -207.089921 
L 434.886547 -206.835047 
L 434.289567 -206.580173 
L 433.692587 -206.325299 
L 433.095606 -206.070425 
L 432.498626 -205.815551 
L 431.901646 -205.560677 
L 431.304666 -205.305803 
L 430.707686 -205.050929 
L 430.110705 -204.796056 
L 429.513725 -204.541182 
L 428.916745 -204.286308 
L 428.319765 -204.031433 
L 427.722784 -203.776559 
L 427.125804 -203.521685 
L 426.528824 -203.266811 
L 425.931844 -203.011936 
L 425.334864 -202.757062 
L 424.737883 -202.502188 
L 424.140903 -202.247314 
L 423.543923 -201.992439 
L 422.946943 -201.737565 
L 422.349962 -201.482691 
L 421.752982 -201.227817 
L 421.156002 -200.972942 
L 420.559022 -200.718068 
L 419.962042 -200.463194 
L 419.365061 -200.20832 
L 418.768081 -199.953445 
L 418.171101 -199.698571 
L 417.574121 -199.443697 
L 416.97714 -199.188823 
L 416.38016 -198.933948 
L 415.78318 -198.679074 
L 415.1862 -198.4242 
L 414.58922 -198.169326 
L 413.992239 -197.914451 
L 413.395259 -197.659577 
L 412.798279 -197.404665 
L 412.201299 -197.149752 
L 411.604318 -196.89484 
L 411.007338 -196.639928 
L 410.410358 -196.385015 
L 409.813378 -196.130103 
L 409.216398 -195.87519 
L 408.619417 -195.620278 
L 408.022437 -195.365365 
L 407.425457 -195.110453 
L 406.828477 -194.855541 
L 406.231496 -194.600628 
L 405.634516 -194.345716 
L 405.037536 -194.090803 
L 404.440556 -193.835891 
L 403.843576 -193.580979 
L 403.246595 -193.326066 
L 402.649615 -193.071154 
L 402.052635 -192.816241 
L 401.455655 -192.561329 
L 400.858674 -192.306416 
L 400.261694 -192.051504 
L 399.664714 -191.796592 
L 399.067734 -191.541679 
L 398.470754 -191.286767 
L 397.873773 -191.031827 
L 397.276793 -190.776887 
L 396.679813 -190.521947 
L 396.082833 -190.267006 
L 395.485852 -190.012066 
L 394.888872 -189.757126 
L 394.291892 -189.502186 
L 393.694912 -189.247246 
L 393.097931 -188.992306 
L 392.500951 -188.737366 
L 391.903971 -188.482426 
L 391.306991 -188.227486 
L 390.710011 -187.972546 
L 390.11303 -187.717605 
L 389.51605 -187.462665 
L 388.91907 -187.207725 
L 388.32209 -186.952785 
L 387.725109 -186.697845 
L 387.128129 -186.442905 
L 386.531149 -186.187965 
L 385.934169 -185.933025 
L 385.337189 -185.678085 
L 384.740208 -185.423145 
L 384.143228 -185.168204 
L 383.546248 -184.913264 
L 382.949268 -184.658324 
L 382.352287 -184.403378 
L 381.755307 -184.148432 
L 381.158327 -183.893485 
L 380.561347 -183.638539 
L 379.964367 -183.383593 
L 379.367386 -183.128646 
L 378.770406 -182.8737 
L 378.173426 -182.618754 
L 377.576446 -182.363807 
L 376.979465 -182.108861 
L 376.382485 -181.853915 
L 375.785505 -181.598969 
L 375.188525 -181.344022 
L 374.591545 -181.089076 
L 373.994564 -180.83413 
L 373.397584 -180.579183 
L 372.800604 -180.324237 
L 372.203624 -180.069291 
L 371.606643 -179.814344 
L 371.009663 -179.559398 
L 370.412683 -179.304452 
L 369.815703 -179.049505 
L 369.218723 -178.794559 
L 368.621742 -178.539613 
L 368.024762 -178.284667 
L 367.427782 -178.029719 
L 366.830802 -177.774771 
L 366.233821 -177.519823 
L 365.636841 -177.264875 
L 365.039861 -177.009927 
L 364.442881 -176.754979 
L 363.845901 -176.500031 
L 363.24892 -176.245083 
L 362.65194 -175.990135 
L 362.05496 -175.735188 
L 361.45798 -175.48024 
L 360.860999 -175.225292 
L 360.264019 -174.970344 
L 359.667039 -174.715396 
L 359.070059 -174.460448 
L 358.473079 -174.2055 
L 357.876098 -173.950552 
L 357.279118 -173.695604 
L 356.682138 -173.440657 
L 356.085158 -173.185709 
L 355.488177 -172.930761 
L 354.891197 -172.675813 
L 354.294217 -172.420865 
L 353.697237 -172.165917 
L 353.100257 -171.910969 
L 352.503276 -171.656021 
L 351.906296 -171.40107 
L 351.309316 -171.14612 
L 350.712336 -170.891169 
L 350.115355 -170.636218 
L 349.518375 -170.381267 
L 348.921395 -170.126316 
L 348.324415 -169.871366 
L 347.727435 -169.616415 
L 347.130454 -169.361464 
L 346.533474 -169.106513 
L 345.936494 -168.851562 
L 345.339514 -168.596612 
L 344.742533 -168.341661 
L 344.145553 -168.08671 
L 343.548573 -167.831759 
L 342.951593 -167.576808 
L 342.354613 -167.321858 
L 341.757632 -167.066907 
L 341.160652 -166.811956 
L 340.563672 -166.557005 
L 339.966692 -166.302054 
L 339.369711 -166.047104 
L 338.772731 -165.792153 
L 338.175751 -165.537202 
L 337.578771 -165.282251 
L 336.981791 -165.0273 
L 336.38481 -164.772349 
L 335.78783 -164.517398 
L 335.19085 -164.262447 
L 334.59387 -164.007496 
L 333.996889 -163.752545 
L 333.399909 -163.497594 
L 332.802929 -163.242643 
L 332.205949 -162.987693 
L 331.608969 -162.732742 
L 331.011988 -162.477791 
L 330.415008 -162.22284 
L 329.818028 -161.967889 
L 329.221048 -161.712938 
L 328.624067 -161.457987 
L 328.027087 -161.203036 
L 327.430107 -160.948085 
L 326.833127 -160.693134 
L 326.236147 -160.438183 
L 325.639166 -160.183232 
L 325.042186 -159.928281 
L 324.445206 -159.67333 
L 323.848226 -159.418379 
L 323.251245 -159.163428 
L 322.654265 -158.908477 
L 322.057285 -158.653526 
L 321.460305 -158.398574 
L 320.863325 -158.143623 
L 320.266344 -157.888671 
L 319.669364 -157.63372 
L 319.072384 -157.378768 
L 318.475404 -157.123816 
L 317.878423 -156.868865 
L 317.281443 -156.613913 
L 316.684463 -156.358962 
L 316.087483 -156.10401 
L 315.490503 -155.849058 
L 314.893522 -155.594107 
L 314.296542 -155.339155 
L 313.699562 -155.084204 
L 313.102582 -154.829252 
L 312.505601 -154.5743 
L 311.908621 -154.319349 
L 311.311641 -154.064397 
L 310.714661 -153.809446 
L 310.117681 -153.554494 
L 309.5207 -153.299542 
L 308.92372 -153.044591 
L 308.32674 -152.789639 
L 307.72976 -152.534688 
L 307.132779 -152.279736 
L 306.535799 -152.024784 
L 305.938819 -151.769832 
L 305.341839 -151.51488 
L 304.744859 -151.259928 
L 304.147878 -151.004975 
L 303.550898 -150.750023 
L 302.953918 -150.495071 
L 302.356938 -150.240119 
L 301.759957 -149.985166 
L 301.162977 -149.730214 
L 300.565997 -149.475262 
L 299.969017 -149.22031 
L 299.372037 -148.965357 
L 298.775056 -148.710405 
L 298.178076 -148.455453 
L 297.581096 -148.200501 
L 296.984116 -147.945548 
L 296.387135 -147.690596 
L 295.790155 -147.435644 
L 295.193175 -147.180692 
L 294.596195 -146.925739 
L 293.999215 -146.670787 
L 293.402234 -146.415835 
L 292.805254 -146.160883 
L 292.208274 -145.90593 
L 291.611294 -145.650978 
L 291.014313 -145.396021 
L 290.417333 -145.141064 
L 289.820353 -144.886107 
L 289.223373 -144.63115 
L 288.626393 -144.376193 
L 288.029412 -144.121236 
L 287.432432 -143.866279 
L 286.835452 -143.611322 
L 286.238472 -143.356365 
L 285.641491 -143.101408 
L 285.044511 -142.846451 
L 284.447531 -142.591494 
L 283.850551 -142.336537 
L 283.253571 -142.081579 
L 282.65659 -141.826622 
L 282.05961 -141.571665 
L 281.46263 -141.316708 
L 280.86565 -141.061751 
L 280.268669 -140.806794 
L 279.671689 -140.551837 
L 279.074709 -140.29688 
L 278.477729 -140.041923 
L 277.880749 -139.786966 
L 277.283768 -139.532009 
L 276.686788 -139.277052 
L 276.089808 -139.022095 
L 275.492828 -138.767135 
L 274.895847 -138.512176 
L 274.298867 -138.257216 
L 273.701887 -138.002256 
L 273.104907 -137.747297 
L 272.507927 -137.492337 
L 271.910946 -137.237377 
L 271.313966 -136.982418 
L 270.716986 -136.727458 
L 270.120006 -136.472498 
L 269.523025 -136.217539 
L 268.926045 -135.962579 
L 268.329065 -135.707619 
L 267.732085 -135.45266 
L 267.135105 -135.1977 
L 266.538124 -134.94274 
L 265.941144 -134.687781 
L 265.344164 -134.432821 
L 264.747184 -134.177861 
L 264.150203 -133.922902 
L 263.553223 -133.667942 
L 262.956243 -133.412982 
L 262.359263 -133.158023 
L 261.762283 -132.903063 
L 261.165302 -132.648103 
L 260.568322 -132.393142 
L 259.971342 -132.13818 
L 259.374362 -131.883218 
L 258.777381 -131.628256 
L 258.180401 -131.373294 
L 257.583421 -131.118333 
L 256.986441 -130.863371 
L 256.389461 -130.608409 
L 255.79248 -130.353447 
L 255.1955 -130.098485 
L 254.59852 -129.843524 
L 254.00154 -129.588562 
L 253.404559 -129.3336 
L 252.807579 -129.078638 
L 252.210599 -128.823676 
L 251.613619 -128.568715 
L 251.016639 -128.313753 
L 250.419658 -128.058791 
L 249.822678 -127.803829 
L 249.225698 -127.548868 
L 248.628718 -127.293906 
L 248.031737 -127.038944 
L 247.434757 -126.783982 
L 246.837777 -126.52902 
L 246.240797 -126.274059 
L 245.643817 -126.019097 
L 245.046836 -125.764134 
L 244.449856 -125.509171 
L 243.852876 -125.254208 
L 243.255896 -124.999246 
L 242.658915 -124.744283 
L 242.061935 -124.48932 
L 241.464955 -124.234357 
L 240.867975 -123.979395 
L 240.270995 -123.724432 
L 239.674014 -123.469469 
L 239.077034 -123.214506 
L 238.480054 -122.959543 
L 237.883074 -122.704581 
L 237.286093 -122.449618 
L 236.689113 -122.194655 
L 236.092133 -121.939692 
L 235.495153 -121.68473 
L 234.898173 -121.429767 
L 234.301192 -121.174804 
L 233.704212 -120.919841 
L 233.107232 -120.664878 
L 232.510252 -120.409916 
L 231.913271 -120.154953 
L 231.316291 -119.89999 
L 230.719311 -119.645027 
L 230.122331 -119.390064 
L 229.525351 -119.1351 
L 228.92837 -118.880136 
L 228.33139 -118.625172 
L 227.73441 -118.370209 
L 227.13743 -118.115245 
L 226.540449 -117.860281 
L 225.943469 -117.605318 
L 225.346489 -117.350354 
L 224.749509 -117.09539 
L 224.152528 -116.840426 
L 223.555548 -116.585463 
L 222.958568 -116.330499 
L 222.361588 -116.075535 
L 221.764608 -115.820572 
L 221.167627 -115.565608 
L 220.570647 -115.310644 
L 219.973667 -115.05568 
L 219.376687 -114.800717 
L 218.779706 -114.545753 
L 218.182726 -114.290789 
L 217.585746 -114.035826 
L 216.988766 -113.780862 
L 216.391786 -113.525898 
L 215.794805 -113.270934 
L 215.197825 -113.015971 
L 214.600845 -112.760999 
L 214.003865 -112.506026 
L 213.406884 -112.251054 
L 212.809904 -111.996082 
L 212.212924 -111.74111 
L 211.615944 -111.486138 
L 211.018964 -111.231166 
L 210.421983 -110.976194 
L 209.825003 -110.721222 
L 209.228023 -110.46625 
L 208.631043 -110.211277 
L 208.034062 -109.956305 
L 207.437082 -109.701333 
L 206.840102 -109.446361 
L 206.243122 -109.191389 
L 205.646142 -108.936417 
L 205.049161 -108.681445 
L 204.452181 -108.426473 
L 203.855201 -108.1715 
L 203.258221 -107.916528 
L 202.66124 -107.661556 
L 202.06426 -107.406584 
L 201.46728 -107.151612 
L 200.8703 -106.89664 
L 200.27332 -106.641668 
L 199.676339 -106.386696 
L 199.079359 -106.131717 
L 198.482379 -105.876738 
L 197.885399 -105.621759 
L 197.288418 -105.36678 
L 196.691438 -105.111801 
L 196.094458 -104.856823 
L 195.497478 -104.601844 
L 194.900498 -104.346865 
L 194.303517 -104.091886 
L 193.706537 -103.836907 
L 193.109557 -103.581929 
L 192.512577 -103.32695 
L 191.915596 -103.071971 
L 191.318616 -102.816992 
L 190.721636 -102.562013 
L 190.124656 -102.307034 
L 189.527676 -102.052056 
L 188.930695 -101.797077 
L 188.333715 -101.542098 
L 187.736735 -101.287119 
L 187.139755 -101.03214 
L 186.542774 -100.777161 
L 185.945794 -100.522183 
L 185.348814 -100.267204 
L 184.751834 -100.012225 
L 184.154854 -99.75722 
L 183.557873 -99.502215 
L 182.960893 -99.247209 
L 182.363913 -98.992204 
L 181.766933 -98.737199 
L 181.169952 -98.482194 
L 180.572972 -98.227189 
L 179.975992 -97.972184 
L 179.379012 -97.717178 
L 178.782032 -97.462173 
L 178.185051 -97.207168 
L 177.588071 -96.952163 
L 176.991091 -96.697158 
L 176.394111 -96.442153 
L 175.79713 -96.187147 
L 175.20015 -95.932142 
L 174.60317 -95.677137 
L 174.00619 -95.422132 
L 173.40921 -95.167127 
L 172.812229 -94.912122 
L 172.215249 -94.657116 
L 171.618269 -94.402111 
L 171.021289 -94.147106 
L 170.424308 -93.892101 
L 169.827328 -93.637096 
L 169.230348 -93.382091 
L 168.633368 -93.12707 
L 168.036388 -92.87205 
L 167.439407 -92.61703 
L 166.842427 -92.36201 
L 166.245447 -92.10699 
L 165.648467 -91.85197 
L 165.051486 -91.59695 
L 164.454506 -91.34193 
L 163.857526 -91.086909 
L 163.260546 -90.831889 
L 162.663566 -90.576869 
L 162.066585 -90.321849 
L 161.469605 -90.066829 
L 160.872625 -89.811809 
L 160.275645 -89.556789 
L 159.678664 -89.301769 
L 159.081684 -89.046748 
L 158.484704 -88.791728 
L 157.887724 -88.536708 
L 157.290744 -88.281688 
L 156.693763 -88.026668 
L 156.096783 -87.771648 
L 155.499803 -87.516628 
L 154.902823 -87.261608 
L 154.305842 -87.006587 
L 153.708862 -86.751536 
L 153.111882 -86.496485 
L 152.514902 -86.241434 
L 151.917922 -85.986383 
L 151.320941 -85.731332 
L 150.723961 -85.476281 
L 150.126981 -85.22123 
L 149.530001 -84.966179 
L 148.93302 -84.711128 
L 148.33604 -84.456077 
L 147.73906 -84.201026 
L 147.14208 -83.945975 
L 146.5451 -83.690924 
L 145.948119 -83.435873 
L 145.351139 -83.180822 
L 144.754159 -82.925771 
L 144.157179 -82.67072 
L 143.560198 -82.415668 
L 142.963218 -82.160617 
L 142.366238 -81.905566 
L 141.769258 -81.650515 
L 141.172278 -81.395464 
L 140.575297 -81.140413 
L 139.978317 -80.885362 
L 139.381337 -80.630311 
L 138.784357 -80.37526 
L 138.187376 -80.120165 
L 137.590396 -79.865069 
L 136.993416 -79.609974 
L 136.396436 -79.354879 
L 135.799456 -79.099784 
L 135.202475 -78.844688 
L 134.605495 -78.589593 
L 134.008515 -78.334498 
L 133.411535 -78.079402 
L 132.814554 -77.824307 
L 132.217574 -77.569212 
L 131.620594 -77.314117 
L 131.023614 -77.059021 
L 130.426634 -76.803926 
L 129.829653 -76.548831 
L 129.232673 -76.293735 
L 128.635693 -76.03864 
L 128.038713 -75.783545 
L 127.441732 -75.528449 
L 126.844752 -75.273354 
L 126.247772 -75.018259 
L 125.650792 -74.763164 
L 125.053812 -74.508068 
L 124.456831 -74.252973 
L 123.859851 -73.997878 
L 123.262871 -73.742686 
L 122.665891 -73.487495 
L 122.06891 -73.232303 
L 121.47193 -72.977112 
L 120.87495 -72.721921 
L 120.27797 -72.466729 
L 119.68099 -72.211538 
L 119.084009 -71.956346 
L 118.487029 -71.701155 
L 117.890049 -71.445964 
L 117.293069 -71.190772 
L 116.696088 -70.935581 
L 116.099108 -70.680389 
L 115.502128 -70.425198 
L 114.905148 -70.170007 
L 114.308168 -69.914815 
L 113.711187 -69.659624 
L 113.114207 -69.404432 
L 112.517227 -69.149241 
L 111.920247 -68.89405 
L 111.323266 -68.638858 
L 110.726286 -68.383667 
L 110.129306 -68.128475 
L 109.532326 -67.873284 
L 108.935346 -67.618093 
L 108.338365 -67.362901 
L 107.741385 -67.107677 
L 107.144405 -66.852452 
L 106.547425 -66.597227 
L 105.950444 -66.342002 
L 105.353464 -66.086778 
L 104.756484 -65.831553 
L 104.159504 -65.576328 
L 103.562524 -65.321103 
L 102.965543 -65.065879 
L 102.368563 -64.810654 
L 101.771583 -64.555429 
L 101.174603 -64.300204 
L 100.577622 -64.04498 
L 99.980642 -63.789755 
L 99.383662 -63.53453 
L 98.786682 -63.279305 
L 98.189702 -63.024081 
L 97.592721 -62.768856 
L 96.995741 -62.513631 
L 96.398761 -62.258407 
L 95.801781 -62.003182 
L 95.2048 -61.747957 
L 94.60782 -61.492732 
L 94.01084 -61.237508 
L 93.41386 -60.982283 
L 92.81688 -60.727057 
L 92.219899 -60.471832 
L 91.622919 -60.216606 
L 91.025939 -59.961381 
L 90.428959 -59.706155 
L 89.831978 -59.45093 
L 89.234998 -59.195704 
L 88.638018 -58.940479 
L 88.041038 -58.685254 
L 87.444058 -58.430028 
L 86.847077 -58.174803 
L 86.250097 -57.919577 
L 85.653117 -57.664352 
L 85.056137 -57.409126 
L 84.459156 -57.153901 
L 83.862176 -56.898675 
L 83.265196 -56.64345 
L 82.668216 -56.388224 
L 82.071236 -56.132999 
L 81.474255 -55.877773 
L 80.877275 -55.622548 
L 80.280295 -55.367322 
L 79.683315 -55.112097 
L 79.086334 -54.856871 
L 78.489354 -54.601646 
L 77.892374 -54.34642 
z
" id="m02744fb51b" style="stroke:#0072b2;stroke-opacity:0.2;"/>
    </defs>
    <g clip-path="url(#p00596cf583)">
     <use style="fill:#0072b2;fill-opacity:0.2;stroke:#0072b2;stroke-opacity:0.2;" x="0" xlink:href="#m02744fb51b" y="373.491875"/>
    </g>
   </g>
   <g id="matplotlib.axis_1">
    <g id="xtick_1">
     <g id="line2d_1">
      <path clip-path="url(#p00596cf583)" d="M 77.892374 334 
L 77.892374 7.2 
" style="fill:none;stroke:#808080;stroke-linecap:square;stroke-opacity:0.2;"/>
     </g>
     <g id="line2d_2">
      <defs>
       <path d="M 0 0 
L 0 3.5 
" id="me1dcd357b6" style="stroke:#000000;stroke-width:0.8;"/>
      </defs>
      <g>
       <use style="stroke:#000000;stroke-width:0.8;" x="77.892374" xlink:href="#me1dcd357b6" y="334"/>
      </g>
     </g>
     <g id="text_1">
      <!-- 2017-05 -->
      <defs>
       <path d="M 19.1875 8.296875 
L 53.609375 8.296875 
L 53.609375 0 
L 7.328125 0 
L 7.328125 8.296875 
Q 12.9375 14.109375 22.625 23.890625 
Q 32.328125 33.6875 34.8125 36.53125 
Q 39.546875 41.84375 41.421875 45.53125 
Q 43.3125 49.21875 43.3125 52.78125 
Q 43.3125 58.59375 39.234375 62.25 
Q 35.15625 65.921875 28.609375 65.921875 
Q 23.96875 65.921875 18.8125 64.3125 
Q 13.671875 62.703125 7.8125 59.421875 
L 7.8125 69.390625 
Q 13.765625 71.78125 18.9375 73 
Q 24.125 74.21875 28.421875 74.21875 
Q 39.75 74.21875 46.484375 68.546875 
Q 53.21875 62.890625 53.21875 53.421875 
Q 53.21875 48.921875 51.53125 44.890625 
Q 49.859375 40.875 45.40625 35.40625 
Q 44.1875 33.984375 37.640625 27.21875 
Q 31.109375 20.453125 19.1875 8.296875 
z
" id="DejaVuSans-50"/>
       <path d="M 31.78125 66.40625 
Q 24.171875 66.40625 20.328125 58.90625 
Q 16.5 51.421875 16.5 36.375 
Q 16.5 21.390625 20.328125 13.890625 
Q 24.171875 6.390625 31.78125 6.390625 
Q 39.453125 6.390625 43.28125 13.890625 
Q 47.125 21.390625 47.125 36.375 
Q 47.125 51.421875 43.28125 58.90625 
Q 39.453125 66.40625 31.78125 66.40625 
z
M 31.78125 74.21875 
Q 44.046875 74.21875 50.515625 64.515625 
Q 56.984375 54.828125 56.984375 36.375 
Q 56.984375 17.96875 50.515625 8.265625 
Q 44.046875 -1.421875 31.78125 -1.421875 
Q 19.53125 -1.421875 13.0625 8.265625 
Q 6.59375 17.96875 6.59375 36.375 
Q 6.59375 54.828125 13.0625 64.515625 
Q 19.53125 74.21875 31.78125 74.21875 
z
" id="DejaVuSans-48"/>
       <path d="M 12.40625 8.296875 
L 28.515625 8.296875 
L 28.515625 63.921875 
L 10.984375 60.40625 
L 10.984375 69.390625 
L 28.421875 72.90625 
L 38.28125 72.90625 
L 38.28125 8.296875 
L 54.390625 8.296875 
L 54.390625 0 
L 12.40625 0 
z
" id="DejaVuSans-49"/>
       <path d="M 8.203125 72.90625 
L 55.078125 72.90625 
L 55.078125 68.703125 
L 28.609375 0 
L 18.3125 0 
L 43.21875 64.59375 
L 8.203125 64.59375 
z
" id="DejaVuSans-55"/>
       <path d="M 4.890625 31.390625 
L 31.203125 31.390625 
L 31.203125 23.390625 
L 4.890625 23.390625 
z
" id="DejaVuSans-45"/>
       <path d="M 10.796875 72.90625 
L 49.515625 72.90625 
L 49.515625 64.59375 
L 19.828125 64.59375 
L 19.828125 46.734375 
Q 21.96875 47.46875 24.109375 47.828125 
Q 26.265625 48.1875 28.421875 48.1875 
Q 40.625 48.1875 47.75 41.5 
Q 54.890625 34.8125 54.890625 23.390625 
Q 54.890625 11.625 47.5625 5.09375 
Q 40.234375 -1.421875 26.90625 -1.421875 
Q 22.3125 -1.421875 17.546875 -0.640625 
Q 12.796875 0.140625 7.71875 1.703125 
L 7.71875 11.625 
Q 12.109375 9.234375 16.796875 8.0625 
Q 21.484375 6.890625 26.703125 6.890625 
Q 35.15625 6.890625 40.078125 11.328125 
Q 45.015625 15.765625 45.015625 23.390625 
Q 45.015625 31 40.078125 35.4375 
Q 35.15625 39.890625 26.703125 39.890625 
Q 22.75 39.890625 18.8125 39.015625 
Q 14.890625 38.140625 10.796875 36.28125 
z
" id="DejaVuSans-53"/>
      </defs>
      <g style="fill:#ea9808;" transform="translate(52.822686 350.118125)scale(0.12 -0.12)">
       <use xlink:href="#DejaVuSans-50"/>
       <use x="63.623047" xlink:href="#DejaVuSans-48"/>
       <use x="127.246094" xlink:href="#DejaVuSans-49"/>
       <use x="190.869141" xlink:href="#DejaVuSans-55"/>
       <use x="254.492188" xlink:href="#DejaVuSans-45"/>
       <use x="290.576172" xlink:href="#DejaVuSans-48"/>
       <use x="354.199219" xlink:href="#DejaVuSans-53"/>
      </g>
     </g>
    </g>
    <g id="xtick_2">
     <g id="line2d_3">
      <path clip-path="url(#p00596cf583)" d="M 151.320941 334 
L 151.320941 7.2 
" style="fill:none;stroke:#808080;stroke-linecap:square;stroke-opacity:0.2;"/>
     </g>
     <g id="line2d_4">
      <g>
       <use style="stroke:#000000;stroke-width:0.8;" x="151.320941" xlink:href="#me1dcd357b6" y="334"/>
      </g>
     </g>
     <g id="text_2">
      <!-- 2017-09 -->
      <defs>
       <path d="M 10.984375 1.515625 
L 10.984375 10.5 
Q 14.703125 8.734375 18.5 7.8125 
Q 22.3125 6.890625 25.984375 6.890625 
Q 35.75 6.890625 40.890625 13.453125 
Q 46.046875 20.015625 46.78125 33.40625 
Q 43.953125 29.203125 39.59375 26.953125 
Q 35.25 24.703125 29.984375 24.703125 
Q 19.046875 24.703125 12.671875 31.3125 
Q 6.296875 37.9375 6.296875 49.421875 
Q 6.296875 60.640625 12.9375 67.421875 
Q 19.578125 74.21875 30.609375 74.21875 
Q 43.265625 74.21875 49.921875 64.515625 
Q 56.59375 54.828125 56.59375 36.375 
Q 56.59375 19.140625 48.40625 8.859375 
Q 40.234375 -1.421875 26.421875 -1.421875 
Q 22.703125 -1.421875 18.890625 -0.6875 
Q 15.09375 0.046875 10.984375 1.515625 
z
M 30.609375 32.421875 
Q 37.25 32.421875 41.125 36.953125 
Q 45.015625 41.5 45.015625 49.421875 
Q 45.015625 57.28125 41.125 61.84375 
Q 37.25 66.40625 30.609375 66.40625 
Q 23.96875 66.40625 20.09375 61.84375 
Q 16.21875 57.28125 16.21875 49.421875 
Q 16.21875 41.5 20.09375 36.953125 
Q 23.96875 32.421875 30.609375 32.421875 
z
" id="DejaVuSans-57"/>
      </defs>
      <g style="fill:#ea9808;" transform="translate(126.251254 350.118125)scale(0.12 -0.12)">
       <use xlink:href="#DejaVuSans-50"/>
       <use x="63.623047" xlink:href="#DejaVuSans-48"/>
       <use x="127.246094" xlink:href="#DejaVuSans-49"/>
       <use x="190.869141" xlink:href="#DejaVuSans-55"/>
       <use x="254.492188" xlink:href="#DejaVuSans-45"/>
       <use x="290.576172" xlink:href="#DejaVuSans-48"/>
       <use x="354.199219" xlink:href="#DejaVuSans-57"/>
      </g>
     </g>
    </g>
    <g id="xtick_3">
     <g id="line2d_5">
      <path clip-path="url(#p00596cf583)" d="M 224.152528 334 
L 224.152528 7.2 
" style="fill:none;stroke:#808080;stroke-linecap:square;stroke-opacity:0.2;"/>
     </g>
     <g id="line2d_6">
      <g>
       <use style="stroke:#000000;stroke-width:0.8;" x="224.152528" xlink:href="#me1dcd357b6" y="334"/>
      </g>
     </g>
     <g id="text_3">
      <!-- 2018-01 -->
      <defs>
       <path d="M 31.78125 34.625 
Q 24.75 34.625 20.71875 30.859375 
Q 16.703125 27.09375 16.703125 20.515625 
Q 16.703125 13.921875 20.71875 10.15625 
Q 24.75 6.390625 31.78125 6.390625 
Q 38.8125 6.390625 42.859375 10.171875 
Q 46.921875 13.96875 46.921875 20.515625 
Q 46.921875 27.09375 42.890625 30.859375 
Q 38.875 34.625 31.78125 34.625 
z
M 21.921875 38.8125 
Q 15.578125 40.375 12.03125 44.71875 
Q 8.5 49.078125 8.5 55.328125 
Q 8.5 64.0625 14.71875 69.140625 
Q 20.953125 74.21875 31.78125 74.21875 
Q 42.671875 74.21875 48.875 69.140625 
Q 55.078125 64.0625 55.078125 55.328125 
Q 55.078125 49.078125 51.53125 44.71875 
Q 48 40.375 41.703125 38.8125 
Q 48.828125 37.15625 52.796875 32.3125 
Q 56.78125 27.484375 56.78125 20.515625 
Q 56.78125 9.90625 50.3125 4.234375 
Q 43.84375 -1.421875 31.78125 -1.421875 
Q 19.734375 -1.421875 13.25 4.234375 
Q 6.78125 9.90625 6.78125 20.515625 
Q 6.78125 27.484375 10.78125 32.3125 
Q 14.796875 37.15625 21.921875 38.8125 
z
M 18.3125 54.390625 
Q 18.3125 48.734375 21.84375 45.5625 
Q 25.390625 42.390625 31.78125 42.390625 
Q 38.140625 42.390625 41.71875 45.5625 
Q 45.3125 48.734375 45.3125 54.390625 
Q 45.3125 60.0625 41.71875 63.234375 
Q 38.140625 66.40625 31.78125 66.40625 
Q 25.390625 66.40625 21.84375 63.234375 
Q 18.3125 60.0625 18.3125 54.390625 
z
" id="DejaVuSans-56"/>
      </defs>
      <g style="fill:#ea9808;" transform="translate(199.082841 350.118125)scale(0.12 -0.12)">
       <use xlink:href="#DejaVuSans-50"/>
       <use x="63.623047" xlink:href="#DejaVuSans-48"/>
       <use x="127.246094" xlink:href="#DejaVuSans-49"/>
       <use x="190.869141" xlink:href="#DejaVuSans-56"/>
       <use x="254.492188" xlink:href="#DejaVuSans-45"/>
       <use x="290.576172" xlink:href="#DejaVuSans-48"/>
       <use x="354.199219" xlink:href="#DejaVuSans-49"/>
      </g>
     </g>
    </g>
    <g id="xtick_4">
     <g id="line2d_7">
      <path clip-path="url(#p00596cf583)" d="M 295.790155 334 
L 295.790155 7.2 
" style="fill:none;stroke:#808080;stroke-linecap:square;stroke-opacity:0.2;"/>
     </g>
     <g id="line2d_8">
      <g>
       <use style="stroke:#000000;stroke-width:0.8;" x="295.790155" xlink:href="#me1dcd357b6" y="334"/>
      </g>
     </g>
     <g id="text_4">
      <!-- 2018-05 -->
      <g style="fill:#ea9808;" transform="translate(270.720468 350.118125)scale(0.12 -0.12)">
       <use xlink:href="#DejaVuSans-50"/>
       <use x="63.623047" xlink:href="#DejaVuSans-48"/>
       <use x="127.246094" xlink:href="#DejaVuSans-49"/>
       <use x="190.869141" xlink:href="#DejaVuSans-56"/>
       <use x="254.492188" xlink:href="#DejaVuSans-45"/>
       <use x="290.576172" xlink:href="#DejaVuSans-48"/>
       <use x="354.199219" xlink:href="#DejaVuSans-53"/>
      </g>
     </g>
    </g>
    <g id="xtick_5">
     <g id="line2d_9">
      <path clip-path="url(#p00596cf583)" d="M 369.218723 334 
L 369.218723 7.2 
" style="fill:none;stroke:#808080;stroke-linecap:square;stroke-opacity:0.2;"/>
     </g>
     <g id="line2d_10">
      <g>
       <use style="stroke:#000000;stroke-width:0.8;" x="369.218723" xlink:href="#me1dcd357b6" y="334"/>
      </g>
     </g>
     <g id="text_5">
      <!-- 2018-09 -->
      <g style="fill:#ea9808;" transform="translate(344.149035 350.118125)scale(0.12 -0.12)">
       <use xlink:href="#DejaVuSans-50"/>
       <use x="63.623047" xlink:href="#DejaVuSans-48"/>
       <use x="127.246094" xlink:href="#DejaVuSans-49"/>
       <use x="190.869141" xlink:href="#DejaVuSans-56"/>
       <use x="254.492188" xlink:href="#DejaVuSans-45"/>
       <use x="290.576172" xlink:href="#DejaVuSans-48"/>
       <use x="354.199219" xlink:href="#DejaVuSans-57"/>
      </g>
     </g>
    </g>
    <g id="xtick_6">
     <g id="line2d_11">
      <path clip-path="url(#p00596cf583)" d="M 442.05031 334 
L 442.05031 7.2 
" style="fill:none;stroke:#808080;stroke-linecap:square;stroke-opacity:0.2;"/>
     </g>
     <g id="line2d_12">
      <g>
       <use style="stroke:#000000;stroke-width:0.8;" x="442.05031" xlink:href="#me1dcd357b6" y="334"/>
      </g>
     </g>
     <g id="text_6">
      <!-- 2019-01 -->
      <g style="fill:#ea9808;" transform="translate(416.980622 350.118125)scale(0.12 -0.12)">
       <use xlink:href="#DejaVuSans-50"/>
       <use x="63.623047" xlink:href="#DejaVuSans-48"/>
       <use x="127.246094" xlink:href="#DejaVuSans-49"/>
       <use x="190.869141" xlink:href="#DejaVuSans-57"/>
       <use x="254.492188" xlink:href="#DejaVuSans-45"/>
       <use x="290.576172" xlink:href="#DejaVuSans-48"/>
       <use x="354.199219" xlink:href="#DejaVuSans-49"/>
      </g>
     </g>
    </g>
    <g id="xtick_7">
     <g id="line2d_13">
      <path clip-path="url(#p00596cf583)" d="M 513.687936 334 
L 513.687936 7.2 
" style="fill:none;stroke:#808080;stroke-linecap:square;stroke-opacity:0.2;"/>
     </g>
     <g id="line2d_14">
      <g>
       <use style="stroke:#000000;stroke-width:0.8;" x="513.687936" xlink:href="#me1dcd357b6" y="334"/>
      </g>
     </g>
     <g id="text_7">
      <!-- 2019-05 -->
      <g style="fill:#ea9808;" transform="translate(488.618249 350.118125)scale(0.12 -0.12)">
       <use xlink:href="#DejaVuSans-50"/>
       <use x="63.623047" xlink:href="#DejaVuSans-48"/>
       <use x="127.246094" xlink:href="#DejaVuSans-49"/>
       <use x="190.869141" xlink:href="#DejaVuSans-57"/>
       <use x="254.492188" xlink:href="#DejaVuSans-45"/>
       <use x="290.576172" xlink:href="#DejaVuSans-48"/>
       <use x="354.199219" xlink:href="#DejaVuSans-53"/>
      </g>
     </g>
    </g>
    <g id="xtick_8">
     <g id="line2d_15">
      <path clip-path="url(#p00596cf583)" d="M 587.116504 334 
L 587.116504 7.2 
" style="fill:none;stroke:#808080;stroke-linecap:square;stroke-opacity:0.2;"/>
     </g>
     <g id="line2d_16">
      <g>
       <use style="stroke:#000000;stroke-width:0.8;" x="587.116504" xlink:href="#me1dcd357b6" y="334"/>
      </g>
     </g>
     <g id="text_8">
      <!-- 2019-09 -->
      <g style="fill:#ea9808;" transform="translate(562.046816 350.118125)scale(0.12 -0.12)">
       <use xlink:href="#DejaVuSans-50"/>
       <use x="63.623047" xlink:href="#DejaVuSans-48"/>
       <use x="127.246094" xlink:href="#DejaVuSans-49"/>
       <use x="190.869141" xlink:href="#DejaVuSans-57"/>
       <use x="254.492188" xlink:href="#DejaVuSans-45"/>
       <use x="290.576172" xlink:href="#DejaVuSans-48"/>
       <use x="354.199219" xlink:href="#DejaVuSans-57"/>
      </g>
     </g>
    </g>
    <g id="xtick_9">
     <g id="line2d_17">
      <path clip-path="url(#p00596cf583)" d="M 659.948091 334 
L 659.948091 7.2 
" style="fill:none;stroke:#808080;stroke-linecap:square;stroke-opacity:0.2;"/>
     </g>
     <g id="line2d_18">
      <g>
       <use style="stroke:#000000;stroke-width:0.8;" x="659.948091" xlink:href="#me1dcd357b6" y="334"/>
      </g>
     </g>
     <g id="text_9">
      <!-- 2020-01 -->
      <g style="fill:#ea9808;" transform="translate(634.878404 350.118125)scale(0.12 -0.12)">
       <use xlink:href="#DejaVuSans-50"/>
       <use x="63.623047" xlink:href="#DejaVuSans-48"/>
       <use x="127.246094" xlink:href="#DejaVuSans-50"/>
       <use x="190.869141" xlink:href="#DejaVuSans-48"/>
       <use x="254.492188" xlink:href="#DejaVuSans-45"/>
       <use x="290.576172" xlink:href="#DejaVuSans-48"/>
       <use x="354.199219" xlink:href="#DejaVuSans-49"/>
      </g>
     </g>
    </g>
    <g id="xtick_10">
     <g id="line2d_19">
      <path clip-path="url(#p00596cf583)" d="M 732.182698 334 
L 732.182698 7.2 
" style="fill:none;stroke:#808080;stroke-linecap:square;stroke-opacity:0.2;"/>
     </g>
     <g id="line2d_20">
      <g>
       <use style="stroke:#000000;stroke-width:0.8;" x="732.182698" xlink:href="#me1dcd357b6" y="334"/>
      </g>
     </g>
     <g id="text_10">
      <!-- 2020-05 -->
      <g style="fill:#ea9808;" transform="translate(707.11301 350.118125)scale(0.12 -0.12)">
       <use xlink:href="#DejaVuSans-50"/>
       <use x="63.623047" xlink:href="#DejaVuSans-48"/>
       <use x="127.246094" xlink:href="#DejaVuSans-50"/>
       <use x="190.869141" xlink:href="#DejaVuSans-48"/>
       <use x="254.492188" xlink:href="#DejaVuSans-45"/>
       <use x="290.576172" xlink:href="#DejaVuSans-48"/>
       <use x="354.199219" xlink:href="#DejaVuSans-53"/>
      </g>
     </g>
    </g>
    <g id="xtick_11">
     <g id="line2d_21">
      <path clip-path="url(#p00596cf583)" d="M 805.611265 334 
L 805.611265 7.2 
" style="fill:none;stroke:#808080;stroke-linecap:square;stroke-opacity:0.2;"/>
     </g>
     <g id="line2d_22">
      <g>
       <use style="stroke:#000000;stroke-width:0.8;" x="805.611265" xlink:href="#me1dcd357b6" y="334"/>
      </g>
     </g>
     <g id="text_11">
      <!-- 2020-09 -->
      <g style="fill:#ea9808;" transform="translate(780.541578 350.118125)scale(0.12 -0.12)">
       <use xlink:href="#DejaVuSans-50"/>
       <use x="63.623047" xlink:href="#DejaVuSans-48"/>
       <use x="127.246094" xlink:href="#DejaVuSans-50"/>
       <use x="190.869141" xlink:href="#DejaVuSans-48"/>
       <use x="254.492188" xlink:href="#DejaVuSans-45"/>
       <use x="290.576172" xlink:href="#DejaVuSans-48"/>
       <use x="354.199219" xlink:href="#DejaVuSans-57"/>
      </g>
     </g>
    </g>
    <g id="text_12">
     <!-- ds -->
     <defs>
      <path d="M 45.40625 46.390625 
L 45.40625 75.984375 
L 54.390625 75.984375 
L 54.390625 0 
L 45.40625 0 
L 45.40625 8.203125 
Q 42.578125 3.328125 38.25 0.953125 
Q 33.9375 -1.421875 27.875 -1.421875 
Q 17.96875 -1.421875 11.734375 6.484375 
Q 5.515625 14.40625 5.515625 27.296875 
Q 5.515625 40.1875 11.734375 48.09375 
Q 17.96875 56 27.875 56 
Q 33.9375 56 38.25 53.625 
Q 42.578125 51.265625 45.40625 46.390625 
z
M 14.796875 27.296875 
Q 14.796875 17.390625 18.875 11.75 
Q 22.953125 6.109375 30.078125 6.109375 
Q 37.203125 6.109375 41.296875 11.75 
Q 45.40625 17.390625 45.40625 27.296875 
Q 45.40625 37.203125 41.296875 42.84375 
Q 37.203125 48.484375 30.078125 48.484375 
Q 22.953125 48.484375 18.875 42.84375 
Q 14.796875 37.203125 14.796875 27.296875 
z
" id="DejaVuSans-100"/>
      <path d="M 44.28125 53.078125 
L 44.28125 44.578125 
Q 40.484375 46.53125 36.375 47.5 
Q 32.28125 48.484375 27.875 48.484375 
Q 21.1875 48.484375 17.84375 46.4375 
Q 14.5 44.390625 14.5 40.28125 
Q 14.5 37.15625 16.890625 35.375 
Q 19.28125 33.59375 26.515625 31.984375 
L 29.59375 31.296875 
Q 39.15625 29.25 43.1875 25.515625 
Q 47.21875 21.78125 47.21875 15.09375 
Q 47.21875 7.46875 41.1875 3.015625 
Q 35.15625 -1.421875 24.609375 -1.421875 
Q 20.21875 -1.421875 15.453125 -0.5625 
Q 10.6875 0.296875 5.421875 2 
L 5.421875 11.28125 
Q 10.40625 8.6875 15.234375 7.390625 
Q 20.0625 6.109375 24.8125 6.109375 
Q 31.15625 6.109375 34.5625 8.28125 
Q 37.984375 10.453125 37.984375 14.40625 
Q 37.984375 18.0625 35.515625 20.015625 
Q 33.0625 21.96875 24.703125 23.78125 
L 21.578125 24.515625 
Q 13.234375 26.265625 9.515625 29.90625 
Q 5.8125 33.546875 5.8125 39.890625 
Q 5.8125 47.609375 11.28125 51.796875 
Q 16.75 56 26.8125 56 
Q 31.78125 56 36.171875 55.265625 
Q 40.578125 54.546875 44.28125 53.078125 
z
" id="DejaVuSans-115"/>
     </defs>
     <g style="fill:#ffffff;" transform="translate(419.555957 364.212187)scale(0.1 -0.1)">
      <use xlink:href="#DejaVuSans-100"/>
      <use x="63.476562" xlink:href="#DejaVuSans-115"/>
     </g>
    </g>
   </g>
   <g id="matplotlib.axis_2">
    <g id="ytick_1">
     <g id="line2d_23">
      <path clip-path="url(#p00596cf583)" d="M 43.148125 323.278201 
L 807.521602 323.278201 
" style="fill:none;stroke:#808080;stroke-linecap:square;stroke-opacity:0.2;"/>
     </g>
     <g id="line2d_24">
      <defs>
       <path d="M 0 0 
L -3.5 0 
" id="me16c7dcdf4" style="stroke:#000000;stroke-width:0.8;"/>
      </defs>
      <g>
       <use style="stroke:#000000;stroke-width:0.8;" x="43.148125" xlink:href="#me16c7dcdf4" y="323.278201"/>
      </g>
     </g>
     <g id="text_13">
      <!-- 0 -->
      <g style="fill:#ea9808;" transform="translate(28.513125 327.837264)scale(0.12 -0.12)">
       <use xlink:href="#DejaVuSans-48"/>
      </g>
     </g>
    </g>
    <g id="ytick_2">
     <g id="line2d_25">
      <path clip-path="url(#p00596cf583)" d="M 43.148125 281.702213 
L 807.521602 281.702213 
" style="fill:none;stroke:#808080;stroke-linecap:square;stroke-opacity:0.2;"/>
     </g>
     <g id="line2d_26">
      <g>
       <use style="stroke:#000000;stroke-width:0.8;" x="43.148125" xlink:href="#me16c7dcdf4" y="281.702213"/>
      </g>
     </g>
     <g id="text_14">
      <!-- 10 -->
      <g style="fill:#ea9808;" transform="translate(20.878125 286.261276)scale(0.12 -0.12)">
       <use xlink:href="#DejaVuSans-49"/>
       <use x="63.623047" xlink:href="#DejaVuSans-48"/>
      </g>
     </g>
    </g>
    <g id="ytick_3">
     <g id="line2d_27">
      <path clip-path="url(#p00596cf583)" d="M 43.148125 240.126226 
L 807.521602 240.126226 
" style="fill:none;stroke:#808080;stroke-linecap:square;stroke-opacity:0.2;"/>
     </g>
     <g id="line2d_28">
      <g>
       <use style="stroke:#000000;stroke-width:0.8;" x="43.148125" xlink:href="#me16c7dcdf4" y="240.126226"/>
      </g>
     </g>
     <g id="text_15">
      <!-- 20 -->
      <g style="fill:#ea9808;" transform="translate(20.878125 244.685288)scale(0.12 -0.12)">
       <use xlink:href="#DejaVuSans-50"/>
       <use x="63.623047" xlink:href="#DejaVuSans-48"/>
      </g>
     </g>
    </g>
    <g id="ytick_4">
     <g id="line2d_29">
      <path clip-path="url(#p00596cf583)" d="M 43.148125 198.550238 
L 807.521602 198.550238 
" style="fill:none;stroke:#808080;stroke-linecap:square;stroke-opacity:0.2;"/>
     </g>
     <g id="line2d_30">
      <g>
       <use style="stroke:#000000;stroke-width:0.8;" x="43.148125" xlink:href="#me16c7dcdf4" y="198.550238"/>
      </g>
     </g>
     <g id="text_16">
      <!-- 30 -->
      <defs>
       <path d="M 40.578125 39.3125 
Q 47.65625 37.796875 51.625 33 
Q 55.609375 28.21875 55.609375 21.1875 
Q 55.609375 10.40625 48.1875 4.484375 
Q 40.765625 -1.421875 27.09375 -1.421875 
Q 22.515625 -1.421875 17.65625 -0.515625 
Q 12.796875 0.390625 7.625 2.203125 
L 7.625 11.71875 
Q 11.71875 9.328125 16.59375 8.109375 
Q 21.484375 6.890625 26.8125 6.890625 
Q 36.078125 6.890625 40.9375 10.546875 
Q 45.796875 14.203125 45.796875 21.1875 
Q 45.796875 27.640625 41.28125 31.265625 
Q 36.765625 34.90625 28.71875 34.90625 
L 20.21875 34.90625 
L 20.21875 43.015625 
L 29.109375 43.015625 
Q 36.375 43.015625 40.234375 45.921875 
Q 44.09375 48.828125 44.09375 54.296875 
Q 44.09375 59.90625 40.109375 62.90625 
Q 36.140625 65.921875 28.71875 65.921875 
Q 24.65625 65.921875 20.015625 65.03125 
Q 15.375 64.15625 9.8125 62.3125 
L 9.8125 71.09375 
Q 15.4375 72.65625 20.34375 73.4375 
Q 25.25 74.21875 29.59375 74.21875 
Q 40.828125 74.21875 47.359375 69.109375 
Q 53.90625 64.015625 53.90625 55.328125 
Q 53.90625 49.265625 50.4375 45.09375 
Q 46.96875 40.921875 40.578125 39.3125 
z
" id="DejaVuSans-51"/>
      </defs>
      <g style="fill:#ea9808;" transform="translate(20.878125 203.1093)scale(0.12 -0.12)">
       <use xlink:href="#DejaVuSans-51"/>
       <use x="63.623047" xlink:href="#DejaVuSans-48"/>
      </g>
     </g>
    </g>
    <g id="ytick_5">
     <g id="line2d_31">
      <path clip-path="url(#p00596cf583)" d="M 43.148125 156.97425 
L 807.521602 156.97425 
" style="fill:none;stroke:#808080;stroke-linecap:square;stroke-opacity:0.2;"/>
     </g>
     <g id="line2d_32">
      <g>
       <use style="stroke:#000000;stroke-width:0.8;" x="43.148125" xlink:href="#me16c7dcdf4" y="156.97425"/>
      </g>
     </g>
     <g id="text_17">
      <!-- 40 -->
      <defs>
       <path d="M 37.796875 64.3125 
L 12.890625 25.390625 
L 37.796875 25.390625 
z
M 35.203125 72.90625 
L 47.609375 72.90625 
L 47.609375 25.390625 
L 58.015625 25.390625 
L 58.015625 17.1875 
L 47.609375 17.1875 
L 47.609375 0 
L 37.796875 0 
L 37.796875 17.1875 
L 4.890625 17.1875 
L 4.890625 26.703125 
z
" id="DejaVuSans-52"/>
      </defs>
      <g style="fill:#ea9808;" transform="translate(20.878125 161.533312)scale(0.12 -0.12)">
       <use xlink:href="#DejaVuSans-52"/>
       <use x="63.623047" xlink:href="#DejaVuSans-48"/>
      </g>
     </g>
    </g>
    <g id="ytick_6">
     <g id="line2d_33">
      <path clip-path="url(#p00596cf583)" d="M 43.148125 115.398262 
L 807.521602 115.398262 
" style="fill:none;stroke:#808080;stroke-linecap:square;stroke-opacity:0.2;"/>
     </g>
     <g id="line2d_34">
      <g>
       <use style="stroke:#000000;stroke-width:0.8;" x="43.148125" xlink:href="#me16c7dcdf4" y="115.398262"/>
      </g>
     </g>
     <g id="text_18">
      <!-- 50 -->
      <g style="fill:#ea9808;" transform="translate(20.878125 119.957325)scale(0.12 -0.12)">
       <use xlink:href="#DejaVuSans-53"/>
       <use x="63.623047" xlink:href="#DejaVuSans-48"/>
      </g>
     </g>
    </g>
    <g id="ytick_7">
     <g id="line2d_35">
      <path clip-path="url(#p00596cf583)" d="M 43.148125 73.822274 
L 807.521602 73.822274 
" style="fill:none;stroke:#808080;stroke-linecap:square;stroke-opacity:0.2;"/>
     </g>
     <g id="line2d_36">
      <g>
       <use style="stroke:#000000;stroke-width:0.8;" x="43.148125" xlink:href="#me16c7dcdf4" y="73.822274"/>
      </g>
     </g>
     <g id="text_19">
      <!-- 60 -->
      <defs>
       <path d="M 33.015625 40.375 
Q 26.375 40.375 22.484375 35.828125 
Q 18.609375 31.296875 18.609375 23.390625 
Q 18.609375 15.53125 22.484375 10.953125 
Q 26.375 6.390625 33.015625 6.390625 
Q 39.65625 6.390625 43.53125 10.953125 
Q 47.40625 15.53125 47.40625 23.390625 
Q 47.40625 31.296875 43.53125 35.828125 
Q 39.65625 40.375 33.015625 40.375 
z
M 52.59375 71.296875 
L 52.59375 62.3125 
Q 48.875 64.0625 45.09375 64.984375 
Q 41.3125 65.921875 37.59375 65.921875 
Q 27.828125 65.921875 22.671875 59.328125 
Q 17.53125 52.734375 16.796875 39.40625 
Q 19.671875 43.65625 24.015625 45.921875 
Q 28.375 48.1875 33.59375 48.1875 
Q 44.578125 48.1875 50.953125 41.515625 
Q 57.328125 34.859375 57.328125 23.390625 
Q 57.328125 12.15625 50.6875 5.359375 
Q 44.046875 -1.421875 33.015625 -1.421875 
Q 20.359375 -1.421875 13.671875 8.265625 
Q 6.984375 17.96875 6.984375 36.375 
Q 6.984375 53.65625 15.1875 63.9375 
Q 23.390625 74.21875 37.203125 74.21875 
Q 40.921875 74.21875 44.703125 73.484375 
Q 48.484375 72.75 52.59375 71.296875 
z
" id="DejaVuSans-54"/>
      </defs>
      <g style="fill:#ea9808;" transform="translate(20.878125 78.381337)scale(0.12 -0.12)">
       <use xlink:href="#DejaVuSans-54"/>
       <use x="63.623047" xlink:href="#DejaVuSans-48"/>
      </g>
     </g>
    </g>
    <g id="ytick_8">
     <g id="line2d_37">
      <path clip-path="url(#p00596cf583)" d="M 43.148125 32.246287 
L 807.521602 32.246287 
" style="fill:none;stroke:#808080;stroke-linecap:square;stroke-opacity:0.2;"/>
     </g>
     <g id="line2d_38">
      <g>
       <use style="stroke:#000000;stroke-width:0.8;" x="43.148125" xlink:href="#me16c7dcdf4" y="32.246287"/>
      </g>
     </g>
     <g id="text_20">
      <!-- 70 -->
      <g style="fill:#ea9808;" transform="translate(20.878125 36.805349)scale(0.12 -0.12)">
       <use xlink:href="#DejaVuSans-55"/>
       <use x="63.623047" xlink:href="#DejaVuSans-48"/>
      </g>
     </g>
    </g>
    <g id="text_21">
     <!-- trend -->
     <defs>
      <path d="M 18.3125 70.21875 
L 18.3125 54.6875 
L 36.8125 54.6875 
L 36.8125 47.703125 
L 18.3125 47.703125 
L 18.3125 18.015625 
Q 18.3125 11.328125 20.140625 9.421875 
Q 21.96875 7.515625 27.59375 7.515625 
L 36.8125 7.515625 
L 36.8125 0 
L 27.59375 0 
Q 17.1875 0 13.234375 3.875 
Q 9.28125 7.765625 9.28125 18.015625 
L 9.28125 47.703125 
L 2.6875 47.703125 
L 2.6875 54.6875 
L 9.28125 54.6875 
L 9.28125 70.21875 
z
" id="DejaVuSans-116"/>
      <path d="M 41.109375 46.296875 
Q 39.59375 47.171875 37.8125 47.578125 
Q 36.03125 48 33.890625 48 
Q 26.265625 48 22.1875 43.046875 
Q 18.109375 38.09375 18.109375 28.8125 
L 18.109375 0 
L 9.078125 0 
L 9.078125 54.6875 
L 18.109375 54.6875 
L 18.109375 46.1875 
Q 20.953125 51.171875 25.484375 53.578125 
Q 30.03125 56 36.53125 56 
Q 37.453125 56 38.578125 55.875 
Q 39.703125 55.765625 41.0625 55.515625 
z
" id="DejaVuSans-114"/>
      <path d="M 56.203125 29.59375 
L 56.203125 25.203125 
L 14.890625 25.203125 
Q 15.484375 15.921875 20.484375 11.0625 
Q 25.484375 6.203125 34.421875 6.203125 
Q 39.59375 6.203125 44.453125 7.46875 
Q 49.3125 8.734375 54.109375 11.28125 
L 54.109375 2.78125 
Q 49.265625 0.734375 44.1875 -0.34375 
Q 39.109375 -1.421875 33.890625 -1.421875 
Q 20.796875 -1.421875 13.15625 6.1875 
Q 5.515625 13.8125 5.515625 26.8125 
Q 5.515625 40.234375 12.765625 48.109375 
Q 20.015625 56 32.328125 56 
Q 43.359375 56 49.78125 48.890625 
Q 56.203125 41.796875 56.203125 29.59375 
z
M 47.21875 32.234375 
Q 47.125 39.59375 43.09375 43.984375 
Q 39.0625 48.390625 32.421875 48.390625 
Q 24.90625 48.390625 20.390625 44.140625 
Q 15.875 39.890625 15.1875 32.171875 
z
" id="DejaVuSans-101"/>
      <path d="M 54.890625 33.015625 
L 54.890625 0 
L 45.90625 0 
L 45.90625 32.71875 
Q 45.90625 40.484375 42.875 44.328125 
Q 39.84375 48.1875 33.796875 48.1875 
Q 26.515625 48.1875 22.3125 43.546875 
Q 18.109375 38.921875 18.109375 30.90625 
L 18.109375 0 
L 9.078125 0 
L 9.078125 54.6875 
L 18.109375 54.6875 
L 18.109375 46.1875 
Q 21.34375 51.125 25.703125 53.5625 
Q 30.078125 56 35.796875 56 
Q 45.21875 56 50.046875 50.171875 
Q 54.890625 44.34375 54.890625 33.015625 
z
" id="DejaVuSans-110"/>
     </defs>
     <g style="fill:#ffffff;" transform="translate(14.798437 184.033594)rotate(-90)scale(0.1 -0.1)">
      <use xlink:href="#DejaVuSans-116"/>
      <use x="39.208984" xlink:href="#DejaVuSans-114"/>
      <use x="80.291016" xlink:href="#DejaVuSans-101"/>
      <use x="141.814453" xlink:href="#DejaVuSans-110"/>
      <use x="205.193359" xlink:href="#DejaVuSans-100"/>
     </g>
    </g>
   </g>
   <g id="line2d_39">
    <path clip-path="url(#p00596cf583)" d="M 77.892374 319.145455 
L 408.022437 178.12651 
L 594.280267 98.473065 
L 772.777353 22.096424 
L 772.777353 22.096424 
" style="fill:none;stroke:#ffffff;stroke-linecap:square;stroke-width:1.5;"/>
   </g>
  </g>
 </g>
 <defs>
  <clipPath id="p00596cf583">
   <rect height="326.8" width="764.373477" x="43.148125" y="7.2"/>
  </clipPath>
 </defs>
</svg>