<?xml version="1.0" encoding="utf-8" standalone="no"?>
<!DOCTYPE svg PUBLIC "-//W3C//DTD SVG 1.1//EN"
  "http://www.w3.org/Graphics/SVG/1.1/DTD/svg11.dtd">
<!-- Created with matplotlib (https://matplotlib.org/) -->
<svg height="373.491875pt" version="1.1" viewBox="0 0 837.880953 373.491875" width="837.880953pt" xmlns="http://www.w3.org/2000/svg" xmlns:xlink="http://www.w3.org/1999/xlink">
 <defs>
  <style type="text/css">
*{stroke-linecap:butt;stroke-linejoin:round;}
  </style>
 </defs>
 <g id="figure_1">
  <g id="patch_1">
   <path d="M 0 373.491875 
L 837.880953 373.491875 
L 837.880953 0 
L 0 0 
z
" style="fill:#1d1e28;"/>
  </g>
  <g id="axes_1">
   <g id="PolyCollection_1">
    <defs>
     <path d="M 77.892374 -66.658574 
L 77.892374 -66.658574 
L 78.489354 -66.790706 
L 79.086334 -66.924193 
L 79.683315 -67.059048 
L 80.280295 -67.195284 
L 80.877275 -67.332913 
L 81.474255 -67.471948 
L 82.071236 -67.612402 
L 82.668216 -67.754288 
L 83.265196 -67.897619 
L 83.862176 -68.042409 
L 84.459156 -68.18867 
L 85.056137 -68.336415 
L 85.653117 -68.485659 
L 86.250097 -68.636415 
L 86.847077 -68.788696 
L 87.444058 -68.942517 
L 88.041038 -69.09789 
L 88.638018 -69.254829 
L 89.234998 -69.413349 
L 89.831978 -69.573464 
L 90.428959 -69.735188 
L 91.025939 -69.898534 
L 91.622919 -70.063517 
L 92.219899 -70.230152 
L 92.81688 -70.398453 
L 93.41386 -70.568434 
L 94.01084 -70.74011 
L 94.60782 -70.913496 
L 95.2048 -71.088607 
L 95.801781 -71.265456 
L 96.398761 -71.44406 
L 96.995741 -71.624433 
L 97.592721 -71.80659 
L 98.189702 -71.990546 
L 98.786682 -72.176317 
L 99.383662 -72.363918 
L 99.980642 -72.553364 
L 100.577622 -72.74467 
L 101.174603 -72.937853 
L 101.771583 -73.132927 
L 102.368563 -73.329909 
L 102.965543 -73.528813 
L 103.562524 -73.729657 
L 104.159504 -73.932455 
L 104.756484 -74.137224 
L 105.353464 -74.343979 
L 105.950444 -74.552737 
L 106.547425 -74.763514 
L 107.144405 -74.976325 
L 107.741385 -75.191188 
L 108.338365 -75.408118 
L 108.935346 -75.627131 
L 109.532326 -75.848245 
L 110.129306 -76.071475 
L 110.726286 -76.296838 
L 111.323266 -76.52435 
L 111.920247 -76.754029 
L 112.517227 -76.98589 
L 113.114207 -77.219951 
L 113.711187 -77.456228 
L 114.308168 -77.694737 
L 114.905148 -77.935497 
L 115.502128 -78.178522 
L 116.099108 -78.423831 
L 116.696088 -78.671441 
L 117.293069 -78.921367 
L 117.890049 -79.173628 
L 118.487029 -79.42824 
L 119.084009 -79.68522 
L 119.68099 -79.944585 
L 120.27797 -80.206352 
L 120.87495 -80.470539 
L 121.47193 -80.737161 
L 122.06891 -81.006238 
L 122.665891 -81.277785 
L 123.262871 -81.551819 
L 123.859851 -81.828358 
L 124.456831 -82.107103 
L 125.053812 -82.388381 
L 125.650792 -82.67221 
L 126.247772 -82.958606 
L 126.844752 -83.247586 
L 127.441732 -83.539167 
L 128.038713 -83.833367 
L 128.635693 -84.130202 
L 129.232673 -84.429689 
L 129.829653 -84.731845 
L 130.426634 -85.036688 
L 131.023614 -85.344233 
L 131.620594 -85.654498 
L 132.217574 -85.967499 
L 132.814554 -86.283254 
L 133.411535 -86.601778 
L 134.008515 -86.923089 
L 134.605495 -87.247204 
L 135.202475 -87.574137 
L 135.799456 -87.903907 
L 136.396436 -88.236529 
L 136.993416 -88.57202 
L 137.590396 -88.910397 
L 138.187376 -89.251674 
L 138.784357 -89.595868 
L 139.381337 -89.938354 
L 139.978317 -90.283712 
L 140.575297 -90.631955 
L 141.172278 -90.983099 
L 141.769258 -91.33716 
L 142.366238 -91.694151 
L 142.963218 -92.054088 
L 143.560198 -92.416986 
L 144.157179 -92.782859 
L 144.754159 -93.151721 
L 145.351139 -93.523587 
L 145.948119 -93.89847 
L 146.5451 -94.276386 
L 147.14208 -94.657347 
L 147.73906 -95.041368 
L 148.33604 -95.428462 
L 148.93302 -95.818642 
L 149.530001 -96.211922 
L 150.126981 -96.608315 
L 150.723961 -97.007834 
L 151.320941 -97.410491 
L 151.917922 -97.816299 
L 152.514902 -98.225271 
L 153.111882 -98.637419 
L 153.708862 -99.052755 
L 154.305842 -99.47129 
L 154.902823 -99.856019 
L 155.499803 -100.243432 
L 156.096783 -100.633536 
L 156.693763 -101.026339 
L 157.290744 -101.42185 
L 157.887724 -101.820077 
L 158.484704 -102.221027 
L 159.081684 -102.624709 
L 159.678664 -103.03113 
L 160.275645 -103.440297 
L 160.872625 -103.852217 
L 161.469605 -104.266898 
L 162.066585 -104.684346 
L 162.663566 -105.104569 
L 163.260546 -105.527571 
L 163.857526 -105.953361 
L 164.454506 -106.381943 
L 165.051486 -106.813323 
L 165.648467 -107.247508 
L 166.245447 -107.684502 
L 166.842427 -108.124311 
L 167.439407 -108.56694 
L 168.036388 -109.012394 
L 168.633368 -109.460677 
L 169.230348 -109.911793 
L 169.827328 -110.30494 
L 170.424308 -110.70022 
L 171.021289 -111.097634 
L 171.618269 -111.497186 
L 172.215249 -111.898877 
L 172.812229 -112.30271 
L 173.40921 -112.708686 
L 174.00619 -113.116807 
L 174.60317 -113.527074 
L 175.20015 -113.939489 
L 175.79713 -114.354053 
L 176.394111 -114.770768 
L 176.991091 -115.189633 
L 177.588071 -115.610651 
L 178.185051 -116.033821 
L 178.782032 -116.459144 
L 179.379012 -116.886621 
L 179.975992 -117.316251 
L 180.572972 -117.748035 
L 181.169952 -118.181973 
L 181.766933 -118.618063 
L 182.363913 -119.056306 
L 182.960893 -119.496702 
L 183.557873 -119.939248 
L 184.154854 -120.383945 
L 184.751834 -120.83079 
L 185.348814 -121.210705 
L 185.945794 -121.592157 
L 186.542774 -121.975147 
L 187.139755 -122.359672 
L 187.736735 -122.745732 
L 188.333715 -123.133326 
L 188.930695 -123.522451 
L 189.527676 -123.913107 
L 190.124656 -124.305291 
L 190.721636 -124.699003 
L 191.318616 -125.094241 
L 191.915596 -125.491002 
L 192.512577 -125.889285 
L 193.109557 -126.289088 
L 193.706537 -126.690409 
L 194.303517 -127.093245 
L 194.900498 -127.497593 
L 195.497478 -127.903453 
L 196.094458 -128.31082 
L 196.691438 -128.719693 
L 197.288418 -129.130069 
L 197.885399 -129.541944 
L 198.482379 -129.955317 
L 199.079359 -130.370183 
L 199.676339 -130.78654 
L 200.27332 -131.1435 
L 200.8703 -131.501544 
L 201.46728 -131.86067 
L 202.06426 -132.220876 
L 202.66124 -132.582159 
L 203.258221 -132.944517 
L 203.855201 -133.307948 
L 204.452181 -133.67245 
L 205.049161 -134.038019 
L 205.646142 -134.404654 
L 206.243122 -134.772351 
L 206.840102 -135.141109 
L 207.437082 -135.510924 
L 208.034062 -135.881793 
L 208.631043 -136.253715 
L 209.228023 -136.626685 
L 209.825003 -137.000701 
L 210.421983 -137.375761 
L 211.018964 -137.75186 
L 211.615944 -138.128996 
L 212.212924 -138.507166 
L 212.809904 -138.886366 
L 213.406884 -139.266593 
L 214.003865 -139.647845 
L 214.600845 -140.030116 
L 215.197825 -140.413405 
L 215.794805 -140.755279 
L 216.391786 -141.097953 
L 216.988766 -141.441424 
L 217.585746 -141.78569 
L 218.182726 -142.130748 
L 218.779706 -142.476595 
L 219.376687 -142.823229 
L 219.973667 -143.170646 
L 220.570647 -143.518845 
L 221.167627 -143.867821 
L 221.764608 -144.217573 
L 222.361588 -144.568098 
L 222.958568 -144.919392 
L 223.555548 -145.271453 
L 224.152528 -145.624278 
L 224.749509 -145.977863 
L 225.346489 -146.332206 
L 225.943469 -146.687303 
L 226.540449 -147.043151 
L 227.13743 -147.399747 
L 227.73441 -147.757089 
L 228.33139 -148.115171 
L 228.92837 -148.473993 
L 229.525351 -148.833549 
L 230.122331 -149.193837 
L 230.719311 -149.554853 
L 231.316291 -149.896181 
L 231.913271 -150.238152 
L 232.510252 -150.580763 
L 233.107232 -150.92401 
L 233.704212 -151.26789 
L 234.301192 -151.612401 
L 234.898173 -151.95754 
L 235.495153 -152.303303 
L 236.092133 -152.649687 
L 236.689113 -152.996689 
L 237.286093 -153.344306 
L 237.883074 -153.692534 
L 238.480054 -154.041371 
L 239.077034 -154.390813 
L 239.674014 -154.740858 
L 240.270995 -155.0915 
L 240.867975 -155.442738 
L 241.464955 -155.794568 
L 242.061935 -156.146986 
L 242.658915 -156.499989 
L 243.255896 -156.853574 
L 243.852876 -157.207737 
L 244.449856 -157.562475 
L 245.046836 -157.917783 
L 245.643817 -158.273659 
L 246.240797 -158.629609 
L 246.837777 -158.986117 
L 247.434757 -159.343181 
L 248.031737 -159.700796 
L 248.628718 -160.058959 
L 249.225698 -160.417666 
L 249.822678 -160.776913 
L 250.419658 -161.136696 
L 251.016639 -161.497013 
L 251.613619 -161.857858 
L 252.210599 -162.219228 
L 252.807579 -162.58112 
L 253.404559 -162.943528 
L 254.00154 -163.30645 
L 254.59852 -163.669882 
L 255.1955 -164.033819 
L 255.79248 -164.398257 
L 256.389461 -164.763193 
L 256.986441 -165.128622 
L 257.583421 -165.494541 
L 258.180401 -165.860944 
L 258.777381 -166.227829 
L 259.374362 -166.595191 
L 259.971342 -166.963026 
L 260.568322 -167.331329 
L 261.165302 -167.700096 
L 261.762283 -168.067082 
L 262.359263 -168.434518 
L 262.956243 -168.8024 
L 263.553223 -169.170724 
L 264.150203 -169.539486 
L 264.747184 -169.908681 
L 265.344164 -170.278306 
L 265.941144 -170.648355 
L 266.538124 -171.018825 
L 267.135105 -171.38971 
L 267.732085 -171.761008 
L 268.329065 -172.132713 
L 268.926045 -172.50482 
L 269.523025 -172.877326 
L 270.120006 -173.250226 
L 270.716986 -173.623516 
L 271.313966 -173.997191 
L 271.910946 -174.371246 
L 272.507927 -174.745677 
L 273.104907 -175.120479 
L 273.701887 -175.495648 
L 274.298867 -175.871179 
L 274.895847 -176.247068 
L 275.492828 -176.62331 
L 276.089808 -176.9999 
L 276.686788 -177.376833 
L 277.283768 -177.754105 
L 277.880749 -178.131712 
L 278.477729 -178.509647 
L 279.074709 -178.887908 
L 279.671689 -179.266488 
L 280.268669 -179.645384 
L 280.86565 -180.02459 
L 281.46263 -180.404101 
L 282.05961 -180.783914 
L 282.65659 -181.164021 
L 283.253571 -181.54442 
L 283.850551 -181.925105 
L 284.447531 -182.306072 
L 285.044511 -182.687314 
L 285.641491 -183.068828 
L 286.238472 -183.450609 
L 286.835452 -183.832651 
L 287.432432 -184.214949 
L 288.029412 -184.597499 
L 288.626393 -184.980296 
L 289.223373 -185.363334 
L 289.820353 -185.746608 
L 290.417333 -186.130114 
L 291.014313 -186.513847 
L 291.611294 -186.897801 
L 292.208274 -187.281971 
L 292.805254 -187.666353 
L 293.402234 -188.050941 
L 293.999215 -188.43573 
L 294.596195 -188.820714 
L 295.193175 -189.20589 
L 295.790155 -189.591251 
L 296.387135 -189.976793 
L 296.984116 -190.362511 
L 297.581096 -190.748398 
L 298.178076 -191.134451 
L 298.775056 -191.520663 
L 299.372037 -191.90703 
L 299.969017 -192.293547 
L 300.565997 -192.680208 
L 301.162977 -193.067008 
L 301.759957 -193.453942 
L 302.356938 -193.841005 
L 302.953918 -194.228191 
L 303.550898 -194.615495 
L 304.147878 -195.002912 
L 304.744859 -195.390437 
L 305.341839 -195.778064 
L 305.938819 -196.165788 
L 306.535799 -196.553604 
L 307.132779 -196.941507 
L 307.72976 -197.329491 
L 308.32674 -197.717551 
L 308.92372 -198.105682 
L 309.5207 -198.493878 
L 310.117681 -198.882134 
L 310.714661 -199.270445 
L 311.311641 -199.658806 
L 311.908621 -200.047211 
L 312.505601 -200.435655 
L 313.102582 -200.824132 
L 313.699562 -201.212638 
L 314.296542 -201.601167 
L 314.893522 -201.989713 
L 315.490503 -202.378272 
L 316.087483 -202.766837 
L 316.684463 -203.155405 
L 317.281443 -203.543969 
L 317.878423 -203.932523 
L 318.475404 -204.321064 
L 319.072384 -204.709585 
L 319.669364 -205.098081 
L 320.266344 -205.486547 
L 320.863325 -205.874978 
L 321.460305 -206.263368 
L 322.057285 -206.651711 
L 322.654265 -207.040004 
L 323.251245 -207.428239 
L 323.848226 -207.816413 
L 324.445206 -208.204519 
L 325.042186 -208.592552 
L 325.639166 -208.980508 
L 326.236147 -209.36838 
L 326.833127 -209.756164 
L 327.430107 -210.143854 
L 328.027087 -210.531446 
L 328.624067 -210.918933 
L 329.221048 -211.30631 
L 329.818028 -211.693573 
L 330.415008 -212.080715 
L 331.011988 -212.467733 
L 331.608969 -212.85462 
L 332.205949 -213.241371 
L 332.802929 -213.627981 
L 333.399909 -214.014445 
L 333.996889 -214.400758 
L 334.59387 -214.786914 
L 335.19085 -215.172908 
L 335.78783 -215.558736 
L 336.38481 -215.944391 
L 336.981791 -216.329869 
L 337.578771 -216.715165 
L 338.175751 -217.100273 
L 338.772731 -217.485189 
L 339.369711 -217.869907 
L 339.966692 -218.254421 
L 340.563672 -218.638728 
L 341.160652 -219.022822 
L 341.757632 -219.406698 
L 342.354613 -219.79035 
L 342.951593 -220.173775 
L 343.548573 -220.556965 
L 344.145553 -220.939918 
L 344.742533 -221.322627 
L 345.339514 -221.705088 
L 345.936494 -222.087296 
L 346.533474 -222.469245 
L 347.130454 -222.850931 
L 347.727435 -223.232349 
L 348.324415 -223.613494 
L 348.921395 -223.99436 
L 349.518375 -224.374944 
L 350.115355 -224.75524 
L 350.712336 -225.135243 
L 351.309316 -225.514948 
L 351.906296 -225.894351 
L 352.503276 -226.273447 
L 353.100257 -226.652231 
L 353.697237 -227.030698 
L 354.294217 -227.408844 
L 354.891197 -227.786663 
L 355.488177 -228.164151 
L 356.085158 -228.541303 
L 356.682138 -228.918114 
L 357.279118 -229.294581 
L 357.876098 -229.670697 
L 358.473079 -230.046459 
L 359.070059 -230.421862 
L 359.667039 -230.796901 
L 360.264019 -231.171571 
L 360.860999 -231.545869 
L 361.45798 -231.919789 
L 362.05496 -232.293327 
L 362.65194 -232.666478 
L 363.24892 -233.039238 
L 363.845901 -233.411603 
L 364.442881 -233.783567 
L 365.039861 -234.155128 
L 365.636841 -234.526279 
L 366.233821 -234.897017 
L 366.830802 -235.267337 
L 367.427782 -235.637235 
L 368.024762 -236.006707 
L 368.621742 -236.377237 
L 369.218723 -236.747327 
L 369.815703 -237.116975 
L 370.412683 -237.486176 
L 371.009663 -237.854926 
L 371.606643 -238.22322 
L 372.203624 -238.591054 
L 372.800604 -238.958424 
L 373.397584 -239.325325 
L 373.994564 -239.691755 
L 374.591545 -240.057708 
L 375.188525 -240.42318 
L 375.785505 -240.788167 
L 376.382485 -241.152666 
L 376.979465 -241.516672 
L 377.576446 -241.880181 
L 378.173426 -242.243189 
L 378.770406 -242.605693 
L 379.367386 -242.967688 
L 379.964367 -243.32917 
L 380.561347 -243.690136 
L 381.158327 -244.050581 
L 381.755307 -244.410502 
L 382.352287 -244.769895 
L 382.949268 -245.128756 
L 383.546248 -245.487295 
L 384.143228 -245.845294 
L 384.740208 -246.202749 
L 385.337189 -246.559656 
L 385.934169 -246.916013 
L 386.531149 -247.271815 
L 387.128129 -247.627059 
L 387.725109 -247.981741 
L 388.32209 -248.335857 
L 388.91907 -248.689405 
L 389.51605 -249.04238 
L 390.11303 -249.394779 
L 390.710011 -249.746599 
L 391.306991 -250.097836 
L 391.903971 -250.448487 
L 392.500951 -250.798549 
L 393.097931 -251.148017 
L 393.694912 -251.49689 
L 394.291892 -251.845163 
L 394.888872 -252.192833 
L 395.485852 -252.539897 
L 396.082833 -252.886353 
L 396.679813 -253.232195 
L 397.276793 -253.577423 
L 397.873773 -253.922032 
L 398.470754 -254.266019 
L 399.067734 -254.609464 
L 399.664714 -254.952281 
L 400.261694 -255.294467 
L 400.858674 -255.636019 
L 401.455655 -255.976935 
L 402.052635 -256.31721 
L 402.649615 -256.656842 
L 403.246595 -256.995829 
L 403.843576 -257.334168 
L 404.440556 -257.671855 
L 405.037536 -258.008888 
L 405.634516 -258.345264 
L 406.231496 -258.680981 
L 406.828477 -259.016036 
L 407.425457 -259.350425 
L 408.022437 -259.684148 
L 408.619417 -260.0172 
L 409.216398 -260.349579 
L 409.813378 -260.681284 
L 410.410358 -261.012311 
L 411.007338 -261.342657 
L 411.604318 -261.672321 
L 412.201299 -262.001299 
L 412.798279 -262.329591 
L 413.395259 -262.657192 
L 413.992239 -263.016091 
L 414.58922 -263.374151 
L 415.1862 -263.731372 
L 415.78318 -264.087749 
L 416.38016 -264.443279 
L 416.97714 -264.79796 
L 417.574121 -265.151789 
L 418.171101 -265.504763 
L 418.768081 -265.856879 
L 419.365061 -266.208135 
L 419.962042 -266.558528 
L 420.559022 -266.908055 
L 421.156002 -267.256713 
L 421.752982 -267.604501 
L 422.349962 -267.951415 
L 422.946943 -268.297453 
L 423.543923 -268.642613 
L 424.140903 -268.986892 
L 424.737883 -269.330288 
L 425.334864 -269.672798 
L 425.931844 -270.014421 
L 426.528824 -270.355154 
L 427.125804 -270.694995 
L 427.722784 -271.033942 
L 428.319765 -271.371993 
L 428.916745 -271.709145 
L 429.513725 -272.113132 
L 430.110705 -272.515815 
L 430.707686 -272.917191 
L 431.304666 -273.317257 
L 431.901646 -273.716009 
L 432.498626 -274.113444 
L 433.095606 -274.50956 
L 433.692587 -274.904354 
L 434.289567 -275.297821 
L 434.886547 -275.689961 
L 435.483527 -276.08077 
L 436.080508 -276.470246 
L 436.677488 -276.858385 
L 437.274468 -277.245186 
L 437.871448 -277.630647 
L 438.468428 -278.014765 
L 439.065409 -278.397537 
L 439.662389 -278.778962 
L 440.259369 -279.159038 
L 440.856349 -279.537762 
L 441.45333 -279.915134 
L 442.05031 -280.291151 
L 442.64729 -280.665811 
L 443.24427 -281.039112 
L 443.84125 -281.411054 
L 444.438231 -281.873129 
L 445.035211 -282.333083 
L 445.632191 -282.790914 
L 446.229171 -283.246618 
L 446.826152 -283.700194 
L 447.423132 -284.15164 
L 448.020112 -284.600954 
L 448.617092 -285.048135 
L 449.214072 -285.49318 
L 449.811053 -285.936089 
L 450.408033 -286.376861 
L 451.005013 -286.815494 
L 451.601993 -287.251988 
L 452.198974 -287.686343 
L 452.795954 -288.118557 
L 453.392934 -288.54863 
L 453.989914 -288.976563 
L 454.586894 -289.402355 
L 455.183875 -289.826007 
L 455.780855 -290.247519 
L 456.377835 -290.666891 
L 456.974815 -291.084124 
L 457.571796 -291.499219 
L 458.168776 -291.912178 
L 458.765756 -292.323 
L 459.362736 -292.731687 
L 459.959716 -293.233047 
L 460.556697 -293.731161 
L 461.153677 -294.226033 
L 461.750657 -294.717666 
L 462.347637 -295.206066 
L 462.944618 -295.691235 
L 463.541598 -296.173179 
L 464.138578 -296.651901 
L 464.735558 -297.127409 
L 465.332538 -297.599706 
L 465.929519 -298.068798 
L 466.526499 -298.534693 
L 467.123479 -298.997395 
L 467.720459 -299.456912 
L 468.31744 -299.91325 
L 468.91442 -300.366417 
L 469.5114 -300.81642 
L 470.10838 -301.263266 
L 470.70536 -301.706963 
L 471.302341 -302.147521 
L 471.899321 -302.584946 
L 472.496301 -303.019247 
L 473.093281 -303.450434 
L 473.690262 -303.878516 
L 474.287242 -304.303501 
L 474.884222 -304.7254 
L 475.481202 -305.144221 
L 476.078182 -305.559975 
L 476.675163 -305.972673 
L 477.272143 -306.382323 
L 477.869123 -306.788938 
L 478.466103 -307.192527 
L 479.063084 -307.593102 
L 479.660064 -307.990673 
L 480.257044 -308.385252 
L 480.854024 -308.77685 
L 481.451004 -309.165479 
L 482.047985 -309.55115 
L 482.644965 -309.933876 
L 483.241945 -310.313668 
L 483.838925 -310.690539 
L 484.435906 -311.064501 
L 485.032886 -311.435566 
L 485.629866 -311.803747 
L 486.226846 -312.169058 
L 486.823826 -312.531509 
L 487.420807 -312.891116 
L 488.017787 -313.24789 
L 488.614767 -313.601846 
L 489.211747 -313.952995 
L 489.808728 -314.301353 
L 490.405708 -314.646932 
L 491.002688 -314.989746 
L 491.599668 -315.329809 
L 492.196648 -315.667134 
L 492.793629 -316.001736 
L 493.390609 -316.333628 
L 493.987589 -316.662825 
L 494.584569 -316.989341 
L 495.18155 -317.313189 
L 495.77853 -317.634385 
L 496.37551 -317.952943 
L 496.97249 -318.268877 
L 497.56947 -318.582201 
L 498.166451 -318.892931 
L 498.763431 -319.20108 
L 499.360411 -319.506664 
L 499.957391 -319.809697 
L 500.554372 -320.110194 
L 501.151352 -320.408169 
L 501.748332 -320.703638 
L 502.345312 -320.996615 
L 502.942292 -321.287116 
L 503.539273 -321.575155 
L 504.136253 -321.860747 
L 504.733233 -322.143907 
L 505.330213 -322.42465 
L 505.927194 -322.702991 
L 506.524174 -322.978945 
L 507.121154 -323.252528 
L 507.718134 -323.523753 
L 508.315114 -323.792637 
L 508.912095 -324.059195 
L 509.509075 -324.323441 
L 510.106055 -324.58539 
L 510.703035 -324.845058 
L 511.300016 -325.102459 
L 511.896996 -325.357609 
L 512.493976 -325.610523 
L 513.090956 -325.861216 
L 513.687936 -326.109702 
L 514.284917 -326.355997 
L 514.881897 -326.600117 
L 515.478877 -326.842074 
L 516.075857 -327.081886 
L 516.672838 -327.319567 
L 517.269818 -327.555131 
L 517.866798 -327.788593 
L 518.463778 -328.019969 
L 519.060758 -328.249273 
L 519.657739 -328.47652 
L 520.254719 -328.701725 
L 520.851699 -328.924903 
L 521.448679 -329.146068 
L 522.04566 -329.365234 
L 522.64264 -329.582417 
L 523.23962 -329.797632 
L 523.8366 -330.010892 
L 524.43358 -330.222212 
L 525.030561 -330.431607 
L 525.627541 -330.639091 
L 526.224521 -330.844678 
L 526.821501 -331.048383 
L 527.418482 -331.25022 
L 528.015462 -331.450204 
L 528.612442 -331.648347 
L 529.209422 -331.844666 
L 529.806402 -332.039173 
L 530.403383 -332.231883 
L 531.000363 -332.422809 
L 531.597343 -332.611966 
L 532.194323 -332.799367 
L 532.791304 -332.985027 
L 533.388284 -333.168958 
L 533.985264 -333.351175 
L 534.582244 -333.531691 
L 535.179224 -333.71052 
L 535.776205 -333.887675 
L 536.373185 -334.06317 
L 536.970165 -334.237018 
L 537.567145 -334.409232 
L 538.164126 -334.579826 
L 538.761106 -334.748813 
L 539.358086 -334.916205 
L 539.955066 -335.082017 
L 540.552046 -335.24626 
L 541.149027 -335.408948 
L 541.746007 -335.570094 
L 542.342987 -335.72971 
L 542.939967 -335.88781 
L 543.536948 -336.044405 
L 544.133928 -336.199508 
L 544.730908 -336.353132 
L 545.327888 -336.50529 
L 545.924868 -336.655993 
L 546.521849 -336.805254 
L 547.118829 -336.953085 
L 547.715809 -337.099498 
L 548.312789 -337.244506 
L 548.90977 -337.38812 
L 549.50675 -337.530352 
L 550.10373 -337.671214 
L 550.70071 -337.810718 
L 551.29769 -337.948876 
L 551.894671 -338.085699 
L 552.491651 -338.221199 
L 553.088631 -338.355387 
L 553.685611 -338.488275 
L 554.282592 -338.619873 
L 554.879572 -338.750195 
L 555.476552 -338.879249 
L 556.073532 -339.007048 
L 556.670512 -339.133603 
L 557.267493 -339.258925 
L 557.864473 -339.383024 
L 558.461453 -339.505741 
L 559.058433 -339.625835 
L 559.655414 -339.744129 
L 560.252394 -339.86093 
L 560.849374 -339.976812 
L 561.446354 -340.091537 
L 562.043334 -340.204251 
L 562.640315 -340.315224 
L 563.237295 -340.425265 
L 563.834275 -340.533443 
L 564.431255 -340.641026 
L 565.028236 -340.747637 
L 565.625216 -340.851792 
L 566.222196 -340.957276 
L 566.819176 -341.060337 
L 567.416157 -341.162313 
L 568.013137 -341.264713 
L 568.610117 -341.364684 
L 569.207097 -341.465486 
L 569.804077 -341.564079 
L 570.401058 -341.6611 
L 570.998038 -341.755408 
L 571.595018 -341.850306 
L 572.191998 -341.945754 
L 572.788979 -342.03747 
L 573.385959 -342.128597 
L 573.982939 -342.21896 
L 574.579919 -342.307332 
L 575.176899 -342.395449 
L 575.77388 -342.481752 
L 576.37086 -342.569211 
L 576.96784 -342.655563 
L 577.56482 -342.739827 
L 578.161801 -342.823279 
L 578.758781 -342.906192 
L 579.355761 -342.989578 
L 579.952741 -343.071707 
L 580.549721 -343.152183 
L 581.146702 -343.230823 
L 581.743682 -343.309981 
L 582.340662 -343.388203 
L 582.937642 -343.465196 
L 583.534623 -343.542387 
L 584.131603 -343.619716 
L 584.728583 -343.696114 
L 585.325563 -343.772305 
L 585.922543 -343.846481 
L 586.519524 -343.919504 
L 587.116504 -343.994116 
L 587.713484 -344.065028 
L 588.310464 -344.134706 
L 588.907445 -344.200577 
L 589.504425 -344.273483 
L 590.101405 -344.343142 
L 590.698385 -344.407717 
L 591.295365 -344.475328 
L 591.892346 -344.538097 
L 592.489326 -344.603005 
L 593.086306 -344.669613 
L 593.683286 -344.735698 
L 594.280267 -344.79844 
L 594.877247 -344.866066 
L 595.474227 -344.927236 
L 596.071207 -344.989294 
L 596.668187 -345.051798 
L 597.265168 -345.109139 
L 597.862148 -345.170831 
L 598.459128 -345.228887 
L 599.056108 -345.285756 
L 599.653089 -345.3425 
L 600.250069 -345.401319 
L 600.847049 -345.457834 
L 601.444029 -345.515257 
L 602.041009 -345.57196 
L 602.63799 -345.628897 
L 603.23497 -345.683291 
L 603.83195 -345.735208 
L 604.42893 -345.787467 
L 605.025911 -345.839375 
L 605.622891 -345.891408 
L 606.219871 -345.944892 
L 606.816851 -345.99942 
L 607.413831 -346.051507 
L 608.010812 -346.102128 
L 608.607792 -346.154117 
L 609.204772 -346.202333 
L 609.801752 -346.252934 
L 610.398733 -346.296671 
L 610.995713 -346.343697 
L 611.592693 -346.389844 
L 612.189673 -346.435914 
L 612.786653 -346.480185 
L 613.383634 -346.524182 
L 613.980614 -346.568007 
L 614.577594 -346.612686 
L 615.174574 -346.654629 
L 615.771555 -346.698022 
L 616.368535 -346.741076 
L 616.965515 -346.784342 
L 617.562495 -346.826744 
L 618.159475 -346.865797 
L 618.756456 -346.908768 
L 619.353436 -346.950095 
L 619.950416 -346.991072 
L 620.547396 -347.029729 
L 621.144377 -347.069983 
L 621.741357 -347.109191 
L 622.338337 -347.148134 
L 622.935317 -347.188967 
L 623.532297 -347.227103 
L 624.129278 -347.265655 
L 624.726258 -347.30697 
L 625.323238 -347.347043 
L 625.920218 -347.386861 
L 626.517199 -347.425991 
L 627.114179 -347.463353 
L 627.711159 -347.499817 
L 628.308139 -347.53338 
L 628.905119 -347.568122 
L 629.5021 -347.602599 
L 630.09908 -347.636124 
L 630.69606 -347.671339 
L 631.29304 -347.706432 
L 631.890021 -347.740586 
L 632.487001 -347.774891 
L 633.083981 -347.808665 
L 633.680961 -347.837903 
L 634.277941 -347.868956 
L 634.874922 -347.903002 
L 635.471902 -347.934792 
L 636.068882 -347.963665 
L 636.665862 -347.995943 
L 637.262843 -348.026833 
L 637.859823 -348.053815 
L 638.456803 -348.083423 
L 639.053783 -348.113651 
L 639.650763 -348.142619 
L 640.247744 -348.172687 
L 640.844724 -348.203296 
L 641.441704 -348.233387 
L 642.038684 -348.263095 
L 642.635665 -348.291252 
L 643.232645 -348.318126 
L 643.829625 -348.344774 
L 644.426605 -348.371195 
L 645.023585 -348.3974 
L 645.620566 -348.425745 
L 646.217546 -348.455668 
L 646.814526 -348.482732 
L 647.411506 -348.508509 
L 648.008487 -348.535875 
L 648.605467 -348.560027 
L 649.202447 -348.58388 
L 649.799427 -348.607815 
L 650.396407 -348.6316 
L 650.993388 -348.65561 
L 651.590368 -348.680156 
L 652.187348 -348.70426 
L 652.784328 -348.726715 
L 653.381309 -348.751572 
L 653.978289 -348.776495 
L 654.575269 -348.800201 
L 655.172249 -348.823698 
L 655.769229 -348.846988 
L 656.36621 -348.870146 
L 656.96319 -348.892951 
L 657.56017 -348.915571 
L 658.15715 -348.93875 
L 658.754131 -348.961657 
L 659.351111 -348.98465 
L 659.948091 -349.009222 
L 660.545071 -349.032245 
L 661.142051 -349.053915 
L 661.739032 -349.073603 
L 662.336012 -349.095938 
L 662.932992 -349.11749 
L 663.529972 -349.13923 
L 664.126953 -349.160802 
L 664.723933 -349.182545 
L 665.320913 -349.20411 
L 665.917893 -349.225565 
L 666.514873 -349.247377 
L 667.111854 -349.267368 
L 667.708834 -349.285881 
L 668.305814 -349.305524 
L 668.902794 -349.325272 
L 669.499775 -349.34435 
L 670.096755 -349.362864 
L 670.693735 -349.381434 
L 671.290715 -349.399166 
L 671.887695 -349.416941 
L 672.484676 -349.433838 
L 673.081656 -349.450277 
L 673.678636 -349.466582 
L 674.275616 -349.482755 
L 674.872597 -349.499018 
L 675.469577 -349.518649 
L 676.066557 -349.537633 
L 676.663537 -349.554466 
L 677.260517 -349.571164 
L 677.857498 -349.587479 
L 678.454478 -349.601507 
L 679.051458 -349.61606 
L 679.648438 -349.630551 
L 680.245419 -349.645267 
L 680.842399 -349.659865 
L 681.439379 -349.675658 
L 682.036359 -349.691582 
L 682.633339 -349.707573 
L 683.23032 -349.723723 
L 683.8273 -349.739874 
L 684.42428 -349.755911 
L 685.02126 -349.771489 
L 685.618241 -349.785841 
L 686.215221 -349.800254 
L 686.812201 -349.814542 
L 687.409181 -349.828138 
L 688.006161 -349.84258 
L 688.603142 -349.856578 
L 689.200122 -349.870877 
L 689.797102 -349.885246 
L 690.394082 -349.899673 
L 690.991063 -349.91397 
L 691.588043 -349.928134 
L 692.185023 -349.94118 
L 692.782003 -349.953866 
L 693.378983 -349.967538 
L 693.975964 -349.980647 
L 694.572944 -349.993061 
L 695.169924 -350.006055 
L 695.766904 -350.018998 
L 696.363885 -350.032812 
L 696.960865 -350.044781 
L 697.557845 -350.056474 
L 698.154825 -350.068556 
L 698.751805 -350.080913 
L 699.348786 -350.093034 
L 699.945766 -350.104938 
L 700.542746 -350.116737 
L 701.139726 -350.128533 
L 701.736707 -350.139599 
L 702.333687 -350.150599 
L 702.930667 -350.162122 
L 703.527647 -350.172933 
L 704.124627 -350.183855 
L 704.721608 -350.195571 
L 705.318588 -350.207439 
L 705.915568 -350.218437 
L 706.512548 -350.228535 
L 707.109529 -350.237529 
L 707.706509 -350.247931 
L 708.303489 -350.259088 
L 708.900469 -350.27014 
L 709.497449 -350.281089 
L 710.09443 -350.291935 
L 710.69141 -350.30268 
L 711.28839 -350.313262 
L 711.88537 -350.321377 
L 712.482351 -350.330077 
L 713.079331 -350.339709 
L 713.676311 -350.349317 
L 714.273291 -350.358985 
L 714.870271 -350.368568 
L 715.467252 -350.378065 
L 716.064232 -350.386857 
L 716.661212 -350.394893 
L 717.258192 -350.402079 
L 717.855173 -350.408467 
L 718.452153 -350.416391 
L 719.049133 -350.425042 
L 719.646113 -350.432416 
L 720.243093 -350.441063 
L 720.840074 -350.448161 
L 721.437054 -350.455368 
L 722.034034 -350.463272 
L 722.631014 -350.471631 
L 723.227995 -350.480168 
L 723.824975 -350.488636 
L 724.421955 -350.497117 
L 725.018935 -350.505523 
L 725.615915 -350.513862 
L 726.212896 -350.521987 
L 726.809876 -350.529428 
L 727.406856 -350.537147 
L 728.003836 -350.544601 
L 728.600817 -350.551411 
L 729.197797 -350.55817 
L 729.794777 -350.565485 
L 730.391757 -350.572919 
L 730.988737 -350.580505 
L 731.585718 -350.588055 
L 732.182698 -350.595539 
L 732.779678 -350.602957 
L 733.376658 -350.608879 
L 733.973639 -350.614053 
L 734.570619 -350.62073 
L 735.167599 -350.627972 
L 735.764579 -350.63515 
L 736.36156 -350.642264 
L 736.95854 -350.649316 
L 737.55552 -350.656304 
L 738.1525 -350.661951 
L 738.74948 -350.667512 
L 739.346461 -350.673073 
L 739.943441 -350.678387 
L 740.540421 -350.683665 
L 741.137401 -350.689814 
L 741.734382 -350.69717 
L 742.331362 -350.704534 
L 742.928342 -350.711504 
L 743.525322 -350.717366 
L 744.122302 -350.724246 
L 744.719283 -350.731121 
L 745.316263 -350.737929 
L 745.913243 -350.744672 
L 746.510223 -350.751347 
L 747.107204 -350.757941 
L 747.704184 -350.764603 
L 748.301164 -350.771235 
L 748.898144 -350.7777 
L 749.495124 -350.78295 
L 750.092105 -350.788398 
L 750.689085 -350.794863 
L 751.286065 -350.799603 
L 751.883045 -350.804314 
L 752.480026 -350.809054 
L 753.077006 -350.814952 
L 753.673986 -350.821316 
L 754.270966 -350.827717 
L 754.867946 -350.833967 
L 755.464927 -350.838958 
L 756.061907 -350.843908 
L 756.658887 -350.848817 
L 757.255867 -350.853448 
L 757.852848 -350.858003 
L 758.449828 -350.862522 
L 759.046808 -350.867599 
L 759.643788 -350.872596 
L 760.240768 -350.877179 
L 760.837749 -350.881725 
L 761.434729 -350.886234 
L 762.031709 -350.890706 
L 762.628689 -350.895143 
L 763.22567 -350.899554 
L 763.82265 -350.904074 
L 764.41963 -350.908526 
L 765.01661 -350.912786 
L 765.61359 -350.917022 
L 766.210571 -350.921334 
L 766.807551 -350.925611 
L 767.404531 -350.929777 
L 768.001511 -350.933544 
L 768.598492 -350.938012 
L 769.195472 -350.942117 
L 769.792452 -350.946741 
L 770.389432 -350.951698 
L 770.986412 -350.955298 
L 771.583393 -350.958872 
L 772.180373 -350.962419 
L 772.777353 -350.96651 
L 772.777353 -351.284274 
L 772.777353 -351.284274 
L 772.180373 -351.28212 
L 771.583393 -351.279763 
L 770.986412 -351.27736 
L 770.389432 -351.275241 
L 769.792452 -351.27315 
L 769.195472 -351.271031 
L 768.598492 -351.268885 
L 768.001511 -351.26669 
L 767.404531 -351.264462 
L 766.807551 -351.262242 
L 766.210571 -351.259994 
L 765.61359 -351.257709 
L 765.01661 -351.255265 
L 764.41963 -351.253013 
L 763.82265 -351.250534 
L 763.22567 -351.247944 
L 762.628689 -351.245316 
L 762.031709 -351.242651 
L 761.434729 -351.239949 
L 760.837749 -351.237419 
L 760.240768 -351.235061 
L 759.643788 -351.23227 
L 759.046808 -351.22969 
L 758.449828 -351.227106 
L 757.852848 -351.224352 
L 757.255867 -351.221535 
L 756.658887 -351.218681 
L 756.061907 -351.215789 
L 755.464927 -351.213083 
L 754.867946 -351.210345 
L 754.270966 -351.207574 
L 753.673986 -351.204769 
L 753.077006 -351.20193 
L 752.480026 -351.199038 
L 751.883045 -351.195725 
L 751.286065 -351.192167 
L 750.689085 -351.188553 
L 750.092105 -351.184887 
L 749.495124 -351.181166 
L 748.898144 -351.177598 
L 748.301164 -351.173764 
L 747.704184 -351.169873 
L 747.107204 -351.165925 
L 746.510223 -351.162682 
L 745.913243 -351.159471 
L 745.316263 -351.155332 
L 744.719283 -351.1511 
L 744.122302 -351.147164 
L 743.525322 -351.143503 
L 742.928342 -351.139796 
L 742.331362 -351.136042 
L 741.734382 -351.132241 
L 741.137401 -351.128392 
L 740.540421 -351.124494 
L 739.943441 -351.120547 
L 739.346461 -351.116463 
L 738.74948 -351.112219 
L 738.1525 -351.107918 
L 737.55552 -351.103824 
L 736.95854 -351.099939 
L 736.36156 -351.095232 
L 735.764579 -351.09036 
L 735.167599 -351.085417 
L 734.570619 -351.080678 
L 733.973639 -351.075947 
L 733.376658 -351.071258 
L 732.779678 -351.066323 
L 732.182698 -351.061391 
L 731.585718 -351.056421 
L 730.988737 -351.051382 
L 730.391757 -351.04625 
L 729.794777 -351.041034 
L 729.197797 -351.035681 
L 728.600817 -351.030074 
L 728.003836 -351.024812 
L 727.406856 -351.019442 
L 726.809876 -351.014113 
L 726.212896 -351.008901 
L 725.615915 -351.003574 
L 725.018935 -350.998164 
L 724.421955 -350.992426 
L 723.824975 -350.986863 
L 723.227995 -350.980971 
L 722.631014 -350.974966 
L 722.034034 -350.969159 
L 721.437054 -350.963891 
L 720.840074 -350.958014 
L 720.243093 -350.952279 
L 719.646113 -350.945889 
L 719.049133 -350.93972 
L 718.452153 -350.933492 
L 717.855173 -350.92713 
L 717.258192 -350.920437 
L 716.661212 -350.912772 
L 716.064232 -350.904993 
L 715.467252 -350.898293 
L 714.870271 -350.891507 
L 714.273291 -350.884648 
L 713.676311 -350.877684 
L 713.079331 -350.870467 
L 712.482351 -350.862882 
L 711.88537 -350.855682 
L 711.28839 -350.848439 
L 710.69141 -350.841106 
L 710.09443 -350.833682 
L 709.497449 -350.826137 
L 708.900469 -350.81861 
L 708.303489 -350.810977 
L 707.706509 -350.803249 
L 707.109529 -350.795311 
L 706.512548 -350.787038 
L 705.915568 -350.778564 
L 705.318588 -350.77025 
L 704.721608 -350.761899 
L 704.124627 -350.753366 
L 703.527647 -350.744708 
L 702.930667 -350.735534 
L 702.333687 -350.726693 
L 701.736707 -350.717664 
L 701.139726 -350.708341 
L 700.542746 -350.698972 
L 699.945766 -350.690251 
L 699.348786 -350.681361 
L 698.751805 -350.671897 
L 698.154825 -350.662253 
L 697.557845 -350.652475 
L 696.960865 -350.642732 
L 696.363885 -350.632789 
L 695.766904 -350.623347 
L 695.169924 -350.614535 
L 694.572944 -350.60464 
L 693.975964 -350.594395 
L 693.378983 -350.583534 
L 692.782003 -350.572182 
L 692.185023 -350.560736 
L 691.588043 -350.549901 
L 690.991063 -350.538842 
L 690.394082 -350.527345 
L 689.797102 -350.516213 
L 689.200122 -350.504945 
L 688.603142 -350.493744 
L 688.006161 -350.482622 
L 687.409181 -350.471311 
L 686.812201 -350.459866 
L 686.215221 -350.448133 
L 685.618241 -350.436086 
L 685.02126 -350.422083 
L 684.42428 -350.408386 
L 683.8273 -350.395583 
L 683.23032 -350.382576 
L 682.633339 -350.369661 
L 682.036359 -350.356732 
L 681.439379 -350.34262 
L 680.842399 -350.329793 
L 680.245419 -350.31682 
L 679.648438 -350.303695 
L 679.051458 -350.290417 
L 678.454478 -350.27642 
L 677.857498 -350.26023 
L 677.260517 -350.243857 
L 676.663537 -350.22859 
L 676.066557 -350.213339 
L 675.469577 -350.198011 
L 674.872597 -350.182491 
L 674.275616 -350.166562 
L 673.678636 -350.150008 
L 673.081656 -350.134552 
L 672.484676 -350.118838 
L 671.887695 -350.10257 
L 671.290715 -350.086715 
L 670.693735 -350.070815 
L 670.096755 -350.054647 
L 669.499775 -350.038289 
L 668.902794 -350.021002 
L 668.305814 -350.00296 
L 667.708834 -349.985628 
L 667.111854 -349.966818 
L 666.514873 -349.948023 
L 665.917893 -349.929195 
L 665.320913 -349.909937 
L 664.723933 -349.891411 
L 664.126953 -349.87349 
L 663.529972 -349.855249 
L 662.932992 -349.836797 
L 662.336012 -349.81813 
L 661.739032 -349.797336 
L 661.142051 -349.776024 
L 660.545071 -349.754853 
L 659.948091 -349.734565 
L 659.351111 -349.713447 
L 658.754131 -349.690739 
L 658.15715 -349.668214 
L 657.56017 -349.646926 
L 656.96319 -349.624244 
L 656.36621 -349.600711 
L 655.769229 -349.579791 
L 655.172249 -349.559654 
L 654.575269 -349.539237 
L 653.978289 -349.516518 
L 653.381309 -349.492548 
L 652.784328 -349.468465 
L 652.187348 -349.4459 
L 651.590368 -349.421367 
L 650.993388 -349.398761 
L 650.396407 -349.374356 
L 649.799427 -349.349541 
L 649.202447 -349.324009 
L 648.605467 -349.299196 
L 648.008487 -349.274048 
L 647.411506 -349.247904 
L 646.814526 -349.221036 
L 646.217546 -349.195313 
L 645.620566 -349.168689 
L 645.023585 -349.141902 
L 644.426605 -349.115369 
L 643.829625 -349.088233 
L 643.232645 -349.059355 
L 642.635665 -349.031029 
L 642.038684 -349.003596 
L 641.441704 -348.973932 
L 640.844724 -348.945158 
L 640.247744 -348.916042 
L 639.650763 -348.886436 
L 639.053783 -348.856307 
L 638.456803 -348.825682 
L 637.859823 -348.793537 
L 637.262843 -348.763428 
L 636.665862 -348.731297 
L 636.068882 -348.698783 
L 635.471902 -348.665735 
L 634.874922 -348.631984 
L 634.277941 -348.598562 
L 633.680961 -348.564353 
L 633.083981 -348.529706 
L 632.487001 -348.494231 
L 631.890021 -348.458146 
L 631.29304 -348.422967 
L 630.69606 -348.387208 
L 630.09908 -348.35107 
L 629.5021 -348.313686 
L 628.905119 -348.276386 
L 628.308139 -348.238807 
L 627.711159 -348.202024 
L 627.114179 -348.164655 
L 626.517199 -348.126276 
L 625.920218 -348.087881 
L 625.323238 -348.048396 
L 624.726258 -348.007658 
L 624.129278 -347.966063 
L 623.532297 -347.923926 
L 622.935317 -347.88144 
L 622.338337 -347.840833 
L 621.741357 -347.799949 
L 621.144377 -347.759143 
L 620.547396 -347.7168 
L 619.950416 -347.673294 
L 619.353436 -347.626747 
L 618.756456 -347.583531 
L 618.159475 -347.536223 
L 617.562495 -347.489074 
L 616.965515 -347.443677 
L 616.368535 -347.398092 
L 615.771555 -347.349551 
L 615.174574 -347.301802 
L 614.577594 -347.253734 
L 613.980614 -347.202562 
L 613.383634 -347.155564 
L 612.786653 -347.107498 
L 612.189673 -347.057397 
L 611.592693 -347.003467 
L 610.995713 -346.946299 
L 610.398733 -346.891087 
L 609.801752 -346.839523 
L 609.204772 -346.789244 
L 608.607792 -346.735794 
L 608.010812 -346.681646 
L 607.413831 -346.627757 
L 606.816851 -346.569562 
L 606.219871 -346.516067 
L 605.622891 -346.458332 
L 605.025911 -346.402076 
L 604.42893 -346.345082 
L 603.83195 -346.284626 
L 603.23497 -346.224337 
L 602.63799 -346.165159 
L 602.041009 -346.101197 
L 601.444029 -346.040371 
L 600.847049 -345.980341 
L 600.250069 -345.915126 
L 599.653089 -345.85189 
L 599.056108 -345.789175 
L 598.459128 -345.725757 
L 597.862148 -345.657207 
L 597.265168 -345.586983 
L 596.668187 -345.517266 
L 596.071207 -345.448488 
L 595.474227 -345.381118 
L 594.877247 -345.31374 
L 594.280267 -345.244367 
L 593.683286 -345.174189 
L 593.086306 -345.101645 
L 592.489326 -345.030191 
L 591.892346 -344.953891 
L 591.295365 -344.879741 
L 590.698385 -344.804715 
L 590.101405 -344.731431 
L 589.504425 -344.655393 
L 588.907445 -344.57941 
L 588.310464 -344.502981 
L 587.713484 -344.426269 
L 587.116504 -344.345709 
L 586.519524 -344.264884 
L 585.922543 -344.184248 
L 585.325563 -344.102835 
L 584.728583 -344.023665 
L 584.131603 -343.940634 
L 583.534623 -343.858496 
L 582.937642 -343.770828 
L 582.340662 -343.686866 
L 581.743682 -343.601773 
L 581.146702 -343.515736 
L 580.549721 -343.427175 
L 579.952741 -343.337836 
L 579.355761 -343.24822 
L 578.758781 -343.156676 
L 578.161801 -343.065783 
L 577.56482 -342.970226 
L 576.96784 -342.875905 
L 576.37086 -342.782457 
L 575.77388 -342.685987 
L 575.176899 -342.589572 
L 574.579919 -342.492224 
L 573.982939 -342.393547 
L 573.385959 -342.293881 
L 572.788979 -342.19339 
L 572.191998 -342.091533 
L 571.595018 -341.989978 
L 570.998038 -341.887147 
L 570.401058 -341.782796 
L 569.804077 -341.677751 
L 569.207097 -341.570557 
L 568.610117 -341.463042 
L 568.013137 -341.355506 
L 567.416157 -341.247119 
L 566.819176 -341.138535 
L 566.222196 -341.027442 
L 565.625216 -340.914543 
L 565.028236 -340.802646 
L 564.431255 -340.689337 
L 563.834275 -340.575163 
L 563.237295 -340.459438 
L 562.640315 -340.343521 
L 562.043334 -340.225266 
L 561.446354 -340.107733 
L 560.849374 -339.988613 
L 560.252394 -339.868287 
L 559.655414 -339.748094 
L 559.058433 -339.627598 
L 558.461453 -339.505911 
L 557.864473 -339.383024 
L 557.267493 -339.258925 
L 556.670512 -339.133603 
L 556.073532 -339.007048 
L 555.476552 -338.879249 
L 554.879572 -338.750195 
L 554.282592 -338.619873 
L 553.685611 -338.488275 
L 553.088631 -338.355387 
L 552.491651 -338.221199 
L 551.894671 -338.085699 
L 551.29769 -337.948876 
L 550.70071 -337.810718 
L 550.10373 -337.671214 
L 549.50675 -337.530352 
L 548.90977 -337.38812 
L 548.312789 -337.244506 
L 547.715809 -337.099498 
L 547.118829 -336.953085 
L 546.521849 -336.805254 
L 545.924868 -336.655993 
L 545.327888 -336.50529 
L 544.730908 -336.353132 
L 544.133928 -336.199508 
L 543.536948 -336.044405 
L 542.939967 -335.88781 
L 542.342987 -335.72971 
L 541.746007 -335.570094 
L 541.149027 -335.408948 
L 540.552046 -335.24626 
L 539.955066 -335.082017 
L 539.358086 -334.916205 
L 538.761106 -334.748813 
L 538.164126 -334.579826 
L 537.567145 -334.409232 
L 536.970165 -334.237018 
L 536.373185 -334.06317 
L 535.776205 -333.887675 
L 535.179224 -333.71052 
L 534.582244 -333.531691 
L 533.985264 -333.351175 
L 533.388284 -333.168958 
L 532.791304 -332.985027 
L 532.194323 -332.799367 
L 531.597343 -332.611966 
L 531.000363 -332.422809 
L 530.403383 -332.231883 
L 529.806402 -332.039173 
L 529.209422 -331.844666 
L 528.612442 -331.648347 
L 528.015462 -331.450204 
L 527.418482 -331.25022 
L 526.821501 -331.048383 
L 526.224521 -330.844678 
L 525.627541 -330.639091 
L 525.030561 -330.431607 
L 524.43358 -330.222212 
L 523.8366 -330.010892 
L 523.23962 -329.797632 
L 522.64264 -329.582417 
L 522.04566 -329.365234 
L 521.448679 -329.146068 
L 520.851699 -328.924903 
L 520.254719 -328.701725 
L 519.657739 -328.47652 
L 519.060758 -328.249273 
L 518.463778 -328.019969 
L 517.866798 -327.788593 
L 517.269818 -327.555131 
L 516.672838 -327.319567 
L 516.075857 -327.081886 
L 515.478877 -326.842074 
L 514.881897 -326.600117 
L 514.284917 -326.355997 
L 513.687936 -326.109702 
L 513.090956 -325.861216 
L 512.493976 -325.610523 
L 511.896996 -325.357609 
L 511.300016 -325.102459 
L 510.703035 -324.845058 
L 510.106055 -324.58539 
L 509.509075 -324.323441 
L 508.912095 -324.059195 
L 508.315114 -323.792637 
L 507.718134 -323.523753 
L 507.121154 -323.252528 
L 506.524174 -322.978945 
L 505.927194 -322.702991 
L 505.330213 -322.42465 
L 504.733233 -322.143907 
L 504.136253 -321.860747 
L 503.539273 -321.575155 
L 502.942292 -321.287116 
L 502.345312 -320.996615 
L 501.748332 -320.703638 
L 501.151352 -320.408169 
L 500.554372 -320.110194 
L 499.957391 -319.809697 
L 499.360411 -319.506664 
L 498.763431 -319.20108 
L 498.166451 -318.892931 
L 497.56947 -318.582201 
L 496.97249 -318.268877 
L 496.37551 -317.952943 
L 495.77853 -317.634385 
L 495.18155 -317.313189 
L 494.584569 -316.989341 
L 493.987589 -316.662825 
L 493.390609 -316.333628 
L 492.793629 -316.001736 
L 492.196648 -315.667134 
L 491.599668 -315.329809 
L 491.002688 -314.989746 
L 490.405708 -314.646932 
L 489.808728 -314.301353 
L 489.211747 -313.952995 
L 488.614767 -313.601846 
L 488.017787 -313.24789 
L 487.420807 -312.891116 
L 486.823826 -312.531509 
L 486.226846 -312.169058 
L 485.629866 -311.803747 
L 485.032886 -311.435566 
L 484.435906 -311.064501 
L 483.838925 -310.690539 
L 483.241945 -310.313668 
L 482.644965 -309.933876 
L 482.047985 -309.55115 
L 481.451004 -309.165479 
L 480.854024 -308.77685 
L 480.257044 -308.385252 
L 479.660064 -307.990673 
L 479.063084 -307.593102 
L 478.466103 -307.192527 
L 477.869123 -306.788938 
L 477.272143 -306.382323 
L 476.675163 -305.972673 
L 476.078182 -305.559975 
L 475.481202 -305.144221 
L 474.884222 -304.7254 
L 474.287242 -304.303501 
L 473.690262 -303.878516 
L 473.093281 -303.450434 
L 472.496301 -303.019247 
L 471.899321 -302.584946 
L 471.302341 -302.147521 
L 470.70536 -301.706963 
L 470.10838 -301.263266 
L 469.5114 -300.81642 
L 468.91442 -300.366417 
L 468.31744 -299.91325 
L 467.720459 -299.456912 
L 467.123479 -298.997395 
L 466.526499 -298.534693 
L 465.929519 -298.068798 
L 465.332538 -297.599706 
L 464.735558 -297.127409 
L 464.138578 -296.651901 
L 463.541598 -296.173179 
L 462.944618 -295.691235 
L 462.347637 -295.206066 
L 461.750657 -294.717666 
L 461.153677 -294.226033 
L 460.556697 -293.731161 
L 459.959716 -293.233047 
L 459.362736 -292.731687 
L 458.765756 -292.323 
L 458.168776 -291.912178 
L 457.571796 -291.499219 
L 456.974815 -291.084124 
L 456.377835 -290.666891 
L 455.780855 -290.247519 
L 455.183875 -289.826007 
L 454.586894 -289.402355 
L 453.989914 -288.976563 
L 453.392934 -288.54863 
L 452.795954 -288.118557 
L 452.198974 -287.686343 
L 451.601993 -287.251988 
L 451.005013 -286.815494 
L 450.408033 -286.376861 
L 449.811053 -285.936089 
L 449.214072 -285.49318 
L 448.617092 -285.048135 
L 448.020112 -284.600954 
L 447.423132 -284.15164 
L 446.826152 -283.700194 
L 446.229171 -283.246618 
L 445.632191 -282.790914 
L 445.035211 -282.333083 
L 444.438231 -281.873129 
L 443.84125 -281.411054 
L 443.24427 -281.039112 
L 442.64729 -280.665811 
L 442.05031 -280.291151 
L 441.45333 -279.915134 
L 440.856349 -279.537762 
L 440.259369 -279.159038 
L 439.662389 -278.778962 
L 439.065409 -278.397537 
L 438.468428 -278.014765 
L 437.871448 -277.630647 
L 437.274468 -277.245186 
L 436.677488 -276.858385 
L 436.080508 -276.470246 
L 435.483527 -276.08077 
L 434.886547 -275.689961 
L 434.289567 -275.297821 
L 433.692587 -274.904354 
L 433.095606 -274.50956 
L 432.498626 -274.113444 
L 431.901646 -273.716009 
L 431.304666 -273.317257 
L 430.707686 -272.917191 
L 430.110705 -272.515815 
L 429.513725 -272.113132 
L 428.916745 -271.709145 
L 428.319765 -271.371993 
L 427.722784 -271.033942 
L 427.125804 -270.694995 
L 426.528824 -270.355154 
L 425.931844 -270.014421 
L 425.334864 -269.672798 
L 424.737883 -269.330288 
L 424.140903 -268.986892 
L 423.543923 -268.642613 
L 422.946943 -268.297453 
L 422.349962 -267.951415 
L 421.752982 -267.604501 
L 421.156002 -267.256713 
L 420.559022 -266.908055 
L 419.962042 -266.558528 
L 419.365061 -266.208135 
L 418.768081 -265.856879 
L 418.171101 -265.504763 
L 417.574121 -265.151789 
L 416.97714 -264.79796 
L 416.38016 -264.443279 
L 415.78318 -264.087749 
L 415.1862 -263.731372 
L 414.58922 -263.374151 
L 413.992239 -263.016091 
L 413.395259 -262.657192 
L 412.798279 -262.329591 
L 412.201299 -262.001299 
L 411.604318 -261.672321 
L 411.007338 -261.342657 
L 410.410358 -261.012311 
L 409.813378 -260.681284 
L 409.216398 -260.349579 
L 408.619417 -260.0172 
L 408.022437 -259.684148 
L 407.425457 -259.350425 
L 406.828477 -259.016036 
L 406.231496 -258.680981 
L 405.634516 -258.345264 
L 405.037536 -258.008888 
L 404.440556 -257.671855 
L 403.843576 -257.334168 
L 403.246595 -256.995829 
L 402.649615 -256.656842 
L 402.052635 -256.31721 
L 401.455655 -255.976935 
L 400.858674 -255.636019 
L 400.261694 -255.294467 
L 399.664714 -254.952281 
L 399.067734 -254.609464 
L 398.470754 -254.266019 
L 397.873773 -253.922032 
L 397.276793 -253.577423 
L 396.679813 -253.232195 
L 396.082833 -252.886353 
L 395.485852 -252.539897 
L 394.888872 -252.192833 
L 394.291892 -251.845163 
L 393.694912 -251.49689 
L 393.097931 -251.148017 
L 392.500951 -250.798549 
L 391.903971 -250.448487 
L 391.306991 -250.097836 
L 390.710011 -249.746599 
L 390.11303 -249.394779 
L 389.51605 -249.04238 
L 388.91907 -248.689405 
L 388.32209 -248.335857 
L 387.725109 -247.981741 
L 387.128129 -247.627059 
L 386.531149 -247.271815 
L 385.934169 -246.916013 
L 385.337189 -246.559656 
L 384.740208 -246.202749 
L 384.143228 -245.845294 
L 383.546248 -245.487295 
L 382.949268 -245.128756 
L 382.352287 -244.769895 
L 381.755307 -244.410502 
L 381.158327 -244.050581 
L 380.561347 -243.690136 
L 379.964367 -243.32917 
L 379.367386 -242.967688 
L 378.770406 -242.605693 
L 378.173426 -242.243189 
L 377.576446 -241.880181 
L 376.979465 -241.516672 
L 376.382485 -241.152666 
L 375.785505 -240.788167 
L 375.188525 -240.42318 
L 374.591545 -240.057708 
L 373.994564 -239.691755 
L 373.397584 -239.325325 
L 372.800604 -238.958424 
L 372.203624 -238.591054 
L 371.606643 -238.22322 
L 371.009663 -237.854926 
L 370.412683 -237.486176 
L 369.815703 -237.116975 
L 369.218723 -236.747327 
L 368.621742 -236.377237 
L 368.024762 -236.006707 
L 367.427782 -235.637235 
L 366.830802 -235.267337 
L 366.233821 -234.897017 
L 365.636841 -234.526279 
L 365.039861 -234.155128 
L 364.442881 -233.783567 
L 363.845901 -233.411603 
L 363.24892 -233.039238 
L 362.65194 -232.666478 
L 362.05496 -232.293327 
L 361.45798 -231.919789 
L 360.860999 -231.545869 
L 360.264019 -231.171571 
L 359.667039 -230.796901 
L 359.070059 -230.421862 
L 358.473079 -230.046459 
L 357.876098 -229.670697 
L 357.279118 -229.294581 
L 356.682138 -228.918114 
L 356.085158 -228.541303 
L 355.488177 -228.164151 
L 354.891197 -227.786663 
L 354.294217 -227.408844 
L 353.697237 -227.030698 
L 353.100257 -226.652231 
L 352.503276 -226.273447 
L 351.906296 -225.894351 
L 351.309316 -225.514948 
L 350.712336 -225.135243 
L 350.115355 -224.75524 
L 349.518375 -224.374944 
L 348.921395 -223.99436 
L 348.324415 -223.613494 
L 347.727435 -223.232349 
L 347.130454 -222.850931 
L 346.533474 -222.469245 
L 345.936494 -222.087296 
L 345.339514 -221.705088 
L 344.742533 -221.322627 
L 344.145553 -220.939918 
L 343.548573 -220.556965 
L 342.951593 -220.173775 
L 342.354613 -219.79035 
L 341.757632 -219.406698 
L 341.160652 -219.022822 
L 340.563672 -218.638728 
L 339.966692 -218.254421 
L 339.369711 -217.869907 
L 338.772731 -217.485189 
L 338.175751 -217.100273 
L 337.578771 -216.715165 
L 336.981791 -216.329869 
L 336.38481 -215.944391 
L 335.78783 -215.558736 
L 335.19085 -215.172908 
L 334.59387 -214.786914 
L 333.996889 -214.400758 
L 333.399909 -214.014445 
L 332.802929 -213.627981 
L 332.205949 -213.241371 
L 331.608969 -212.85462 
L 331.011988 -212.467733 
L 330.415008 -212.080715 
L 329.818028 -211.693573 
L 329.221048 -211.30631 
L 328.624067 -210.918933 
L 328.027087 -210.531446 
L 327.430107 -210.143854 
L 326.833127 -209.756164 
L 326.236147 -209.36838 
L 325.639166 -208.980508 
L 325.042186 -208.592552 
L 324.445206 -208.204519 
L 323.848226 -207.816413 
L 323.251245 -207.428239 
L 322.654265 -207.040004 
L 322.057285 -206.651711 
L 321.460305 -206.263368 
L 320.863325 -205.874978 
L 320.266344 -205.486547 
L 319.669364 -205.098081 
L 319.072384 -204.709585 
L 318.475404 -204.321064 
L 317.878423 -203.932523 
L 317.281443 -203.543969 
L 316.684463 -203.155405 
L 316.087483 -202.766837 
L 315.490503 -202.378272 
L 314.893522 -201.989713 
L 314.296542 -201.601167 
L 313.699562 -201.212638 
L 313.102582 -200.824132 
L 312.505601 -200.435655 
L 311.908621 -200.047211 
L 311.311641 -199.658806 
L 310.714661 -199.270445 
L 310.117681 -198.882134 
L 309.5207 -198.493878 
L 308.92372 -198.105682 
L 308.32674 -197.717551 
L 307.72976 -197.329491 
L 307.132779 -196.941507 
L 306.535799 -196.553604 
L 305.938819 -196.165788 
L 305.341839 -195.778064 
L 304.744859 -195.390437 
L 304.147878 -195.002912 
L 303.550898 -194.615495 
L 302.953918 -194.228191 
L 302.356938 -193.841005 
L 301.759957 -193.453942 
L 301.162977 -193.067008 
L 300.565997 -192.680208 
L 299.969017 -192.293547 
L 299.372037 -191.90703 
L 298.775056 -191.520663 
L 298.178076 -191.134451 
L 297.581096 -190.748398 
L 296.984116 -190.362511 
L 296.387135 -189.976793 
L 295.790155 -189.591251 
L 295.193175 -189.20589 
L 294.596195 -188.820714 
L 293.999215 -188.43573 
L 293.402234 -188.050941 
L 292.805254 -187.666353 
L 292.208274 -187.281971 
L 291.611294 -186.897801 
L 291.014313 -186.513847 
L 290.417333 -186.130114 
L 289.820353 -185.746608 
L 289.223373 -185.363334 
L 288.626393 -184.980296 
L 288.029412 -184.597499 
L 287.432432 -184.214949 
L 286.835452 -183.832651 
L 286.238472 -183.450609 
L 285.641491 -183.068828 
L 285.044511 -182.687314 
L 284.447531 -182.306072 
L 283.850551 -181.925105 
L 283.253571 -181.54442 
L 282.65659 -181.164021 
L 282.05961 -180.783914 
L 281.46263 -180.404101 
L 280.86565 -180.02459 
L 280.268669 -179.645384 
L 279.671689 -179.266488 
L 279.074709 -178.887908 
L 278.477729 -178.509647 
L 277.880749 -178.131712 
L 277.283768 -177.754105 
L 276.686788 -177.376833 
L 276.089808 -176.9999 
L 275.492828 -176.62331 
L 274.895847 -176.247068 
L 274.298867 -175.871179 
L 273.701887 -175.495648 
L 273.104907 -175.120479 
L 272.507927 -174.745677 
L 271.910946 -174.371246 
L 271.313966 -173.997191 
L 270.716986 -173.623516 
L 270.120006 -173.250226 
L 269.523025 -172.877326 
L 268.926045 -172.50482 
L 268.329065 -172.132713 
L 267.732085 -171.761008 
L 267.135105 -171.38971 
L 266.538124 -171.018825 
L 265.941144 -170.648355 
L 265.344164 -170.278306 
L 264.747184 -169.908681 
L 264.150203 -169.539486 
L 263.553223 -169.170724 
L 262.956243 -168.8024 
L 262.359263 -168.434518 
L 261.762283 -168.067082 
L 261.165302 -167.700096 
L 260.568322 -167.331329 
L 259.971342 -166.963026 
L 259.374362 -166.595191 
L 258.777381 -166.227829 
L 258.180401 -165.860944 
L 257.583421 -165.494541 
L 256.986441 -165.128622 
L 256.389461 -164.763193 
L 255.79248 -164.398257 
L 255.1955 -164.033819 
L 254.59852 -163.669882 
L 254.00154 -163.30645 
L 253.404559 -162.943528 
L 252.807579 -162.58112 
L 252.210599 -162.219228 
L 251.613619 -161.857858 
L 251.016639 -161.497013 
L 250.419658 -161.136696 
L 249.822678 -160.776913 
L 249.225698 -160.417666 
L 248.628718 -160.058959 
L 248.031737 -159.700796 
L 247.434757 -159.343181 
L 246.837777 -158.986117 
L 246.240797 -158.629609 
L 245.643817 -158.273659 
L 245.046836 -157.917783 
L 244.449856 -157.562475 
L 243.852876 -157.207737 
L 243.255896 -156.853574 
L 242.658915 -156.499989 
L 242.061935 -156.146986 
L 241.464955 -155.794568 
L 240.867975 -155.442738 
L 240.270995 -155.0915 
L 239.674014 -154.740858 
L 239.077034 -154.390813 
L 238.480054 -154.041371 
L 237.883074 -153.692534 
L 237.286093 -153.344306 
L 236.689113 -152.996689 
L 236.092133 -152.649687 
L 235.495153 -152.303303 
L 234.898173 -151.95754 
L 234.301192 -151.612401 
L 233.704212 -151.26789 
L 233.107232 -150.92401 
L 232.510252 -150.580763 
L 231.913271 -150.238152 
L 231.316291 -149.896181 
L 230.719311 -149.554853 
L 230.122331 -149.193837 
L 229.525351 -148.833549 
L 228.92837 -148.473993 
L 228.33139 -148.115171 
L 227.73441 -147.757089 
L 227.13743 -147.399747 
L 226.540449 -147.043151 
L 225.943469 -146.687303 
L 225.346489 -146.332206 
L 224.749509 -145.977863 
L 224.152528 -145.624278 
L 223.555548 -145.271453 
L 222.958568 -144.919392 
L 222.361588 -144.568098 
L 221.764608 -144.217573 
L 221.167627 -143.867821 
L 220.570647 -143.518845 
L 219.973667 -143.170646 
L 219.376687 -142.823229 
L 218.779706 -142.476595 
L 218.182726 -142.130748 
L 217.585746 -141.78569 
L 216.988766 -141.441424 
L 216.391786 -141.097953 
L 215.794805 -140.755279 
L 215.197825 -140.413405 
L 214.600845 -140.030116 
L 214.003865 -139.647845 
L 213.406884 -139.266593 
L 212.809904 -138.886366 
L 212.212924 -138.507166 
L 211.615944 -138.128996 
L 211.018964 -137.75186 
L 210.421983 -137.375761 
L 209.825003 -137.000701 
L 209.228023 -136.626685 
L 208.631043 -136.253715 
L 208.034062 -135.881793 
L 207.437082 -135.510924 
L 206.840102 -135.141109 
L 206.243122 -134.772351 
L 205.646142 -134.404654 
L 205.049161 -134.038019 
L 204.452181 -133.67245 
L 203.855201 -133.307948 
L 203.258221 -132.944517 
L 202.66124 -132.582159 
L 202.06426 -132.220876 
L 201.46728 -131.86067 
L 200.8703 -131.501544 
L 200.27332 -131.1435 
L 199.676339 -130.78654 
L 199.079359 -130.370183 
L 198.482379 -129.955317 
L 197.885399 -129.541944 
L 197.288418 -129.130069 
L 196.691438 -128.719693 
L 196.094458 -128.31082 
L 195.497478 -127.903453 
L 194.900498 -127.497593 
L 194.303517 -127.093245 
L 193.706537 -126.690409 
L 193.109557 -126.289088 
L 192.512577 -125.889285 
L 191.915596 -125.491002 
L 191.318616 -125.094241 
L 190.721636 -124.699003 
L 190.124656 -124.305291 
L 189.527676 -123.913107 
L 188.930695 -123.522451 
L 188.333715 -123.133326 
L 187.736735 -122.745732 
L 187.139755 -122.359672 
L 186.542774 -121.975147 
L 185.945794 -121.592157 
L 185.348814 -121.210705 
L 184.751834 -120.83079 
L 184.154854 -120.383945 
L 183.557873 -119.939248 
L 182.960893 -119.496702 
L 182.363913 -119.056306 
L 181.766933 -118.618063 
L 181.169952 -118.181973 
L 180.572972 -117.748035 
L 179.975992 -117.316251 
L 179.379012 -116.886621 
L 178.782032 -116.459144 
L 178.185051 -116.033821 
L 177.588071 -115.610651 
L 176.991091 -115.189633 
L 176.394111 -114.770768 
L 175.79713 -114.354053 
L 175.20015 -113.939489 
L 174.60317 -113.527074 
L 174.00619 -113.116807 
L 173.40921 -112.708686 
L 172.812229 -112.30271 
L 172.215249 -111.898877 
L 171.618269 -111.497186 
L 171.021289 -111.097634 
L 170.424308 -110.70022 
L 169.827328 -110.30494 
L 169.230348 -109.911793 
L 168.633368 -109.460677 
L 168.036388 -109.012394 
L 167.439407 -108.56694 
L 166.842427 -108.124311 
L 166.245447 -107.684502 
L 165.648467 -107.247508 
L 165.051486 -106.813323 
L 164.454506 -106.381943 
L 163.857526 -105.953361 
L 163.260546 -105.527571 
L 162.663566 -105.104569 
L 162.066585 -104.684346 
L 161.469605 -104.266898 
L 160.872625 -103.852217 
L 160.275645 -103.440297 
L 159.678664 -103.03113 
L 159.081684 -102.624709 
L 158.484704 -102.221027 
L 157.887724 -101.820077 
L 157.290744 -101.42185 
L 156.693763 -101.026339 
L 156.096783 -100.633536 
L 155.499803 -100.243432 
L 154.902823 -99.856019 
L 154.305842 -99.47129 
L 153.708862 -99.052755 
L 153.111882 -98.637419 
L 152.514902 -98.225271 
L 151.917922 -97.816299 
L 151.320941 -97.410491 
L 150.723961 -97.007834 
L 150.126981 -96.608315 
L 149.530001 -96.211922 
L 148.93302 -95.818642 
L 148.33604 -95.428462 
L 147.73906 -95.041368 
L 147.14208 -94.657347 
L 146.5451 -94.276386 
L 145.948119 -93.89847 
L 145.351139 -93.523587 
L 144.754159 -93.151721 
L 144.157179 -92.782859 
L 143.560198 -92.416986 
L 142.963218 -92.054088 
L 142.366238 -91.694151 
L 141.769258 -91.33716 
L 141.172278 -90.983099 
L 140.575297 -90.631955 
L 139.978317 -90.283712 
L 139.381337 -89.938354 
L 138.784357 -89.595868 
L 138.187376 -89.251674 
L 137.590396 -88.910397 
L 136.993416 -88.57202 
L 136.396436 -88.236529 
L 135.799456 -87.903907 
L 135.202475 -87.574137 
L 134.605495 -87.247204 
L 134.008515 -86.923089 
L 133.411535 -86.601778 
L 132.814554 -86.283254 
L 132.217574 -85.967499 
L 131.620594 -85.654498 
L 131.023614 -85.344233 
L 130.426634 -85.036688 
L 129.829653 -84.731845 
L 129.232673 -84.429689 
L 128.635693 -84.130202 
L 128.038713 -83.833367 
L 127.441732 -83.539167 
L 126.844752 -83.247586 
L 126.247772 -82.958606 
L 125.650792 -82.67221 
L 125.053812 -82.388381 
L 124.456831 -82.107103 
L 123.859851 -81.828358 
L 123.262871 -81.551819 
L 122.665891 -81.277785 
L 122.06891 -81.006238 
L 121.47193 -80.737161 
L 120.87495 -80.470539 
L 120.27797 -80.206352 
L 119.68099 -79.944585 
L 119.084009 -79.68522 
L 118.487029 -79.42824 
L 117.890049 -79.173628 
L 117.293069 -78.921367 
L 116.696088 -78.671441 
L 116.099108 -78.423831 
L 115.502128 -78.178522 
L 114.905148 -77.935497 
L 114.308168 -77.694737 
L 113.711187 -77.456228 
L 113.114207 -77.219951 
L 112.517227 -76.98589 
L 111.920247 -76.754029 
L 111.323266 -76.52435 
L 110.726286 -76.296838 
L 110.129306 -76.071475 
L 109.532326 -75.848245 
L 108.935346 -75.627131 
L 108.338365 -75.408118 
L 107.741385 -75.191188 
L 107.144405 -74.976325 
L 106.547425 -74.763514 
L 105.950444 -74.552737 
L 105.353464 -74.343979 
L 104.756484 -74.137224 
L 104.159504 -73.932455 
L 103.562524 -73.729657 
L 102.965543 -73.528813 
L 102.368563 -73.329909 
L 101.771583 -73.132927 
L 101.174603 -72.937853 
L 100.577622 -72.74467 
L 99.980642 -72.553364 
L 99.383662 -72.363918 
L 98.786682 -72.176317 
L 98.189702 -71.990546 
L 97.592721 -71.80659 
L 96.995741 -71.624433 
L 96.398761 -71.44406 
L 95.801781 -71.265456 
L 95.2048 -71.088607 
L 94.60782 -70.913496 
L 94.01084 -70.74011 
L 93.41386 -70.568434 
L 92.81688 -70.398453 
L 92.219899 -70.230152 
L 91.622919 -70.063517 
L 91.025939 -69.898534 
L 90.428959 -69.735188 
L 89.831978 -69.573464 
L 89.234998 -69.413349 
L 88.638018 -69.254829 
L 88.041038 -69.09789 
L 87.444058 -68.942517 
L 86.847077 -68.788696 
L 86.250097 -68.636415 
L 85.653117 -68.485659 
L 85.056137 -68.336415 
L 84.459156 -68.18867 
L 83.862176 -68.042409 
L 83.265196 -67.897619 
L 82.668216 -67.754288 
L 82.071236 -67.612402 
L 81.474255 -67.471948 
L 80.877275 -67.332913 
L 80.280295 -67.195284 
L 79.683315 -67.059048 
L 79.086334 -66.924193 
L 78.489354 -66.790706 
L 77.892374 -66.658574 
z
" id="m3d33c0806d" style="stroke:#0072b2;stroke-opacity:0.2;"/>
    </defs>
    <g clip-path="url(#p7e38389bd2)">
     <use style="fill:#0072b2;fill-opacity:0.2;stroke:#0072b2;stroke-opacity:0.2;" x="0" xlink:href="#m3d33c0806d" y="373.491875"/>
    </g>
   </g>
   <g id="matplotlib.axis_1">
    <g id="xtick_1">
     <g id="line2d_1">
      <path clip-path="url(#p7e38389bd2)" d="M 77.892374 334 
L 77.892374 7.2 
" style="fill:none;stroke:#808080;stroke-linecap:square;stroke-opacity:0.2;"/>
     </g>
     <g id="line2d_2">
      <defs>
       <path d="M 0 0 
L 0 3.5 
" id="m7e44eb0b0a" style="stroke:#000000;stroke-width:0.8;"/>
      </defs>
      <g>
       <use style="stroke:#000000;stroke-width:0.8;" x="77.892374" xlink:href="#m7e44eb0b0a" y="334"/>
      </g>
     </g>
     <g id="text_1">
      <!-- 2017-05 -->
      <defs>
       <path d="M 19.1875 8.296875 
L 53.609375 8.296875 
L 53.609375 0 
L 7.328125 0 
L 7.328125 8.296875 
Q 12.9375 14.109375 22.625 23.890625 
Q 32.328125 33.6875 34.8125 36.53125 
Q 39.546875 41.84375 41.421875 45.53125 
Q 43.3125 49.21875 43.3125 52.78125 
Q 43.3125 58.59375 39.234375 62.25 
Q 35.15625 65.921875 28.609375 65.921875 
Q 23.96875 65.921875 18.8125 64.3125 
Q 13.671875 62.703125 7.8125 59.421875 
L 7.8125 69.390625 
Q 13.765625 71.78125 18.9375 73 
Q 24.125 74.21875 28.421875 74.21875 
Q 39.75 74.21875 46.484375 68.546875 
Q 53.21875 62.890625 53.21875 53.421875 
Q 53.21875 48.921875 51.53125 44.890625 
Q 49.859375 40.875 45.40625 35.40625 
Q 44.1875 33.984375 37.640625 27.21875 
Q 31.109375 20.453125 19.1875 8.296875 
z
" id="DejaVuSans-50"/>
       <path d="M 31.78125 66.40625 
Q 24.171875 66.40625 20.328125 58.90625 
Q 16.5 51.421875 16.5 36.375 
Q 16.5 21.390625 20.328125 13.890625 
Q 24.171875 6.390625 31.78125 6.390625 
Q 39.453125 6.390625 43.28125 13.890625 
Q 47.125 21.390625 47.125 36.375 
Q 47.125 51.421875 43.28125 58.90625 
Q 39.453125 66.40625 31.78125 66.40625 
z
M 31.78125 74.21875 
Q 44.046875 74.21875 50.515625 64.515625 
Q 56.984375 54.828125 56.984375 36.375 
Q 56.984375 17.96875 50.515625 8.265625 
Q 44.046875 -1.421875 31.78125 -1.421875 
Q 19.53125 -1.421875 13.0625 8.265625 
Q 6.59375 17.96875 6.59375 36.375 
Q 6.59375 54.828125 13.0625 64.515625 
Q 19.53125 74.21875 31.78125 74.21875 
z
" id="DejaVuSans-48"/>
       <path d="M 12.40625 8.296875 
L 28.515625 8.296875 
L 28.515625 63.921875 
L 10.984375 60.40625 
L 10.984375 69.390625 
L 28.421875 72.90625 
L 38.28125 72.90625 
L 38.28125 8.296875 
L 54.390625 8.296875 
L 54.390625 0 
L 12.40625 0 
z
" id="DejaVuSans-49"/>
       <path d="M 8.203125 72.90625 
L 55.078125 72.90625 
L 55.078125 68.703125 
L 28.609375 0 
L 18.3125 0 
L 43.21875 64.59375 
L 8.203125 64.59375 
z
" id="DejaVuSans-55"/>
       <path d="M 4.890625 31.390625 
L 31.203125 31.390625 
L 31.203125 23.390625 
L 4.890625 23.390625 
z
" id="DejaVuSans-45"/>
       <path d="M 10.796875 72.90625 
L 49.515625 72.90625 
L 49.515625 64.59375 
L 19.828125 64.59375 
L 19.828125 46.734375 
Q 21.96875 47.46875 24.109375 47.828125 
Q 26.265625 48.1875 28.421875 48.1875 
Q 40.625 48.1875 47.75 41.5 
Q 54.890625 34.8125 54.890625 23.390625 
Q 54.890625 11.625 47.5625 5.09375 
Q 40.234375 -1.421875 26.90625 -1.421875 
Q 22.3125 -1.421875 17.546875 -0.640625 
Q 12.796875 0.140625 7.71875 1.703125 
L 7.71875 11.625 
Q 12.109375 9.234375 16.796875 8.0625 
Q 21.484375 6.890625 26.703125 6.890625 
Q 35.15625 6.890625 40.078125 11.328125 
Q 45.015625 15.765625 45.015625 23.390625 
Q 45.015625 31 40.078125 35.4375 
Q 35.15625 39.890625 26.703125 39.890625 
Q 22.75 39.890625 18.8125 39.015625 
Q 14.890625 38.140625 10.796875 36.28125 
z
" id="DejaVuSans-53"/>
      </defs>
      <g style="fill:#ea9808;" transform="translate(52.822686 350.118125)scale(0.12 -0.12)">
       <use xlink:href="#DejaVuSans-50"/>
       <use x="63.623047" xlink:href="#DejaVuSans-48"/>
       <use x="127.246094" xlink:href="#DejaVuSans-49"/>
       <use x="190.869141" xlink:href="#DejaVuSans-55"/>
       <use x="254.492188" xlink:href="#DejaVuSans-45"/>
       <use x="290.576172" xlink:href="#DejaVuSans-48"/>
       <use x="354.199219" xlink:href="#DejaVuSans-53"/>
      </g>
     </g>
    </g>
    <g id="xtick_2">
     <g id="line2d_3">
      <path clip-path="url(#p7e38389bd2)" d="M 151.320941 334 
L 151.320941 7.2 
" style="fill:none;stroke:#808080;stroke-linecap:square;stroke-opacity:0.2;"/>
     </g>
     <g id="line2d_4">
      <g>
       <use style="stroke:#000000;stroke-width:0.8;" x="151.320941" xlink:href="#m7e44eb0b0a" y="334"/>
      </g>
     </g>
     <g id="text_2">
      <!-- 2017-09 -->
      <defs>
       <path d="M 10.984375 1.515625 
L 10.984375 10.5 
Q 14.703125 8.734375 18.5 7.8125 
Q 22.3125 6.890625 25.984375 6.890625 
Q 35.75 6.890625 40.890625 13.453125 
Q 46.046875 20.015625 46.78125 33.40625 
Q 43.953125 29.203125 39.59375 26.953125 
Q 35.25 24.703125 29.984375 24.703125 
Q 19.046875 24.703125 12.671875 31.3125 
Q 6.296875 37.9375 6.296875 49.421875 
Q 6.296875 60.640625 12.9375 67.421875 
Q 19.578125 74.21875 30.609375 74.21875 
Q 43.265625 74.21875 49.921875 64.515625 
Q 56.59375 54.828125 56.59375 36.375 
Q 56.59375 19.140625 48.40625 8.859375 
Q 40.234375 -1.421875 26.421875 -1.421875 
Q 22.703125 -1.421875 18.890625 -0.6875 
Q 15.09375 0.046875 10.984375 1.515625 
z
M 30.609375 32.421875 
Q 37.25 32.421875 41.125 36.953125 
Q 45.015625 41.5 45.015625 49.421875 
Q 45.015625 57.28125 41.125 61.84375 
Q 37.25 66.40625 30.609375 66.40625 
Q 23.96875 66.40625 20.09375 61.84375 
Q 16.21875 57.28125 16.21875 49.421875 
Q 16.21875 41.5 20.09375 36.953125 
Q 23.96875 32.421875 30.609375 32.421875 
z
" id="DejaVuSans-57"/>
      </defs>
      <g style="fill:#ea9808;" transform="translate(126.251254 350.118125)scale(0.12 -0.12)">
       <use xlink:href="#DejaVuSans-50"/>
       <use x="63.623047" xlink:href="#DejaVuSans-48"/>
       <use x="127.246094" xlink:href="#DejaVuSans-49"/>
       <use x="190.869141" xlink:href="#DejaVuSans-55"/>
       <use x="254.492188" xlink:href="#DejaVuSans-45"/>
       <use x="290.576172" xlink:href="#DejaVuSans-48"/>
       <use x="354.199219" xlink:href="#DejaVuSans-57"/>
      </g>
     </g>
    </g>
    <g id="xtick_3">
     <g id="line2d_5">
      <path clip-path="url(#p7e38389bd2)" d="M 224.152528 334 
L 224.152528 7.2 
" style="fill:none;stroke:#808080;stroke-linecap:square;stroke-opacity:0.2;"/>
     </g>
     <g id="line2d_6">
      <g>
       <use style="stroke:#000000;stroke-width:0.8;" x="224.152528" xlink:href="#m7e44eb0b0a" y="334"/>
      </g>
     </g>
     <g id="text_3">
      <!-- 2018-01 -->
      <defs>
       <path d="M 31.78125 34.625 
Q 24.75 34.625 20.71875 30.859375 
Q 16.703125 27.09375 16.703125 20.515625 
Q 16.703125 13.921875 20.71875 10.15625 
Q 24.75 6.390625 31.78125 6.390625 
Q 38.8125 6.390625 42.859375 10.171875 
Q 46.921875 13.96875 46.921875 20.515625 
Q 46.921875 27.09375 42.890625 30.859375 
Q 38.875 34.625 31.78125 34.625 
z
M 21.921875 38.8125 
Q 15.578125 40.375 12.03125 44.71875 
Q 8.5 49.078125 8.5 55.328125 
Q 8.5 64.0625 14.71875 69.140625 
Q 20.953125 74.21875 31.78125 74.21875 
Q 42.671875 74.21875 48.875 69.140625 
Q 55.078125 64.0625 55.078125 55.328125 
Q 55.078125 49.078125 51.53125 44.71875 
Q 48 40.375 41.703125 38.8125 
Q 48.828125 37.15625 52.796875 32.3125 
Q 56.78125 27.484375 56.78125 20.515625 
Q 56.78125 9.90625 50.3125 4.234375 
Q 43.84375 -1.421875 31.78125 -1.421875 
Q 19.734375 -1.421875 13.25 4.234375 
Q 6.78125 9.90625 6.78125 20.515625 
Q 6.78125 27.484375 10.78125 32.3125 
Q 14.796875 37.15625 21.921875 38.8125 
z
M 18.3125 54.390625 
Q 18.3125 48.734375 21.84375 45.5625 
Q 25.390625 42.390625 31.78125 42.390625 
Q 38.140625 42.390625 41.71875 45.5625 
Q 45.3125 48.734375 45.3125 54.390625 
Q 45.3125 60.0625 41.71875 63.234375 
Q 38.140625 66.40625 31.78125 66.40625 
Q 25.390625 66.40625 21.84375 63.234375 
Q 18.3125 60.0625 18.3125 54.390625 
z
" id="DejaVuSans-56"/>
      </defs>
      <g style="fill:#ea9808;" transform="translate(199.082841 350.118125)scale(0.12 -0.12)">
       <use xlink:href="#DejaVuSans-50"/>
       <use x="63.623047" xlink:href="#DejaVuSans-48"/>
       <use x="127.246094" xlink:href="#DejaVuSans-49"/>
       <use x="190.869141" xlink:href="#DejaVuSans-56"/>
       <use x="254.492188" xlink:href="#DejaVuSans-45"/>
       <use x="290.576172" xlink:href="#DejaVuSans-48"/>
       <use x="354.199219" xlink:href="#DejaVuSans-49"/>
      </g>
     </g>
    </g>
    <g id="xtick_4">
     <g id="line2d_7">
      <path clip-path="url(#p7e38389bd2)" d="M 295.790155 334 
L 295.790155 7.2 
" style="fill:none;stroke:#808080;stroke-linecap:square;stroke-opacity:0.2;"/>
     </g>
     <g id="line2d_8">
      <g>
       <use style="stroke:#000000;stroke-width:0.8;" x="295.790155" xlink:href="#m7e44eb0b0a" y="334"/>
      </g>
     </g>
     <g id="text_4">
      <!-- 2018-05 -->
      <g style="fill:#ea9808;" transform="translate(270.720468 350.118125)scale(0.12 -0.12)">
       <use xlink:href="#DejaVuSans-50"/>
       <use x="63.623047" xlink:href="#DejaVuSans-48"/>
       <use x="127.246094" xlink:href="#DejaVuSans-49"/>
       <use x="190.869141" xlink:href="#DejaVuSans-56"/>
       <use x="254.492188" xlink:href="#DejaVuSans-45"/>
       <use x="290.576172" xlink:href="#DejaVuSans-48"/>
       <use x="354.199219" xlink:href="#DejaVuSans-53"/>
      </g>
     </g>
    </g>
    <g id="xtick_5">
     <g id="line2d_9">
      <path clip-path="url(#p7e38389bd2)" d="M 369.218723 334 
L 369.218723 7.2 
" style="fill:none;stroke:#808080;stroke-linecap:square;stroke-opacity:0.2;"/>
     </g>
     <g id="line2d_10">
      <g>
       <use style="stroke:#000000;stroke-width:0.8;" x="369.218723" xlink:href="#m7e44eb0b0a" y="334"/>
      </g>
     </g>
     <g id="text_5">
      <!-- 2018-09 -->
      <g style="fill:#ea9808;" transform="translate(344.149035 350.118125)scale(0.12 -0.12)">
       <use xlink:href="#DejaVuSans-50"/>
       <use x="63.623047" xlink:href="#DejaVuSans-48"/>
       <use x="127.246094" xlink:href="#DejaVuSans-49"/>
       <use x="190.869141" xlink:href="#DejaVuSans-56"/>
       <use x="254.492188" xlink:href="#DejaVuSans-45"/>
       <use x="290.576172" xlink:href="#DejaVuSans-48"/>
       <use x="354.199219" xlink:href="#DejaVuSans-57"/>
      </g>
     </g>
    </g>
    <g id="xtick_6">
     <g id="line2d_11">
      <path clip-path="url(#p7e38389bd2)" d="M 442.05031 334 
L 442.05031 7.2 
" style="fill:none;stroke:#808080;stroke-linecap:square;stroke-opacity:0.2;"/>
     </g>
     <g id="line2d_12">
      <g>
       <use style="stroke:#000000;stroke-width:0.8;" x="442.05031" xlink:href="#m7e44eb0b0a" y="334"/>
      </g>
     </g>
     <g id="text_6">
      <!-- 2019-01 -->
      <g style="fill:#ea9808;" transform="translate(416.980622 350.118125)scale(0.12 -0.12)">
       <use xlink:href="#DejaVuSans-50"/>
       <use x="63.623047" xlink:href="#DejaVuSans-48"/>
       <use x="127.246094" xlink:href="#DejaVuSans-49"/>
       <use x="190.869141" xlink:href="#DejaVuSans-57"/>
       <use x="254.492188" xlink:href="#DejaVuSans-45"/>
       <use x="290.576172" xlink:href="#DejaVuSans-48"/>
       <use x="354.199219" xlink:href="#DejaVuSans-49"/>
      </g>
     </g>
    </g>
    <g id="xtick_7">
     <g id="line2d_13">
      <path clip-path="url(#p7e38389bd2)" d="M 513.687936 334 
L 513.687936 7.2 
" style="fill:none;stroke:#808080;stroke-linecap:square;stroke-opacity:0.2;"/>
     </g>
     <g id="line2d_14">
      <g>
       <use style="stroke:#000000;stroke-width:0.8;" x="513.687936" xlink:href="#m7e44eb0b0a" y="334"/>
      </g>
     </g>
     <g id="text_7">
      <!-- 2019-05 -->
      <g style="fill:#ea9808;" transform="translate(488.618249 350.118125)scale(0.12 -0.12)">
       <use xlink:href="#DejaVuSans-50"/>
       <use x="63.623047" xlink:href="#DejaVuSans-48"/>
       <use x="127.246094" xlink:href="#DejaVuSans-49"/>
       <use x="190.869141" xlink:href="#DejaVuSans-57"/>
       <use x="254.492188" xlink:href="#DejaVuSans-45"/>
       <use x="290.576172" xlink:href="#DejaVuSans-48"/>
       <use x="354.199219" xlink:href="#DejaVuSans-53"/>
      </g>
     </g>
    </g>
    <g id="xtick_8">
     <g id="line2d_15">
      <path clip-path="url(#p7e38389bd2)" d="M 587.116504 334 
L 587.116504 7.2 
" style="fill:none;stroke:#808080;stroke-linecap:square;stroke-opacity:0.2;"/>
     </g>
     <g id="line2d_16">
      <g>
       <use style="stroke:#000000;stroke-width:0.8;" x="587.116504" xlink:href="#m7e44eb0b0a" y="334"/>
      </g>
     </g>
     <g id="text_8">
      <!-- 2019-09 -->
      <g style="fill:#ea9808;" transform="translate(562.046816 350.118125)scale(0.12 -0.12)">
       <use xlink:href="#DejaVuSans-50"/>
       <use x="63.623047" xlink:href="#DejaVuSans-48"/>
       <use x="127.246094" xlink:href="#DejaVuSans-49"/>
       <use x="190.869141" xlink:href="#DejaVuSans-57"/>
       <use x="254.492188" xlink:href="#DejaVuSans-45"/>
       <use x="290.576172" xlink:href="#DejaVuSans-48"/>
       <use x="354.199219" xlink:href="#DejaVuSans-57"/>
      </g>
     </g>
    </g>
    <g id="xtick_9">
     <g id="line2d_17">
      <path clip-path="url(#p7e38389bd2)" d="M 659.948091 334 
L 659.948091 7.2 
" style="fill:none;stroke:#808080;stroke-linecap:square;stroke-opacity:0.2;"/>
     </g>
     <g id="line2d_18">
      <g>
       <use style="stroke:#000000;stroke-width:0.8;" x="659.948091" xlink:href="#m7e44eb0b0a" y="334"/>
      </g>
     </g>
     <g id="text_9">
      <!-- 2020-01 -->
      <g style="fill:#ea9808;" transform="translate(634.878404 350.118125)scale(0.12 -0.12)">
       <use xlink:href="#DejaVuSans-50"/>
       <use x="63.623047" xlink:href="#DejaVuSans-48"/>
       <use x="127.246094" xlink:href="#DejaVuSans-50"/>
       <use x="190.869141" xlink:href="#DejaVuSans-48"/>
       <use x="254.492188" xlink:href="#DejaVuSans-45"/>
       <use x="290.576172" xlink:href="#DejaVuSans-48"/>
       <use x="354.199219" xlink:href="#DejaVuSans-49"/>
      </g>
     </g>
    </g>
    <g id="xtick_10">
     <g id="line2d_19">
      <path clip-path="url(#p7e38389bd2)" d="M 732.182698 334 
L 732.182698 7.2 
" style="fill:none;stroke:#808080;stroke-linecap:square;stroke-opacity:0.2;"/>
     </g>
     <g id="line2d_20">
      <g>
       <use style="stroke:#000000;stroke-width:0.8;" x="732.182698" xlink:href="#m7e44eb0b0a" y="334"/>
      </g>
     </g>
     <g id="text_10">
      <!-- 2020-05 -->
      <g style="fill:#ea9808;" transform="translate(707.11301 350.118125)scale(0.12 -0.12)">
       <use xlink:href="#DejaVuSans-50"/>
       <use x="63.623047" xlink:href="#DejaVuSans-48"/>
       <use x="127.246094" xlink:href="#DejaVuSans-50"/>
       <use x="190.869141" xlink:href="#DejaVuSans-48"/>
       <use x="254.492188" xlink:href="#DejaVuSans-45"/>
       <use x="290.576172" xlink:href="#DejaVuSans-48"/>
       <use x="354.199219" xlink:href="#DejaVuSans-53"/>
      </g>
     </g>
    </g>
    <g id="xtick_11">
     <g id="line2d_21">
      <path clip-path="url(#p7e38389bd2)" d="M 805.611265 334 
L 805.611265 7.2 
" style="fill:none;stroke:#808080;stroke-linecap:square;stroke-opacity:0.2;"/>
     </g>
     <g id="line2d_22">
      <g>
       <use style="stroke:#000000;stroke-width:0.8;" x="805.611265" xlink:href="#m7e44eb0b0a" y="334"/>
      </g>
     </g>
     <g id="text_11">
      <!-- 2020-09 -->
      <g style="fill:#ea9808;" transform="translate(780.541578 350.118125)scale(0.12 -0.12)">
       <use xlink:href="#DejaVuSans-50"/>
       <use x="63.623047" xlink:href="#DejaVuSans-48"/>
       <use x="127.246094" xlink:href="#DejaVuSans-50"/>
       <use x="190.869141" xlink:href="#DejaVuSans-48"/>
       <use x="254.492188" xlink:href="#DejaVuSans-45"/>
       <use x="290.576172" xlink:href="#DejaVuSans-48"/>
       <use x="354.199219" xlink:href="#DejaVuSans-57"/>
      </g>
     </g>
    </g>
    <g id="text_12">
     <!-- ds -->
     <defs>
      <path d="M 45.40625 46.390625 
L 45.40625 75.984375 
L 54.390625 75.984375 
L 54.390625 0 
L 45.40625 0 
L 45.40625 8.203125 
Q 42.578125 3.328125 38.25 0.953125 
Q 33.9375 -1.421875 27.875 -1.421875 
Q 17.96875 -1.421875 11.734375 6.484375 
Q 5.515625 14.40625 5.515625 27.296875 
Q 5.515625 40.1875 11.734375 48.09375 
Q 17.96875 56 27.875 56 
Q 33.9375 56 38.25 53.625 
Q 42.578125 51.265625 45.40625 46.390625 
z
M 14.796875 27.296875 
Q 14.796875 17.390625 18.875 11.75 
Q 22.953125 6.109375 30.078125 6.109375 
Q 37.203125 6.109375 41.296875 11.75 
Q 45.40625 17.390625 45.40625 27.296875 
Q 45.40625 37.203125 41.296875 42.84375 
Q 37.203125 48.484375 30.078125 48.484375 
Q 22.953125 48.484375 18.875 42.84375 
Q 14.796875 37.203125 14.796875 27.296875 
z
" id="DejaVuSans-100"/>
      <path d="M 44.28125 53.078125 
L 44.28125 44.578125 
Q 40.484375 46.53125 36.375 47.5 
Q 32.28125 48.484375 27.875 48.484375 
Q 21.1875 48.484375 17.84375 46.4375 
Q 14.5 44.390625 14.5 40.28125 
Q 14.5 37.15625 16.890625 35.375 
Q 19.28125 33.59375 26.515625 31.984375 
L 29.59375 31.296875 
Q 39.15625 29.25 43.1875 25.515625 
Q 47.21875 21.78125 47.21875 15.09375 
Q 47.21875 7.46875 41.1875 3.015625 
Q 35.15625 -1.421875 24.609375 -1.421875 
Q 20.21875 -1.421875 15.453125 -0.5625 
Q 10.6875 0.296875 5.421875 2 
L 5.421875 11.28125 
Q 10.40625 8.6875 15.234375 7.390625 
Q 20.0625 6.109375 24.8125 6.109375 
Q 31.15625 6.109375 34.5625 8.28125 
Q 37.984375 10.453125 37.984375 14.40625 
Q 37.984375 18.0625 35.515625 20.015625 
Q 33.0625 21.96875 24.703125 23.78125 
L 21.578125 24.515625 
Q 13.234375 26.265625 9.515625 29.90625 
Q 5.8125 33.546875 5.8125 39.890625 
Q 5.8125 47.609375 11.28125 51.796875 
Q 16.75 56 26.8125 56 
Q 31.78125 56 36.171875 55.265625 
Q 40.578125 54.546875 44.28125 53.078125 
z
" id="DejaVuSans-115"/>
     </defs>
     <g style="fill:#ffffff;" transform="translate(419.555957 364.212187)scale(0.1 -0.1)">
      <use xlink:href="#DejaVuSans-100"/>
      <use x="63.476562" xlink:href="#DejaVuSans-115"/>
     </g>
    </g>
   </g>
   <g id="matplotlib.axis_2">
    <g id="ytick_1">
     <g id="line2d_23">
      <path clip-path="url(#p7e38389bd2)" d="M 43.148125 325.208534 
L 807.521602 325.208534 
" style="fill:none;stroke:#808080;stroke-linecap:square;stroke-opacity:0.2;"/>
     </g>
     <g id="line2d_24">
      <defs>
       <path d="M 0 0 
L -3.5 0 
" id="mcb1ddcc183" style="stroke:#000000;stroke-width:0.8;"/>
      </defs>
      <g>
       <use style="stroke:#000000;stroke-width:0.8;" x="43.148125" xlink:href="#mcb1ddcc183" y="325.208534"/>
      </g>
     </g>
     <g id="text_13">
      <!-- 0 -->
      <g style="fill:#ea9808;" transform="translate(28.513125 329.767597)scale(0.12 -0.12)">
       <use xlink:href="#DejaVuSans-48"/>
      </g>
     </g>
    </g>
    <g id="ytick_2">
     <g id="line2d_25">
      <path clip-path="url(#p7e38389bd2)" d="M 43.148125 264.577737 
L 807.521602 264.577737 
" style="fill:none;stroke:#808080;stroke-linecap:square;stroke-opacity:0.2;"/>
     </g>
     <g id="line2d_26">
      <g>
       <use style="stroke:#000000;stroke-width:0.8;" x="43.148125" xlink:href="#mcb1ddcc183" y="264.577737"/>
      </g>
     </g>
     <g id="text_14">
      <!-- 10 -->
      <g style="fill:#ea9808;" transform="translate(20.878125 269.136799)scale(0.12 -0.12)">
       <use xlink:href="#DejaVuSans-49"/>
       <use x="63.623047" xlink:href="#DejaVuSans-48"/>
      </g>
     </g>
    </g>
    <g id="ytick_3">
     <g id="line2d_27">
      <path clip-path="url(#p7e38389bd2)" d="M 43.148125 203.946939 
L 807.521602 203.946939 
" style="fill:none;stroke:#808080;stroke-linecap:square;stroke-opacity:0.2;"/>
     </g>
     <g id="line2d_28">
      <g>
       <use style="stroke:#000000;stroke-width:0.8;" x="43.148125" xlink:href="#mcb1ddcc183" y="203.946939"/>
      </g>
     </g>
     <g id="text_15">
      <!-- 20 -->
      <g style="fill:#ea9808;" transform="translate(20.878125 208.506001)scale(0.12 -0.12)">
       <use xlink:href="#DejaVuSans-50"/>
       <use x="63.623047" xlink:href="#DejaVuSans-48"/>
      </g>
     </g>
    </g>
    <g id="ytick_4">
     <g id="line2d_29">
      <path clip-path="url(#p7e38389bd2)" d="M 43.148125 143.316141 
L 807.521602 143.316141 
" style="fill:none;stroke:#808080;stroke-linecap:square;stroke-opacity:0.2;"/>
     </g>
     <g id="line2d_30">
      <g>
       <use style="stroke:#000000;stroke-width:0.8;" x="43.148125" xlink:href="#mcb1ddcc183" y="143.316141"/>
      </g>
     </g>
     <g id="text_16">
      <!-- 30 -->
      <defs>
       <path d="M 40.578125 39.3125 
Q 47.65625 37.796875 51.625 33 
Q 55.609375 28.21875 55.609375 21.1875 
Q 55.609375 10.40625 48.1875 4.484375 
Q 40.765625 -1.421875 27.09375 -1.421875 
Q 22.515625 -1.421875 17.65625 -0.515625 
Q 12.796875 0.390625 7.625 2.203125 
L 7.625 11.71875 
Q 11.71875 9.328125 16.59375 8.109375 
Q 21.484375 6.890625 26.8125 6.890625 
Q 36.078125 6.890625 40.9375 10.546875 
Q 45.796875 14.203125 45.796875 21.1875 
Q 45.796875 27.640625 41.28125 31.265625 
Q 36.765625 34.90625 28.71875 34.90625 
L 20.21875 34.90625 
L 20.21875 43.015625 
L 29.109375 43.015625 
Q 36.375 43.015625 40.234375 45.921875 
Q 44.09375 48.828125 44.09375 54.296875 
Q 44.09375 59.90625 40.109375 62.90625 
Q 36.140625 65.921875 28.71875 65.921875 
Q 24.65625 65.921875 20.015625 65.03125 
Q 15.375 64.15625 9.8125 62.3125 
L 9.8125 71.09375 
Q 15.4375 72.65625 20.34375 73.4375 
Q 25.25 74.21875 29.59375 74.21875 
Q 40.828125 74.21875 47.359375 69.109375 
Q 53.90625 64.015625 53.90625 55.328125 
Q 53.90625 49.265625 50.4375 45.09375 
Q 46.96875 40.921875 40.578125 39.3125 
z
" id="DejaVuSans-51"/>
      </defs>
      <g style="fill:#ea9808;" transform="translate(20.878125 147.875204)scale(0.12 -0.12)">
       <use xlink:href="#DejaVuSans-51"/>
       <use x="63.623047" xlink:href="#DejaVuSans-48"/>
      </g>
     </g>
    </g>
    <g id="ytick_5">
     <g id="line2d_31">
      <path clip-path="url(#p7e38389bd2)" d="M 43.148125 82.685343 
L 807.521602 82.685343 
" style="fill:none;stroke:#808080;stroke-linecap:square;stroke-opacity:0.2;"/>
     </g>
     <g id="line2d_32">
      <g>
       <use style="stroke:#000000;stroke-width:0.8;" x="43.148125" xlink:href="#mcb1ddcc183" y="82.685343"/>
      </g>
     </g>
     <g id="text_17">
      <!-- 40 -->
      <defs>
       <path d="M 37.796875 64.3125 
L 12.890625 25.390625 
L 37.796875 25.390625 
z
M 35.203125 72.90625 
L 47.609375 72.90625 
L 47.609375 25.390625 
L 58.015625 25.390625 
L 58.015625 17.1875 
L 47.609375 17.1875 
L 47.609375 0 
L 37.796875 0 
L 37.796875 17.1875 
L 4.890625 17.1875 
L 4.890625 26.703125 
z
" id="DejaVuSans-52"/>
      </defs>
      <g style="fill:#ea9808;" transform="translate(20.878125 87.244406)scale(0.12 -0.12)">
       <use xlink:href="#DejaVuSans-52"/>
       <use x="63.623047" xlink:href="#DejaVuSans-48"/>
      </g>
     </g>
    </g>
    <g id="ytick_6">
     <g id="line2d_33">
      <path clip-path="url(#p7e38389bd2)" d="M 43.148125 22.054545 
L 807.521602 22.054545 
" style="fill:none;stroke:#808080;stroke-linecap:square;stroke-opacity:0.2;"/>
     </g>
     <g id="line2d_34">
      <g>
       <use style="stroke:#000000;stroke-width:0.8;" x="43.148125" xlink:href="#mcb1ddcc183" y="22.054545"/>
      </g>
     </g>
     <g id="text_18">
      <!-- 50 -->
      <g style="fill:#ea9808;" transform="translate(20.878125 26.613608)scale(0.12 -0.12)">
       <use xlink:href="#DejaVuSans-53"/>
       <use x="63.623047" xlink:href="#DejaVuSans-48"/>
      </g>
     </g>
    </g>
    <g id="text_19">
     <!-- trend -->
     <defs>
      <path d="M 18.3125 70.21875 
L 18.3125 54.6875 
L 36.8125 54.6875 
L 36.8125 47.703125 
L 18.3125 47.703125 
L 18.3125 18.015625 
Q 18.3125 11.328125 20.140625 9.421875 
Q 21.96875 7.515625 27.59375 7.515625 
L 36.8125 7.515625 
L 36.8125 0 
L 27.59375 0 
Q 17.1875 0 13.234375 3.875 
Q 9.28125 7.765625 9.28125 18.015625 
L 9.28125 47.703125 
L 2.6875 47.703125 
L 2.6875 54.6875 
L 9.28125 54.6875 
L 9.28125 70.21875 
z
" id="DejaVuSans-116"/>
      <path d="M 41.109375 46.296875 
Q 39.59375 47.171875 37.8125 47.578125 
Q 36.03125 48 33.890625 48 
Q 26.265625 48 22.1875 43.046875 
Q 18.109375 38.09375 18.109375 28.8125 
L 18.109375 0 
L 9.078125 0 
L 9.078125 54.6875 
L 18.109375 54.6875 
L 18.109375 46.1875 
Q 20.953125 51.171875 25.484375 53.578125 
Q 30.03125 56 36.53125 56 
Q 37.453125 56 38.578125 55.875 
Q 39.703125 55.765625 41.0625 55.515625 
z
" id="DejaVuSans-114"/>
      <path d="M 56.203125 29.59375 
L 56.203125 25.203125 
L 14.890625 25.203125 
Q 15.484375 15.921875 20.484375 11.0625 
Q 25.484375 6.203125 34.421875 6.203125 
Q 39.59375 6.203125 44.453125 7.46875 
Q 49.3125 8.734375 54.109375 11.28125 
L 54.109375 2.78125 
Q 49.265625 0.734375 44.1875 -0.34375 
Q 39.109375 -1.421875 33.890625 -1.421875 
Q 20.796875 -1.421875 13.15625 6.1875 
Q 5.515625 13.8125 5.515625 26.8125 
Q 5.515625 40.234375 12.765625 48.109375 
Q 20.015625 56 32.328125 56 
Q 43.359375 56 49.78125 48.890625 
Q 56.203125 41.796875 56.203125 29.59375 
z
M 47.21875 32.234375 
Q 47.125 39.59375 43.09375 43.984375 
Q 39.0625 48.390625 32.421875 48.390625 
Q 24.90625 48.390625 20.390625 44.140625 
Q 15.875 39.890625 15.1875 32.171875 
z
" id="DejaVuSans-101"/>
      <path d="M 54.890625 33.015625 
L 54.890625 0 
L 45.90625 0 
L 45.90625 32.71875 
Q 45.90625 40.484375 42.875 44.328125 
Q 39.84375 48.1875 33.796875 48.1875 
Q 26.515625 48.1875 22.3125 43.546875 
Q 18.109375 38.921875 18.109375 30.90625 
L 18.109375 0 
L 9.078125 0 
L 9.078125 54.6875 
L 18.109375 54.6875 
L 18.109375 46.1875 
Q 21.34375 51.125 25.703125 53.5625 
Q 30.078125 56 35.796875 56 
Q 45.21875 56 50.046875 50.171875 
Q 54.890625 44.34375 54.890625 33.015625 
z
" id="DejaVuSans-110"/>
     </defs>
     <g style="fill:#ffffff;" transform="translate(14.798437 184.033594)rotate(-90)scale(0.1 -0.1)">
      <use xlink:href="#DejaVuSans-116"/>
      <use x="39.208984" xlink:href="#DejaVuSans-114"/>
      <use x="80.291016" xlink:href="#DejaVuSans-101"/>
      <use x="141.814453" xlink:href="#DejaVuSans-110"/>
      <use x="205.193359" xlink:href="#DejaVuSans-100"/>
     </g>
    </g>
   </g>
   <g id="line2d_35">
    <path clip-path="url(#p7e38389bd2)" d="M 77.892374 306.833301 
L 85.653117 305.006216 
L 92.81688 303.093422 
L 99.980642 300.938511 
L 106.547425 298.728361 
L 113.114207 296.271924 
L 119.084009 293.806655 
L 125.053812 291.103494 
L 131.023614 288.147642 
L 136.993416 284.919855 
L 143.560198 281.074889 
L 148.93302 277.673233 
L 159.081684 270.867166 
L 165.051486 266.678552 
L 172.215249 261.592998 
L 178.782032 257.032731 
L 187.736735 250.746143 
L 195.497478 245.588422 
L 201.46728 241.631205 
L 211.018964 235.740015 
L 217.585746 231.706185 
L 228.33139 225.376704 
L 235.495153 221.188572 
L 248.031737 213.791079 
L 261.762283 205.424793 
L 276.686788 196.115042 
L 294.596195 184.671161 
L 325.639166 164.511367 
L 350.115355 148.736635 
L 366.830802 138.224538 
L 382.949268 128.363119 
L 395.485852 120.951978 
L 407.425457 114.14145 
L 416.97714 108.693915 
L 427.125804 102.79688 
L 430.110705 100.97606 
L 438.468428 95.47711 
L 445.035211 91.158792 
L 451.601993 86.239887 
L 458.168776 81.579697 
L 459.959716 80.258828 
L 465.332538 75.892169 
L 470.70536 71.784912 
L 476.078182 67.9319 
L 481.451004 64.326396 
L 487.420807 60.600759 
L 493.390609 57.158247 
L 499.360411 53.985211 
L 505.330213 51.067225 
L 511.300016 48.389416 
L 517.866798 45.703282 
L 524.43358 43.269663 
L 531.000363 41.069066 
L 538.164126 38.912049 
L 545.327888 36.986585 
L 553.088631 35.136488 
L 561.446354 33.389327 
L 569.804077 31.867447 
L 578.758781 30.456218 
L 588.310464 29.168345 
L 599.056108 27.949113 
L 610.398733 26.884332 
L 622.935317 25.926806 
L 637.262843 25.060278 
L 653.381309 24.313172 
L 671.887695 23.680164 
L 693.975964 23.151564 
L 721.437054 22.726778 
L 757.255867 22.409151 
L 772.777353 22.323266 
L 772.777353 22.323266 
" style="fill:none;stroke:#ffffff;stroke-linecap:square;stroke-width:1.5;"/>
   </g>
   <g id="line2d_36">
    <path clip-path="url(#p7e38389bd2)" d="M 77.892374 22.054545 
L 772.777353 22.054545 
L 772.777353 22.054545 
" style="fill:none;stroke:#000000;stroke-dasharray:5.55,2.4;stroke-dashoffset:0;stroke-width:1.5;"/>
   </g>
   <g id="line2d_37">
    <path clip-path="url(#p7e38389bd2)" d="M 77.892374 319.145455 
L 772.777353 319.145455 
L 772.777353 319.145455 
" style="fill:none;stroke:#000000;stroke-dasharray:5.55,2.4;stroke-dashoffset:0;stroke-width:1.5;"/>
   </g>
  </g>
 </g>
 <defs>
  <clipPath id="p7e38389bd2">
   <rect height="326.8" width="764.373477" x="43.148125" y="7.2"/>
  </clipPath>
 </defs>
</svg>