<?xml version="1.0" encoding="utf-8" standalone="no"?>
<!DOCTYPE svg PUBLIC "-//W3C//DTD SVG 1.1//EN"
  "http://www.w3.org/Graphics/SVG/1.1/DTD/svg11.dtd">
<!-- Created with matplotlib (https://matplotlib.org/) -->
<svg height="270.754844pt" version="1.1" viewBox="0 0 877.4875 270.754844" width="877.4875pt" xmlns="http://www.w3.org/2000/svg" xmlns:xlink="http://www.w3.org/1999/xlink">
 <defs>
  <style type="text/css">
*{stroke-linecap:butt;stroke-linejoin:round;}
  </style>
 </defs>
 <g id="figure_1">
  <g id="patch_1">
   <path d="M 0 270.754844 
L 877.4875 270.754844 
L 877.4875 0 
L 0 0 
z
" style="fill:#1d1e28;"/>
  </g>
  <g id="axes_1">
   <g id="matplotlib.axis_1">
    <g id="xtick_1">
     <g id="line2d_1">
      <defs>
       <path d="M 0 0 
L 0 3.5 
" id="m2f3283f7e4" style="stroke:#000000;stroke-width:0.8;"/>
      </defs>
      <g>
       <use style="stroke:#000000;stroke-width:0.8;" x="42.763151" xlink:href="#m2f3283f7e4" y="242.037656"/>
      </g>
     </g>
     <g id="text_1">
      <!-- 2017-04 -->
      <defs>
       <path d="M 19.1875 8.296875 
L 53.609375 8.296875 
L 53.609375 0 
L 7.328125 0 
L 7.328125 8.296875 
Q 12.9375 14.109375 22.625 23.890625 
Q 32.328125 33.6875 34.8125 36.53125 
Q 39.546875 41.84375 41.421875 45.53125 
Q 43.3125 49.21875 43.3125 52.78125 
Q 43.3125 58.59375 39.234375 62.25 
Q 35.15625 65.921875 28.609375 65.921875 
Q 23.96875 65.921875 18.8125 64.3125 
Q 13.671875 62.703125 7.8125 59.421875 
L 7.8125 69.390625 
Q 13.765625 71.78125 18.9375 73 
Q 24.125 74.21875 28.421875 74.21875 
Q 39.75 74.21875 46.484375 68.546875 
Q 53.21875 62.890625 53.21875 53.421875 
Q 53.21875 48.921875 51.53125 44.890625 
Q 49.859375 40.875 45.40625 35.40625 
Q 44.1875 33.984375 37.640625 27.21875 
Q 31.109375 20.453125 19.1875 8.296875 
z
" id="DejaVuSans-50"/>
       <path d="M 31.78125 66.40625 
Q 24.171875 66.40625 20.328125 58.90625 
Q 16.5 51.421875 16.5 36.375 
Q 16.5 21.390625 20.328125 13.890625 
Q 24.171875 6.390625 31.78125 6.390625 
Q 39.453125 6.390625 43.28125 13.890625 
Q 47.125 21.390625 47.125 36.375 
Q 47.125 51.421875 43.28125 58.90625 
Q 39.453125 66.40625 31.78125 66.40625 
z
M 31.78125 74.21875 
Q 44.046875 74.21875 50.515625 64.515625 
Q 56.984375 54.828125 56.984375 36.375 
Q 56.984375 17.96875 50.515625 8.265625 
Q 44.046875 -1.421875 31.78125 -1.421875 
Q 19.53125 -1.421875 13.0625 8.265625 
Q 6.59375 17.96875 6.59375 36.375 
Q 6.59375 54.828125 13.0625 64.515625 
Q 19.53125 74.21875 31.78125 74.21875 
z
" id="DejaVuSans-48"/>
       <path d="M 12.40625 8.296875 
L 28.515625 8.296875 
L 28.515625 63.921875 
L 10.984375 60.40625 
L 10.984375 69.390625 
L 28.421875 72.90625 
L 38.28125 72.90625 
L 38.28125 8.296875 
L 54.390625 8.296875 
L 54.390625 0 
L 12.40625 0 
z
" id="DejaVuSans-49"/>
       <path d="M 8.203125 72.90625 
L 55.078125 72.90625 
L 55.078125 68.703125 
L 28.609375 0 
L 18.3125 0 
L 43.21875 64.59375 
L 8.203125 64.59375 
z
" id="DejaVuSans-55"/>
       <path d="M 4.890625 31.390625 
L 31.203125 31.390625 
L 31.203125 23.390625 
L 4.890625 23.390625 
z
" id="DejaVuSans-45"/>
       <path d="M 37.796875 64.3125 
L 12.890625 25.390625 
L 37.796875 25.390625 
z
M 35.203125 72.90625 
L 47.609375 72.90625 
L 47.609375 25.390625 
L 58.015625 25.390625 
L 58.015625 17.1875 
L 47.609375 17.1875 
L 47.609375 0 
L 37.796875 0 
L 37.796875 17.1875 
L 4.890625 17.1875 
L 4.890625 26.703125 
z
" id="DejaVuSans-52"/>
      </defs>
      <g style="fill:#ea9808;" transform="translate(11.426042 260.435313)scale(0.15 -0.15)">
       <use xlink:href="#DejaVuSans-50"/>
       <use x="63.623047" xlink:href="#DejaVuSans-48"/>
       <use x="127.246094" xlink:href="#DejaVuSans-49"/>
       <use x="190.869141" xlink:href="#DejaVuSans-55"/>
       <use x="254.492188" xlink:href="#DejaVuSans-45"/>
       <use x="290.576172" xlink:href="#DejaVuSans-48"/>
       <use x="354.199219" xlink:href="#DejaVuSans-52"/>
      </g>
     </g>
    </g>
    <g id="xtick_2">
     <g id="line2d_2">
      <g>
       <use style="stroke:#000000;stroke-width:0.8;" x="129.424888" xlink:href="#m2f3283f7e4" y="242.037656"/>
      </g>
     </g>
     <g id="text_2">
      <!-- 2017-07 -->
      <g style="fill:#ea9808;" transform="translate(98.087778 260.435313)scale(0.15 -0.15)">
       <use xlink:href="#DejaVuSans-50"/>
       <use x="63.623047" xlink:href="#DejaVuSans-48"/>
       <use x="127.246094" xlink:href="#DejaVuSans-49"/>
       <use x="190.869141" xlink:href="#DejaVuSans-55"/>
       <use x="254.492188" xlink:href="#DejaVuSans-45"/>
       <use x="290.576172" xlink:href="#DejaVuSans-48"/>
       <use x="354.199219" xlink:href="#DejaVuSans-55"/>
      </g>
     </g>
    </g>
    <g id="xtick_3">
     <g id="line2d_3">
      <g>
       <use style="stroke:#000000;stroke-width:0.8;" x="217.038951" xlink:href="#m2f3283f7e4" y="242.037656"/>
      </g>
     </g>
     <g id="text_3">
      <!-- 2017-10 -->
      <g style="fill:#ea9808;" transform="translate(185.701841 260.435313)scale(0.15 -0.15)">
       <use xlink:href="#DejaVuSans-50"/>
       <use x="63.623047" xlink:href="#DejaVuSans-48"/>
       <use x="127.246094" xlink:href="#DejaVuSans-49"/>
       <use x="190.869141" xlink:href="#DejaVuSans-55"/>
       <use x="254.492188" xlink:href="#DejaVuSans-45"/>
       <use x="290.576172" xlink:href="#DejaVuSans-49"/>
       <use x="354.199219" xlink:href="#DejaVuSans-48"/>
      </g>
     </g>
    </g>
    <g id="xtick_4">
     <g id="line2d_4">
      <g>
       <use style="stroke:#000000;stroke-width:0.8;" x="304.653014" xlink:href="#m2f3283f7e4" y="242.037656"/>
      </g>
     </g>
     <g id="text_4">
      <!-- 2018-01 -->
      <defs>
       <path d="M 31.78125 34.625 
Q 24.75 34.625 20.71875 30.859375 
Q 16.703125 27.09375 16.703125 20.515625 
Q 16.703125 13.921875 20.71875 10.15625 
Q 24.75 6.390625 31.78125 6.390625 
Q 38.8125 6.390625 42.859375 10.171875 
Q 46.921875 13.96875 46.921875 20.515625 
Q 46.921875 27.09375 42.890625 30.859375 
Q 38.875 34.625 31.78125 34.625 
z
M 21.921875 38.8125 
Q 15.578125 40.375 12.03125 44.71875 
Q 8.5 49.078125 8.5 55.328125 
Q 8.5 64.0625 14.71875 69.140625 
Q 20.953125 74.21875 31.78125 74.21875 
Q 42.671875 74.21875 48.875 69.140625 
Q 55.078125 64.0625 55.078125 55.328125 
Q 55.078125 49.078125 51.53125 44.71875 
Q 48 40.375 41.703125 38.8125 
Q 48.828125 37.15625 52.796875 32.3125 
Q 56.78125 27.484375 56.78125 20.515625 
Q 56.78125 9.90625 50.3125 4.234375 
Q 43.84375 -1.421875 31.78125 -1.421875 
Q 19.734375 -1.421875 13.25 4.234375 
Q 6.78125 9.90625 6.78125 20.515625 
Q 6.78125 27.484375 10.78125 32.3125 
Q 14.796875 37.15625 21.921875 38.8125 
z
M 18.3125 54.390625 
Q 18.3125 48.734375 21.84375 45.5625 
Q 25.390625 42.390625 31.78125 42.390625 
Q 38.140625 42.390625 41.71875 45.5625 
Q 45.3125 48.734375 45.3125 54.390625 
Q 45.3125 60.0625 41.71875 63.234375 
Q 38.140625 66.40625 31.78125 66.40625 
Q 25.390625 66.40625 21.84375 63.234375 
Q 18.3125 60.0625 18.3125 54.390625 
z
" id="DejaVuSans-56"/>
      </defs>
      <g style="fill:#ea9808;" transform="translate(273.315904 260.435313)scale(0.15 -0.15)">
       <use xlink:href="#DejaVuSans-50"/>
       <use x="63.623047" xlink:href="#DejaVuSans-48"/>
       <use x="127.246094" xlink:href="#DejaVuSans-49"/>
       <use x="190.869141" xlink:href="#DejaVuSans-56"/>
       <use x="254.492188" xlink:href="#DejaVuSans-45"/>
       <use x="290.576172" xlink:href="#DejaVuSans-48"/>
       <use x="354.199219" xlink:href="#DejaVuSans-49"/>
      </g>
     </g>
    </g>
    <g id="xtick_5">
     <g id="line2d_5">
      <g>
       <use style="stroke:#000000;stroke-width:0.8;" x="390.362423" xlink:href="#m2f3283f7e4" y="242.037656"/>
      </g>
     </g>
     <g id="text_5">
      <!-- 2018-04 -->
      <g style="fill:#ea9808;" transform="translate(359.025314 260.435313)scale(0.15 -0.15)">
       <use xlink:href="#DejaVuSans-50"/>
       <use x="63.623047" xlink:href="#DejaVuSans-48"/>
       <use x="127.246094" xlink:href="#DejaVuSans-49"/>
       <use x="190.869141" xlink:href="#DejaVuSans-56"/>
       <use x="254.492188" xlink:href="#DejaVuSans-45"/>
       <use x="290.576172" xlink:href="#DejaVuSans-48"/>
       <use x="354.199219" xlink:href="#DejaVuSans-52"/>
      </g>
     </g>
    </g>
    <g id="xtick_6">
     <g id="line2d_6">
      <g>
       <use style="stroke:#000000;stroke-width:0.8;" x="477.024159" xlink:href="#m2f3283f7e4" y="242.037656"/>
      </g>
     </g>
     <g id="text_6">
      <!-- 2018-07 -->
      <g style="fill:#ea9808;" transform="translate(445.68705 260.435313)scale(0.15 -0.15)">
       <use xlink:href="#DejaVuSans-50"/>
       <use x="63.623047" xlink:href="#DejaVuSans-48"/>
       <use x="127.246094" xlink:href="#DejaVuSans-49"/>
       <use x="190.869141" xlink:href="#DejaVuSans-56"/>
       <use x="254.492188" xlink:href="#DejaVuSans-45"/>
       <use x="290.576172" xlink:href="#DejaVuSans-48"/>
       <use x="354.199219" xlink:href="#DejaVuSans-55"/>
      </g>
     </g>
    </g>
    <g id="xtick_7">
     <g id="line2d_7">
      <g>
       <use style="stroke:#000000;stroke-width:0.8;" x="564.638222" xlink:href="#m2f3283f7e4" y="242.037656"/>
      </g>
     </g>
     <g id="text_7">
      <!-- 2018-10 -->
      <g style="fill:#ea9808;" transform="translate(533.301113 260.435313)scale(0.15 -0.15)">
       <use xlink:href="#DejaVuSans-50"/>
       <use x="63.623047" xlink:href="#DejaVuSans-48"/>
       <use x="127.246094" xlink:href="#DejaVuSans-49"/>
       <use x="190.869141" xlink:href="#DejaVuSans-56"/>
       <use x="254.492188" xlink:href="#DejaVuSans-45"/>
       <use x="290.576172" xlink:href="#DejaVuSans-49"/>
       <use x="354.199219" xlink:href="#DejaVuSans-48"/>
      </g>
     </g>
    </g>
    <g id="xtick_8">
     <g id="line2d_8">
      <g>
       <use style="stroke:#000000;stroke-width:0.8;" x="652.252286" xlink:href="#m2f3283f7e4" y="242.037656"/>
      </g>
     </g>
     <g id="text_8">
      <!-- 2019-01 -->
      <defs>
       <path d="M 10.984375 1.515625 
L 10.984375 10.5 
Q 14.703125 8.734375 18.5 7.8125 
Q 22.3125 6.890625 25.984375 6.890625 
Q 35.75 6.890625 40.890625 13.453125 
Q 46.046875 20.015625 46.78125 33.40625 
Q 43.953125 29.203125 39.59375 26.953125 
Q 35.25 24.703125 29.984375 24.703125 
Q 19.046875 24.703125 12.671875 31.3125 
Q 6.296875 37.9375 6.296875 49.421875 
Q 6.296875 60.640625 12.9375 67.421875 
Q 19.578125 74.21875 30.609375 74.21875 
Q 43.265625 74.21875 49.921875 64.515625 
Q 56.59375 54.828125 56.59375 36.375 
Q 56.59375 19.140625 48.40625 8.859375 
Q 40.234375 -1.421875 26.421875 -1.421875 
Q 22.703125 -1.421875 18.890625 -0.6875 
Q 15.09375 0.046875 10.984375 1.515625 
z
M 30.609375 32.421875 
Q 37.25 32.421875 41.125 36.953125 
Q 45.015625 41.5 45.015625 49.421875 
Q 45.015625 57.28125 41.125 61.84375 
Q 37.25 66.40625 30.609375 66.40625 
Q 23.96875 66.40625 20.09375 61.84375 
Q 16.21875 57.28125 16.21875 49.421875 
Q 16.21875 41.5 20.09375 36.953125 
Q 23.96875 32.421875 30.609375 32.421875 
z
" id="DejaVuSans-57"/>
      </defs>
      <g style="fill:#ea9808;" transform="translate(620.915176 260.435313)scale(0.15 -0.15)">
       <use xlink:href="#DejaVuSans-50"/>
       <use x="63.623047" xlink:href="#DejaVuSans-48"/>
       <use x="127.246094" xlink:href="#DejaVuSans-49"/>
       <use x="190.869141" xlink:href="#DejaVuSans-57"/>
       <use x="254.492188" xlink:href="#DejaVuSans-45"/>
       <use x="290.576172" xlink:href="#DejaVuSans-48"/>
       <use x="354.199219" xlink:href="#DejaVuSans-49"/>
      </g>
     </g>
    </g>
    <g id="xtick_9">
     <g id="line2d_9">
      <g>
       <use style="stroke:#000000;stroke-width:0.8;" x="737.961695" xlink:href="#m2f3283f7e4" y="242.037656"/>
      </g>
     </g>
     <g id="text_9">
      <!-- 2019-04 -->
      <g style="fill:#ea9808;" transform="translate(706.624586 260.435313)scale(0.15 -0.15)">
       <use xlink:href="#DejaVuSans-50"/>
       <use x="63.623047" xlink:href="#DejaVuSans-48"/>
       <use x="127.246094" xlink:href="#DejaVuSans-49"/>
       <use x="190.869141" xlink:href="#DejaVuSans-57"/>
       <use x="254.492188" xlink:href="#DejaVuSans-45"/>
       <use x="290.576172" xlink:href="#DejaVuSans-48"/>
       <use x="354.199219" xlink:href="#DejaVuSans-52"/>
      </g>
     </g>
    </g>
    <g id="xtick_10">
     <g id="line2d_10">
      <g>
       <use style="stroke:#000000;stroke-width:0.8;" x="824.623431" xlink:href="#m2f3283f7e4" y="242.037656"/>
      </g>
     </g>
     <g id="text_10">
      <!-- 2019-07 -->
      <g style="fill:#ea9808;" transform="translate(793.286322 260.435313)scale(0.15 -0.15)">
       <use xlink:href="#DejaVuSans-50"/>
       <use x="63.623047" xlink:href="#DejaVuSans-48"/>
       <use x="127.246094" xlink:href="#DejaVuSans-49"/>
       <use x="190.869141" xlink:href="#DejaVuSans-57"/>
       <use x="254.492188" xlink:href="#DejaVuSans-45"/>
       <use x="290.576172" xlink:href="#DejaVuSans-48"/>
       <use x="354.199219" xlink:href="#DejaVuSans-55"/>
      </g>
     </g>
    </g>
   </g>
   <g id="matplotlib.axis_2">
    <g id="ytick_1">
     <g id="line2d_11">
      <defs>
       <path d="M 0 0 
L -3.5 0 
" id="m916b129713" style="stroke:#000000;stroke-width:0.8;"/>
      </defs>
      <g>
       <use style="stroke:#000000;stroke-width:0.8;" x="33.2875" xlink:href="#m916b129713" y="232.880629"/>
      </g>
     </g>
     <g id="text_11">
      <!-- 0 -->
      <g style="fill:#ea9808;" transform="translate(16.74375 238.579458)scale(0.15 -0.15)">
       <use xlink:href="#DejaVuSans-48"/>
      </g>
     </g>
    </g>
    <g id="ytick_2">
     <g id="line2d_12">
      <g>
       <use style="stroke:#000000;stroke-width:0.8;" x="33.2875" xlink:href="#m916b129713" y="193.902841"/>
      </g>
     </g>
     <g id="text_12">
      <!-- 10 -->
      <g style="fill:#ea9808;" transform="translate(7.2 199.60167)scale(0.15 -0.15)">
       <use xlink:href="#DejaVuSans-49"/>
       <use x="63.623047" xlink:href="#DejaVuSans-48"/>
      </g>
     </g>
    </g>
    <g id="ytick_3">
     <g id="line2d_13">
      <g>
       <use style="stroke:#000000;stroke-width:0.8;" x="33.2875" xlink:href="#m916b129713" y="154.925053"/>
      </g>
     </g>
     <g id="text_13">
      <!-- 20 -->
      <g style="fill:#ea9808;" transform="translate(7.2 160.623881)scale(0.15 -0.15)">
       <use xlink:href="#DejaVuSans-50"/>
       <use x="63.623047" xlink:href="#DejaVuSans-48"/>
      </g>
     </g>
    </g>
    <g id="ytick_4">
     <g id="line2d_14">
      <g>
       <use style="stroke:#000000;stroke-width:0.8;" x="33.2875" xlink:href="#m916b129713" y="115.947265"/>
      </g>
     </g>
     <g id="text_14">
      <!-- 30 -->
      <defs>
       <path d="M 40.578125 39.3125 
Q 47.65625 37.796875 51.625 33 
Q 55.609375 28.21875 55.609375 21.1875 
Q 55.609375 10.40625 48.1875 4.484375 
Q 40.765625 -1.421875 27.09375 -1.421875 
Q 22.515625 -1.421875 17.65625 -0.515625 
Q 12.796875 0.390625 7.625 2.203125 
L 7.625 11.71875 
Q 11.71875 9.328125 16.59375 8.109375 
Q 21.484375 6.890625 26.8125 6.890625 
Q 36.078125 6.890625 40.9375 10.546875 
Q 45.796875 14.203125 45.796875 21.1875 
Q 45.796875 27.640625 41.28125 31.265625 
Q 36.765625 34.90625 28.71875 34.90625 
L 20.21875 34.90625 
L 20.21875 43.015625 
L 29.109375 43.015625 
Q 36.375 43.015625 40.234375 45.921875 
Q 44.09375 48.828125 44.09375 54.296875 
Q 44.09375 59.90625 40.109375 62.90625 
Q 36.140625 65.921875 28.71875 65.921875 
Q 24.65625 65.921875 20.015625 65.03125 
Q 15.375 64.15625 9.8125 62.3125 
L 9.8125 71.09375 
Q 15.4375 72.65625 20.34375 73.4375 
Q 25.25 74.21875 29.59375 74.21875 
Q 40.828125 74.21875 47.359375 69.109375 
Q 53.90625 64.015625 53.90625 55.328125 
Q 53.90625 49.265625 50.4375 45.09375 
Q 46.96875 40.921875 40.578125 39.3125 
z
" id="DejaVuSans-51"/>
      </defs>
      <g style="fill:#ea9808;" transform="translate(7.2 121.646093)scale(0.15 -0.15)">
       <use xlink:href="#DejaVuSans-51"/>
       <use x="63.623047" xlink:href="#DejaVuSans-48"/>
      </g>
     </g>
    </g>
    <g id="ytick_5">
     <g id="line2d_15">
      <g>
       <use style="stroke:#000000;stroke-width:0.8;" x="33.2875" xlink:href="#m916b129713" y="76.969477"/>
      </g>
     </g>
     <g id="text_15">
      <!-- 40 -->
      <g style="fill:#ea9808;" transform="translate(7.2 82.668305)scale(0.15 -0.15)">
       <use xlink:href="#DejaVuSans-52"/>
       <use x="63.623047" xlink:href="#DejaVuSans-48"/>
      </g>
     </g>
    </g>
    <g id="ytick_6">
     <g id="line2d_16">
      <g>
       <use style="stroke:#000000;stroke-width:0.8;" x="33.2875" xlink:href="#m916b129713" y="37.991689"/>
      </g>
     </g>
     <g id="text_16">
      <!-- 50 -->
      <defs>
       <path d="M 10.796875 72.90625 
L 49.515625 72.90625 
L 49.515625 64.59375 
L 19.828125 64.59375 
L 19.828125 46.734375 
Q 21.96875 47.46875 24.109375 47.828125 
Q 26.265625 48.1875 28.421875 48.1875 
Q 40.625 48.1875 47.75 41.5 
Q 54.890625 34.8125 54.890625 23.390625 
Q 54.890625 11.625 47.5625 5.09375 
Q 40.234375 -1.421875 26.90625 -1.421875 
Q 22.3125 -1.421875 17.546875 -0.640625 
Q 12.796875 0.140625 7.71875 1.703125 
L 7.71875 11.625 
Q 12.109375 9.234375 16.796875 8.0625 
Q 21.484375 6.890625 26.703125 6.890625 
Q 35.15625 6.890625 40.078125 11.328125 
Q 45.015625 15.765625 45.015625 23.390625 
Q 45.015625 31 40.078125 35.4375 
Q 35.15625 39.890625 26.703125 39.890625 
Q 22.75 39.890625 18.8125 39.015625 
Q 14.890625 38.140625 10.796875 36.28125 
z
" id="DejaVuSans-53"/>
      </defs>
      <g style="fill:#ea9808;" transform="translate(7.2 43.690517)scale(0.15 -0.15)">
       <use xlink:href="#DejaVuSans-53"/>
       <use x="63.623047" xlink:href="#DejaVuSans-48"/>
      </g>
     </g>
    </g>
   </g>
   <g id="line2d_17">
    <path clip-path="url(#p07c2a873c6)" d="M 71.332955 226.876872 
L 72.285281 231.193244 
L 73.237608 232.15402 
L 75.142262 224.282808 
L 76.094588 225.579041 
L 77.046915 229.900972 
L 77.999242 231.000306 
L 79.903895 223.123775 
L 80.856222 224.283418 
L 81.808549 228.606349 
L 82.760876 229.842903 
L 84.665529 221.96845 
L 85.617856 222.990104 
L 86.570183 227.309473 
L 87.52251 228.681771 
L 89.427163 220.816791 
L 90.37949 221.699197 
L 91.331817 226.010447 
L 92.284144 227.516878 
L 93.23647 223.827287 
L 94.188797 219.668756 
L 95.141124 220.410791 
L 96.093451 224.709373 
L 97.045777 226.348193 
L 97.998104 222.754682 
L 98.950431 218.524297 
L 99.902758 219.124982 
L 100.855084 223.406359 
L 101.807411 225.17569 
L 102.759738 221.681611 
L 103.712065 217.383364 
L 104.664392 217.841859 
L 105.616718 222.101511 
L 106.569045 223.999345 
L 107.521372 220.607954 
L 108.473699 216.245903 
L 109.426025 216.561509 
L 110.378352 220.794939 
L 111.330679 222.819139 
L 112.283006 219.533589 
L 113.235333 215.111855 
L 114.187659 215.284019 
L 115.139986 219.486756 
L 116.092313 221.635059 
L 117.04464 218.458394 
L 117.996966 213.98116 
L 118.949293 214.009471 
L 119.90162 218.177072 
L 120.853947 220.447093 
L 121.806273 217.38225 
L 122.7586 212.853753 
L 123.710927 212.737943 
L 124.663254 216.866004 
L 125.615581 219.255233 
L 126.567907 216.305038 
L 127.520234 211.729567 
L 128.472561 211.469513 
L 129.424888 215.553667 
L 130.377214 218.059477 
L 131.329541 215.22664 
L 132.281868 210.60853 
L 133.234195 210.204253 
L 134.186522 214.240179 
L 135.138848 216.859824 
L 136.091175 214.146939 
L 137.043502 209.490568 
L 137.995829 208.942234 
L 138.948155 212.925656 
L 139.900482 215.65628 
L 140.852809 213.065819 
L 141.805136 208.375605 
L 142.757462 207.683522 
L 143.709789 211.610219 
L 144.662116 214.448852 
L 145.614443 211.983168 
L 146.56677 207.263559 
L 147.519096 206.42818 
L 148.471423 210.293988 
L 149.42375 213.237553 
L 150.376077 210.898871 
L 151.328403 206.154348 
L 152.28073 205.17627 
L 153.233057 208.977084 
L 154.185384 212.022399 
L 155.13771 209.812818 
L 156.090037 205.047885 
L 157.042364 203.927847 
L 157.994691 207.659629 
L 158.947018 210.80341 
L 159.899344 208.724901 
L 160.851671 203.944083 
L 161.803998 202.682965 
L 163.708651 209.58061 
L 164.660978 207.635011 
L 165.613305 202.84285 
L 166.565632 201.441674 
L 168.470285 208.354026 
L 169.422612 206.543044 
L 170.374939 201.744091 
L 171.327266 200.204019 
L 173.231919 207.12369 
L 174.184246 205.448896 
L 175.136573 200.64771 
L 176.088899 198.970044 
L 177.993553 205.889637 
L 178.94588 204.352467 
L 179.898207 199.553609 
L 180.850533 197.739786 
L 182.755187 204.651906 
L 183.707514 203.253657 
L 184.65984 198.461687 
L 185.612167 196.513281 
L 186.564494 199.750187 
L 187.516821 203.410539 
L 188.469148 202.152371 
L 189.421474 197.37184 
L 190.373801 195.290561 
L 191.326128 198.43231 
L 192.278455 202.165582 
L 193.230781 201.048514 
L 194.183108 196.283963 
L 195.135435 194.071652 
L 196.087762 197.114865 
L 197.040088 200.917085 
L 197.992415 199.941995 
L 198.944742 195.197948 
L 199.897069 192.856579 
L 200.849396 195.797974 
L 201.801722 199.665102 
L 202.754049 198.832725 
L 203.706376 194.113687 
L 204.658703 191.645361 
L 205.611029 194.481759 
L 206.563356 198.40969 
L 207.515683 197.720619 
L 208.46801 193.031068 
L 209.420337 190.438015 
L 210.372663 193.16634 
L 211.32499 197.150908 
L 212.277317 196.605593 
L 213.229644 191.94998 
L 214.18197 189.234552 
L 215.134297 191.851838 
L 216.086624 195.888819 
L 217.038951 195.487567 
L 217.991277 190.870307 
L 218.943604 188.034981 
L 219.895931 190.538372 
L 220.848258 194.623492 
L 221.800585 194.366465 
L 222.752911 189.791935 
L 223.705238 186.839306 
L 224.657565 189.22606 
L 225.609892 193.354996 
L 226.562218 193.242212 
L 227.514545 188.714747 
L 228.466872 185.647528 
L 229.419199 187.91502 
L 230.371525 192.083404 
L 231.323852 192.114737 
L 232.276179 187.638624 
L 233.228506 184.459644 
L 234.180833 186.605367 
L 235.133159 190.808793 
L 236.085486 190.983972 
L 237.037813 186.563448 
L 237.99014 183.275645 
L 238.942466 185.297216 
L 239.894793 189.531242 
L 240.84712 189.849853 
L 241.799447 185.489099 
L 242.751774 182.095521 
L 243.7041 183.99068 
L 244.656427 188.250834 
L 245.608754 188.71232 
L 246.561081 184.415455 
L 247.513407 180.919257 
L 248.465734 182.685869 
L 249.418061 186.967654 
L 250.370388 187.571313 
L 251.322714 183.342396 
L 252.275041 179.746833 
L 253.227368 181.382894 
L 254.179695 185.681789 
L 255.132022 186.42678 
L 257.036675 178.578228 
L 257.989002 180.081863 
L 258.941329 184.39333 
L 259.893655 185.27867 
L 261.798309 177.413414 
L 262.750636 178.78288 
L 263.702963 183.102371 
L 264.655289 184.126934 
L 266.559943 176.252362 
L 267.51227 177.486051 
L 268.464596 181.809008 
L 269.416923 182.971531 
L 271.321577 175.095036 
L 272.273903 176.191476 
L 273.22623 180.513337 
L 274.178557 181.81242 
L 276.083211 173.941399 
L 277.035537 174.899255 
L 277.987864 179.215461 
L 278.940191 180.649565 
L 280.844844 172.79141 
L 281.797171 173.609485 
L 282.749498 177.915482 
L 283.701825 179.482935 
L 284.654151 175.837043 
L 285.606478 171.645024 
L 286.558805 172.32226 
L 287.511132 176.613504 
L 288.463459 178.312499 
L 289.415785 174.764239 
L 290.368112 170.502191 
L 291.320439 171.037673 
L 292.272766 175.309634 
L 293.225092 177.138234 
L 294.177419 173.690915 
L 295.129746 169.362859 
L 296.082073 169.755813 
L 297.0344 174.003981 
L 297.986726 175.960118 
L 298.939053 172.616947 
L 299.89138 168.226973 
L 300.843707 168.476767 
L 301.796033 172.696655 
L 302.74836 174.778135 
L 303.700687 171.542216 
L 304.653014 167.094473 
L 305.60534 167.200618 
L 306.557667 171.387768 
L 307.509994 173.592271 
L 308.462321 170.4666 
L 309.414648 165.965296 
L 310.366974 165.927447 
L 311.319301 170.077435 
L 312.271628 172.402518 
L 313.223955 169.389981 
L 314.176281 164.839376 
L 315.128608 164.657332 
L 316.080935 168.76577 
L 317.033262 171.208869 
L 317.985589 168.312238 
L 318.937915 163.716645 
L 319.890242 163.390349 
L 320.842569 167.452889 
L 321.794896 170.011323 
L 322.747222 167.233256 
L 323.699549 162.59703 
L 324.651876 162.126569 
L 325.604203 166.138911 
L 326.556529 168.809882 
L 327.508856 166.152918 
L 328.461183 161.480455 
L 329.41351 160.86606 
L 330.365837 164.823953 
L 331.318163 167.604553 
L 332.27049 165.071109 
L 333.222817 160.366841 
L 334.175144 159.608888 
L 335.12747 163.508137 
L 336.079797 166.395346 
L 337.032124 163.987716 
L 337.984451 159.256108 
L 338.936778 158.355115 
L 339.889104 162.191582 
L 340.841431 165.182274 
L 341.793758 162.902626 
L 342.746085 158.14817 
L 343.698411 157.104799 
L 344.650738 160.87441 
L 345.603065 163.965357 
L 346.555392 161.815731 
L 347.507718 157.04294 
L 348.460045 155.857996 
L 349.412372 159.556742 
L 350.364699 162.744614 
L 351.317026 160.726921 
L 352.269352 155.940329 
L 353.221679 154.614757 
L 355.126333 161.520073 
L 356.078659 159.63609 
L 357.030986 154.840244 
L 357.983313 153.37513 
L 359.887966 160.291762 
L 360.840293 158.543134 
L 361.79262 153.742589 
L 362.744947 152.13916 
L 364.6496 159.059714 
L 365.601927 157.447951 
L 366.554254 152.647268 
L 367.506581 150.906887 
L 369.411234 157.823967 
L 370.363561 156.350441 
L 371.315888 151.55418 
L 372.268215 149.678349 
L 374.172868 156.584561 
L 375.125195 155.250505 
L 376.077522 150.463224 
L 377.029848 148.453579 
L 377.982175 151.647212 
L 378.934502 155.341539 
L 379.886829 154.14805 
L 380.839155 149.374295 
L 381.791482 147.232606 
L 382.743809 150.329518 
L 383.696136 154.09495 
L 384.648463 153.042982 
L 385.600789 148.287286 
L 386.553116 146.015456 
L 387.505443 149.012313 
L 388.45777 152.844846 
L 389.410096 151.93521 
L 390.362423 147.20209 
L 391.31475 144.802151 
L 392.267077 147.695717 
L 393.219404 151.591281 
L 394.17173 150.824648 
L 395.124057 146.118598 
L 396.076384 143.592709 
L 397.028711 146.379852 
L 397.981037 150.334313 
L 398.933364 149.711212 
L 399.885691 145.036696 
L 400.838018 142.387145 
L 401.790344 145.064839 
L 402.742671 149.074004 
L 403.694998 148.594818 
L 404.647325 143.956272 
L 405.599652 141.185468 
L 406.551978 143.750798 
L 407.504305 147.81042 
L 408.456632 147.475389 
L 409.408959 142.877211 
L 410.361285 139.987686 
L 411.313612 142.437848 
L 412.265939 146.543629 
L 413.218266 146.352849 
L 414.170593 141.799397 
L 415.122919 138.793801 
L 416.075246 141.126106 
L 417.027573 145.273702 
L 417.9799 145.227124 
L 418.932226 140.722713 
L 419.884553 137.603812 
L 420.83688 139.815688 
L 421.789207 144.000714 
L 422.741533 144.098147 
L 423.69386 139.647039 
L 424.646187 136.417713 
L 425.598514 138.506711 
L 426.550841 142.724743 
L 427.503167 142.96585 
L 428.455494 138.572258 
L 429.407821 135.235495 
L 430.360148 137.199287 
L 431.312474 141.445869 
L 432.264801 141.83017 
L 433.217128 137.498248 
L 434.169455 134.057146 
L 435.121781 135.89353 
L 436.074108 140.164177 
L 437.026435 140.691049 
L 437.978762 136.424888 
L 438.931089 132.882648 
L 439.883415 134.589549 
L 440.835742 138.879753 
L 441.788069 139.548429 
L 442.740396 135.352056 
L 443.692722 131.711981 
L 444.645049 133.287453 
L 445.597376 137.592685 
L 446.549703 138.402259 
L 448.454356 130.545121 
L 449.406683 131.987349 
L 450.35901 136.303067 
L 451.311337 137.25249 
L 453.21599 129.382038 
L 454.168317 130.689343 
L 455.120644 135.010992 
L 456.07297 136.099075 
L 457.977624 128.222701 
L 458.929951 129.393536 
L 459.882278 133.716557 
L 460.834604 134.941974 
L 462.739258 127.067075 
L 463.691585 128.10003 
L 464.643911 132.419861 
L 465.596238 133.781148 
L 467.500892 125.915118 
L 468.453219 126.808923 
L 469.405545 131.121006 
L 470.357872 132.616563 
L 471.310199 128.919288 
L 472.262526 124.76679 
L 473.214852 125.52031 
L 474.167179 129.820095 
L 475.119506 131.448188 
L 476.071833 127.846715 
L 477.024159 123.622041 
L 477.976486 124.234286 
L 478.928813 128.517235 
L 479.88114 130.275997 
L 480.833467 126.773687 
L 481.785793 122.480823 
L 482.73812 122.95094 
L 483.690447 127.212533 
L 484.642774 129.099966 
L 485.5951 125.700082 
L 486.547427 121.34308 
L 487.499754 121.670361 
L 488.452081 125.906097 
L 489.404407 127.920076 
L 490.356734 124.625779 
L 491.309061 120.208757 
L 492.261388 120.392635 
L 493.213715 124.598041 
L 494.166041 126.736312 
L 495.118368 123.550657 
L 496.070695 119.077791 
L 497.023022 119.117844 
L 497.975348 123.288476 
L 498.927675 125.548663 
L 499.880002 122.474595 
L 500.832329 117.950118 
L 501.784656 117.846067 
L 502.736982 121.977516 
L 503.689309 124.357121 
L 504.641636 121.397474 
L 505.593963 116.825672 
L 506.546289 116.577381 
L 507.498616 120.665278 
L 508.450943 123.161682 
L 509.40327 120.319177 
L 510.355596 115.704381 
L 511.307923 115.31186 
L 512.26025 119.351879 
L 513.212577 121.962347 
L 514.164904 119.239587 
L 515.11723 114.586171 
L 516.069557 114.049574 
L 517.021884 118.037436 
L 517.974211 120.75912 
L 518.926537 118.158587 
L 519.878864 113.470966 
L 520.831191 112.79059 
L 521.783518 116.72207 
L 522.735845 119.552009 
L 523.688171 117.076064 
L 524.640498 112.358685 
L 525.592825 111.534971 
L 526.545152 115.405899 
L 527.497478 118.341025 
L 528.449805 115.991906 
L 529.402132 111.249246 
L 530.354459 110.282779 
L 531.306785 114.089045 
L 532.259112 117.126185 
L 533.211439 114.906001 
L 534.163766 110.142563 
L 535.116093 109.03407 
L 536.068419 112.77163 
L 537.020746 115.907508 
L 537.973073 113.818239 
L 538.9254 109.038547 
L 539.877726 107.788897 
L 541.78238 114.685017 
L 542.734707 112.728514 
L 543.687034 107.937108 
L 544.63936 106.547311 
L 546.544014 113.458741 
L 547.496341 111.636721 
L 548.448667 106.838151 
L 549.400994 105.309358 
L 551.305648 112.22871 
L 552.257974 110.542755 
L 553.210301 105.74158 
L 554.162628 104.075081 
L 556.067282 110.994958 
L 557.019608 109.446515 
L 557.971935 104.647297 
L 558.924262 102.844519 
L 560.828915 109.757525 
L 561.781242 108.347903 
L 562.733569 103.555201 
L 563.685896 101.617707 
L 564.638222 104.86222 
L 565.590549 108.516453 
L 566.542876 107.246822 
L 567.495203 102.465188 
L 568.44753 100.394677 
L 569.399856 103.544314 
L 570.352183 107.271787 
L 571.30451 106.143178 
L 572.256837 101.377154 
L 573.209163 99.175457 
L 574.16149 102.226829 
L 575.113817 106.023577 
L 576.066144 105.036879 
L 577.018471 100.290992 
L 577.970797 97.96007 
L 578.923124 100.909888 
L 579.875451 104.771876 
L 580.827778 103.927837 
L 581.780104 99.206592 
L 582.732431 96.748537 
L 583.684758 99.593613 
L 584.637085 103.516741 
L 585.589411 102.815965 
L 586.541738 98.123844 
L 587.494065 95.540874 
L 588.446392 98.278125 
L 589.398719 102.258231 
L 590.351045 101.701181 
L 591.303372 97.042635 
L 592.255699 94.337095 
L 593.208026 96.963544 
L 594.160352 100.99641 
L 595.112679 100.583403 
L 596.065006 95.962851 
L 597.017333 93.137206 
L 597.96966 95.649989 
L 598.921986 99.731345 
L 599.874313 99.462554 
L 600.82664 94.884377 
L 601.778967 91.941214 
L 602.731293 94.337579 
L 603.68362 98.463104 
L 604.635947 98.338561 
L 605.588274 93.807097 
L 606.5406 90.749118 
L 607.492927 93.02643 
L 608.445254 97.191762 
L 609.397581 97.211351 
L 610.349908 92.730891 
L 611.302234 89.560916 
L 612.254561 91.71666 
L 613.206888 95.917394 
L 614.159215 96.080857 
L 615.111541 91.655643 
L 616.063868 88.376601 
L 617.016195 90.408382 
L 617.968522 94.64008 
L 618.920849 94.947014 
L 619.873175 90.58123 
L 620.825502 87.196161 
L 621.777829 89.10171 
L 622.730156 93.359902 
L 623.682482 93.809761 
L 624.634809 89.507534 
L 625.587136 86.019583 
L 626.539463 87.796755 
L 627.491789 92.076944 
L 628.444116 92.66904 
L 629.396443 88.434431 
L 630.34877 84.846847 
L 631.301097 86.493626 
L 632.253423 90.791295 
L 633.20575 91.524796 
L 635.110404 83.677932 
L 636.06273 85.192432 
L 637.015057 89.503044 
L 637.967384 90.376979 
L 639.872037 82.51281 
L 640.824364 83.893278 
L 641.776691 88.212286 
L 642.729018 89.225541 
L 644.633671 81.351452 
L 645.585998 82.59627 
L 646.538325 86.919114 
L 647.490652 88.070439 
L 649.395305 80.193823 
L 650.347632 81.301507 
L 651.299959 85.623629 
L 652.252286 86.911632 
L 654.156939 79.039887 
L 655.109266 80.00909 
L 656.061593 84.325929 
L 657.013919 85.749083 
L 658.918573 77.889603 
L 659.8709 78.719117 
L 660.823226 83.026117 
L 661.775553 84.582761 
L 662.72788 80.929057 
L 663.680207 76.742924 
L 664.632534 77.431681 
L 665.58486 81.724298 
L 666.537187 83.412637 
L 667.489514 79.856291 
L 668.441841 75.599803 
L 669.394167 76.146876 
L 670.346494 80.420578 
L 671.298821 82.238685 
L 672.251148 78.783013 
L 673.203475 74.460188 
L 674.155801 74.86479 
L 675.108128 79.115066 
L 676.060455 81.060884 
L 677.012782 77.709103 
L 677.965108 73.324023 
L 678.917435 73.585511 
L 679.869762 77.807872 
L 680.822089 79.879217 
L 681.774415 76.634438 
L 682.726742 72.191249 
L 683.679069 72.309122 
L 684.631396 76.499109 
L 685.583723 78.69367 
L 686.536049 75.558899 
L 687.488376 71.061803 
L 688.440703 71.035706 
L 689.39303 75.188889 
L 690.345356 77.504234 
L 691.297683 74.482366 
L 692.25001 69.935621 
L 693.202337 69.765339 
L 694.154663 73.877328 
L 695.10699 76.310903 
L 696.059317 73.40472 
L 697.011644 68.812633 
L 697.963971 68.498098 
L 698.916297 72.564542 
L 699.868624 75.113674 
L 700.820951 72.325843 
L 701.773278 67.692766 
L 702.725604 67.234054 
L 703.677931 71.250649 
L 704.630258 73.912551 
L 705.582585 71.24562 
L 706.534912 66.575946 
L 707.487238 65.973276 
L 708.439565 69.935767 
L 709.391892 72.707539 
L 710.344219 70.163935 
L 711.296545 65.462094 
L 712.248872 64.715829 
L 713.201199 68.620016 
L 714.153526 71.498647 
L 715.105852 69.080675 
L 716.058179 64.351129 
L 717.010506 63.461777 
L 717.962833 67.303517 
L 718.91516 70.285891 
L 719.867486 67.995728 
L 720.819813 63.242966 
L 721.77214 62.211177 
L 722.724467 65.98639 
L 723.676793 69.069286 
L 724.62912 66.908984 
L 725.581447 62.137519 
L 726.533774 60.964086 
L 727.486101 64.668759 
L 728.438427 67.848854 
L 729.390754 65.820334 
L 730.343081 61.034698 
L 731.295408 59.720554 
L 733.200061 66.624622 
L 734.152388 64.729672 
L 735.104715 59.93441 
L 736.057041 58.480631 
L 737.961695 65.396617 
L 738.914022 63.636893 
L 739.866349 58.836561 
L 740.818675 57.244361 
L 742.723329 64.164873 
L 743.675656 62.541896 
L 744.627982 57.741053 
L 745.580309 56.011786 
L 747.484963 62.929425 
L 748.43729 61.444579 
L 749.389616 56.647787 
L 750.341943 54.782941 
L 752.246597 61.690316 
L 753.198923 60.344845 
L 754.15125 55.55666 
L 755.103577 53.557863 
L 756.055904 56.759233 
L 757.00823 60.447587 
L 757.960557 59.242598 
L 758.912884 54.46757 
L 759.865211 52.336579 
L 760.817538 55.441505 
L 761.769864 59.201288 
L 762.722191 58.137746 
L 763.674518 53.380409 
L 764.626845 51.119116 
L 765.579171 54.124255 
L 766.531498 57.951468 
L 767.483825 57.030199 
L 768.436152 52.295069 
L 769.388478 49.905497 
L 770.340805 52.807605 
L 771.293132 56.698183 
L 772.245459 55.919868 
L 773.197786 51.211442 
L 774.150112 48.69574 
L 775.102439 51.491676 
L 776.054766 55.44149 
L 777.007093 54.806668 
L 777.959419 50.129414 
L 778.911746 47.489859 
L 779.864073 50.176589 
L 780.8164 54.181452 
L 781.768727 53.690519 
L 782.721053 49.048874 
L 783.67338 46.287865 
L 784.625707 48.862464 
L 785.578034 52.918132 
L 786.53036 52.57134 
L 787.482687 47.969706 
L 788.435014 45.089766 
L 789.387341 47.549421 
L 790.339667 51.6516 
L 791.291994 51.449056 
L 792.244321 46.891795 
L 793.196648 43.895563 
L 794.148975 46.237575 
L 795.101301 50.381926 
L 796.053628 50.323594 
L 797.005955 45.815023 
L 797.958282 42.705256 
L 798.910608 44.927046 
L 799.862935 49.109184 
L 800.815262 49.194885 
L 801.767589 44.739272 
L 802.719916 41.51884 
L 803.672242 43.617947 
L 804.624569 47.833454 
L 805.576896 48.062861 
L 806.529223 43.664422 
L 807.481549 40.336306 
L 808.433876 42.310392 
L 809.386203 46.554814 
L 810.33853 46.927459 
L 811.290856 42.590354 
L 812.243183 39.157642 
L 813.19551 41.004495 
L 814.147837 45.273348 
L 815.100164 45.788621 
L 816.05249 41.516945 
L 817.004817 37.982831 
L 817.957144 39.700365 
L 818.909471 43.989143 
L 819.861797 44.646288 
L 820.814124 40.444075 
L 821.766451 36.811852 
L 822.718778 38.398111 
L 823.671105 42.702288 
L 824.623431 43.50041 
L 826.528085 35.644682 
L 827.480412 37.097841 
L 828.432738 41.412874 
L 829.385065 42.350936 
L 831.289719 34.481293 
L 832.242045 35.79966 
L 832.242045 35.79966 
" style="fill:none;stroke:#ffffff;stroke-linecap:square;stroke-width:1.5;"/>
   </g>
   <g id="text_17">
    <!-- Simulated data -->
    <defs>
     <path d="M 53.515625 70.515625 
L 53.515625 60.890625 
Q 47.90625 63.578125 42.921875 64.890625 
Q 37.9375 66.21875 33.296875 66.21875 
Q 25.25 66.21875 20.875 63.09375 
Q 16.5 59.96875 16.5 54.203125 
Q 16.5 49.359375 19.40625 46.890625 
Q 22.3125 44.4375 30.421875 42.921875 
L 36.375 41.703125 
Q 47.40625 39.59375 52.65625 34.296875 
Q 57.90625 29 57.90625 20.125 
Q 57.90625 9.515625 50.796875 4.046875 
Q 43.703125 -1.421875 29.984375 -1.421875 
Q 24.8125 -1.421875 18.96875 -0.25 
Q 13.140625 0.921875 6.890625 3.21875 
L 6.890625 13.375 
Q 12.890625 10.015625 18.65625 8.296875 
Q 24.421875 6.59375 29.984375 6.59375 
Q 38.421875 6.59375 43.015625 9.90625 
Q 47.609375 13.234375 47.609375 19.390625 
Q 47.609375 24.75 44.3125 27.78125 
Q 41.015625 30.8125 33.5 32.328125 
L 27.484375 33.5 
Q 16.453125 35.6875 11.515625 40.375 
Q 6.59375 45.0625 6.59375 53.421875 
Q 6.59375 63.09375 13.40625 68.65625 
Q 20.21875 74.21875 32.171875 74.21875 
Q 37.3125 74.21875 42.625 73.28125 
Q 47.953125 72.359375 53.515625 70.515625 
z
" id="DejaVuSans-83"/>
     <path d="M 9.421875 54.6875 
L 18.40625 54.6875 
L 18.40625 0 
L 9.421875 0 
z
M 9.421875 75.984375 
L 18.40625 75.984375 
L 18.40625 64.59375 
L 9.421875 64.59375 
z
" id="DejaVuSans-105"/>
     <path d="M 52 44.1875 
Q 55.375 50.25 60.0625 53.125 
Q 64.75 56 71.09375 56 
Q 79.640625 56 84.28125 50.015625 
Q 88.921875 44.046875 88.921875 33.015625 
L 88.921875 0 
L 79.890625 0 
L 79.890625 32.71875 
Q 79.890625 40.578125 77.09375 44.375 
Q 74.3125 48.1875 68.609375 48.1875 
Q 61.625 48.1875 57.5625 43.546875 
Q 53.515625 38.921875 53.515625 30.90625 
L 53.515625 0 
L 44.484375 0 
L 44.484375 32.71875 
Q 44.484375 40.625 41.703125 44.40625 
Q 38.921875 48.1875 33.109375 48.1875 
Q 26.21875 48.1875 22.15625 43.53125 
Q 18.109375 38.875 18.109375 30.90625 
L 18.109375 0 
L 9.078125 0 
L 9.078125 54.6875 
L 18.109375 54.6875 
L 18.109375 46.1875 
Q 21.1875 51.21875 25.484375 53.609375 
Q 29.78125 56 35.6875 56 
Q 41.65625 56 45.828125 52.96875 
Q 50 49.953125 52 44.1875 
z
" id="DejaVuSans-109"/>
     <path d="M 8.5 21.578125 
L 8.5 54.6875 
L 17.484375 54.6875 
L 17.484375 21.921875 
Q 17.484375 14.15625 20.5 10.265625 
Q 23.53125 6.390625 29.59375 6.390625 
Q 36.859375 6.390625 41.078125 11.03125 
Q 45.3125 15.671875 45.3125 23.6875 
L 45.3125 54.6875 
L 54.296875 54.6875 
L 54.296875 0 
L 45.3125 0 
L 45.3125 8.40625 
Q 42.046875 3.421875 37.71875 1 
Q 33.40625 -1.421875 27.6875 -1.421875 
Q 18.265625 -1.421875 13.375 4.4375 
Q 8.5 10.296875 8.5 21.578125 
z
M 31.109375 56 
z
" id="DejaVuSans-117"/>
     <path d="M 9.421875 75.984375 
L 18.40625 75.984375 
L 18.40625 0 
L 9.421875 0 
z
" id="DejaVuSans-108"/>
     <path d="M 34.28125 27.484375 
Q 23.390625 27.484375 19.1875 25 
Q 14.984375 22.515625 14.984375 16.5 
Q 14.984375 11.71875 18.140625 8.90625 
Q 21.296875 6.109375 26.703125 6.109375 
Q 34.1875 6.109375 38.703125 11.40625 
Q 43.21875 16.703125 43.21875 25.484375 
L 43.21875 27.484375 
z
M 52.203125 31.203125 
L 52.203125 0 
L 43.21875 0 
L 43.21875 8.296875 
Q 40.140625 3.328125 35.546875 0.953125 
Q 30.953125 -1.421875 24.3125 -1.421875 
Q 15.921875 -1.421875 10.953125 3.296875 
Q 6 8.015625 6 15.921875 
Q 6 25.140625 12.171875 29.828125 
Q 18.359375 34.515625 30.609375 34.515625 
L 43.21875 34.515625 
L 43.21875 35.40625 
Q 43.21875 41.609375 39.140625 45 
Q 35.0625 48.390625 27.6875 48.390625 
Q 23 48.390625 18.546875 47.265625 
Q 14.109375 46.140625 10.015625 43.890625 
L 10.015625 52.203125 
Q 14.9375 54.109375 19.578125 55.046875 
Q 24.21875 56 28.609375 56 
Q 40.484375 56 46.34375 49.84375 
Q 52.203125 43.703125 52.203125 31.203125 
z
" id="DejaVuSans-97"/>
     <path d="M 18.3125 70.21875 
L 18.3125 54.6875 
L 36.8125 54.6875 
L 36.8125 47.703125 
L 18.3125 47.703125 
L 18.3125 18.015625 
Q 18.3125 11.328125 20.140625 9.421875 
Q 21.96875 7.515625 27.59375 7.515625 
L 36.8125 7.515625 
L 36.8125 0 
L 27.59375 0 
Q 17.1875 0 13.234375 3.875 
Q 9.28125 7.765625 9.28125 18.015625 
L 9.28125 47.703125 
L 2.6875 47.703125 
L 2.6875 54.6875 
L 9.28125 54.6875 
L 9.28125 70.21875 
z
" id="DejaVuSans-116"/>
     <path d="M 56.203125 29.59375 
L 56.203125 25.203125 
L 14.890625 25.203125 
Q 15.484375 15.921875 20.484375 11.0625 
Q 25.484375 6.203125 34.421875 6.203125 
Q 39.59375 6.203125 44.453125 7.46875 
Q 49.3125 8.734375 54.109375 11.28125 
L 54.109375 2.78125 
Q 49.265625 0.734375 44.1875 -0.34375 
Q 39.109375 -1.421875 33.890625 -1.421875 
Q 20.796875 -1.421875 13.15625 6.1875 
Q 5.515625 13.8125 5.515625 26.8125 
Q 5.515625 40.234375 12.765625 48.109375 
Q 20.015625 56 32.328125 56 
Q 43.359375 56 49.78125 48.890625 
Q 56.203125 41.796875 56.203125 29.59375 
z
M 47.21875 32.234375 
Q 47.125 39.59375 43.09375 43.984375 
Q 39.0625 48.390625 32.421875 48.390625 
Q 24.90625 48.390625 20.390625 44.140625 
Q 15.875 39.890625 15.1875 32.171875 
z
" id="DejaVuSans-101"/>
     <path d="M 45.40625 46.390625 
L 45.40625 75.984375 
L 54.390625 75.984375 
L 54.390625 0 
L 45.40625 0 
L 45.40625 8.203125 
Q 42.578125 3.328125 38.25 0.953125 
Q 33.9375 -1.421875 27.875 -1.421875 
Q 17.96875 -1.421875 11.734375 6.484375 
Q 5.515625 14.40625 5.515625 27.296875 
Q 5.515625 40.1875 11.734375 48.09375 
Q 17.96875 56 27.875 56 
Q 33.9375 56 38.25 53.625 
Q 42.578125 51.265625 45.40625 46.390625 
z
M 14.796875 27.296875 
Q 14.796875 17.390625 18.875 11.75 
Q 22.953125 6.109375 30.078125 6.109375 
Q 37.203125 6.109375 41.296875 11.75 
Q 45.40625 17.390625 45.40625 27.296875 
Q 45.40625 37.203125 41.296875 42.84375 
Q 37.203125 48.484375 30.078125 48.484375 
Q 22.953125 48.484375 18.875 42.84375 
Q 14.796875 37.203125 14.796875 27.296875 
z
" id="DejaVuSans-100"/>
     <path id="DejaVuSans-32"/>
    </defs>
    <g style="fill:#ea9808;" transform="translate(394.610547 18.597656)scale(0.15 -0.15)">
     <use xlink:href="#DejaVuSans-83"/>
     <use x="63.476562" xlink:href="#DejaVuSans-105"/>
     <use x="91.259766" xlink:href="#DejaVuSans-109"/>
     <use x="188.671875" xlink:href="#DejaVuSans-117"/>
     <use x="252.050781" xlink:href="#DejaVuSans-108"/>
     <use x="279.833984" xlink:href="#DejaVuSans-97"/>
     <use x="341.113281" xlink:href="#DejaVuSans-116"/>
     <use x="380.322266" xlink:href="#DejaVuSans-101"/>
     <use x="441.845703" xlink:href="#DejaVuSans-100"/>
     <use x="505.322266" xlink:href="#DejaVuSans-32"/>
     <use x="537.109375" xlink:href="#DejaVuSans-100"/>
     <use x="600.585938" xlink:href="#DejaVuSans-97"/>
     <use x="661.865234" xlink:href="#DejaVuSans-116"/>
     <use x="701.074219" xlink:href="#DejaVuSans-97"/>
    </g>
   </g>
  </g>
 </g>
 <defs>
  <clipPath id="p07c2a873c6">
   <rect height="217.44" width="837" x="33.2875" y="24.597656"/>
  </clipPath>
 </defs>
</svg>